%TF.GenerationSoftware,KiCad,Pcbnew,10.0.6*%
%TF.CreationDate,2026-10-06T13:57:34+09:00*%
%TF.ProjectId,panel_8faces_32ch_R1,70616e65-6c5f-4386-9661-6365735f3332,rev?*%
%TF.SameCoordinates,Original*%
%TF.FileFunction,Legend,Bot*%
%TF.FilePolarity,Positive*%
%FSLAX46Y46*%
G04 Gerber Fmt 4.6, Leading zero omitted, Abs format (unit mm)*
G04 Created by KiCad (PCBNEW 10.0.6) date 2026-10-06 13:57:34*
%MOMM*%
%LPD*%
G01*
G04 APERTURE LIST*
%ADD10C,0.150000*%
G04 APERTURE END LIST*
D10*
X47833333Y-200454819D02*
X47214286Y-200454819D01*
X47214286Y-200454819D02*
X47547619Y-200835771D01*
X47547619Y-200835771D02*
X47404762Y-200835771D01*
X47404762Y-200835771D02*
X47309524Y-200883390D01*
X47309524Y-200883390D02*
X47261905Y-200931009D01*
X47261905Y-200931009D02*
X47214286Y-201026247D01*
X47214286Y-201026247D02*
X47214286Y-201264342D01*
X47214286Y-201264342D02*
X47261905Y-201359580D01*
X47261905Y-201359580D02*
X47309524Y-201407200D01*
X47309524Y-201407200D02*
X47404762Y-201454819D01*
X47404762Y-201454819D02*
X47690476Y-201454819D01*
X47690476Y-201454819D02*
X47785714Y-201407200D01*
X47785714Y-201407200D02*
X47833333Y-201359580D01*
X46833333Y-200550057D02*
X46785714Y-200502438D01*
X46785714Y-200502438D02*
X46690476Y-200454819D01*
X46690476Y-200454819D02*
X46452381Y-200454819D01*
X46452381Y-200454819D02*
X46357143Y-200502438D01*
X46357143Y-200502438D02*
X46309524Y-200550057D01*
X46309524Y-200550057D02*
X46261905Y-200645295D01*
X46261905Y-200645295D02*
X46261905Y-200740533D01*
X46261905Y-200740533D02*
X46309524Y-200883390D01*
X46309524Y-200883390D02*
X46880952Y-201454819D01*
X46880952Y-201454819D02*
X46261905Y-201454819D01*
X45261905Y-201359580D02*
X45309524Y-201407200D01*
X45309524Y-201407200D02*
X45452381Y-201454819D01*
X45452381Y-201454819D02*
X45547619Y-201454819D01*
X45547619Y-201454819D02*
X45690476Y-201407200D01*
X45690476Y-201407200D02*
X45785714Y-201311961D01*
X45785714Y-201311961D02*
X45833333Y-201216723D01*
X45833333Y-201216723D02*
X45880952Y-201026247D01*
X45880952Y-201026247D02*
X45880952Y-200883390D01*
X45880952Y-200883390D02*
X45833333Y-200692914D01*
X45833333Y-200692914D02*
X45785714Y-200597676D01*
X45785714Y-200597676D02*
X45690476Y-200502438D01*
X45690476Y-200502438D02*
X45547619Y-200454819D01*
X45547619Y-200454819D02*
X45452381Y-200454819D01*
X45452381Y-200454819D02*
X45309524Y-200502438D01*
X45309524Y-200502438D02*
X45261905Y-200550057D01*
X44833333Y-201454819D02*
X44833333Y-200454819D01*
X44833333Y-200931009D02*
X44261905Y-200931009D01*
X44261905Y-201454819D02*
X44261905Y-200454819D01*
X42452381Y-201454819D02*
X42785714Y-200978628D01*
X43023809Y-201454819D02*
X43023809Y-200454819D01*
X43023809Y-200454819D02*
X42642857Y-200454819D01*
X42642857Y-200454819D02*
X42547619Y-200502438D01*
X42547619Y-200502438D02*
X42500000Y-200550057D01*
X42500000Y-200550057D02*
X42452381Y-200645295D01*
X42452381Y-200645295D02*
X42452381Y-200788152D01*
X42452381Y-200788152D02*
X42500000Y-200883390D01*
X42500000Y-200883390D02*
X42547619Y-200931009D01*
X42547619Y-200931009D02*
X42642857Y-200978628D01*
X42642857Y-200978628D02*
X43023809Y-200978628D01*
X41500000Y-201454819D02*
X42071428Y-201454819D01*
X41785714Y-201454819D02*
X41785714Y-200454819D01*
X41785714Y-200454819D02*
X41880952Y-200597676D01*
X41880952Y-200597676D02*
X41976190Y-200692914D01*
X41976190Y-200692914D02*
X42071428Y-200740533D01*
X39595238Y-200407200D02*
X40452380Y-201692914D01*
X38071428Y-200788152D02*
X38071428Y-201454819D01*
X38309523Y-200407200D02*
X38547618Y-201121485D01*
X38547618Y-201121485D02*
X37928571Y-201121485D01*
X37642856Y-201454819D02*
X37119047Y-200788152D01*
X37642856Y-200788152D02*
X37119047Y-201454819D01*
X36595237Y-200883390D02*
X36690475Y-200835771D01*
X36690475Y-200835771D02*
X36738094Y-200788152D01*
X36738094Y-200788152D02*
X36785713Y-200692914D01*
X36785713Y-200692914D02*
X36785713Y-200645295D01*
X36785713Y-200645295D02*
X36738094Y-200550057D01*
X36738094Y-200550057D02*
X36690475Y-200502438D01*
X36690475Y-200502438D02*
X36595237Y-200454819D01*
X36595237Y-200454819D02*
X36404761Y-200454819D01*
X36404761Y-200454819D02*
X36309523Y-200502438D01*
X36309523Y-200502438D02*
X36261904Y-200550057D01*
X36261904Y-200550057D02*
X36214285Y-200645295D01*
X36214285Y-200645295D02*
X36214285Y-200692914D01*
X36214285Y-200692914D02*
X36261904Y-200788152D01*
X36261904Y-200788152D02*
X36309523Y-200835771D01*
X36309523Y-200835771D02*
X36404761Y-200883390D01*
X36404761Y-200883390D02*
X36595237Y-200883390D01*
X36595237Y-200883390D02*
X36690475Y-200931009D01*
X36690475Y-200931009D02*
X36738094Y-200978628D01*
X36738094Y-200978628D02*
X36785713Y-201073866D01*
X36785713Y-201073866D02*
X36785713Y-201264342D01*
X36785713Y-201264342D02*
X36738094Y-201359580D01*
X36738094Y-201359580D02*
X36690475Y-201407200D01*
X36690475Y-201407200D02*
X36595237Y-201454819D01*
X36595237Y-201454819D02*
X36404761Y-201454819D01*
X36404761Y-201454819D02*
X36309523Y-201407200D01*
X36309523Y-201407200D02*
X36261904Y-201359580D01*
X36261904Y-201359580D02*
X36214285Y-201264342D01*
X36214285Y-201264342D02*
X36214285Y-201073866D01*
X36214285Y-201073866D02*
X36261904Y-200978628D01*
X36261904Y-200978628D02*
X36309523Y-200931009D01*
X36309523Y-200931009D02*
X36404761Y-200883390D01*
M02*
