<?xml version="1.0" standalone="no"?>
 <!DOCTYPE svg PUBLIC "-//W3C//DTD SVG 1.1//EN" 
 "http://www.w3.org/Graphics/SVG/1.1/DTD/svg11.dtd"> 
<svg
  xmlns:svg="http://www.w3.org/2000/svg"
  xmlns="http://www.w3.org/2000/svg"
  xmlns:xlink="http://www.w3.org/1999/xlink"
  xmlns:inkscape="http://www.inkscape.org/namespaces/inkscape"
  version="1.1"
  width="297.0022mm" height="210.0072mm" viewBox="0.0000 0.0000 297.0022 210.0072">
<title>SVG Image created as panel_8faces_32ch_R1-NPTH-drl_map.svg date 2026-10-06T13:57:34 </title>
  <desc>Image generated by PCBNEW </desc>
<g style="fill:#000000; fill-opacity:1.0000;stroke:#000000; stroke-opacity:1.0000;
stroke-linecap:round; stroke-linejoin:round;"
 transform="translate(0 0) scale(1 1)">
</g>
<g style="fill:none; 
stroke:#000000; stroke-width:0.0259; stroke-opacity:1; 
stroke-linecap:round; stroke-linejoin:round;">
<path d="M126.7551 5.0129
L170.2471 5.0129
" />
<path d="M126.7551 120.9914
L126.7551 5.0129
" />
<path d="M170.2471 5.0129
L170.2471 120.9914
" />
<path d="M170.2471 120.9914
L126.7551 120.9914
" />
</g>
<g style="fill:none; 
stroke:#000000; stroke-width:0.1657; stroke-opacity:1; 
stroke-linecap:round; stroke-linejoin:round;">
<path d="M129.0333 9.8799
L130.6901 11.5367
" />
<path d="M130.6901 9.8799
L129.0333 11.5367
" />
<path d="M129.0333 114.4676
L130.6901 116.1244
" />
<path d="M130.6901 114.4676
L129.0333 116.1244
" />
<path d="M166.3121 9.8799
L167.9689 11.5367
" />
<path d="M167.9689 9.8799
L166.3121 11.5367
" />
<path d="M166.3121 114.4676
L167.9689 116.1244
" />
<path d="M167.9689 114.4676
L166.3121 116.1244
" />
</g>
<g style="fill:none; 
stroke:#000000; stroke-width:0.1036; stroke-opacity:1; 
stroke-linecap:round; stroke-linejoin:round;">
<text x="127.7777" y="122.6612"
textLength="7.6974" font-size="1.3807" lengthAdjust="spacingAndGlyphs"
text-anchor="start" opacity="0" stroke-opacity="0">Drill Map:</text>
<g class="stroked-text"><desc>Drill Map:</desc>
<path d="M128.0924 122.6171
L128.0924 121.5815
" />
<path d="M128.0924 121.5815
L128.3390 121.5815
" />
<path d="M128.3390 121.5815
L128.4869 121.6309
" />
<path d="M128.4869 121.6309
L128.5855 121.7295
" />
<path d="M128.5855 121.7295
L128.6348 121.8281
" />
<path d="M128.6348 121.8281
L128.6841 122.0253
" />
<path d="M128.6841 122.0253
L128.6841 122.1733
" />
<path d="M128.6841 122.1733
L128.6348 122.3705
" />
<path d="M128.6348 122.3705
L128.5855 122.4691
" />
<path d="M128.5855 122.4691
L128.4869 122.5678
" />
<path d="M128.4869 122.5678
L128.3390 122.6171
" />
<path d="M128.3390 122.6171
L128.0924 122.6171
" />
<path d="M129.1279 122.6171
L129.1279 121.9267
" />
<path d="M129.1279 122.1240
L129.1772 122.0253
" />
<path d="M129.1772 122.0253
L129.2265 121.9760
" />
<path d="M129.2265 121.9760
L129.3252 121.9267
" />
<path d="M129.3252 121.9267
L129.4238 121.9267
" />
<path d="M129.7690 122.6171
L129.7690 121.9267
" />
<path d="M129.7690 121.5815
L129.7196 121.6309
" />
<path d="M129.7196 121.6309
L129.7690 121.6802
" />
<path d="M129.7690 121.6802
L129.8183 121.6309
" />
<path d="M129.8183 121.6309
L129.7690 121.5815
" />
<path d="M129.7690 121.5815
L129.7690 121.6802
" />
<path d="M130.4100 122.6171
L130.3114 122.5678
" />
<path d="M130.3114 122.5678
L130.2621 122.4691
" />
<path d="M130.2621 122.4691
L130.2621 121.5815
" />
<path d="M130.9524 122.6171
L130.8538 122.5678
" />
<path d="M130.8538 122.5678
L130.8045 122.4691
" />
<path d="M130.8045 122.4691
L130.8045 121.5815
" />
<path d="M132.1359 122.6171
L132.1359 121.5815
" />
<path d="M132.1359 121.5815
L132.4810 122.3212
" />
<path d="M132.4810 122.3212
L132.8262 121.5815
" />
<path d="M132.8262 121.5815
L132.8262 122.6171
" />
<path d="M133.7631 122.6171
L133.7631 122.0746
" />
<path d="M133.7631 122.0746
L133.7138 121.9760
" />
<path d="M133.7138 121.9760
L133.6152 121.9267
" />
<path d="M133.6152 121.9267
L133.4179 121.9267
" />
<path d="M133.4179 121.9267
L133.3193 121.9760
" />
<path d="M133.7631 122.5678
L133.6645 122.6171
" />
<path d="M133.6645 122.6171
L133.4179 122.6171
" />
<path d="M133.4179 122.6171
L133.3193 122.5678
" />
<path d="M133.3193 122.5678
L133.2700 122.4691
" />
<path d="M133.2700 122.4691
L133.2700 122.3705
" />
<path d="M133.2700 122.3705
L133.3193 122.2719
" />
<path d="M133.3193 122.2719
L133.4179 122.2226
" />
<path d="M133.4179 122.2226
L133.6645 122.2226
" />
<path d="M133.6645 122.2226
L133.7631 122.1733
" />
<path d="M134.2562 121.9267
L134.2562 122.9622
" />
<path d="M134.2562 121.9760
L134.3548 121.9267
" />
<path d="M134.3548 121.9267
L134.5521 121.9267
" />
<path d="M134.5521 121.9267
L134.6507 121.9760
" />
<path d="M134.6507 121.9760
L134.7000 122.0253
" />
<path d="M134.7000 122.0253
L134.7493 122.1240
" />
<path d="M134.7493 122.1240
L134.7493 122.4198
" />
<path d="M134.7493 122.4198
L134.7000 122.5184
" />
<path d="M134.7000 122.5184
L134.6507 122.5678
" />
<path d="M134.6507 122.5678
L134.5521 122.6171
" />
<path d="M134.5521 122.6171
L134.3548 122.6171
" />
<path d="M134.3548 122.6171
L134.2562 122.5678
" />
<path d="M135.1931 122.5184
L135.2424 122.5678
" />
<path d="M135.2424 122.5678
L135.1931 122.6171
" />
<path d="M135.1931 122.6171
L135.1438 122.5678
" />
<path d="M135.1438 122.5678
L135.1931 122.5184
" />
<path d="M135.1931 122.5184
L135.1931 122.6171
" />
<path d="M135.1931 121.9760
L135.2424 122.0253
" />
<path d="M135.2424 122.0253
L135.1931 122.0746
" />
<path d="M135.1931 122.0746
L135.1438 122.0253
" />
<path d="M135.1438 122.0253
L135.1931 121.9760
" />
<path d="M135.1931 121.9760
L135.1931 122.0746
" />
</g><path d="M125.7067 123.8002
L126.7422 124.8358
" />
<path d="M126.7422 123.8002
L125.7067 124.8358
" />
<text x="127.7777" y="124.8358"
textLength="34.5223" font-size="1.3807" lengthAdjust="spacingAndGlyphs"
text-anchor="start" opacity="0" stroke-opacity="0">3.200mm / 0.1260" (4 holes) (not plated)</text>
<g class="stroked-text"><desc>3.200mm / 0.1260" (4 holes) (not plated)</desc>
<path d="M127.9938 123.7561
L128.6348 123.7561
" />
<path d="M128.6348 123.7561
L128.2896 124.1506
" />
<path d="M128.2896 124.1506
L128.4376 124.1506
" />
<path d="M128.4376 124.1506
L128.5362 124.1999
" />
<path d="M128.5362 124.1999
L128.5855 124.2492
" />
<path d="M128.5855 124.2492
L128.6348 124.3479
" />
<path d="M128.6348 124.3479
L128.6348 124.5944
" />
<path d="M128.6348 124.5944
L128.5855 124.6930
" />
<path d="M128.5855 124.6930
L128.5362 124.7423
" />
<path d="M128.5362 124.7423
L128.4376 124.7917
" />
<path d="M128.4376 124.7917
L128.1417 124.7917
" />
<path d="M128.1417 124.7917
L128.0431 124.7423
" />
<path d="M128.0431 124.7423
L127.9938 124.6930
" />
<path d="M129.0786 124.6930
L129.1279 124.7423
" />
<path d="M129.1279 124.7423
L129.0786 124.7917
" />
<path d="M129.0786 124.7917
L129.0293 124.7423
" />
<path d="M129.0293 124.7423
L129.0786 124.6930
" />
<path d="M129.0786 124.6930
L129.0786 124.7917
" />
<path d="M129.5224 123.8548
L129.5717 123.8054
" />
<path d="M129.5717 123.8054
L129.6703 123.7561
" />
<path d="M129.6703 123.7561
L129.9169 123.7561
" />
<path d="M129.9169 123.7561
L130.0155 123.8054
" />
<path d="M130.0155 123.8054
L130.0648 123.8548
" />
<path d="M130.0648 123.8548
L130.1141 123.9534
" />
<path d="M130.1141 123.9534
L130.1141 124.0520
" />
<path d="M130.1141 124.0520
L130.0648 124.1999
" />
<path d="M130.0648 124.1999
L129.4731 124.7917
" />
<path d="M129.4731 124.7917
L130.1141 124.7917
" />
<path d="M130.7552 123.7561
L130.8538 123.7561
" />
<path d="M130.8538 123.7561
L130.9524 123.8054
" />
<path d="M130.9524 123.8054
L131.0017 123.8548
" />
<path d="M131.0017 123.8548
L131.0510 123.9534
" />
<path d="M131.0510 123.9534
L131.1003 124.1506
" />
<path d="M131.1003 124.1506
L131.1003 124.3972
" />
<path d="M131.1003 124.3972
L131.0510 124.5944
" />
<path d="M131.0510 124.5944
L131.0017 124.6930
" />
<path d="M131.0017 124.6930
L130.9524 124.7423
" />
<path d="M130.9524 124.7423
L130.8538 124.7917
" />
<path d="M130.8538 124.7917
L130.7552 124.7917
" />
<path d="M130.7552 124.7917
L130.6565 124.7423
" />
<path d="M130.6565 124.7423
L130.6072 124.6930
" />
<path d="M130.6072 124.6930
L130.5579 124.5944
" />
<path d="M130.5579 124.5944
L130.5086 124.3972
" />
<path d="M130.5086 124.3972
L130.5086 124.1506
" />
<path d="M130.5086 124.1506
L130.5579 123.9534
" />
<path d="M130.5579 123.9534
L130.6072 123.8548
" />
<path d="M130.6072 123.8548
L130.6565 123.8054
" />
<path d="M130.6565 123.8054
L130.7552 123.7561
" />
<path d="M131.7414 123.7561
L131.8400 123.7561
" />
<path d="M131.8400 123.7561
L131.9386 123.8054
" />
<path d="M131.9386 123.8054
L131.9879 123.8548
" />
<path d="M131.9879 123.8548
L132.0372 123.9534
" />
<path d="M132.0372 123.9534
L132.0866 124.1506
" />
<path d="M132.0866 124.1506
L132.0866 124.3972
" />
<path d="M132.0866 124.3972
L132.0372 124.5944
" />
<path d="M132.0372 124.5944
L131.9879 124.6930
" />
<path d="M131.9879 124.6930
L131.9386 124.7423
" />
<path d="M131.9386 124.7423
L131.8400 124.7917
" />
<path d="M131.8400 124.7917
L131.7414 124.7917
" />
<path d="M131.7414 124.7917
L131.6428 124.7423
" />
<path d="M131.6428 124.7423
L131.5935 124.6930
" />
<path d="M131.5935 124.6930
L131.5441 124.5944
" />
<path d="M131.5441 124.5944
L131.4948 124.3972
" />
<path d="M131.4948 124.3972
L131.4948 124.1506
" />
<path d="M131.4948 124.1506
L131.5441 123.9534
" />
<path d="M131.5441 123.9534
L131.5935 123.8548
" />
<path d="M131.5935 123.8548
L131.6428 123.8054
" />
<path d="M131.6428 123.8054
L131.7414 123.7561
" />
<path d="M132.5304 124.7917
L132.5304 124.1013
" />
<path d="M132.5304 124.1999
L132.5797 124.1506
" />
<path d="M132.5797 124.1506
L132.6783 124.1013
" />
<path d="M132.6783 124.1013
L132.8262 124.1013
" />
<path d="M132.8262 124.1013
L132.9248 124.1506
" />
<path d="M132.9248 124.1506
L132.9741 124.2492
" />
<path d="M132.9741 124.2492
L132.9741 124.7917
" />
<path d="M132.9741 124.2492
L133.0235 124.1506
" />
<path d="M133.0235 124.1506
L133.1221 124.1013
" />
<path d="M133.1221 124.1013
L133.2700 124.1013
" />
<path d="M133.2700 124.1013
L133.3686 124.1506
" />
<path d="M133.3686 124.1506
L133.4179 124.2492
" />
<path d="M133.4179 124.2492
L133.4179 124.7917
" />
<path d="M133.9110 124.7917
L133.9110 124.1013
" />
<path d="M133.9110 124.1999
L133.9604 124.1506
" />
<path d="M133.9604 124.1506
L134.0590 124.1013
" />
<path d="M134.0590 124.1013
L134.2069 124.1013
" />
<path d="M134.2069 124.1013
L134.3055 124.1506
" />
<path d="M134.3055 124.1506
L134.3548 124.2492
" />
<path d="M134.3548 124.2492
L134.3548 124.7917
" />
<path d="M134.3548 124.2492
L134.4042 124.1506
" />
<path d="M134.4042 124.1506
L134.5028 124.1013
" />
<path d="M134.5028 124.1013
L134.6507 124.1013
" />
<path d="M134.6507 124.1013
L134.7493 124.1506
" />
<path d="M134.7493 124.1506
L134.7986 124.2492
" />
<path d="M134.7986 124.2492
L134.7986 124.7917
" />
<path d="M136.8204 123.7068
L135.9328 125.0382
" />
<path d="M138.1518 123.7561
L138.2504 123.7561
" />
<path d="M138.2504 123.7561
L138.3490 123.8054
" />
<path d="M138.3490 123.8054
L138.3983 123.8548
" />
<path d="M138.3983 123.8548
L138.4476 123.9534
" />
<path d="M138.4476 123.9534
L138.4969 124.1506
" />
<path d="M138.4969 124.1506
L138.4969 124.3972
" />
<path d="M138.4969 124.3972
L138.4476 124.5944
" />
<path d="M138.4476 124.5944
L138.3983 124.6930
" />
<path d="M138.3983 124.6930
L138.3490 124.7423
" />
<path d="M138.3490 124.7423
L138.2504 124.7917
" />
<path d="M138.2504 124.7917
L138.1518 124.7917
" />
<path d="M138.1518 124.7917
L138.0531 124.7423
" />
<path d="M138.0531 124.7423
L138.0038 124.6930
" />
<path d="M138.0038 124.6930
L137.9545 124.5944
" />
<path d="M137.9545 124.5944
L137.9052 124.3972
" />
<path d="M137.9052 124.3972
L137.9052 124.1506
" />
<path d="M137.9052 124.1506
L137.9545 123.9534
" />
<path d="M137.9545 123.9534
L138.0038 123.8548
" />
<path d="M138.0038 123.8548
L138.0531 123.8054
" />
<path d="M138.0531 123.8054
L138.1518 123.7561
" />
<path d="M138.9407 124.6930
L138.9900 124.7423
" />
<path d="M138.9900 124.7423
L138.9407 124.7917
" />
<path d="M138.9407 124.7917
L138.8914 124.7423
" />
<path d="M138.8914 124.7423
L138.9407 124.6930
" />
<path d="M138.9407 124.6930
L138.9407 124.7917
" />
<path d="M139.9762 124.7917
L139.3845 124.7917
" />
<path d="M139.6804 124.7917
L139.6804 123.7561
" />
<path d="M139.6804 123.7561
L139.5818 123.9041
" />
<path d="M139.5818 123.9041
L139.4831 124.0027
" />
<path d="M139.4831 124.0027
L139.3845 124.0520
" />
<path d="M140.3707 123.8548
L140.4200 123.8054
" />
<path d="M140.4200 123.8054
L140.5187 123.7561
" />
<path d="M140.5187 123.7561
L140.7652 123.7561
" />
<path d="M140.7652 123.7561
L140.8638 123.8054
" />
<path d="M140.8638 123.8054
L140.9131 123.8548
" />
<path d="M140.9131 123.8548
L140.9625 123.9534
" />
<path d="M140.9625 123.9534
L140.9625 124.0520
" />
<path d="M140.9625 124.0520
L140.9131 124.1999
" />
<path d="M140.9131 124.1999
L140.3214 124.7917
" />
<path d="M140.3214 124.7917
L140.9625 124.7917
" />
<path d="M141.8500 123.7561
L141.6528 123.7561
" />
<path d="M141.6528 123.7561
L141.5542 123.8054
" />
<path d="M141.5542 123.8054
L141.5049 123.8548
" />
<path d="M141.5049 123.8548
L141.4063 124.0027
" />
<path d="M141.4063 124.0027
L141.3569 124.1999
" />
<path d="M141.3569 124.1999
L141.3569 124.5944
" />
<path d="M141.3569 124.5944
L141.4063 124.6930
" />
<path d="M141.4063 124.6930
L141.4556 124.7423
" />
<path d="M141.4556 124.7423
L141.5542 124.7917
" />
<path d="M141.5542 124.7917
L141.7514 124.7917
" />
<path d="M141.7514 124.7917
L141.8500 124.7423
" />
<path d="M141.8500 124.7423
L141.8994 124.6930
" />
<path d="M141.8994 124.6930
L141.9487 124.5944
" />
<path d="M141.9487 124.5944
L141.9487 124.3479
" />
<path d="M141.9487 124.3479
L141.8994 124.2492
" />
<path d="M141.8994 124.2492
L141.8500 124.1999
" />
<path d="M141.8500 124.1999
L141.7514 124.1506
" />
<path d="M141.7514 124.1506
L141.5542 124.1506
" />
<path d="M141.5542 124.1506
L141.4556 124.1999
" />
<path d="M141.4556 124.1999
L141.4063 124.2492
" />
<path d="M141.4063 124.2492
L141.3569 124.3479
" />
<path d="M142.5897 123.7561
L142.6883 123.7561
" />
<path d="M142.6883 123.7561
L142.7869 123.8054
" />
<path d="M142.7869 123.8054
L142.8363 123.8548
" />
<path d="M142.8363 123.8548
L142.8856 123.9534
" />
<path d="M142.8856 123.9534
L142.9349 124.1506
" />
<path d="M142.9349 124.1506
L142.9349 124.3972
" />
<path d="M142.9349 124.3972
L142.8856 124.5944
" />
<path d="M142.8856 124.5944
L142.8363 124.6930
" />
<path d="M142.8363 124.6930
L142.7869 124.7423
" />
<path d="M142.7869 124.7423
L142.6883 124.7917
" />
<path d="M142.6883 124.7917
L142.5897 124.7917
" />
<path d="M142.5897 124.7917
L142.4911 124.7423
" />
<path d="M142.4911 124.7423
L142.4418 124.6930
" />
<path d="M142.4418 124.6930
L142.3925 124.5944
" />
<path d="M142.3925 124.5944
L142.3432 124.3972
" />
<path d="M142.3432 124.3972
L142.3432 124.1506
" />
<path d="M142.3432 124.1506
L142.3925 123.9534
" />
<path d="M142.3925 123.9534
L142.4418 123.8548
" />
<path d="M142.4418 123.8548
L142.4911 123.8054
" />
<path d="M142.4911 123.8054
L142.5897 123.7561
" />
<path d="M143.3294 123.7561
L143.3294 123.9534
" />
<path d="M143.7238 123.7561
L143.7238 123.9534
" />
<path d="M145.2525 125.1861
L145.2032 125.1368
" />
<path d="M145.2032 125.1368
L145.1045 124.9889
" />
<path d="M145.1045 124.9889
L145.0552 124.8903
" />
<path d="M145.0552 124.8903
L145.0059 124.7423
" />
<path d="M145.0059 124.7423
L144.9566 124.4958
" />
<path d="M144.9566 124.4958
L144.9566 124.2986
" />
<path d="M144.9566 124.2986
L145.0059 124.0520
" />
<path d="M145.0059 124.0520
L145.0552 123.9041
" />
<path d="M145.0552 123.9041
L145.1045 123.8054
" />
<path d="M145.1045 123.8054
L145.2032 123.6575
" />
<path d="M145.2032 123.6575
L145.2525 123.6082
" />
<path d="M146.0908 124.1013
L146.0908 124.7917
" />
<path d="M145.8442 123.7068
L145.5977 124.4465
" />
<path d="M145.5977 124.4465
L146.2387 124.4465
" />
<path d="M147.4221 124.7917
L147.4221 123.7561
" />
<path d="M147.8659 124.7917
L147.8659 124.2492
" />
<path d="M147.8659 124.2492
L147.8166 124.1506
" />
<path d="M147.8166 124.1506
L147.7180 124.1013
" />
<path d="M147.7180 124.1013
L147.5701 124.1013
" />
<path d="M147.5701 124.1013
L147.4715 124.1506
" />
<path d="M147.4715 124.1506
L147.4221 124.1999
" />
<path d="M148.5070 124.7917
L148.4084 124.7423
" />
<path d="M148.4084 124.7423
L148.3590 124.6930
" />
<path d="M148.3590 124.6930
L148.3097 124.5944
" />
<path d="M148.3097 124.5944
L148.3097 124.2986
" />
<path d="M148.3097 124.2986
L148.3590 124.1999
" />
<path d="M148.3590 124.1999
L148.4084 124.1506
" />
<path d="M148.4084 124.1506
L148.5070 124.1013
" />
<path d="M148.5070 124.1013
L148.6549 124.1013
" />
<path d="M148.6549 124.1013
L148.7535 124.1506
" />
<path d="M148.7535 124.1506
L148.8028 124.1999
" />
<path d="M148.8028 124.1999
L148.8521 124.2986
" />
<path d="M148.8521 124.2986
L148.8521 124.5944
" />
<path d="M148.8521 124.5944
L148.8028 124.6930
" />
<path d="M148.8028 124.6930
L148.7535 124.7423
" />
<path d="M148.7535 124.7423
L148.6549 124.7917
" />
<path d="M148.6549 124.7917
L148.5070 124.7917
" />
<path d="M149.4439 124.7917
L149.3453 124.7423
" />
<path d="M149.3453 124.7423
L149.2959 124.6437
" />
<path d="M149.2959 124.6437
L149.2959 123.7561
" />
<path d="M150.2328 124.7423
L150.1342 124.7917
" />
<path d="M150.1342 124.7917
L149.9370 124.7917
" />
<path d="M149.9370 124.7917
L149.8384 124.7423
" />
<path d="M149.8384 124.7423
L149.7890 124.6437
" />
<path d="M149.7890 124.6437
L149.7890 124.2492
" />
<path d="M149.7890 124.2492
L149.8384 124.1506
" />
<path d="M149.8384 124.1506
L149.9370 124.1013
" />
<path d="M149.9370 124.1013
L150.1342 124.1013
" />
<path d="M150.1342 124.1013
L150.2328 124.1506
" />
<path d="M150.2328 124.1506
L150.2822 124.2492
" />
<path d="M150.2822 124.2492
L150.2822 124.3479
" />
<path d="M150.2822 124.3479
L149.7890 124.4465
" />
<path d="M150.6766 124.7423
L150.7753 124.7917
" />
<path d="M150.7753 124.7917
L150.9725 124.7917
" />
<path d="M150.9725 124.7917
L151.0711 124.7423
" />
<path d="M151.0711 124.7423
L151.1204 124.6437
" />
<path d="M151.1204 124.6437
L151.1204 124.5944
" />
<path d="M151.1204 124.5944
L151.0711 124.4958
" />
<path d="M151.0711 124.4958
L150.9725 124.4465
" />
<path d="M150.9725 124.4465
L150.8246 124.4465
" />
<path d="M150.8246 124.4465
L150.7259 124.3972
" />
<path d="M150.7259 124.3972
L150.6766 124.2986
" />
<path d="M150.6766 124.2986
L150.6766 124.2492
" />
<path d="M150.6766 124.2492
L150.7259 124.1506
" />
<path d="M150.7259 124.1506
L150.8246 124.1013
" />
<path d="M150.8246 124.1013
L150.9725 124.1013
" />
<path d="M150.9725 124.1013
L151.0711 124.1506
" />
<path d="M151.4656 125.1861
L151.5149 125.1368
" />
<path d="M151.5149 125.1368
L151.6135 124.9889
" />
<path d="M151.6135 124.9889
L151.6628 124.8903
" />
<path d="M151.6628 124.8903
L151.7122 124.7423
" />
<path d="M151.7122 124.7423
L151.7615 124.4958
" />
<path d="M151.7615 124.4958
L151.7615 124.2986
" />
<path d="M151.7615 124.2986
L151.7122 124.0520
" />
<path d="M151.7122 124.0520
L151.6628 123.9041
" />
<path d="M151.6628 123.9041
L151.6135 123.8054
" />
<path d="M151.6135 123.8054
L151.5149 123.6575
" />
<path d="M151.5149 123.6575
L151.4656 123.6082
" />
<path d="M153.3394 125.1861
L153.2901 125.1368
" />
<path d="M153.2901 125.1368
L153.1915 124.9889
" />
<path d="M153.1915 124.9889
L153.1422 124.8903
" />
<path d="M153.1422 124.8903
L153.0929 124.7423
" />
<path d="M153.0929 124.7423
L153.0435 124.4958
" />
<path d="M153.0435 124.4958
L153.0435 124.2986
" />
<path d="M153.0435 124.2986
L153.0929 124.0520
" />
<path d="M153.0929 124.0520
L153.1422 123.9041
" />
<path d="M153.1422 123.9041
L153.1915 123.8054
" />
<path d="M153.1915 123.8054
L153.2901 123.6575
" />
<path d="M153.2901 123.6575
L153.3394 123.6082
" />
<path d="M153.7339 124.1013
L153.7339 124.7917
" />
<path d="M153.7339 124.1999
L153.7832 124.1506
" />
<path d="M153.7832 124.1506
L153.8818 124.1013
" />
<path d="M153.8818 124.1013
L154.0298 124.1013
" />
<path d="M154.0298 124.1013
L154.1284 124.1506
" />
<path d="M154.1284 124.1506
L154.1777 124.2492
" />
<path d="M154.1777 124.2492
L154.1777 124.7917
" />
<path d="M154.8187 124.7917
L154.7201 124.7423
" />
<path d="M154.7201 124.7423
L154.6708 124.6930
" />
<path d="M154.6708 124.6930
L154.6215 124.5944
" />
<path d="M154.6215 124.5944
L154.6215 124.2986
" />
<path d="M154.6215 124.2986
L154.6708 124.1999
" />
<path d="M154.6708 124.1999
L154.7201 124.1506
" />
<path d="M154.7201 124.1506
L154.8187 124.1013
" />
<path d="M154.8187 124.1013
L154.9667 124.1013
" />
<path d="M154.9667 124.1013
L155.0653 124.1506
" />
<path d="M155.0653 124.1506
L155.1146 124.1999
" />
<path d="M155.1146 124.1999
L155.1639 124.2986
" />
<path d="M155.1639 124.2986
L155.1639 124.5944
" />
<path d="M155.1639 124.5944
L155.1146 124.6930
" />
<path d="M155.1146 124.6930
L155.0653 124.7423
" />
<path d="M155.0653 124.7423
L154.9667 124.7917
" />
<path d="M154.9667 124.7917
L154.8187 124.7917
" />
<path d="M155.4598 124.1013
L155.8542 124.1013
" />
<path d="M155.6077 123.7561
L155.6077 124.6437
" />
<path d="M155.6077 124.6437
L155.6570 124.7423
" />
<path d="M155.6570 124.7423
L155.7556 124.7917
" />
<path d="M155.7556 124.7917
L155.8542 124.7917
" />
<path d="M156.9884 124.1013
L156.9884 125.1368
" />
<path d="M156.9884 124.1506
L157.0870 124.1013
" />
<path d="M157.0870 124.1013
L157.2843 124.1013
" />
<path d="M157.2843 124.1013
L157.3829 124.1506
" />
<path d="M157.3829 124.1506
L157.4322 124.1999
" />
<path d="M157.4322 124.1999
L157.4815 124.2986
" />
<path d="M157.4815 124.2986
L157.4815 124.5944
" />
<path d="M157.4815 124.5944
L157.4322 124.6930
" />
<path d="M157.4322 124.6930
L157.3829 124.7423
" />
<path d="M157.3829 124.7423
L157.2843 124.7917
" />
<path d="M157.2843 124.7917
L157.0870 124.7917
" />
<path d="M157.0870 124.7917
L156.9884 124.7423
" />
<path d="M158.0732 124.7917
L157.9746 124.7423
" />
<path d="M157.9746 124.7423
L157.9253 124.6437
" />
<path d="M157.9253 124.6437
L157.9253 123.7561
" />
<path d="M158.9115 124.7917
L158.9115 124.2492
" />
<path d="M158.9115 124.2492
L158.8622 124.1506
" />
<path d="M158.8622 124.1506
L158.7636 124.1013
" />
<path d="M158.7636 124.1013
L158.5663 124.1013
" />
<path d="M158.5663 124.1013
L158.4677 124.1506
" />
<path d="M158.9115 124.7423
L158.8129 124.7917
" />
<path d="M158.8129 124.7917
L158.5663 124.7917
" />
<path d="M158.5663 124.7917
L158.4677 124.7423
" />
<path d="M158.4677 124.7423
L158.4184 124.6437
" />
<path d="M158.4184 124.6437
L158.4184 124.5451
" />
<path d="M158.4184 124.5451
L158.4677 124.4465
" />
<path d="M158.4677 124.4465
L158.5663 124.3972
" />
<path d="M158.5663 124.3972
L158.8129 124.3972
" />
<path d="M158.8129 124.3972
L158.9115 124.3479
" />
<path d="M159.2567 124.1013
L159.6512 124.1013
" />
<path d="M159.4046 123.7561
L159.4046 124.6437
" />
<path d="M159.4046 124.6437
L159.4539 124.7423
" />
<path d="M159.4539 124.7423
L159.5525 124.7917
" />
<path d="M159.5525 124.7917
L159.6512 124.7917
" />
<path d="M160.3908 124.7423
L160.2922 124.7917
" />
<path d="M160.2922 124.7917
L160.0950 124.7917
" />
<path d="M160.0950 124.7917
L159.9963 124.7423
" />
<path d="M159.9963 124.7423
L159.9470 124.6437
" />
<path d="M159.9470 124.6437
L159.9470 124.2492
" />
<path d="M159.9470 124.2492
L159.9963 124.1506
" />
<path d="M159.9963 124.1506
L160.0950 124.1013
" />
<path d="M160.0950 124.1013
L160.2922 124.1013
" />
<path d="M160.2922 124.1013
L160.3908 124.1506
" />
<path d="M160.3908 124.1506
L160.4401 124.2492
" />
<path d="M160.4401 124.2492
L160.4401 124.3479
" />
<path d="M160.4401 124.3479
L159.9470 124.4465
" />
<path d="M161.3277 124.7917
L161.3277 123.7561
" />
<path d="M161.3277 124.7423
L161.2291 124.7917
" />
<path d="M161.2291 124.7917
L161.0319 124.7917
" />
<path d="M161.0319 124.7917
L160.9332 124.7423
" />
<path d="M160.9332 124.7423
L160.8839 124.6930
" />
<path d="M160.8839 124.6930
L160.8346 124.5944
" />
<path d="M160.8346 124.5944
L160.8346 124.2986
" />
<path d="M160.8346 124.2986
L160.8839 124.1999
" />
<path d="M160.8839 124.1999
L160.9332 124.1506
" />
<path d="M160.9332 124.1506
L161.0319 124.1013
" />
<path d="M161.0319 124.1013
L161.2291 124.1013
" />
<path d="M161.2291 124.1013
L161.3277 124.1506
" />
<path d="M161.7222 125.1861
L161.7715 125.1368
" />
<path d="M161.7715 125.1368
L161.8701 124.9889
" />
<path d="M161.8701 124.9889
L161.9194 124.8903
" />
<path d="M161.9194 124.8903
L161.9688 124.7423
" />
<path d="M161.9688 124.7423
L162.0181 124.4958
" />
<path d="M162.0181 124.4958
L162.0181 124.2986
" />
<path d="M162.0181 124.2986
L161.9688 124.0520
" />
<path d="M161.9688 124.0520
L161.9194 123.9041
" />
<path d="M161.9194 123.9041
L161.8701 123.8054
" />
<path d="M161.8701 123.8054
L161.7715 123.6575
" />
<path d="M161.7715 123.6575
L161.7222 123.6082
" />
</g></g> 
</svg>
