M48
; DRILL file KiCad 10.0.6 date 2026-10-06T13:57:34
; FORMAT={-:-/ absolute / metric / decimal}
; #@! TF.CreationDate,2026-10-06T13:57:34+09:00
; #@! TF.GenerationSoftware,Kicad,Pcbnew,10.0.6
; #@! TF.FileFunction,Plated,1,2,PTH
FMAT,2
METRIC
; #@! TA.AperFunction,Plated,PTH,ViaDrill
T1C0.300
; #@! TA.AperFunction,Plated,PTH,ComponentDrill
T2C0.800
; #@! TA.AperFunction,Plated,PTH,ComponentDrill
T3C1.000
; #@! TA.AperFunction,Plated,PTH,ComponentDrill
T4C1.500
%
G90
G05
T1
X1.2Y-27.0
X1.2Y-37.0
X1.2Y-47.0
X1.2Y-57.0
X1.2Y-67.0
X1.2Y-77.0
X1.2Y-87.0
X1.2Y-97.0
X1.2Y-107.0
X1.2Y-117.0
X1.2Y-127.0
X1.2Y-137.0
X1.2Y-147.0
X1.2Y-157.0
X1.2Y-167.0
X1.2Y-177.0
X1.2Y-187.0
X1.2Y-197.0
X2.909Y-167.896
X3.909Y-167.896
X4.003Y-197.085
X5.003Y-198.085
X8.428Y-176.094
X9.428Y-176.094
X9.428Y-196.806
X9.428Y-197.806
X13.115Y-111.213
X14.087Y-51.214
X14.115Y-111.213
X14.996Y-70.909
X15.087Y-52.214
X15.178Y-132.312
X15.898Y-101.38
X16.178Y-132.312
X16.957Y-171.485
X17.211Y-39.769
X17.211Y-59.769
X17.211Y-119.769
X17.243Y-140.991
X17.265Y-70.715
X17.265Y-71.715
X17.605Y-151.374
X17.934Y-81.365
X18.025Y-182.898
X18.211Y-40.769
X18.211Y-60.769
X18.211Y-120.769
X18.241Y-100.739
X18.241Y-180.739
X18.243Y-141.991
X18.246Y-72.009
X18.247Y-43.279
X18.247Y-101.991
X18.247Y-123.279
X18.253Y-157.266
X19.163Y-157.749
X19.525Y-79.284
X20.678Y-158.755
X20.799Y-149.469
X20.828Y-131.261
X21.011Y-151.365
X21.027Y-69.698
X21.477Y-186.639
X21.805Y-192.972
X21.828Y-132.261
X21.829Y-41.102
X22.035Y-175.185
X22.316Y-74.62
X22.475Y-154.549
X22.75Y-151.124
X22.829Y-41.102
X22.832Y-68.825
X22.969Y-70.095
X22.97Y-71.365
X22.976Y-73.996
X22.981Y-150.307
X22.987Y-155.175
X25.56Y-91.757
X26.11Y-187.06
X26.138Y-72.916
X26.202Y-86.977
X26.22Y-166.875
X26.827Y-150.749
X26.954Y-153.679
X27.05Y-49.35
X27.05Y-64.734
X27.671Y-144.495
X28.05Y-49.35
X28.05Y-64.734
X29.171Y-144.495
X38.087Y-194.771
X39.087Y-194.771
X39.711Y-187.413
X40.711Y-187.413
X42.0Y-27.0
X42.0Y-37.0
X42.0Y-47.0
X42.0Y-57.0
X42.0Y-67.0
X42.0Y-77.0
X42.0Y-87.0
X42.0Y-97.0
X42.0Y-107.0
X42.0Y-117.0
X42.0Y-127.0
X42.0Y-137.0
X42.0Y-147.0
X42.0Y-157.0
X42.0Y-167.0
X42.0Y-177.0
X42.0Y-187.0
X42.0Y-197.0
X42.909Y-167.896
X43.909Y-167.896
X44.003Y-197.085
X45.003Y-198.085
X48.428Y-176.094
X49.428Y-176.094
X49.428Y-196.806
X49.428Y-197.806
X53.115Y-111.213
X54.087Y-51.214
X54.115Y-111.213
X54.996Y-70.909
X55.087Y-52.214
X55.178Y-132.312
X55.898Y-101.38
X56.178Y-132.312
X56.957Y-171.485
X57.211Y-39.769
X57.211Y-59.769
X57.211Y-119.769
X57.243Y-140.991
X57.265Y-70.715
X57.265Y-71.715
X57.605Y-151.374
X57.934Y-81.365
X58.025Y-182.898
X58.211Y-40.769
X58.211Y-60.769
X58.211Y-120.769
X58.24Y-100.739
X58.24Y-180.739
X58.243Y-141.991
X58.246Y-72.009
X58.247Y-43.279
X58.247Y-101.991
X58.247Y-123.279
X58.253Y-157.266
X59.163Y-157.749
X59.525Y-79.284
X60.678Y-158.755
X60.799Y-149.469
X60.828Y-131.261
X61.011Y-151.365
X61.027Y-69.698
X61.477Y-186.639
X61.805Y-192.972
X61.828Y-132.261
X61.829Y-41.102
X62.035Y-175.185
X62.316Y-74.62
X62.475Y-154.549
X62.75Y-151.124
X62.829Y-41.102
X62.832Y-68.825
X62.969Y-70.095
X62.97Y-71.365
X62.976Y-73.996
X62.981Y-150.307
X62.987Y-155.175
X65.56Y-91.757
X66.11Y-187.06
X66.138Y-72.916
X66.202Y-86.977
X66.219Y-166.875
X66.827Y-150.749
X66.954Y-153.679
X67.05Y-49.35
X67.05Y-64.734
X67.671Y-144.495
X68.05Y-49.35
X68.05Y-64.734
X69.171Y-144.495
X78.087Y-194.771
X79.087Y-194.771
X79.711Y-187.413
X80.711Y-187.413
X82.8Y-27.0
X82.8Y-37.0
X82.8Y-47.0
X82.8Y-57.0
X82.8Y-67.0
X82.8Y-77.0
X82.8Y-87.0
X82.8Y-97.0
X82.8Y-107.0
X82.8Y-117.0
X82.8Y-127.0
X82.8Y-137.0
X82.8Y-147.0
X82.8Y-157.0
X82.8Y-167.0
X82.8Y-177.0
X82.8Y-187.0
X82.8Y-197.0
T2
X35.0Y-29.0
X37.5Y-29.0
X75.0Y-29.0
X77.5Y-29.0
T3
X16.92Y-195.0
X16.92Y-197.54
X19.46Y-28.0
X19.46Y-195.0
X19.46Y-197.54
X22.0Y-28.0
X22.0Y-195.0
X22.0Y-197.54
X24.54Y-28.0
X24.54Y-195.0
X24.54Y-197.54
X27.08Y-195.0
X27.08Y-197.54
X56.92Y-195.0
X56.92Y-197.54
X59.46Y-28.0
X59.46Y-195.0
X59.46Y-197.54
X62.0Y-28.0
X62.0Y-195.0
X62.0Y-197.54
X64.54Y-28.0
X64.54Y-195.0
X64.54Y-197.54
X67.08Y-195.0
X67.08Y-197.54
T4
X13.0Y-37.0
X13.0Y-47.0
X13.0Y-57.0
X13.0Y-67.0
X13.0Y-77.0
X13.0Y-87.0
X13.0Y-97.0
X13.0Y-107.0
X13.0Y-117.0
X13.0Y-127.0
X13.0Y-137.0
X13.0Y-147.0
X13.0Y-157.0
X13.0Y-167.0
X13.0Y-177.0
X13.0Y-187.0
X31.0Y-37.0
X31.0Y-47.0
X31.0Y-57.0
X31.0Y-67.0
X31.0Y-77.0
X31.0Y-87.0
X31.0Y-97.0
X31.0Y-107.0
X31.0Y-117.0
X31.0Y-127.0
X31.0Y-137.0
X31.0Y-147.0
X31.0Y-157.0
X31.0Y-167.0
X31.0Y-177.0
X31.0Y-187.0
X53.0Y-37.0
X53.0Y-47.0
X53.0Y-57.0
X53.0Y-67.0
X53.0Y-77.0
X53.0Y-87.0
X53.0Y-97.0
X53.0Y-107.0
X53.0Y-117.0
X53.0Y-127.0
X53.0Y-137.0
X53.0Y-147.0
X53.0Y-157.0
X53.0Y-167.0
X53.0Y-177.0
X53.0Y-187.0
X71.0Y-37.0
X71.0Y-47.0
X71.0Y-57.0
X71.0Y-67.0
X71.0Y-77.0
X71.0Y-87.0
X71.0Y-97.0
X71.0Y-107.0
X71.0Y-117.0
X71.0Y-127.0
X71.0Y-137.0
X71.0Y-147.0
X71.0Y-157.0
X71.0Y-167.0
X71.0Y-177.0
X71.0Y-187.0
M30
