%TF.GenerationSoftware,KiCad,Pcbnew,10.0.6*%
%TF.CreationDate,2026-10-06T13:57:34+09:00*%
%TF.ProjectId,panel_8faces_32ch_R1,70616e65-6c5f-4386-9661-6365735f3332,rev?*%
%TF.SameCoordinates,Original*%
%TF.FileFunction,Copper,L1,Top*%
%TF.FilePolarity,Positive*%
%FSLAX46Y46*%
G04 Gerber Fmt 4.6, Leading zero omitted, Abs format (unit mm)*
G04 Created by KiCad (PCBNEW 10.0.6) date 2026-10-06 13:57:34*
%MOMM*%
%LPD*%
G01*
G04 APERTURE LIST*
G04 Aperture macros list*
%AMRoundRect*
0 Rectangle with rounded corners*
0 $1 Rounding radius*
0 $2 $3 $4 $5 $6 $7 $8 $9 X,Y pos of 4 corners*
0 Add a 4 corners polygon primitive as box body*
4,1,4,$2,$3,$4,$5,$6,$7,$8,$9,$2,$3,0*
0 Add four circle primitives for the rounded corners*
1,1,$1+$1,$2,$3*
1,1,$1+$1,$4,$5*
1,1,$1+$1,$6,$7*
1,1,$1+$1,$8,$9*
0 Add four rect primitives between the rounded corners*
20,1,$1+$1,$2,$3,$4,$5,0*
20,1,$1+$1,$4,$5,$6,$7,0*
20,1,$1+$1,$6,$7,$8,$9,0*
20,1,$1+$1,$8,$9,$2,$3,0*%
G04 Aperture macros list end*
%TA.AperFunction,ComponentPad*%
%ADD10R,2.800000X2.800000*%
%TD*%
%TA.AperFunction,ComponentPad*%
%ADD11C,2.800000*%
%TD*%
%TA.AperFunction,ComponentPad*%
%ADD12R,1.700000X1.700000*%
%TD*%
%TA.AperFunction,ComponentPad*%
%ADD13C,1.700000*%
%TD*%
%TA.AperFunction,ComponentPad*%
%ADD14RoundRect,0.250000X-0.550000X-0.550000X0.550000X-0.550000X0.550000X0.550000X-0.550000X0.550000X0*%
%TD*%
%TA.AperFunction,ComponentPad*%
%ADD15C,1.600000*%
%TD*%
%TA.AperFunction,ViaPad*%
%ADD16C,0.600000*%
%TD*%
%TA.AperFunction,Conductor*%
%ADD17C,0.400000*%
%TD*%
%TA.AperFunction,Conductor*%
%ADD18C,0.250000*%
%TD*%
%TA.AperFunction,Conductor*%
%ADD19C,0.800000*%
%TD*%
G04 APERTURE END LIST*
D10*
%TO.P,T26,1*%
%TO.N,/OUT25*%
X31000000Y-157000000D03*
D11*
%TO.P,T26,2*%
%TO.N,/GND*%
X31000000Y-167000000D03*
%TD*%
D10*
%TO.P,T11,1*%
%TO.N,/OUT10*%
X53000000Y-77000000D03*
D11*
%TO.P,T11,2*%
%TO.N,/GND*%
X53000000Y-87000000D03*
%TD*%
D10*
%TO.P,T8,1*%
%TO.N,/OUT07*%
X71000000Y-57000000D03*
D11*
%TO.P,T8,2*%
%TO.N,/GND*%
X71000000Y-67000000D03*
%TD*%
D10*
%TO.P,T14,1*%
%TO.N,/OUT13*%
X31000000Y-97000000D03*
D11*
%TO.P,T14,2*%
%TO.N,/GND*%
X31000000Y-107000000D03*
%TD*%
D10*
%TO.P,T25,1*%
%TO.N,/OUT24*%
X13000000Y-157000000D03*
D11*
%TO.P,T25,2*%
%TO.N,/GND*%
X13000000Y-167000000D03*
%TD*%
D10*
%TO.P,T16,1*%
%TO.N,/OUT15*%
X71000000Y-97000000D03*
D11*
%TO.P,T16,2*%
%TO.N,/GND*%
X71000000Y-107000000D03*
%TD*%
D10*
%TO.P,T5,1*%
%TO.N,/OUT04*%
X13000000Y-57000000D03*
D11*
%TO.P,T5,2*%
%TO.N,/GND*%
X13000000Y-67000000D03*
%TD*%
D10*
%TO.P,T13,1*%
%TO.N,/OUT12*%
X13000000Y-97000000D03*
D11*
%TO.P,T13,2*%
%TO.N,/GND*%
X13000000Y-107000000D03*
%TD*%
D10*
%TO.P,T17,1*%
%TO.N,/OUT16*%
X13000000Y-117000000D03*
D11*
%TO.P,T17,2*%
%TO.N,/GND*%
X13000000Y-127000000D03*
%TD*%
D10*
%TO.P,T9,1*%
%TO.N,/OUT08*%
X13000000Y-77000000D03*
D11*
%TO.P,T9,2*%
%TO.N,/GND*%
X13000000Y-87000000D03*
%TD*%
D10*
%TO.P,T2,1*%
%TO.N,/OUT01*%
X31000000Y-37000000D03*
D11*
%TO.P,T2,2*%
%TO.N,/GND*%
X31000000Y-47000000D03*
%TD*%
D10*
%TO.P,T28,1*%
%TO.N,/OUT27*%
X71000000Y-157000000D03*
D11*
%TO.P,T28,2*%
%TO.N,/GND*%
X71000000Y-167000000D03*
%TD*%
D10*
%TO.P,T15,1*%
%TO.N,/OUT14*%
X53000000Y-97000000D03*
D11*
%TO.P,T15,2*%
%TO.N,/GND*%
X53000000Y-107000000D03*
%TD*%
D10*
%TO.P,T31,1*%
%TO.N,/OUT30*%
X53000000Y-177000000D03*
D11*
%TO.P,T31,2*%
%TO.N,/GND*%
X53000000Y-187000000D03*
%TD*%
D10*
%TO.P,T12,1*%
%TO.N,/OUT11*%
X71000000Y-77000000D03*
D11*
%TO.P,T12,2*%
%TO.N,/GND*%
X71000000Y-87000000D03*
%TD*%
D10*
%TO.P,T19,1*%
%TO.N,/OUT18*%
X53000000Y-117000000D03*
D11*
%TO.P,T19,2*%
%TO.N,/GND*%
X53000000Y-127000000D03*
%TD*%
D10*
%TO.P,T1,1*%
%TO.N,/OUT00*%
X13000000Y-37000000D03*
D11*
%TO.P,T1,2*%
%TO.N,/GND*%
X13000000Y-47000000D03*
%TD*%
D10*
%TO.P,T7,1*%
%TO.N,/OUT06*%
X53000000Y-57000000D03*
D11*
%TO.P,T7,2*%
%TO.N,/GND*%
X53000000Y-67000000D03*
%TD*%
D10*
%TO.P,T6,1*%
%TO.N,/OUT05*%
X31000000Y-57000000D03*
D11*
%TO.P,T6,2*%
%TO.N,/GND*%
X31000000Y-67000000D03*
%TD*%
D10*
%TO.P,T27,1*%
%TO.N,/OUT26*%
X53000000Y-157000000D03*
D11*
%TO.P,T27,2*%
%TO.N,/GND*%
X53000000Y-167000000D03*
%TD*%
D10*
%TO.P,T20,1*%
%TO.N,/OUT19*%
X71000000Y-117000000D03*
D11*
%TO.P,T20,2*%
%TO.N,/GND*%
X71000000Y-127000000D03*
%TD*%
D10*
%TO.P,T3,1*%
%TO.N,/OUT02*%
X53000000Y-37000000D03*
D11*
%TO.P,T3,2*%
%TO.N,/GND*%
X53000000Y-47000000D03*
%TD*%
D10*
%TO.P,T30,1*%
%TO.N,/OUT29*%
X31000000Y-177000000D03*
D11*
%TO.P,T30,2*%
%TO.N,/GND*%
X31000000Y-187000000D03*
%TD*%
D10*
%TO.P,T10,1*%
%TO.N,/OUT09*%
X31000000Y-77000000D03*
D11*
%TO.P,T10,2*%
%TO.N,/GND*%
X31000000Y-87000000D03*
%TD*%
D10*
%TO.P,T18,1*%
%TO.N,/OUT17*%
X31000000Y-117000000D03*
D11*
%TO.P,T18,2*%
%TO.N,/GND*%
X31000000Y-127000000D03*
%TD*%
D10*
%TO.P,T23,1*%
%TO.N,/OUT22*%
X53000000Y-137000000D03*
D11*
%TO.P,T23,2*%
%TO.N,/GND*%
X53000000Y-147000000D03*
%TD*%
D10*
%TO.P,T22,1*%
%TO.N,/OUT21*%
X31000000Y-137000000D03*
D11*
%TO.P,T22,2*%
%TO.N,/GND*%
X31000000Y-147000000D03*
%TD*%
D10*
%TO.P,T4,1*%
%TO.N,/OUT03*%
X71000000Y-37000000D03*
D11*
%TO.P,T4,2*%
%TO.N,/GND*%
X71000000Y-47000000D03*
%TD*%
D10*
%TO.P,T29,1*%
%TO.N,/OUT28*%
X13000000Y-177000000D03*
D11*
%TO.P,T29,2*%
%TO.N,/GND*%
X13000000Y-187000000D03*
%TD*%
D10*
%TO.P,T24,1*%
%TO.N,/OUT23*%
X71000000Y-137000000D03*
D11*
%TO.P,T24,2*%
%TO.N,/GND*%
X71000000Y-147000000D03*
%TD*%
D10*
%TO.P,T32,1*%
%TO.N,/OUT31*%
X71000000Y-177000000D03*
D11*
%TO.P,T32,2*%
%TO.N,/GND*%
X71000000Y-187000000D03*
%TD*%
D10*
%TO.P,T21,1*%
%TO.N,/OUT20*%
X13000000Y-137000000D03*
D11*
%TO.P,T21,2*%
%TO.N,/GND*%
X13000000Y-147000000D03*
%TD*%
D12*
%TO.P,J2,1*%
%TO.N,/GND*%
X56920000Y-195000000D03*
D13*
%TO.P,J2,2*%
%TO.N,/+5V_B*%
X56920000Y-197540000D03*
%TO.P,J2,3*%
%TO.N,/DATA_B0*%
X59460000Y-195000000D03*
%TO.P,J2,4*%
%TO.N,/GND*%
X59460000Y-197540000D03*
%TO.P,J2,5*%
%TO.N,/DATA_B1*%
X62000000Y-195000000D03*
%TO.P,J2,6*%
%TO.N,/GND*%
X62000000Y-197540000D03*
%TO.P,J2,7*%
%TO.N,/SHIFT_PIN_B*%
X64540000Y-195000000D03*
%TO.P,J2,8*%
%TO.N,/LATCH_PIN_B*%
X64540000Y-197540000D03*
%TO.P,J2,9*%
%TO.N,/ARM_B*%
X67080000Y-195000000D03*
%TO.P,J2,10*%
%TO.N,/GND*%
X67080000Y-197540000D03*
%TD*%
D12*
%TO.P,J1,1*%
%TO.N,/GND*%
X16920000Y-195000000D03*
D13*
%TO.P,J1,2*%
%TO.N,/+5V_A*%
X16920000Y-197540000D03*
%TO.P,J1,3*%
%TO.N,/DATA_A0*%
X19460000Y-195000000D03*
%TO.P,J1,4*%
%TO.N,/GND*%
X19460000Y-197540000D03*
%TO.P,J1,5*%
%TO.N,/DATA_A1*%
X22000000Y-195000000D03*
%TO.P,J1,6*%
%TO.N,/GND*%
X22000000Y-197540000D03*
%TO.P,J1,7*%
%TO.N,/SHIFT_PIN_A*%
X24540000Y-195000000D03*
%TO.P,J1,8*%
%TO.N,/LATCH_PIN_A*%
X24540000Y-197540000D03*
%TO.P,J1,9*%
%TO.N,/ARM_A*%
X27080000Y-195000000D03*
%TO.P,J1,10*%
%TO.N,/GND*%
X27080000Y-197540000D03*
%TD*%
D14*
%TO.P,C39,1*%
%TO.N,/DRV_VDD_B*%
X75000000Y-29000000D03*
D15*
%TO.P,C39,2*%
%TO.N,/GND*%
X77500000Y-29000000D03*
%TD*%
D12*
%TO.P,J3,1*%
%TO.N,/DRV_VDD_A*%
X24540000Y-28000000D03*
D13*
%TO.P,J3,2*%
%TO.N,/GND*%
X22000000Y-28000000D03*
%TO.P,J3,3*%
%TO.N,/+5V_A*%
X19460000Y-28000000D03*
%TD*%
D14*
%TO.P,C19,1*%
%TO.N,/DRV_VDD_A*%
X35000000Y-29000000D03*
D15*
%TO.P,C19,2*%
%TO.N,/GND*%
X37500000Y-29000000D03*
%TD*%
D12*
%TO.P,J4,1*%
%TO.N,/DRV_VDD_B*%
X64539999Y-28000000D03*
D13*
%TO.P,J4,2*%
%TO.N,/GND*%
X61999999Y-28000000D03*
%TO.P,J4,3*%
%TO.N,/+5V_B*%
X59459999Y-28000000D03*
%TD*%
D16*
%TO.N,/GND*%
X4002700Y-197084800D03*
X57211000Y-59768700D03*
X55087500Y-52213700D03*
X17934100Y-81365000D03*
X82800000Y-57000000D03*
X1200000Y-127000000D03*
X44002700Y-197084800D03*
X17264700Y-70715000D03*
X13114900Y-111212700D03*
X21829300Y-41101500D03*
X82800000Y-77000000D03*
X42000000Y-27000000D03*
X42000000Y-57000000D03*
X40711100Y-187413000D03*
X1200000Y-47000000D03*
X42000000Y-97000000D03*
X9428400Y-197806500D03*
X42000000Y-77000000D03*
X57211000Y-119768700D03*
X1200000Y-37000000D03*
X1200000Y-177000000D03*
X56177800Y-132312199D03*
X1200000Y-97000000D03*
X48428400Y-176093500D03*
X17211000Y-39768700D03*
X82800000Y-177000000D03*
X57264700Y-70715000D03*
X20827500Y-131261300D03*
X16177799Y-132312199D03*
X82800000Y-187000000D03*
X82800000Y-27000000D03*
X1200000Y-167000000D03*
X17211000Y-59768700D03*
X82800000Y-97000000D03*
X1200000Y-157000000D03*
X82800000Y-67000000D03*
X42000000Y-67000000D03*
X1200000Y-107000000D03*
X1200000Y-197000000D03*
X42000000Y-177000000D03*
X1200000Y-67000000D03*
X42000000Y-87000000D03*
X1200000Y-137000000D03*
X82800000Y-127000000D03*
X1200000Y-87000000D03*
X61829300Y-41101500D03*
X1200000Y-147000000D03*
X57934100Y-81365000D03*
X28050000Y-49350100D03*
X82800000Y-167000000D03*
X28050000Y-64734300D03*
X82800000Y-117000000D03*
X82800000Y-157000000D03*
X42908800Y-167895600D03*
X80711100Y-187413000D03*
X82800000Y-107000000D03*
X42000000Y-137000000D03*
X57211000Y-39768700D03*
X42000000Y-107000000D03*
X57243000Y-140990800D03*
X1200000Y-27000000D03*
X42000000Y-197000000D03*
X1200000Y-57000000D03*
X42000000Y-127000000D03*
X53114900Y-111212700D03*
X82800000Y-147000000D03*
X69170700Y-144495000D03*
X2908800Y-167895600D03*
X42000000Y-147000000D03*
X39087500Y-194771200D03*
X60827500Y-131261300D03*
X82800000Y-197000000D03*
X42000000Y-157000000D03*
X1200000Y-117000000D03*
X68050000Y-49350100D03*
X15087500Y-52213700D03*
X49428400Y-197806500D03*
X82800000Y-137000000D03*
X1200000Y-187000000D03*
X42000000Y-167000000D03*
X82800000Y-47000000D03*
X82800000Y-87000000D03*
X8428400Y-176093500D03*
X17211000Y-119768700D03*
X17243000Y-140990800D03*
X1200000Y-77000000D03*
X42000000Y-117000000D03*
X42000000Y-187000000D03*
X82800000Y-37000000D03*
X79087500Y-194771200D03*
X42000000Y-37000000D03*
X29170700Y-144495000D03*
X42000000Y-47000000D03*
X68050000Y-64734300D03*
%TO.N,/OUT24*%
X16956800Y-171484700D03*
%TO.N,/OUT26*%
X56956800Y-171484700D03*
%TO.N,/IN14*%
X58247400Y-101990800D03*
X57264700Y-71715000D03*
%TO.N,/IN15*%
X55897700Y-101379600D03*
X54114900Y-111212700D03*
X61026800Y-69698200D03*
X58240500Y-100739200D03*
%TO.N,/DRV_VDD_B*%
X67050000Y-64734300D03*
X66219500Y-166874800D03*
X67050000Y-49350100D03*
X62829300Y-41101500D03*
X66110400Y-187060400D03*
X67670700Y-144495000D03*
X66202200Y-86977100D03*
%TO.N,/IN02*%
X58247400Y-43279200D03*
X62316200Y-74620200D03*
%TO.N,/IN03*%
X54087500Y-51213700D03*
X58211000Y-40768700D03*
%TO.N,/IN28*%
X17605300Y-151374400D03*
X18024700Y-182898300D03*
%TO.N,/IN01*%
X18211000Y-40768700D03*
X14087500Y-51213700D03*
%TO.N,/DATA_A0*%
X22976400Y-73995600D03*
X21827500Y-132261300D03*
%TO.N,/+5V_B*%
X66954100Y-153679500D03*
X62832000Y-68825000D03*
X65560400Y-91756800D03*
%TO.N,/DATA_B0*%
X61827500Y-132261300D03*
X62976400Y-73995600D03*
%TO.N,/DATA_B1*%
X62474800Y-154549200D03*
X61477500Y-186639200D03*
%TO.N,/LATCH_PIN_B*%
X45002700Y-198084800D03*
X43908800Y-167895600D03*
%TO.N,/+5V_A*%
X25560400Y-91756800D03*
X26954100Y-153679500D03*
X22832000Y-68825000D03*
%TO.N,/DRV_VDD_A*%
X26110400Y-187060400D03*
X26219500Y-166874800D03*
X26202200Y-86977100D03*
X27050000Y-64734300D03*
X22829300Y-41101500D03*
X27050000Y-49350100D03*
X27670700Y-144495000D03*
%TO.N,/OE_N_A*%
X26826700Y-150748600D03*
X26138300Y-72916000D03*
%TO.N,/IN05*%
X14996200Y-70908700D03*
X18211000Y-60768700D03*
%TO.N,/IN09*%
X18245600Y-72009200D03*
X19525000Y-79284400D03*
%TO.N,/IN12*%
X17264700Y-71715000D03*
X18247400Y-101990800D03*
%TO.N,/IN13*%
X18240500Y-100739200D03*
X15897700Y-101379600D03*
X14114900Y-111212700D03*
X21026800Y-69698200D03*
%TO.N,/SHIFT_A*%
X22980700Y-150306900D03*
X22969000Y-70095000D03*
X21805400Y-192971900D03*
%TO.N,/LATCH_A*%
X22034900Y-175185400D03*
X22749700Y-151124400D03*
X9428400Y-196806500D03*
X22970500Y-71365000D03*
X9428400Y-176093500D03*
%TO.N,/IN00*%
X22316200Y-74620200D03*
X18247400Y-43279200D03*
%TO.N,/IN22*%
X59163500Y-157748900D03*
X58243000Y-141990800D03*
%TO.N,/DATA_A1*%
X22474800Y-154549200D03*
X21477500Y-186639200D03*
%TO.N,/LATCH_PIN_A*%
X5002700Y-198084800D03*
X3908800Y-167895600D03*
%TO.N,/IN11*%
X59525000Y-79284400D03*
X58245600Y-72009200D03*
%TO.N,/IN18*%
X58247400Y-123279200D03*
X62987000Y-155175000D03*
%TO.N,/IN29*%
X20799400Y-149469200D03*
X18240500Y-180739200D03*
%TO.N,/IN07*%
X58211000Y-60768700D03*
X54996200Y-70908700D03*
%TO.N,/IN27*%
X61011100Y-151365000D03*
X60677900Y-158755500D03*
%TO.N,/ARM_BASE_B*%
X79711100Y-187413000D03*
X78087500Y-194771200D03*
%TO.N,/IN19*%
X55177800Y-132312200D03*
X58252600Y-157265700D03*
X58211000Y-120768700D03*
%TO.N,/IN30*%
X57605300Y-151374400D03*
X58024700Y-182898300D03*
%TO.N,/IN31*%
X58240500Y-180739200D03*
X60799400Y-149469200D03*
%TO.N,/SHIFT_B*%
X62969000Y-70095000D03*
X61805400Y-192971900D03*
X62980700Y-150306900D03*
%TO.N,/LATCH_B*%
X62970500Y-71365000D03*
X49428400Y-196806500D03*
X49428400Y-176093500D03*
X62749700Y-151124400D03*
X62034900Y-175185400D03*
%TO.N,/OE_N_B*%
X66826700Y-150748600D03*
X66138300Y-72916000D03*
%TO.N,/ARM_BASE_A*%
X39711100Y-187413000D03*
X38087500Y-194771200D03*
%TO.N,/IN20*%
X18243000Y-141990800D03*
X19163500Y-157748900D03*
%TO.N,/IN17*%
X15177800Y-132312200D03*
X18211000Y-120768700D03*
X18252600Y-157265700D03*
%TO.N,/IN25*%
X21011100Y-151365000D03*
X20677900Y-158755500D03*
%TO.N,/IN16*%
X22987000Y-155175000D03*
X18247400Y-123279200D03*
%TD*%
%TO.N,/GND*%
D17*
X13000000Y-85064600D02*
X16699600Y-81365000D01*
X29198300Y-165198300D02*
X29198300Y-148801700D01*
X16699600Y-81365000D02*
X16699600Y-75199600D01*
X69198300Y-165198300D02*
X69198300Y-148801700D01*
X56920000Y-190920000D02*
X53000000Y-187000000D01*
X13000000Y-71500000D02*
X13000000Y-67000000D01*
X13000000Y-87000000D02*
X13000000Y-85064600D01*
X17934100Y-81365000D02*
X16699600Y-81365000D01*
X16920000Y-190920000D02*
X13000000Y-187000000D01*
X53000000Y-87000000D02*
X53000000Y-85064600D01*
X56699600Y-75199600D02*
X53000000Y-71500000D01*
X53000000Y-71500000D02*
X53000000Y-67000000D01*
X16920000Y-195000000D02*
X16920000Y-190920000D01*
X29198300Y-148801700D02*
X31000000Y-147000000D01*
X53000000Y-85064600D02*
X56699600Y-81365000D01*
X31000000Y-167000000D02*
X29198300Y-165198300D01*
X56699600Y-81365000D02*
X56699600Y-75199600D01*
X71000000Y-167000000D02*
X69198300Y-165198300D01*
X56920000Y-195000000D02*
X56920000Y-190920000D01*
X69198300Y-148801700D02*
X71000000Y-147000000D01*
X57934100Y-81365000D02*
X56699600Y-81365000D01*
X16699600Y-75199600D02*
X13000000Y-71500000D01*
%TO.N,/OUT24*%
D18*
X13000000Y-158726700D02*
X16956800Y-162683500D01*
X16956800Y-162683500D02*
X16956800Y-171484700D01*
X13000000Y-157000000D02*
X13000000Y-158726700D01*
%TO.N,/OUT26*%
X53000000Y-157000000D02*
X53000000Y-158726700D01*
X56956800Y-162683500D02*
X56956800Y-171484700D01*
X53000000Y-158726700D02*
X56956800Y-162683500D01*
%TO.N,/IN14*%
X57560800Y-101304200D02*
X57560800Y-83932600D01*
X57264700Y-76505300D02*
X57264700Y-71715000D01*
X58247400Y-101990800D02*
X57560800Y-101304200D01*
X57560800Y-83932600D02*
X58690000Y-82803400D01*
X58690000Y-82803400D02*
X58690000Y-77930600D01*
X58690000Y-77930600D02*
X57264700Y-76505300D01*
%TO.N,/IN15*%
X61026800Y-69698200D02*
X61581900Y-70253300D01*
X54114900Y-111212700D02*
X55897700Y-109429900D01*
X61581900Y-70253300D02*
X61581900Y-97397800D01*
X61581900Y-97397800D02*
X58240500Y-100739200D01*
X55897700Y-109429900D02*
X55897700Y-101379600D01*
%TO.N,/DRV_VDD_B*%
D19*
X66110400Y-166983900D02*
X66110400Y-187060400D01*
X62829300Y-31212400D02*
X64540000Y-29501700D01*
X64540000Y-28000000D02*
X64540000Y-29501700D01*
X67050000Y-64734300D02*
X67050000Y-49350100D01*
X66219500Y-166874800D02*
X66110400Y-166983900D01*
X65180400Y-66603900D02*
X67050000Y-64734300D01*
X67950400Y-165143900D02*
X67950400Y-144774700D01*
X66219500Y-166874800D02*
X67950400Y-165143900D01*
X67950400Y-144774700D02*
X67670700Y-144495000D01*
X62829300Y-41101500D02*
X62829300Y-31212400D01*
X65180400Y-85955300D02*
X65180400Y-66603900D01*
X66202200Y-86977100D02*
X65180400Y-85955300D01*
%TO.N,/IN02*%
D18*
X62039500Y-66998300D02*
X62039500Y-74343500D01*
X60085200Y-45117000D02*
X60085200Y-65044000D01*
X58247400Y-43279200D02*
X60085200Y-45117000D01*
X62039500Y-74343500D02*
X62316200Y-74620200D01*
X60085200Y-65044000D02*
X62039500Y-66998300D01*
%TO.N,/IN03*%
X55542600Y-43437100D02*
X55542600Y-49758600D01*
X55542600Y-49758600D02*
X54087500Y-51213700D01*
X58211000Y-40768700D02*
X55542600Y-43437100D01*
%TO.N,/IN28*%
X17605300Y-151374400D02*
X17605300Y-182478900D01*
X17605300Y-182478900D02*
X18024700Y-182898300D01*
%TO.N,/IN01*%
X18211000Y-40768700D02*
X15542600Y-43437100D01*
X15542600Y-49758600D02*
X14087500Y-51213700D01*
X15542600Y-43437100D02*
X15542600Y-49758600D01*
%TO.N,/DATA_A0*%
X22976400Y-75003000D02*
X22976400Y-73995600D01*
X22127700Y-131961100D02*
X22127700Y-75851700D01*
X22127700Y-75851700D02*
X22976400Y-75003000D01*
X21827500Y-132261300D02*
X22127700Y-131961100D01*
%TO.N,/+5V_B*%
D17*
X62832000Y-58538400D02*
X62832000Y-68825000D01*
X63270000Y-195512100D02*
X62530400Y-196251700D01*
X60620600Y-56327000D02*
X62832000Y-58538400D01*
X59460000Y-28000000D02*
X60620600Y-29160600D01*
X65560400Y-153679500D02*
X66954100Y-153679500D01*
X64791200Y-154448700D02*
X64791200Y-192896200D01*
X62530400Y-196251700D02*
X58208300Y-196251700D01*
X60620600Y-29160600D02*
X60620600Y-56327000D01*
X64791200Y-192896200D02*
X63270000Y-194417400D01*
X65560400Y-153679500D02*
X64791200Y-154448700D01*
X63270000Y-194417400D02*
X63270000Y-195512100D01*
X65560400Y-91756800D02*
X65560400Y-153679500D01*
X58208300Y-196251700D02*
X56920000Y-197540000D01*
%TO.N,/DATA_B0*%
D18*
X62976400Y-75003000D02*
X62976400Y-73995600D01*
X62127700Y-75851700D02*
X62976400Y-75003000D01*
X61827500Y-132261300D02*
X62127700Y-131961100D01*
X62127700Y-131961100D02*
X62127700Y-75851700D01*
%TO.N,/DATA_B1*%
X62000000Y-195000000D02*
X61178700Y-194178700D01*
X61178700Y-194178700D02*
X61178700Y-186788600D01*
X61328100Y-186639200D02*
X61477500Y-186639200D01*
X61178700Y-186788600D02*
X61328100Y-186639200D01*
X61328100Y-186639200D02*
X61328100Y-155695900D01*
X61328100Y-155695900D02*
X62474800Y-154549200D01*
%TO.N,/LATCH_PIN_B*%
X43908800Y-167895600D02*
X43908800Y-189672000D01*
X45002700Y-190765900D02*
X45002700Y-198084800D01*
X43908800Y-189672000D02*
X45002700Y-190765900D01*
%TO.N,/+5V_A*%
D17*
X25560400Y-153679500D02*
X26954100Y-153679500D01*
X22832000Y-58538400D02*
X22832000Y-68825000D01*
X23270000Y-194417400D02*
X23270000Y-195512100D01*
X25560400Y-91756800D02*
X25560400Y-153679500D01*
X24791200Y-192896200D02*
X23270000Y-194417400D01*
X20620600Y-29160600D02*
X20620600Y-56327000D01*
X25560400Y-153679500D02*
X24791200Y-154448700D01*
X18208300Y-196251700D02*
X16920000Y-197540000D01*
X22530400Y-196251700D02*
X18208300Y-196251700D01*
X23270000Y-195512100D02*
X22530400Y-196251700D01*
X24791200Y-154448700D02*
X24791200Y-192896200D01*
X19460000Y-28000000D02*
X20620600Y-29160600D01*
X20620600Y-56327000D02*
X22832000Y-58538400D01*
%TO.N,/DRV_VDD_A*%
D19*
X26219500Y-166874800D02*
X27950400Y-165143900D01*
X27050000Y-64734300D02*
X27050000Y-49350100D01*
X22829300Y-41101500D02*
X22829300Y-31212400D01*
X22829300Y-31212400D02*
X24540000Y-29501700D01*
X25180400Y-85955300D02*
X25180400Y-66603900D01*
X26202200Y-86977100D02*
X25180400Y-85955300D01*
X26219500Y-166874800D02*
X26110400Y-166983900D01*
X27950400Y-144774700D02*
X27670700Y-144495000D01*
X26110400Y-166983900D02*
X26110400Y-187060400D01*
X24540000Y-28000000D02*
X24540000Y-29501700D01*
X27950400Y-165143900D02*
X27950400Y-144774700D01*
X25180400Y-66603900D02*
X27050000Y-64734300D01*
%TO.N,/OE_N_A*%
D18*
X26138300Y-73977400D02*
X26138300Y-72916000D01*
X26989200Y-90695100D02*
X26989200Y-74828300D01*
X26989200Y-74828300D02*
X26138300Y-73977400D01*
X26826700Y-150748600D02*
X26826700Y-90857600D01*
X26826700Y-90857600D02*
X26989200Y-90695100D01*
%TO.N,/IN05*%
X14996200Y-63983500D02*
X18211000Y-60768700D01*
X14996200Y-70908700D02*
X14996200Y-63983500D01*
%TO.N,/IN09*%
X18245600Y-72009200D02*
X19525000Y-73288600D01*
X19525000Y-73288600D02*
X19525000Y-79284400D01*
%TO.N,/IN12*%
X18690000Y-77930600D02*
X17264700Y-76505300D01*
X17264700Y-76505300D02*
X17264700Y-71715000D01*
X18690000Y-82803400D02*
X18690000Y-77930600D01*
X17560800Y-83932600D02*
X18690000Y-82803400D01*
X18247400Y-101990800D02*
X17560800Y-101304200D01*
X17560800Y-101304200D02*
X17560800Y-83932600D01*
%TO.N,/IN13*%
X15897700Y-109429900D02*
X15897700Y-101379600D01*
X14114900Y-111212700D02*
X15897700Y-109429900D01*
X21581900Y-97397800D02*
X18240500Y-100739200D01*
X21026800Y-69698200D02*
X21581900Y-70253300D01*
X21581900Y-70253300D02*
X21581900Y-97397800D01*
%TO.N,/SHIFT_A*%
X23812800Y-150306900D02*
X22980700Y-150306900D01*
X21805400Y-192971900D02*
X24264500Y-190512800D01*
X24264500Y-150758600D02*
X23812800Y-150306900D01*
X24264500Y-149855200D02*
X24264500Y-71390500D01*
X24264500Y-71390500D02*
X22969000Y-70095000D01*
X24264500Y-190512800D02*
X24264500Y-150758600D01*
X23812800Y-150306900D02*
X24264500Y-149855200D01*
%TO.N,/LATCH_A*%
X22348800Y-137318500D02*
X22348800Y-150723500D01*
X22348800Y-150723500D02*
X22749700Y-151124400D01*
X9428400Y-176093500D02*
X9428400Y-196806500D01*
X23812800Y-135854500D02*
X22348800Y-137318500D01*
X23812800Y-173407500D02*
X22034900Y-175185400D01*
X23812800Y-72207300D02*
X23812800Y-135854500D01*
X22970500Y-71365000D02*
X23812800Y-72207300D01*
X23812800Y-152187500D02*
X23812800Y-173407500D01*
X22749700Y-151124400D02*
X23812800Y-152187500D01*
%TO.N,/IN00*%
X20085200Y-45117000D02*
X20085200Y-65044000D01*
X22039500Y-66998300D02*
X22039500Y-74343500D01*
X18247400Y-43279200D02*
X20085200Y-45117000D01*
X22039500Y-74343500D02*
X22316200Y-74620200D01*
X20085200Y-65044000D02*
X22039500Y-66998300D01*
%TO.N,/IN22*%
X58243000Y-141990800D02*
X59163500Y-142911300D01*
X59163500Y-142911300D02*
X59163500Y-157748900D01*
%TO.N,/DATA_A1*%
X22000000Y-195000000D02*
X21178700Y-194178700D01*
X21328100Y-186639200D02*
X21477500Y-186639200D01*
X21178700Y-186788600D02*
X21328100Y-186639200D01*
X21328100Y-155695900D02*
X22474800Y-154549200D01*
X21328100Y-186639200D02*
X21328100Y-155695900D01*
X21178700Y-194178700D02*
X21178700Y-186788600D01*
%TO.N,/LATCH_PIN_A*%
X3908800Y-189672000D02*
X5002700Y-190765900D01*
X3908800Y-167895600D02*
X3908800Y-189672000D01*
X5002700Y-190765900D02*
X5002700Y-198084800D01*
%TO.N,/IN11*%
X59525000Y-73288600D02*
X59525000Y-79284400D01*
X58245600Y-72009200D02*
X59525000Y-73288600D01*
%TO.N,/IN18*%
X62987000Y-155175000D02*
X63101600Y-155060400D01*
X63101600Y-155060400D02*
X63101600Y-154280600D01*
X61888600Y-153067600D02*
X61888600Y-135047400D01*
X63101600Y-154280600D02*
X61888600Y-153067600D01*
X61888600Y-135047400D02*
X58247400Y-131406200D01*
X58247400Y-131406200D02*
X58247400Y-123279200D01*
%TO.N,/IN29*%
X19731800Y-150536800D02*
X20799400Y-149469200D01*
X20125700Y-158421100D02*
X20125700Y-156445800D01*
X20125700Y-156445800D02*
X19731800Y-156051900D01*
X19731800Y-156051900D02*
X19731800Y-150536800D01*
X18240500Y-180739200D02*
X18240500Y-160306300D01*
X18240500Y-160306300D02*
X20125700Y-158421100D01*
%TO.N,/IN07*%
X54996200Y-63983500D02*
X58211000Y-60768700D01*
X54996200Y-70908700D02*
X54996200Y-63983500D01*
%TO.N,/IN27*%
X60200100Y-152176000D02*
X61011100Y-151365000D01*
X60200100Y-155881400D02*
X60200100Y-152176000D01*
X60677900Y-156359200D02*
X60200100Y-155881400D01*
X60677900Y-158755500D02*
X60677900Y-156359200D01*
%TO.N,/ARM_BASE_B*%
X78087500Y-194771200D02*
X78087500Y-189036600D01*
X78087500Y-189036600D02*
X79711100Y-187413000D01*
%TO.N,/IN19*%
X55177800Y-123801900D02*
X55177800Y-132312200D01*
X55177800Y-141495700D02*
X58252600Y-144570500D01*
X58211000Y-120768700D02*
X55177800Y-123801900D01*
X58252600Y-144570500D02*
X58252600Y-157265700D01*
X55177800Y-132312200D02*
X55177800Y-141495700D01*
%TO.N,/IN30*%
X57605300Y-182478900D02*
X58024700Y-182898300D01*
X57605300Y-151374400D02*
X57605300Y-182478900D01*
%TO.N,/IN31*%
X58240500Y-160306300D02*
X60125700Y-158421100D01*
X59731800Y-156051900D02*
X59731800Y-150536800D01*
X60125700Y-158421100D02*
X60125700Y-156445800D01*
X59731800Y-150536800D02*
X60799400Y-149469200D01*
X58240500Y-180739200D02*
X58240500Y-160306300D01*
X60125700Y-156445800D02*
X59731800Y-156051900D01*
%TO.N,/SHIFT_B*%
X64264500Y-149855200D02*
X64264500Y-71390500D01*
X64264500Y-71390500D02*
X62969000Y-70095000D01*
X64264500Y-190512800D02*
X64264500Y-150758600D01*
X63812800Y-150306900D02*
X64264500Y-149855200D01*
X64264500Y-150758600D02*
X63812800Y-150306900D01*
X61805400Y-192971900D02*
X64264500Y-190512800D01*
X63812800Y-150306900D02*
X62980700Y-150306900D01*
%TO.N,/LATCH_B*%
X63812800Y-152187500D02*
X63812800Y-173407500D01*
X62348800Y-137318500D02*
X62348800Y-150723500D01*
X63812800Y-135854500D02*
X62348800Y-137318500D01*
X62348800Y-150723500D02*
X62749700Y-151124400D01*
X62970500Y-71365000D02*
X63812800Y-72207300D01*
X63812800Y-173407500D02*
X62034900Y-175185400D01*
X63812800Y-72207300D02*
X63812800Y-135854500D01*
X62749700Y-151124400D02*
X63812800Y-152187500D01*
X49428400Y-176093500D02*
X49428400Y-196806500D01*
%TO.N,/OE_N_B*%
X66989200Y-90695100D02*
X66989200Y-74828300D01*
X66826700Y-90857600D02*
X66989200Y-90695100D01*
X66826700Y-150748600D02*
X66826700Y-90857600D01*
X66989200Y-74828300D02*
X66138300Y-73977400D01*
X66138300Y-73977400D02*
X66138300Y-72916000D01*
%TO.N,/ARM_BASE_A*%
X38087500Y-189036600D02*
X39711100Y-187413000D01*
X38087500Y-194771200D02*
X38087500Y-189036600D01*
%TO.N,/IN20*%
X18243000Y-141990800D02*
X19163500Y-142911300D01*
X19163500Y-142911300D02*
X19163500Y-157748900D01*
%TO.N,/IN17*%
X18252600Y-144570500D02*
X18252600Y-157265700D01*
X15177800Y-123801900D02*
X15177800Y-132312200D01*
X15177800Y-132312200D02*
X15177800Y-141495700D01*
X18211000Y-120768700D02*
X15177800Y-123801900D01*
X15177800Y-141495700D02*
X18252600Y-144570500D01*
%TO.N,/IN25*%
X20677900Y-158755500D02*
X20677900Y-156359200D01*
X20200100Y-152176000D02*
X21011100Y-151365000D01*
X20677900Y-156359200D02*
X20200100Y-155881400D01*
X20200100Y-155881400D02*
X20200100Y-152176000D01*
%TO.N,/IN16*%
X23101600Y-155060400D02*
X23101600Y-154280600D01*
X23101600Y-154280600D02*
X21888600Y-153067600D01*
X18247400Y-131406200D02*
X18247400Y-123279200D01*
X22987000Y-155175000D02*
X23101600Y-155060400D01*
X21888600Y-153067600D02*
X21888600Y-135047400D01*
X21888600Y-135047400D02*
X18247400Y-131406200D01*
%TD*%
%TA.AperFunction,Conductor*%
%TO.N,/GND*%
G36*
X83443039Y-22019685D02*
G01*
X83488794Y-22072489D01*
X83500000Y-22124000D01*
X83500000Y-201876000D01*
X83480315Y-201943039D01*
X83427511Y-201988794D01*
X83376000Y-202000000D01*
X624000Y-202000000D01*
X556961Y-201980315D01*
X511206Y-201927511D01*
X500000Y-201876000D01*
X500000Y-167823125D01*
X3358300Y-167823125D01*
X3358300Y-167968075D01*
X3395816Y-168108085D01*
X3395817Y-168108088D01*
X3468288Y-168233611D01*
X3468293Y-168233617D01*
X3496981Y-168262305D01*
X3530466Y-168323628D01*
X3533300Y-168349986D01*
X3533300Y-189721435D01*
X3558890Y-189816938D01*
X3558891Y-189816939D01*
X3558891Y-189816940D01*
X3608326Y-189902563D01*
X4590881Y-190885118D01*
X4624366Y-190946441D01*
X4627200Y-190972799D01*
X4627200Y-197630414D01*
X4607515Y-197697453D01*
X4590881Y-197718095D01*
X4562193Y-197746782D01*
X4562188Y-197746788D01*
X4489717Y-197872311D01*
X4489716Y-197872315D01*
X4452200Y-198012325D01*
X4452200Y-198157275D01*
X4478903Y-198256929D01*
X4489717Y-198297288D01*
X4562188Y-198422811D01*
X4562190Y-198422813D01*
X4562191Y-198422815D01*
X4664685Y-198525309D01*
X4664686Y-198525310D01*
X4664688Y-198525311D01*
X4790211Y-198597782D01*
X4790212Y-198597782D01*
X4790215Y-198597784D01*
X4930225Y-198635300D01*
X4930228Y-198635300D01*
X5075172Y-198635300D01*
X5075175Y-198635300D01*
X5215185Y-198597784D01*
X5340715Y-198525309D01*
X5443209Y-198422815D01*
X5515684Y-198297285D01*
X5553200Y-198157275D01*
X5553200Y-198012325D01*
X5515684Y-197872315D01*
X5472605Y-197797701D01*
X5443211Y-197746788D01*
X5443206Y-197746782D01*
X5414519Y-197718095D01*
X5381034Y-197656772D01*
X5378200Y-197630414D01*
X5378200Y-190716467D01*
X5378200Y-190716465D01*
X5352610Y-190620962D01*
X5303175Y-190535338D01*
X5233262Y-190465425D01*
X4320619Y-189552782D01*
X4287134Y-189491459D01*
X4284300Y-189465101D01*
X4284300Y-176021025D01*
X8877900Y-176021025D01*
X8877900Y-176165975D01*
X8915416Y-176305985D01*
X8915417Y-176305988D01*
X8987888Y-176431511D01*
X8987893Y-176431517D01*
X9016581Y-176460205D01*
X9050066Y-176521528D01*
X9052900Y-176547886D01*
X9052900Y-196352114D01*
X9033215Y-196419153D01*
X9016581Y-196439795D01*
X8987893Y-196468482D01*
X8987888Y-196468488D01*
X8915417Y-196594011D01*
X8915416Y-196594015D01*
X8877900Y-196734025D01*
X8877900Y-196878975D01*
X8915416Y-197018985D01*
X8915417Y-197018988D01*
X8987888Y-197144511D01*
X8987890Y-197144513D01*
X8987891Y-197144515D01*
X9090385Y-197247009D01*
X9090386Y-197247010D01*
X9090388Y-197247011D01*
X9215911Y-197319482D01*
X9215912Y-197319482D01*
X9215915Y-197319484D01*
X9355925Y-197357000D01*
X9355928Y-197357000D01*
X9500872Y-197357000D01*
X9500875Y-197357000D01*
X9640885Y-197319484D01*
X9766415Y-197247009D01*
X9868909Y-197144515D01*
X9941384Y-197018985D01*
X9978900Y-196878975D01*
X9978900Y-196734025D01*
X9941384Y-196594015D01*
X9881417Y-196490150D01*
X9868911Y-196468488D01*
X9868906Y-196468482D01*
X9840219Y-196439795D01*
X9806734Y-196378472D01*
X9803900Y-196352114D01*
X9803900Y-176547886D01*
X9823585Y-176480847D01*
X9840219Y-176460205D01*
X9868909Y-176431515D01*
X9941384Y-176305985D01*
X9978900Y-176165975D01*
X9978900Y-176021025D01*
X9941384Y-175881015D01*
X9872155Y-175761108D01*
X9868911Y-175755488D01*
X9868906Y-175755482D01*
X9766417Y-175652993D01*
X9766411Y-175652988D01*
X9640888Y-175580517D01*
X9640889Y-175580517D01*
X9621516Y-175575326D01*
X9621497Y-175575321D01*
X11349500Y-175575321D01*
X11349500Y-178424678D01*
X11364032Y-178497735D01*
X11364033Y-178497739D01*
X11364034Y-178497740D01*
X11419399Y-178580601D01*
X11502260Y-178635966D01*
X11502264Y-178635967D01*
X11575321Y-178650499D01*
X11575324Y-178650500D01*
X11575326Y-178650500D01*
X14424676Y-178650500D01*
X14424677Y-178650499D01*
X14497740Y-178635966D01*
X14580601Y-178580601D01*
X14635966Y-178497740D01*
X14650500Y-178424674D01*
X14650500Y-175575326D01*
X14650500Y-175575323D01*
X14650499Y-175575321D01*
X14635967Y-175502264D01*
X14635966Y-175502260D01*
X14580601Y-175419399D01*
X14497740Y-175364034D01*
X14497739Y-175364033D01*
X14497735Y-175364032D01*
X14424677Y-175349500D01*
X14424674Y-175349500D01*
X11575326Y-175349500D01*
X11575323Y-175349500D01*
X11502264Y-175364032D01*
X11502260Y-175364033D01*
X11419399Y-175419399D01*
X11364033Y-175502260D01*
X11364032Y-175502264D01*
X11349500Y-175575321D01*
X9621497Y-175575321D01*
X9500875Y-175543000D01*
X9355925Y-175543000D01*
X9235284Y-175575326D01*
X9215911Y-175580517D01*
X9090388Y-175652988D01*
X9090382Y-175652993D01*
X8987893Y-175755482D01*
X8987888Y-175755488D01*
X8915417Y-175881011D01*
X8915416Y-175881015D01*
X8877900Y-176021025D01*
X4284300Y-176021025D01*
X4284300Y-168349986D01*
X4303985Y-168282947D01*
X4320619Y-168262305D01*
X4349309Y-168233615D01*
X4421784Y-168108085D01*
X4459300Y-167968075D01*
X4459300Y-167823125D01*
X4421784Y-167683115D01*
X4349309Y-167557585D01*
X4246815Y-167455091D01*
X4246813Y-167455090D01*
X4246811Y-167455088D01*
X4121288Y-167382617D01*
X4121289Y-167382617D01*
X4109806Y-167379540D01*
X3981275Y-167345100D01*
X3836325Y-167345100D01*
X3707793Y-167379540D01*
X3696311Y-167382617D01*
X3570788Y-167455088D01*
X3570782Y-167455093D01*
X3468293Y-167557582D01*
X3468288Y-167557588D01*
X3395817Y-167683111D01*
X3395816Y-167683115D01*
X3358300Y-167823125D01*
X500000Y-167823125D01*
X500000Y-135575321D01*
X11349500Y-135575321D01*
X11349500Y-138424678D01*
X11364032Y-138497735D01*
X11364033Y-138497739D01*
X11364034Y-138497740D01*
X11419399Y-138580601D01*
X11502260Y-138635966D01*
X11502264Y-138635967D01*
X11575321Y-138650499D01*
X11575324Y-138650500D01*
X11575326Y-138650500D01*
X14424676Y-138650500D01*
X14424677Y-138650499D01*
X14497740Y-138635966D01*
X14580601Y-138580601D01*
X14580603Y-138580597D01*
X14589237Y-138571965D01*
X14591955Y-138574683D01*
X14628792Y-138543889D01*
X14698116Y-138535171D01*
X14761148Y-138565316D01*
X14797877Y-138624753D01*
X14802300Y-138657577D01*
X14802300Y-141545136D01*
X14814401Y-141590299D01*
X14814402Y-141590299D01*
X14827891Y-141640640D01*
X14877326Y-141726263D01*
X17840781Y-144689718D01*
X17874266Y-144751041D01*
X17877100Y-144777399D01*
X17877100Y-150715709D01*
X17857415Y-150782748D01*
X17804611Y-150828503D01*
X17735453Y-150838447D01*
X17721007Y-150835484D01*
X17694953Y-150828503D01*
X17677775Y-150823900D01*
X17532825Y-150823900D01*
X17404293Y-150858340D01*
X17392811Y-150861417D01*
X17267288Y-150933888D01*
X17267282Y-150933893D01*
X17164793Y-151036382D01*
X17164788Y-151036388D01*
X17092317Y-151161911D01*
X17092316Y-151161915D01*
X17054800Y-151301925D01*
X17054800Y-151446875D01*
X17088257Y-151571737D01*
X17092317Y-151586888D01*
X17164788Y-151712411D01*
X17164793Y-151712417D01*
X17193481Y-151741105D01*
X17226966Y-151802428D01*
X17229800Y-151828786D01*
X17229800Y-162126101D01*
X17210115Y-162193140D01*
X17157311Y-162238895D01*
X17088153Y-162248839D01*
X17024597Y-162219814D01*
X17018119Y-162213782D01*
X13666518Y-158862181D01*
X13633033Y-158800858D01*
X13638017Y-158731166D01*
X13679889Y-158675233D01*
X13745353Y-158650816D01*
X13754199Y-158650500D01*
X14424676Y-158650500D01*
X14424677Y-158650499D01*
X14497740Y-158635966D01*
X14580601Y-158580601D01*
X14635966Y-158497740D01*
X14650500Y-158424674D01*
X14650500Y-155575326D01*
X14650500Y-155575323D01*
X14650499Y-155575321D01*
X14635967Y-155502264D01*
X14635966Y-155502260D01*
X14631821Y-155496056D01*
X14580601Y-155419399D01*
X14497740Y-155364034D01*
X14497739Y-155364033D01*
X14497735Y-155364032D01*
X14424677Y-155349500D01*
X14424674Y-155349500D01*
X11575326Y-155349500D01*
X11575323Y-155349500D01*
X11502264Y-155364032D01*
X11502260Y-155364033D01*
X11419399Y-155419399D01*
X11364033Y-155502260D01*
X11364032Y-155502264D01*
X11349500Y-155575321D01*
X11349500Y-158424678D01*
X11364032Y-158497735D01*
X11364033Y-158497739D01*
X11364034Y-158497740D01*
X11419399Y-158580601D01*
X11502260Y-158635966D01*
X11502264Y-158635967D01*
X11575321Y-158650499D01*
X11575324Y-158650500D01*
X11575326Y-158650500D01*
X12500500Y-158650500D01*
X12567539Y-158670185D01*
X12613294Y-158722989D01*
X12623112Y-158768120D01*
X12623439Y-158768077D01*
X12623954Y-158771993D01*
X12624500Y-158774500D01*
X12624500Y-158776136D01*
X12631125Y-158800858D01*
X12632217Y-158804934D01*
X12632217Y-158804935D01*
X12650090Y-158871639D01*
X12666718Y-158900438D01*
X12699526Y-158957263D01*
X12699528Y-158957265D01*
X16544981Y-162802718D01*
X16578466Y-162864041D01*
X16581300Y-162890399D01*
X16581300Y-171030314D01*
X16561615Y-171097353D01*
X16544981Y-171117995D01*
X16516293Y-171146682D01*
X16516288Y-171146688D01*
X16443817Y-171272211D01*
X16443816Y-171272215D01*
X16406300Y-171412225D01*
X16406300Y-171557175D01*
X16443816Y-171697185D01*
X16443817Y-171697188D01*
X16516288Y-171822711D01*
X16516290Y-171822713D01*
X16516291Y-171822715D01*
X16618785Y-171925209D01*
X16618786Y-171925210D01*
X16618788Y-171925211D01*
X16744311Y-171997682D01*
X16744312Y-171997682D01*
X16744315Y-171997684D01*
X16884325Y-172035200D01*
X16884328Y-172035200D01*
X17029272Y-172035200D01*
X17029275Y-172035200D01*
X17073708Y-172023294D01*
X17143556Y-172024957D01*
X17201419Y-172064119D01*
X17228923Y-172128348D01*
X17229800Y-172143069D01*
X17229800Y-182528335D01*
X17255390Y-182623838D01*
X17291172Y-182685815D01*
X17304826Y-182709463D01*
X17437881Y-182842518D01*
X17471366Y-182903841D01*
X17474200Y-182930199D01*
X17474200Y-182970775D01*
X17511716Y-183110785D01*
X17511717Y-183110788D01*
X17584188Y-183236311D01*
X17584190Y-183236313D01*
X17584191Y-183236315D01*
X17686685Y-183338809D01*
X17686686Y-183338810D01*
X17686688Y-183338811D01*
X17812211Y-183411282D01*
X17812212Y-183411282D01*
X17812215Y-183411284D01*
X17952225Y-183448800D01*
X17952228Y-183448800D01*
X18097172Y-183448800D01*
X18097175Y-183448800D01*
X18237185Y-183411284D01*
X18362715Y-183338809D01*
X18465209Y-183236315D01*
X18537684Y-183110785D01*
X18575200Y-182970775D01*
X18575200Y-182825825D01*
X18537684Y-182685815D01*
X18501901Y-182623838D01*
X18465211Y-182560288D01*
X18465206Y-182560282D01*
X18362717Y-182457793D01*
X18362711Y-182457788D01*
X18237188Y-182385317D01*
X18237189Y-182385317D01*
X18097171Y-182347799D01*
X18089115Y-182346739D01*
X18089564Y-182343326D01*
X18037761Y-182328115D01*
X17992006Y-182275311D01*
X17980800Y-182223800D01*
X17980800Y-181401132D01*
X18000485Y-181334093D01*
X18053289Y-181288338D01*
X18122447Y-181278394D01*
X18136881Y-181281355D01*
X18168025Y-181289700D01*
X18168027Y-181289700D01*
X18312972Y-181289700D01*
X18312975Y-181289700D01*
X18452985Y-181252184D01*
X18578515Y-181179709D01*
X18681009Y-181077215D01*
X18753484Y-180951685D01*
X18791000Y-180811675D01*
X18791000Y-180666725D01*
X18753484Y-180526715D01*
X18681009Y-180401185D01*
X18652319Y-180372495D01*
X18618834Y-180311172D01*
X18616000Y-180284814D01*
X18616000Y-160513198D01*
X18635685Y-160446159D01*
X18652314Y-160425522D01*
X20030494Y-159047341D01*
X20091815Y-159013858D01*
X20161507Y-159018842D01*
X20217440Y-159060714D01*
X20225559Y-159073022D01*
X20237391Y-159093515D01*
X20339885Y-159196009D01*
X20339886Y-159196010D01*
X20339888Y-159196011D01*
X20465411Y-159268482D01*
X20465412Y-159268482D01*
X20465415Y-159268484D01*
X20605425Y-159306000D01*
X20605428Y-159306000D01*
X20750373Y-159306000D01*
X20750375Y-159306000D01*
X20796506Y-159293639D01*
X20866355Y-159295301D01*
X20924218Y-159334462D01*
X20951723Y-159398691D01*
X20952600Y-159413413D01*
X20952600Y-186432299D01*
X20932915Y-186499338D01*
X20916282Y-186519979D01*
X20878225Y-186558036D01*
X20828791Y-186643659D01*
X20828791Y-186643660D01*
X20828790Y-186643662D01*
X20803200Y-186739165D01*
X20803200Y-194129264D01*
X20803200Y-194228136D01*
X20807321Y-194243514D01*
X20817921Y-194283072D01*
X20828791Y-194323641D01*
X20871718Y-194397993D01*
X20878221Y-194409257D01*
X20878228Y-194409266D01*
X20942676Y-194473714D01*
X20976161Y-194535037D01*
X20972926Y-194599712D01*
X20926598Y-194742297D01*
X20926597Y-194742301D01*
X20899500Y-194913389D01*
X20899500Y-195086611D01*
X20907677Y-195138239D01*
X20919313Y-195211709D01*
X20926598Y-195257701D01*
X20935202Y-195284182D01*
X20980128Y-195422447D01*
X21058768Y-195576788D01*
X21078767Y-195604314D01*
X21102247Y-195670121D01*
X21086422Y-195738175D01*
X21036316Y-195786869D01*
X20978449Y-195801200D01*
X20481551Y-195801200D01*
X20414512Y-195781515D01*
X20368757Y-195728711D01*
X20358813Y-195659553D01*
X20381233Y-195604314D01*
X20401232Y-195576788D01*
X20479873Y-195422445D01*
X20533402Y-195257701D01*
X20560500Y-195086611D01*
X20560500Y-194913389D01*
X20533402Y-194742299D01*
X20479873Y-194577555D01*
X20401232Y-194423212D01*
X20299414Y-194283072D01*
X20176928Y-194160586D01*
X20036788Y-194058768D01*
X19882445Y-193980127D01*
X19717701Y-193926598D01*
X19717699Y-193926597D01*
X19717698Y-193926597D01*
X19580333Y-193904841D01*
X19546611Y-193899500D01*
X19373389Y-193899500D01*
X19339667Y-193904841D01*
X19202302Y-193926597D01*
X19037552Y-193980128D01*
X18883211Y-194058768D01*
X18803256Y-194116859D01*
X18743072Y-194160586D01*
X18743070Y-194160588D01*
X18743069Y-194160588D01*
X18620588Y-194283069D01*
X18620588Y-194283070D01*
X18620586Y-194283072D01*
X18596071Y-194316814D01*
X18518768Y-194423211D01*
X18440128Y-194577552D01*
X18386597Y-194742302D01*
X18359500Y-194913389D01*
X18359500Y-195086611D01*
X18367677Y-195138239D01*
X18379313Y-195211709D01*
X18386598Y-195257701D01*
X18395202Y-195284182D01*
X18440128Y-195422447D01*
X18518768Y-195576788D01*
X18538767Y-195604314D01*
X18562247Y-195670121D01*
X18546422Y-195738175D01*
X18496316Y-195786869D01*
X18438449Y-195801200D01*
X18148991Y-195801200D01*
X18080244Y-195819620D01*
X18034412Y-195831901D01*
X18034407Y-195831904D01*
X17990995Y-195856967D01*
X17990996Y-195856968D01*
X17931689Y-195891208D01*
X17931683Y-195891213D01*
X17366230Y-196456665D01*
X17304907Y-196490150D01*
X17240232Y-196486915D01*
X17177702Y-196466598D01*
X17177698Y-196466597D01*
X17046271Y-196445781D01*
X17006611Y-196439500D01*
X16833389Y-196439500D01*
X16793728Y-196445781D01*
X16662302Y-196466597D01*
X16497552Y-196520128D01*
X16343211Y-196598768D01*
X16263256Y-196656859D01*
X16203072Y-196700586D01*
X16203070Y-196700588D01*
X16203069Y-196700588D01*
X16080588Y-196823069D01*
X16080588Y-196823070D01*
X16080586Y-196823072D01*
X16039972Y-196878972D01*
X15978768Y-196963211D01*
X15900128Y-197117552D01*
X15846597Y-197282302D01*
X15819500Y-197453389D01*
X15819500Y-197626610D01*
X15838533Y-197746785D01*
X15846598Y-197797701D01*
X15900127Y-197962445D01*
X15978768Y-198116788D01*
X16080586Y-198256928D01*
X16203072Y-198379414D01*
X16343212Y-198481232D01*
X16497555Y-198559873D01*
X16662299Y-198613402D01*
X16833389Y-198640500D01*
X16833390Y-198640500D01*
X17006610Y-198640500D01*
X17006611Y-198640500D01*
X17177701Y-198613402D01*
X17342445Y-198559873D01*
X17496788Y-198481232D01*
X17636928Y-198379414D01*
X17759414Y-198256928D01*
X17861232Y-198116788D01*
X17939873Y-197962445D01*
X17993402Y-197797701D01*
X18020500Y-197626611D01*
X18020500Y-197453389D01*
X23439500Y-197453389D01*
X23439500Y-197626610D01*
X23458533Y-197746785D01*
X23466598Y-197797701D01*
X23520127Y-197962445D01*
X23598768Y-198116788D01*
X23700586Y-198256928D01*
X23823072Y-198379414D01*
X23963212Y-198481232D01*
X24117555Y-198559873D01*
X24282299Y-198613402D01*
X24453389Y-198640500D01*
X24453390Y-198640500D01*
X24626610Y-198640500D01*
X24626611Y-198640500D01*
X24797701Y-198613402D01*
X24962445Y-198559873D01*
X25116788Y-198481232D01*
X25256928Y-198379414D01*
X25379414Y-198256928D01*
X25481232Y-198116788D01*
X25559873Y-197962445D01*
X25613402Y-197797701D01*
X25640500Y-197626611D01*
X25640500Y-197453389D01*
X25613402Y-197282299D01*
X25559873Y-197117555D01*
X25481232Y-196963212D01*
X25379414Y-196823072D01*
X25256928Y-196700586D01*
X25116788Y-196598768D01*
X24962445Y-196520127D01*
X24797701Y-196466598D01*
X24797699Y-196466597D01*
X24797698Y-196466597D01*
X24666271Y-196445781D01*
X24626611Y-196439500D01*
X24453389Y-196439500D01*
X24413728Y-196445781D01*
X24282302Y-196466597D01*
X24117552Y-196520128D01*
X23963211Y-196598768D01*
X23883256Y-196656859D01*
X23823072Y-196700586D01*
X23823070Y-196700588D01*
X23823069Y-196700588D01*
X23700588Y-196823069D01*
X23700588Y-196823070D01*
X23700586Y-196823072D01*
X23659972Y-196878972D01*
X23598768Y-196963211D01*
X23520128Y-197117552D01*
X23466597Y-197282302D01*
X23439500Y-197453389D01*
X18020500Y-197453389D01*
X17993402Y-197282299D01*
X17973082Y-197219764D01*
X17971087Y-197149927D01*
X18003331Y-197093770D01*
X18358584Y-196738519D01*
X18419907Y-196705034D01*
X18446265Y-196702200D01*
X22589708Y-196702200D01*
X22589709Y-196702200D01*
X22680073Y-196677986D01*
X22704287Y-196671499D01*
X22807014Y-196612189D01*
X23613751Y-195805451D01*
X23675072Y-195771968D01*
X23744763Y-195776952D01*
X23789111Y-195805453D01*
X23823072Y-195839414D01*
X23963212Y-195941232D01*
X24117555Y-196019873D01*
X24282299Y-196073402D01*
X24453389Y-196100500D01*
X24453390Y-196100500D01*
X24626610Y-196100500D01*
X24626611Y-196100500D01*
X24797701Y-196073402D01*
X24962445Y-196019873D01*
X25116788Y-195941232D01*
X25256928Y-195839414D01*
X25379414Y-195716928D01*
X25481232Y-195576788D01*
X25559873Y-195422445D01*
X25613402Y-195257701D01*
X25640500Y-195086611D01*
X25640500Y-194913389D01*
X25979500Y-194913389D01*
X25979500Y-195086611D01*
X25987677Y-195138239D01*
X25999313Y-195211709D01*
X26006598Y-195257701D01*
X26060127Y-195422445D01*
X26138768Y-195576788D01*
X26240586Y-195716928D01*
X26363072Y-195839414D01*
X26503212Y-195941232D01*
X26657555Y-196019873D01*
X26822299Y-196073402D01*
X26993389Y-196100500D01*
X26993390Y-196100500D01*
X27166610Y-196100500D01*
X27166611Y-196100500D01*
X27337701Y-196073402D01*
X27502445Y-196019873D01*
X27656788Y-195941232D01*
X27796928Y-195839414D01*
X27919414Y-195716928D01*
X28021232Y-195576788D01*
X28099873Y-195422445D01*
X28153402Y-195257701D01*
X28180500Y-195086611D01*
X28180500Y-194913389D01*
X28153402Y-194742299D01*
X28139244Y-194698725D01*
X37537000Y-194698725D01*
X37537000Y-194843675D01*
X37574516Y-194983685D01*
X37574517Y-194983688D01*
X37646988Y-195109211D01*
X37646990Y-195109213D01*
X37646991Y-195109215D01*
X37749485Y-195211709D01*
X37749486Y-195211710D01*
X37749488Y-195211711D01*
X37875011Y-195284182D01*
X37875012Y-195284182D01*
X37875015Y-195284184D01*
X38015025Y-195321700D01*
X38015028Y-195321700D01*
X38159972Y-195321700D01*
X38159975Y-195321700D01*
X38299985Y-195284184D01*
X38425515Y-195211709D01*
X38528009Y-195109215D01*
X38600484Y-194983685D01*
X38638000Y-194843675D01*
X38638000Y-194698725D01*
X38600484Y-194558715D01*
X38586813Y-194535037D01*
X38528011Y-194433188D01*
X38528006Y-194433182D01*
X38499319Y-194404495D01*
X38465834Y-194343172D01*
X38463000Y-194316814D01*
X38463000Y-189243499D01*
X38482685Y-189176460D01*
X38499319Y-189155818D01*
X39655318Y-187999819D01*
X39716641Y-187966334D01*
X39742999Y-187963500D01*
X39783572Y-187963500D01*
X39783575Y-187963500D01*
X39923585Y-187925984D01*
X40049115Y-187853509D01*
X40151609Y-187751015D01*
X40224084Y-187625485D01*
X40261600Y-187485475D01*
X40261600Y-187340525D01*
X40224084Y-187200515D01*
X40202967Y-187163940D01*
X40151611Y-187074988D01*
X40151606Y-187074982D01*
X40049117Y-186972493D01*
X40049111Y-186972488D01*
X39923588Y-186900017D01*
X39923589Y-186900017D01*
X39912106Y-186896940D01*
X39783575Y-186862500D01*
X39638625Y-186862500D01*
X39510093Y-186896940D01*
X39498611Y-186900017D01*
X39373088Y-186972488D01*
X39373082Y-186972493D01*
X39270593Y-187074982D01*
X39270588Y-187074988D01*
X39198117Y-187200511D01*
X39198116Y-187200515D01*
X39160600Y-187340525D01*
X39160600Y-187340527D01*
X39160600Y-187381101D01*
X39140915Y-187448140D01*
X39124281Y-187468782D01*
X37787026Y-188806036D01*
X37737591Y-188891659D01*
X37737591Y-188891660D01*
X37737590Y-188891662D01*
X37712000Y-188987165D01*
X37712000Y-188987167D01*
X37712000Y-194316814D01*
X37692315Y-194383853D01*
X37675681Y-194404495D01*
X37646993Y-194433182D01*
X37646988Y-194433188D01*
X37574517Y-194558711D01*
X37574516Y-194558715D01*
X37537000Y-194698725D01*
X28139244Y-194698725D01*
X28099873Y-194577555D01*
X28021232Y-194423212D01*
X27919414Y-194283072D01*
X27796928Y-194160586D01*
X27656788Y-194058768D01*
X27502445Y-193980127D01*
X27337701Y-193926598D01*
X27337699Y-193926597D01*
X27337698Y-193926597D01*
X27200333Y-193904841D01*
X27166611Y-193899500D01*
X26993389Y-193899500D01*
X26959667Y-193904841D01*
X26822302Y-193926597D01*
X26657552Y-193980128D01*
X26503211Y-194058768D01*
X26423256Y-194116859D01*
X26363072Y-194160586D01*
X26363070Y-194160588D01*
X26363069Y-194160588D01*
X26240588Y-194283069D01*
X26240588Y-194283070D01*
X26240586Y-194283072D01*
X26216071Y-194316814D01*
X26138768Y-194423211D01*
X26060128Y-194577552D01*
X26006597Y-194742302D01*
X25979500Y-194913389D01*
X25640500Y-194913389D01*
X25613402Y-194742299D01*
X25559873Y-194577555D01*
X25481232Y-194423212D01*
X25379414Y-194283072D01*
X25256928Y-194160586D01*
X25116788Y-194058768D01*
X24962445Y-193980127D01*
X24797701Y-193926598D01*
X24797699Y-193926597D01*
X24797697Y-193926597D01*
X24692934Y-193910004D01*
X24629799Y-193880075D01*
X24592868Y-193820763D01*
X24593866Y-193750900D01*
X24624648Y-193699853D01*
X25151690Y-193172814D01*
X25210999Y-193070087D01*
X25217889Y-193044375D01*
X25223181Y-193024626D01*
X25232440Y-192990068D01*
X25241700Y-192955509D01*
X25241700Y-187284364D01*
X25261385Y-187217325D01*
X25314189Y-187171570D01*
X25383347Y-187161626D01*
X25446903Y-187190651D01*
X25482010Y-187244747D01*
X25482568Y-187244516D01*
X25483816Y-187247531D01*
X25484360Y-187248368D01*
X25484897Y-187250140D01*
X25533933Y-187368524D01*
X25533938Y-187368533D01*
X25605123Y-187475068D01*
X25605126Y-187475072D01*
X25695727Y-187565673D01*
X25695731Y-187565676D01*
X25802266Y-187636861D01*
X25802272Y-187636864D01*
X25802273Y-187636865D01*
X25920656Y-187685901D01*
X25920660Y-187685901D01*
X25920661Y-187685902D01*
X26046328Y-187710900D01*
X26046331Y-187710900D01*
X26174471Y-187710900D01*
X26259015Y-187694082D01*
X26300144Y-187685901D01*
X26418527Y-187636865D01*
X26525069Y-187565676D01*
X26615676Y-187475069D01*
X26686865Y-187368527D01*
X26735901Y-187250144D01*
X26755387Y-187152184D01*
X26760900Y-187124471D01*
X26760900Y-175575321D01*
X29349500Y-175575321D01*
X29349500Y-178424678D01*
X29364032Y-178497735D01*
X29364033Y-178497739D01*
X29364034Y-178497740D01*
X29419399Y-178580601D01*
X29502260Y-178635966D01*
X29502264Y-178635967D01*
X29575321Y-178650499D01*
X29575324Y-178650500D01*
X29575326Y-178650500D01*
X32424676Y-178650500D01*
X32424677Y-178650499D01*
X32497740Y-178635966D01*
X32580601Y-178580601D01*
X32635966Y-178497740D01*
X32650500Y-178424674D01*
X32650500Y-175575326D01*
X32650500Y-175575323D01*
X32650499Y-175575321D01*
X32635967Y-175502264D01*
X32635966Y-175502260D01*
X32580601Y-175419399D01*
X32497740Y-175364034D01*
X32497739Y-175364033D01*
X32497735Y-175364032D01*
X32424677Y-175349500D01*
X32424674Y-175349500D01*
X29575326Y-175349500D01*
X29575323Y-175349500D01*
X29502264Y-175364032D01*
X29502260Y-175364033D01*
X29419399Y-175419399D01*
X29364033Y-175502260D01*
X29364032Y-175502264D01*
X29349500Y-175575321D01*
X26760900Y-175575321D01*
X26760900Y-167823125D01*
X43358300Y-167823125D01*
X43358300Y-167968075D01*
X43395816Y-168108085D01*
X43395817Y-168108088D01*
X43468288Y-168233611D01*
X43468293Y-168233617D01*
X43496981Y-168262305D01*
X43530466Y-168323628D01*
X43533300Y-168349986D01*
X43533300Y-189721435D01*
X43558890Y-189816938D01*
X43558891Y-189816939D01*
X43558891Y-189816940D01*
X43608326Y-189902563D01*
X44590881Y-190885118D01*
X44624366Y-190946441D01*
X44627200Y-190972799D01*
X44627200Y-197630414D01*
X44607515Y-197697453D01*
X44590881Y-197718095D01*
X44562193Y-197746782D01*
X44562188Y-197746788D01*
X44489717Y-197872311D01*
X44489716Y-197872315D01*
X44452200Y-198012325D01*
X44452200Y-198157275D01*
X44478903Y-198256929D01*
X44489717Y-198297288D01*
X44562188Y-198422811D01*
X44562190Y-198422813D01*
X44562191Y-198422815D01*
X44664685Y-198525309D01*
X44664686Y-198525310D01*
X44664688Y-198525311D01*
X44790211Y-198597782D01*
X44790212Y-198597782D01*
X44790215Y-198597784D01*
X44930225Y-198635300D01*
X44930228Y-198635300D01*
X45075172Y-198635300D01*
X45075175Y-198635300D01*
X45215185Y-198597784D01*
X45340715Y-198525309D01*
X45443209Y-198422815D01*
X45515684Y-198297285D01*
X45553200Y-198157275D01*
X45553200Y-198012325D01*
X45515684Y-197872315D01*
X45472605Y-197797701D01*
X45443211Y-197746788D01*
X45443206Y-197746782D01*
X45414519Y-197718095D01*
X45381034Y-197656772D01*
X45378200Y-197630414D01*
X45378200Y-190716467D01*
X45378200Y-190716465D01*
X45352610Y-190620962D01*
X45303175Y-190535338D01*
X45233262Y-190465425D01*
X44320619Y-189552782D01*
X44287134Y-189491459D01*
X44284300Y-189465101D01*
X44284300Y-176021025D01*
X48877900Y-176021025D01*
X48877900Y-176165975D01*
X48915416Y-176305985D01*
X48915417Y-176305988D01*
X48987888Y-176431511D01*
X48987893Y-176431517D01*
X49016581Y-176460205D01*
X49050066Y-176521528D01*
X49052900Y-176547886D01*
X49052900Y-196352114D01*
X49033215Y-196419153D01*
X49016581Y-196439795D01*
X48987893Y-196468482D01*
X48987888Y-196468488D01*
X48915417Y-196594011D01*
X48915416Y-196594015D01*
X48877900Y-196734025D01*
X48877900Y-196878975D01*
X48915416Y-197018985D01*
X48915417Y-197018988D01*
X48987888Y-197144511D01*
X48987890Y-197144513D01*
X48987891Y-197144515D01*
X49090385Y-197247009D01*
X49090386Y-197247010D01*
X49090388Y-197247011D01*
X49215911Y-197319482D01*
X49215912Y-197319482D01*
X49215915Y-197319484D01*
X49355925Y-197357000D01*
X49355928Y-197357000D01*
X49500872Y-197357000D01*
X49500875Y-197357000D01*
X49640885Y-197319484D01*
X49766415Y-197247009D01*
X49868909Y-197144515D01*
X49941384Y-197018985D01*
X49978900Y-196878975D01*
X49978900Y-196734025D01*
X49941384Y-196594015D01*
X49881417Y-196490150D01*
X49868911Y-196468488D01*
X49868906Y-196468482D01*
X49840219Y-196439795D01*
X49806734Y-196378472D01*
X49803900Y-196352114D01*
X49803900Y-176547886D01*
X49823585Y-176480847D01*
X49840219Y-176460205D01*
X49868909Y-176431515D01*
X49941384Y-176305985D01*
X49978900Y-176165975D01*
X49978900Y-176021025D01*
X49941384Y-175881015D01*
X49872155Y-175761108D01*
X49868911Y-175755488D01*
X49868906Y-175755482D01*
X49766417Y-175652993D01*
X49766411Y-175652988D01*
X49640888Y-175580517D01*
X49640889Y-175580517D01*
X49621516Y-175575326D01*
X49621497Y-175575321D01*
X51349500Y-175575321D01*
X51349500Y-178424678D01*
X51364032Y-178497735D01*
X51364033Y-178497739D01*
X51364034Y-178497740D01*
X51419399Y-178580601D01*
X51502260Y-178635966D01*
X51502264Y-178635967D01*
X51575321Y-178650499D01*
X51575324Y-178650500D01*
X51575326Y-178650500D01*
X54424676Y-178650500D01*
X54424677Y-178650499D01*
X54497740Y-178635966D01*
X54580601Y-178580601D01*
X54635966Y-178497740D01*
X54650500Y-178424674D01*
X54650500Y-175575326D01*
X54650500Y-175575323D01*
X54650499Y-175575321D01*
X54635967Y-175502264D01*
X54635966Y-175502260D01*
X54580601Y-175419399D01*
X54497740Y-175364034D01*
X54497739Y-175364033D01*
X54497735Y-175364032D01*
X54424677Y-175349500D01*
X54424674Y-175349500D01*
X51575326Y-175349500D01*
X51575323Y-175349500D01*
X51502264Y-175364032D01*
X51502260Y-175364033D01*
X51419399Y-175419399D01*
X51364033Y-175502260D01*
X51364032Y-175502264D01*
X51349500Y-175575321D01*
X49621497Y-175575321D01*
X49500875Y-175543000D01*
X49355925Y-175543000D01*
X49235284Y-175575326D01*
X49215911Y-175580517D01*
X49090388Y-175652988D01*
X49090382Y-175652993D01*
X48987893Y-175755482D01*
X48987888Y-175755488D01*
X48915417Y-175881011D01*
X48915416Y-175881015D01*
X48877900Y-176021025D01*
X44284300Y-176021025D01*
X44284300Y-168349986D01*
X44303985Y-168282947D01*
X44320619Y-168262305D01*
X44349309Y-168233615D01*
X44421784Y-168108085D01*
X44459300Y-167968075D01*
X44459300Y-167823125D01*
X44421784Y-167683115D01*
X44349309Y-167557585D01*
X44246815Y-167455091D01*
X44246813Y-167455090D01*
X44246811Y-167455088D01*
X44121288Y-167382617D01*
X44121289Y-167382617D01*
X44109806Y-167379540D01*
X43981275Y-167345100D01*
X43836325Y-167345100D01*
X43707793Y-167379540D01*
X43696311Y-167382617D01*
X43570788Y-167455088D01*
X43570782Y-167455093D01*
X43468293Y-167557582D01*
X43468288Y-167557588D01*
X43395817Y-167683111D01*
X43395816Y-167683115D01*
X43358300Y-167823125D01*
X26760900Y-167823125D01*
X26760900Y-167304708D01*
X26780585Y-167237669D01*
X26797219Y-167217027D01*
X28455671Y-165558575D01*
X28455676Y-165558570D01*
X28526865Y-165452027D01*
X28575901Y-165333644D01*
X28600900Y-165207969D01*
X28600900Y-155575321D01*
X29349500Y-155575321D01*
X29349500Y-158424678D01*
X29364032Y-158497735D01*
X29364033Y-158497739D01*
X29364034Y-158497740D01*
X29419399Y-158580601D01*
X29502260Y-158635966D01*
X29502264Y-158635967D01*
X29575321Y-158650499D01*
X29575324Y-158650500D01*
X29575326Y-158650500D01*
X32424676Y-158650500D01*
X32424677Y-158650499D01*
X32497740Y-158635966D01*
X32580601Y-158580601D01*
X32635966Y-158497740D01*
X32650500Y-158424674D01*
X32650500Y-155575326D01*
X32650500Y-155575323D01*
X32650499Y-155575321D01*
X32635967Y-155502264D01*
X32635966Y-155502260D01*
X32631821Y-155496056D01*
X32580601Y-155419399D01*
X32497740Y-155364034D01*
X32497739Y-155364033D01*
X32497735Y-155364032D01*
X32424677Y-155349500D01*
X32424674Y-155349500D01*
X29575326Y-155349500D01*
X29575323Y-155349500D01*
X29502264Y-155364032D01*
X29502260Y-155364033D01*
X29419399Y-155419399D01*
X29364033Y-155502260D01*
X29364032Y-155502264D01*
X29349500Y-155575321D01*
X28600900Y-155575321D01*
X28600900Y-144710631D01*
X28600900Y-144710628D01*
X28575902Y-144584960D01*
X28575900Y-144584954D01*
X28555589Y-144535921D01*
X28555587Y-144535916D01*
X28526868Y-144466578D01*
X28526862Y-144466568D01*
X28455678Y-144360032D01*
X28455672Y-144360025D01*
X28085373Y-143989726D01*
X28085369Y-143989723D01*
X27978827Y-143918535D01*
X27860444Y-143869499D01*
X27860436Y-143869497D01*
X27734773Y-143844501D01*
X27734769Y-143844501D01*
X27606631Y-143844501D01*
X27606626Y-143844501D01*
X27480963Y-143869497D01*
X27480951Y-143869500D01*
X27373652Y-143913945D01*
X27304183Y-143921414D01*
X27241704Y-143890139D01*
X27206052Y-143830050D01*
X27202200Y-143799384D01*
X27202200Y-135575321D01*
X29349500Y-135575321D01*
X29349500Y-138424678D01*
X29364032Y-138497735D01*
X29364033Y-138497739D01*
X29364034Y-138497740D01*
X29419399Y-138580601D01*
X29502260Y-138635966D01*
X29502264Y-138635967D01*
X29575321Y-138650499D01*
X29575324Y-138650500D01*
X29575326Y-138650500D01*
X32424676Y-138650500D01*
X32424677Y-138650499D01*
X32497740Y-138635966D01*
X32580601Y-138580601D01*
X32635966Y-138497740D01*
X32650500Y-138424674D01*
X32650500Y-135575326D01*
X32650500Y-135575323D01*
X32650499Y-135575321D01*
X51349500Y-135575321D01*
X51349500Y-138424678D01*
X51364032Y-138497735D01*
X51364033Y-138497739D01*
X51364034Y-138497740D01*
X51419399Y-138580601D01*
X51502260Y-138635966D01*
X51502264Y-138635967D01*
X51575321Y-138650499D01*
X51575324Y-138650500D01*
X51575326Y-138650500D01*
X54424676Y-138650500D01*
X54424677Y-138650499D01*
X54497740Y-138635966D01*
X54580601Y-138580601D01*
X54580603Y-138580597D01*
X54589237Y-138571965D01*
X54591955Y-138574683D01*
X54628792Y-138543889D01*
X54698116Y-138535171D01*
X54761148Y-138565316D01*
X54797877Y-138624753D01*
X54802300Y-138657577D01*
X54802300Y-141545136D01*
X54814401Y-141590299D01*
X54814402Y-141590299D01*
X54827891Y-141640640D01*
X54877326Y-141726263D01*
X57840781Y-144689718D01*
X57874266Y-144751041D01*
X57877100Y-144777399D01*
X57877100Y-150715709D01*
X57857415Y-150782748D01*
X57804611Y-150828503D01*
X57735453Y-150838447D01*
X57721007Y-150835484D01*
X57694953Y-150828503D01*
X57677775Y-150823900D01*
X57532825Y-150823900D01*
X57404293Y-150858340D01*
X57392811Y-150861417D01*
X57267288Y-150933888D01*
X57267282Y-150933893D01*
X57164793Y-151036382D01*
X57164788Y-151036388D01*
X57092317Y-151161911D01*
X57092316Y-151161915D01*
X57054800Y-151301925D01*
X57054800Y-151446875D01*
X57088257Y-151571737D01*
X57092317Y-151586888D01*
X57164788Y-151712411D01*
X57164793Y-151712417D01*
X57193481Y-151741105D01*
X57226966Y-151802428D01*
X57229800Y-151828786D01*
X57229800Y-162126101D01*
X57210115Y-162193140D01*
X57157311Y-162238895D01*
X57088153Y-162248839D01*
X57024597Y-162219814D01*
X57018119Y-162213782D01*
X53666518Y-158862181D01*
X53633033Y-158800858D01*
X53638017Y-158731166D01*
X53679889Y-158675233D01*
X53745353Y-158650816D01*
X53754199Y-158650500D01*
X54424676Y-158650500D01*
X54424677Y-158650499D01*
X54497740Y-158635966D01*
X54580601Y-158580601D01*
X54635966Y-158497740D01*
X54650500Y-158424674D01*
X54650500Y-155575326D01*
X54650500Y-155575323D01*
X54650499Y-155575321D01*
X54635967Y-155502264D01*
X54635966Y-155502260D01*
X54631821Y-155496056D01*
X54580601Y-155419399D01*
X54497740Y-155364034D01*
X54497739Y-155364033D01*
X54497735Y-155364032D01*
X54424677Y-155349500D01*
X54424674Y-155349500D01*
X51575326Y-155349500D01*
X51575323Y-155349500D01*
X51502264Y-155364032D01*
X51502260Y-155364033D01*
X51419399Y-155419399D01*
X51364033Y-155502260D01*
X51364032Y-155502264D01*
X51349500Y-155575321D01*
X51349500Y-158424678D01*
X51364032Y-158497735D01*
X51364033Y-158497739D01*
X51364034Y-158497740D01*
X51419399Y-158580601D01*
X51502260Y-158635966D01*
X51502264Y-158635967D01*
X51575321Y-158650499D01*
X51575324Y-158650500D01*
X51575326Y-158650500D01*
X52500500Y-158650500D01*
X52567539Y-158670185D01*
X52613294Y-158722989D01*
X52623112Y-158768120D01*
X52623439Y-158768077D01*
X52623954Y-158771993D01*
X52624500Y-158774500D01*
X52624500Y-158776136D01*
X52631125Y-158800858D01*
X52632217Y-158804934D01*
X52632217Y-158804935D01*
X52650090Y-158871639D01*
X52666718Y-158900438D01*
X52699526Y-158957263D01*
X52699528Y-158957265D01*
X56544981Y-162802718D01*
X56578466Y-162864041D01*
X56581300Y-162890399D01*
X56581300Y-171030314D01*
X56561615Y-171097353D01*
X56544981Y-171117995D01*
X56516293Y-171146682D01*
X56516288Y-171146688D01*
X56443817Y-171272211D01*
X56443816Y-171272215D01*
X56406300Y-171412225D01*
X56406300Y-171557175D01*
X56443816Y-171697185D01*
X56443817Y-171697188D01*
X56516288Y-171822711D01*
X56516290Y-171822713D01*
X56516291Y-171822715D01*
X56618785Y-171925209D01*
X56618786Y-171925210D01*
X56618788Y-171925211D01*
X56744311Y-171997682D01*
X56744312Y-171997682D01*
X56744315Y-171997684D01*
X56884325Y-172035200D01*
X56884328Y-172035200D01*
X57029272Y-172035200D01*
X57029275Y-172035200D01*
X57073708Y-172023294D01*
X57143556Y-172024957D01*
X57201419Y-172064119D01*
X57228923Y-172128348D01*
X57229800Y-172143069D01*
X57229800Y-182528335D01*
X57255390Y-182623838D01*
X57291172Y-182685815D01*
X57304826Y-182709463D01*
X57437881Y-182842518D01*
X57471366Y-182903841D01*
X57474200Y-182930199D01*
X57474200Y-182970775D01*
X57511716Y-183110785D01*
X57511717Y-183110788D01*
X57584188Y-183236311D01*
X57584190Y-183236313D01*
X57584191Y-183236315D01*
X57686685Y-183338809D01*
X57686686Y-183338810D01*
X57686688Y-183338811D01*
X57812211Y-183411282D01*
X57812212Y-183411282D01*
X57812215Y-183411284D01*
X57952225Y-183448800D01*
X57952228Y-183448800D01*
X58097172Y-183448800D01*
X58097175Y-183448800D01*
X58237185Y-183411284D01*
X58362715Y-183338809D01*
X58465209Y-183236315D01*
X58537684Y-183110785D01*
X58575200Y-182970775D01*
X58575200Y-182825825D01*
X58537684Y-182685815D01*
X58501901Y-182623838D01*
X58465211Y-182560288D01*
X58465206Y-182560282D01*
X58362717Y-182457793D01*
X58362711Y-182457788D01*
X58237188Y-182385317D01*
X58237189Y-182385317D01*
X58097171Y-182347799D01*
X58089115Y-182346739D01*
X58089564Y-182343326D01*
X58037761Y-182328115D01*
X57992006Y-182275311D01*
X57980800Y-182223800D01*
X57980800Y-181401132D01*
X58000485Y-181334093D01*
X58053289Y-181288338D01*
X58122447Y-181278394D01*
X58136881Y-181281355D01*
X58168025Y-181289700D01*
X58168027Y-181289700D01*
X58312972Y-181289700D01*
X58312975Y-181289700D01*
X58452985Y-181252184D01*
X58578515Y-181179709D01*
X58681009Y-181077215D01*
X58753484Y-180951685D01*
X58791000Y-180811675D01*
X58791000Y-180666725D01*
X58753484Y-180526715D01*
X58681009Y-180401185D01*
X58652319Y-180372495D01*
X58618834Y-180311172D01*
X58616000Y-180284814D01*
X58616000Y-160513198D01*
X58635685Y-160446159D01*
X58652314Y-160425522D01*
X60030494Y-159047341D01*
X60091815Y-159013858D01*
X60161507Y-159018842D01*
X60217440Y-159060714D01*
X60225559Y-159073022D01*
X60237391Y-159093515D01*
X60339885Y-159196009D01*
X60339886Y-159196010D01*
X60339888Y-159196011D01*
X60465411Y-159268482D01*
X60465412Y-159268482D01*
X60465415Y-159268484D01*
X60605425Y-159306000D01*
X60605428Y-159306000D01*
X60750373Y-159306000D01*
X60750375Y-159306000D01*
X60796506Y-159293639D01*
X60866355Y-159295301D01*
X60924218Y-159334462D01*
X60951723Y-159398691D01*
X60952600Y-159413413D01*
X60952600Y-186432299D01*
X60932915Y-186499338D01*
X60916282Y-186519979D01*
X60878225Y-186558036D01*
X60828791Y-186643659D01*
X60828791Y-186643660D01*
X60828790Y-186643662D01*
X60803200Y-186739165D01*
X60803200Y-194129264D01*
X60803200Y-194228136D01*
X60807321Y-194243514D01*
X60817921Y-194283072D01*
X60828791Y-194323641D01*
X60871718Y-194397993D01*
X60878221Y-194409257D01*
X60878228Y-194409266D01*
X60942676Y-194473714D01*
X60976161Y-194535037D01*
X60972926Y-194599712D01*
X60926598Y-194742297D01*
X60926597Y-194742301D01*
X60899500Y-194913389D01*
X60899500Y-195086611D01*
X60907677Y-195138239D01*
X60919313Y-195211709D01*
X60926598Y-195257701D01*
X60935202Y-195284182D01*
X60980128Y-195422447D01*
X61058768Y-195576788D01*
X61078767Y-195604314D01*
X61102247Y-195670121D01*
X61086422Y-195738175D01*
X61036316Y-195786869D01*
X60978449Y-195801200D01*
X60481551Y-195801200D01*
X60414512Y-195781515D01*
X60368757Y-195728711D01*
X60358813Y-195659553D01*
X60381233Y-195604314D01*
X60401232Y-195576788D01*
X60479873Y-195422445D01*
X60533402Y-195257701D01*
X60560500Y-195086611D01*
X60560500Y-194913389D01*
X60533402Y-194742299D01*
X60479873Y-194577555D01*
X60401232Y-194423212D01*
X60299414Y-194283072D01*
X60176928Y-194160586D01*
X60036788Y-194058768D01*
X59882445Y-193980127D01*
X59717701Y-193926598D01*
X59717699Y-193926597D01*
X59717698Y-193926597D01*
X59580333Y-193904841D01*
X59546611Y-193899500D01*
X59373389Y-193899500D01*
X59339667Y-193904841D01*
X59202302Y-193926597D01*
X59037552Y-193980128D01*
X58883211Y-194058768D01*
X58803256Y-194116859D01*
X58743072Y-194160586D01*
X58743070Y-194160588D01*
X58743069Y-194160588D01*
X58620588Y-194283069D01*
X58620588Y-194283070D01*
X58620586Y-194283072D01*
X58596071Y-194316814D01*
X58518768Y-194423211D01*
X58440128Y-194577552D01*
X58386597Y-194742302D01*
X58359500Y-194913389D01*
X58359500Y-195086611D01*
X58367677Y-195138239D01*
X58379313Y-195211709D01*
X58386598Y-195257701D01*
X58395202Y-195284182D01*
X58440128Y-195422447D01*
X58518768Y-195576788D01*
X58538767Y-195604314D01*
X58562247Y-195670121D01*
X58546422Y-195738175D01*
X58496316Y-195786869D01*
X58438449Y-195801200D01*
X58148991Y-195801200D01*
X58080244Y-195819620D01*
X58034412Y-195831901D01*
X58034407Y-195831904D01*
X57990995Y-195856967D01*
X57990996Y-195856968D01*
X57931689Y-195891208D01*
X57931683Y-195891213D01*
X57366230Y-196456665D01*
X57304907Y-196490150D01*
X57240232Y-196486915D01*
X57177702Y-196466598D01*
X57177698Y-196466597D01*
X57046271Y-196445781D01*
X57006611Y-196439500D01*
X56833389Y-196439500D01*
X56793728Y-196445781D01*
X56662302Y-196466597D01*
X56497552Y-196520128D01*
X56343211Y-196598768D01*
X56263256Y-196656859D01*
X56203072Y-196700586D01*
X56203070Y-196700588D01*
X56203069Y-196700588D01*
X56080588Y-196823069D01*
X56080588Y-196823070D01*
X56080586Y-196823072D01*
X56039972Y-196878972D01*
X55978768Y-196963211D01*
X55900128Y-197117552D01*
X55846597Y-197282302D01*
X55819500Y-197453389D01*
X55819500Y-197626610D01*
X55838533Y-197746785D01*
X55846598Y-197797701D01*
X55900127Y-197962445D01*
X55978768Y-198116788D01*
X56080586Y-198256928D01*
X56203072Y-198379414D01*
X56343212Y-198481232D01*
X56497555Y-198559873D01*
X56662299Y-198613402D01*
X56833389Y-198640500D01*
X56833390Y-198640500D01*
X57006610Y-198640500D01*
X57006611Y-198640500D01*
X57177701Y-198613402D01*
X57342445Y-198559873D01*
X57496788Y-198481232D01*
X57636928Y-198379414D01*
X57759414Y-198256928D01*
X57861232Y-198116788D01*
X57939873Y-197962445D01*
X57993402Y-197797701D01*
X58020500Y-197626611D01*
X58020500Y-197453389D01*
X63439500Y-197453389D01*
X63439500Y-197626610D01*
X63458533Y-197746785D01*
X63466598Y-197797701D01*
X63520127Y-197962445D01*
X63598768Y-198116788D01*
X63700586Y-198256928D01*
X63823072Y-198379414D01*
X63963212Y-198481232D01*
X64117555Y-198559873D01*
X64282299Y-198613402D01*
X64453389Y-198640500D01*
X64453390Y-198640500D01*
X64626610Y-198640500D01*
X64626611Y-198640500D01*
X64797701Y-198613402D01*
X64962445Y-198559873D01*
X65116788Y-198481232D01*
X65256928Y-198379414D01*
X65379414Y-198256928D01*
X65481232Y-198116788D01*
X65559873Y-197962445D01*
X65613402Y-197797701D01*
X65640500Y-197626611D01*
X65640500Y-197453389D01*
X65613402Y-197282299D01*
X65559873Y-197117555D01*
X65481232Y-196963212D01*
X65379414Y-196823072D01*
X65256928Y-196700586D01*
X65116788Y-196598768D01*
X64962445Y-196520127D01*
X64797701Y-196466598D01*
X64797699Y-196466597D01*
X64797698Y-196466597D01*
X64666271Y-196445781D01*
X64626611Y-196439500D01*
X64453389Y-196439500D01*
X64413728Y-196445781D01*
X64282302Y-196466597D01*
X64117552Y-196520128D01*
X63963211Y-196598768D01*
X63883256Y-196656859D01*
X63823072Y-196700586D01*
X63823070Y-196700588D01*
X63823069Y-196700588D01*
X63700588Y-196823069D01*
X63700588Y-196823070D01*
X63700586Y-196823072D01*
X63659972Y-196878972D01*
X63598768Y-196963211D01*
X63520128Y-197117552D01*
X63466597Y-197282302D01*
X63439500Y-197453389D01*
X58020500Y-197453389D01*
X57993402Y-197282299D01*
X57973082Y-197219764D01*
X57971087Y-197149927D01*
X58003331Y-197093770D01*
X58358584Y-196738519D01*
X58419907Y-196705034D01*
X58446265Y-196702200D01*
X62589708Y-196702200D01*
X62589709Y-196702200D01*
X62680073Y-196677986D01*
X62704287Y-196671499D01*
X62807014Y-196612189D01*
X63613751Y-195805451D01*
X63675072Y-195771968D01*
X63744763Y-195776952D01*
X63789111Y-195805453D01*
X63823072Y-195839414D01*
X63963212Y-195941232D01*
X64117555Y-196019873D01*
X64282299Y-196073402D01*
X64453389Y-196100500D01*
X64453390Y-196100500D01*
X64626610Y-196100500D01*
X64626611Y-196100500D01*
X64797701Y-196073402D01*
X64962445Y-196019873D01*
X65116788Y-195941232D01*
X65256928Y-195839414D01*
X65379414Y-195716928D01*
X65481232Y-195576788D01*
X65559873Y-195422445D01*
X65613402Y-195257701D01*
X65640500Y-195086611D01*
X65640500Y-194913389D01*
X65979500Y-194913389D01*
X65979500Y-195086611D01*
X65987677Y-195138239D01*
X65999313Y-195211709D01*
X66006598Y-195257701D01*
X66060127Y-195422445D01*
X66138768Y-195576788D01*
X66240586Y-195716928D01*
X66363072Y-195839414D01*
X66503212Y-195941232D01*
X66657555Y-196019873D01*
X66822299Y-196073402D01*
X66993389Y-196100500D01*
X66993390Y-196100500D01*
X67166610Y-196100500D01*
X67166611Y-196100500D01*
X67337701Y-196073402D01*
X67502445Y-196019873D01*
X67656788Y-195941232D01*
X67796928Y-195839414D01*
X67919414Y-195716928D01*
X68021232Y-195576788D01*
X68099873Y-195422445D01*
X68153402Y-195257701D01*
X68180500Y-195086611D01*
X68180500Y-194913389D01*
X68153402Y-194742299D01*
X68139244Y-194698725D01*
X77537000Y-194698725D01*
X77537000Y-194843675D01*
X77574516Y-194983685D01*
X77574517Y-194983688D01*
X77646988Y-195109211D01*
X77646990Y-195109213D01*
X77646991Y-195109215D01*
X77749485Y-195211709D01*
X77749486Y-195211710D01*
X77749488Y-195211711D01*
X77875011Y-195284182D01*
X77875012Y-195284182D01*
X77875015Y-195284184D01*
X78015025Y-195321700D01*
X78015028Y-195321700D01*
X78159972Y-195321700D01*
X78159975Y-195321700D01*
X78299985Y-195284184D01*
X78425515Y-195211709D01*
X78528009Y-195109215D01*
X78600484Y-194983685D01*
X78638000Y-194843675D01*
X78638000Y-194698725D01*
X78600484Y-194558715D01*
X78586813Y-194535037D01*
X78528011Y-194433188D01*
X78528006Y-194433182D01*
X78499319Y-194404495D01*
X78465834Y-194343172D01*
X78463000Y-194316814D01*
X78463000Y-189243499D01*
X78482685Y-189176460D01*
X78499319Y-189155818D01*
X79655318Y-187999819D01*
X79716641Y-187966334D01*
X79742999Y-187963500D01*
X79783572Y-187963500D01*
X79783575Y-187963500D01*
X79923585Y-187925984D01*
X80049115Y-187853509D01*
X80151609Y-187751015D01*
X80224084Y-187625485D01*
X80261600Y-187485475D01*
X80261600Y-187340525D01*
X80224084Y-187200515D01*
X80202967Y-187163940D01*
X80151611Y-187074988D01*
X80151606Y-187074982D01*
X80049117Y-186972493D01*
X80049111Y-186972488D01*
X79923588Y-186900017D01*
X79923589Y-186900017D01*
X79912106Y-186896940D01*
X79783575Y-186862500D01*
X79638625Y-186862500D01*
X79510093Y-186896940D01*
X79498611Y-186900017D01*
X79373088Y-186972488D01*
X79373082Y-186972493D01*
X79270593Y-187074982D01*
X79270588Y-187074988D01*
X79198117Y-187200511D01*
X79198116Y-187200515D01*
X79160600Y-187340525D01*
X79160600Y-187340527D01*
X79160600Y-187381101D01*
X79140915Y-187448140D01*
X79124281Y-187468782D01*
X77787026Y-188806036D01*
X77737591Y-188891659D01*
X77737591Y-188891660D01*
X77737590Y-188891662D01*
X77712000Y-188987165D01*
X77712000Y-188987167D01*
X77712000Y-194316814D01*
X77692315Y-194383853D01*
X77675681Y-194404495D01*
X77646993Y-194433182D01*
X77646988Y-194433188D01*
X77574517Y-194558711D01*
X77574516Y-194558715D01*
X77537000Y-194698725D01*
X68139244Y-194698725D01*
X68099873Y-194577555D01*
X68021232Y-194423212D01*
X67919414Y-194283072D01*
X67796928Y-194160586D01*
X67656788Y-194058768D01*
X67502445Y-193980127D01*
X67337701Y-193926598D01*
X67337699Y-193926597D01*
X67337698Y-193926597D01*
X67200333Y-193904841D01*
X67166611Y-193899500D01*
X66993389Y-193899500D01*
X66959667Y-193904841D01*
X66822302Y-193926597D01*
X66657552Y-193980128D01*
X66503211Y-194058768D01*
X66423256Y-194116859D01*
X66363072Y-194160586D01*
X66363070Y-194160588D01*
X66363069Y-194160588D01*
X66240588Y-194283069D01*
X66240588Y-194283070D01*
X66240586Y-194283072D01*
X66216071Y-194316814D01*
X66138768Y-194423211D01*
X66060128Y-194577552D01*
X66006597Y-194742302D01*
X65979500Y-194913389D01*
X65640500Y-194913389D01*
X65613402Y-194742299D01*
X65559873Y-194577555D01*
X65481232Y-194423212D01*
X65379414Y-194283072D01*
X65256928Y-194160586D01*
X65116788Y-194058768D01*
X64962445Y-193980127D01*
X64797701Y-193926598D01*
X64797699Y-193926597D01*
X64797697Y-193926597D01*
X64692934Y-193910004D01*
X64629799Y-193880075D01*
X64592868Y-193820763D01*
X64593866Y-193750900D01*
X64624648Y-193699853D01*
X65151690Y-193172814D01*
X65210999Y-193070087D01*
X65217889Y-193044375D01*
X65223181Y-193024626D01*
X65232440Y-192990068D01*
X65241700Y-192955509D01*
X65241700Y-187284364D01*
X65261385Y-187217325D01*
X65314189Y-187171570D01*
X65383347Y-187161626D01*
X65446903Y-187190651D01*
X65482010Y-187244747D01*
X65482568Y-187244516D01*
X65483816Y-187247531D01*
X65484360Y-187248368D01*
X65484897Y-187250140D01*
X65533933Y-187368524D01*
X65533938Y-187368533D01*
X65605123Y-187475068D01*
X65605126Y-187475072D01*
X65695727Y-187565673D01*
X65695731Y-187565676D01*
X65802266Y-187636861D01*
X65802272Y-187636864D01*
X65802273Y-187636865D01*
X65920656Y-187685901D01*
X65920660Y-187685901D01*
X65920661Y-187685902D01*
X66046328Y-187710900D01*
X66046331Y-187710900D01*
X66174471Y-187710900D01*
X66259015Y-187694082D01*
X66300144Y-187685901D01*
X66418527Y-187636865D01*
X66525069Y-187565676D01*
X66615676Y-187475069D01*
X66686865Y-187368527D01*
X66735901Y-187250144D01*
X66755387Y-187152184D01*
X66760900Y-187124471D01*
X66760900Y-175575321D01*
X69349500Y-175575321D01*
X69349500Y-178424678D01*
X69364032Y-178497735D01*
X69364033Y-178497739D01*
X69364034Y-178497740D01*
X69419399Y-178580601D01*
X69502260Y-178635966D01*
X69502264Y-178635967D01*
X69575321Y-178650499D01*
X69575324Y-178650500D01*
X69575326Y-178650500D01*
X72424676Y-178650500D01*
X72424677Y-178650499D01*
X72497740Y-178635966D01*
X72580601Y-178580601D01*
X72635966Y-178497740D01*
X72650500Y-178424674D01*
X72650500Y-175575326D01*
X72650500Y-175575323D01*
X72650499Y-175575321D01*
X72635967Y-175502264D01*
X72635966Y-175502260D01*
X72580601Y-175419399D01*
X72497740Y-175364034D01*
X72497739Y-175364033D01*
X72497735Y-175364032D01*
X72424677Y-175349500D01*
X72424674Y-175349500D01*
X69575326Y-175349500D01*
X69575323Y-175349500D01*
X69502264Y-175364032D01*
X69502260Y-175364033D01*
X69419399Y-175419399D01*
X69364033Y-175502260D01*
X69364032Y-175502264D01*
X69349500Y-175575321D01*
X66760900Y-175575321D01*
X66760900Y-167304708D01*
X66780585Y-167237669D01*
X66797219Y-167217027D01*
X68455671Y-165558575D01*
X68455676Y-165558570D01*
X68526865Y-165452027D01*
X68575901Y-165333644D01*
X68600900Y-165207969D01*
X68600900Y-155575321D01*
X69349500Y-155575321D01*
X69349500Y-158424678D01*
X69364032Y-158497735D01*
X69364033Y-158497739D01*
X69364034Y-158497740D01*
X69419399Y-158580601D01*
X69502260Y-158635966D01*
X69502264Y-158635967D01*
X69575321Y-158650499D01*
X69575324Y-158650500D01*
X69575326Y-158650500D01*
X72424676Y-158650500D01*
X72424677Y-158650499D01*
X72497740Y-158635966D01*
X72580601Y-158580601D01*
X72635966Y-158497740D01*
X72650500Y-158424674D01*
X72650500Y-155575326D01*
X72650500Y-155575323D01*
X72650499Y-155575321D01*
X72635967Y-155502264D01*
X72635966Y-155502260D01*
X72631821Y-155496056D01*
X72580601Y-155419399D01*
X72497740Y-155364034D01*
X72497739Y-155364033D01*
X72497735Y-155364032D01*
X72424677Y-155349500D01*
X72424674Y-155349500D01*
X69575326Y-155349500D01*
X69575323Y-155349500D01*
X69502264Y-155364032D01*
X69502260Y-155364033D01*
X69419399Y-155419399D01*
X69364033Y-155502260D01*
X69364032Y-155502264D01*
X69349500Y-155575321D01*
X68600900Y-155575321D01*
X68600900Y-144710631D01*
X68600900Y-144710628D01*
X68575902Y-144584960D01*
X68575900Y-144584954D01*
X68555589Y-144535921D01*
X68555587Y-144535916D01*
X68526868Y-144466578D01*
X68526862Y-144466568D01*
X68455678Y-144360032D01*
X68455672Y-144360025D01*
X68085373Y-143989726D01*
X68085369Y-143989723D01*
X67978827Y-143918535D01*
X67860444Y-143869499D01*
X67860436Y-143869497D01*
X67734773Y-143844501D01*
X67734769Y-143844501D01*
X67606631Y-143844501D01*
X67606626Y-143844501D01*
X67480963Y-143869497D01*
X67480951Y-143869500D01*
X67373652Y-143913945D01*
X67304183Y-143921414D01*
X67241704Y-143890139D01*
X67206052Y-143830050D01*
X67202200Y-143799384D01*
X67202200Y-135575321D01*
X69349500Y-135575321D01*
X69349500Y-138424678D01*
X69364032Y-138497735D01*
X69364033Y-138497739D01*
X69364034Y-138497740D01*
X69419399Y-138580601D01*
X69502260Y-138635966D01*
X69502264Y-138635967D01*
X69575321Y-138650499D01*
X69575324Y-138650500D01*
X69575326Y-138650500D01*
X72424676Y-138650500D01*
X72424677Y-138650499D01*
X72497740Y-138635966D01*
X72580601Y-138580601D01*
X72635966Y-138497740D01*
X72650500Y-138424674D01*
X72650500Y-135575326D01*
X72650500Y-135575323D01*
X72650499Y-135575321D01*
X72635967Y-135502264D01*
X72635966Y-135502260D01*
X72611177Y-135465160D01*
X72580601Y-135419399D01*
X72497740Y-135364034D01*
X72497739Y-135364033D01*
X72497735Y-135364032D01*
X72424677Y-135349500D01*
X72424674Y-135349500D01*
X69575326Y-135349500D01*
X69575323Y-135349500D01*
X69502264Y-135364032D01*
X69502260Y-135364033D01*
X69419399Y-135419399D01*
X69364033Y-135502260D01*
X69364032Y-135502264D01*
X69349500Y-135575321D01*
X67202200Y-135575321D01*
X67202200Y-115575321D01*
X69349500Y-115575321D01*
X69349500Y-118424678D01*
X69364032Y-118497735D01*
X69364033Y-118497739D01*
X69364034Y-118497740D01*
X69419399Y-118580601D01*
X69502260Y-118635966D01*
X69502264Y-118635967D01*
X69575321Y-118650499D01*
X69575324Y-118650500D01*
X69575326Y-118650500D01*
X72424676Y-118650500D01*
X72424677Y-118650499D01*
X72497740Y-118635966D01*
X72580601Y-118580601D01*
X72635966Y-118497740D01*
X72650500Y-118424674D01*
X72650500Y-115575326D01*
X72650500Y-115575323D01*
X72650499Y-115575321D01*
X72635967Y-115502264D01*
X72635966Y-115502260D01*
X72580601Y-115419399D01*
X72497740Y-115364034D01*
X72497739Y-115364033D01*
X72497735Y-115364032D01*
X72424677Y-115349500D01*
X72424674Y-115349500D01*
X69575326Y-115349500D01*
X69575323Y-115349500D01*
X69502264Y-115364032D01*
X69502260Y-115364033D01*
X69419399Y-115419399D01*
X69364033Y-115502260D01*
X69364032Y-115502264D01*
X69349500Y-115575321D01*
X67202200Y-115575321D01*
X67202200Y-95575321D01*
X69349500Y-95575321D01*
X69349500Y-98424678D01*
X69364032Y-98497735D01*
X69364033Y-98497739D01*
X69364034Y-98497740D01*
X69419399Y-98580601D01*
X69502260Y-98635966D01*
X69502264Y-98635967D01*
X69575321Y-98650499D01*
X69575324Y-98650500D01*
X69575326Y-98650500D01*
X72424676Y-98650500D01*
X72424677Y-98650499D01*
X72497740Y-98635966D01*
X72580601Y-98580601D01*
X72635966Y-98497740D01*
X72650500Y-98424674D01*
X72650500Y-95575326D01*
X72650500Y-95575323D01*
X72650499Y-95575321D01*
X72635967Y-95502264D01*
X72635966Y-95502260D01*
X72580601Y-95419399D01*
X72497740Y-95364034D01*
X72497739Y-95364033D01*
X72497735Y-95364032D01*
X72424677Y-95349500D01*
X72424674Y-95349500D01*
X69575326Y-95349500D01*
X69575323Y-95349500D01*
X69502264Y-95364032D01*
X69502260Y-95364033D01*
X69419399Y-95419399D01*
X69364033Y-95502260D01*
X69364032Y-95502264D01*
X69349500Y-95575321D01*
X67202200Y-95575321D01*
X67202200Y-91064500D01*
X67221885Y-90997461D01*
X67238520Y-90976818D01*
X67289673Y-90925665D01*
X67289673Y-90925664D01*
X67289675Y-90925663D01*
X67339111Y-90840037D01*
X67364700Y-90744536D01*
X67364700Y-90645664D01*
X67364700Y-75575321D01*
X69349500Y-75575321D01*
X69349500Y-78424678D01*
X69364032Y-78497735D01*
X69364033Y-78497739D01*
X69364034Y-78497740D01*
X69419399Y-78580601D01*
X69502260Y-78635966D01*
X69502264Y-78635967D01*
X69575321Y-78650499D01*
X69575324Y-78650500D01*
X69575326Y-78650500D01*
X72424676Y-78650500D01*
X72424677Y-78650499D01*
X72497740Y-78635966D01*
X72580601Y-78580601D01*
X72635966Y-78497740D01*
X72650500Y-78424674D01*
X72650500Y-75575326D01*
X72650500Y-75575323D01*
X72650499Y-75575321D01*
X72635967Y-75502264D01*
X72635966Y-75502260D01*
X72628418Y-75490963D01*
X72580601Y-75419399D01*
X72497740Y-75364034D01*
X72497739Y-75364033D01*
X72497735Y-75364032D01*
X72424677Y-75349500D01*
X72424674Y-75349500D01*
X69575326Y-75349500D01*
X69575323Y-75349500D01*
X69502264Y-75364032D01*
X69502260Y-75364033D01*
X69419399Y-75419399D01*
X69364033Y-75502260D01*
X69364032Y-75502264D01*
X69349500Y-75575321D01*
X67364700Y-75575321D01*
X67364700Y-74778865D01*
X67363607Y-74774787D01*
X67339110Y-74683363D01*
X67339110Y-74683362D01*
X67289675Y-74597738D01*
X67219762Y-74527825D01*
X66550119Y-73858182D01*
X66516634Y-73796859D01*
X66513800Y-73770501D01*
X66513800Y-73370386D01*
X66533485Y-73303347D01*
X66550119Y-73282705D01*
X66578809Y-73254015D01*
X66651284Y-73128485D01*
X66688800Y-72988475D01*
X66688800Y-72843525D01*
X66651284Y-72703515D01*
X66579617Y-72579385D01*
X66578811Y-72577988D01*
X66578806Y-72577982D01*
X66476317Y-72475493D01*
X66476311Y-72475488D01*
X66350788Y-72403017D01*
X66350789Y-72403017D01*
X66339306Y-72399940D01*
X66210775Y-72365500D01*
X66065825Y-72365500D01*
X65986993Y-72386623D01*
X65917143Y-72384960D01*
X65859281Y-72345797D01*
X65831777Y-72281569D01*
X65830900Y-72266848D01*
X65830900Y-66924708D01*
X65850585Y-66857669D01*
X65867219Y-66837027D01*
X67555273Y-65148973D01*
X67555277Y-65148969D01*
X67626465Y-65042427D01*
X67675501Y-64924044D01*
X67683682Y-64882915D01*
X67700500Y-64798371D01*
X67700500Y-55575321D01*
X69349500Y-55575321D01*
X69349500Y-58424678D01*
X69364032Y-58497735D01*
X69364033Y-58497739D01*
X69364034Y-58497740D01*
X69419399Y-58580601D01*
X69502260Y-58635966D01*
X69502264Y-58635967D01*
X69575321Y-58650499D01*
X69575324Y-58650500D01*
X69575326Y-58650500D01*
X72424676Y-58650500D01*
X72424677Y-58650499D01*
X72497740Y-58635966D01*
X72580601Y-58580601D01*
X72635966Y-58497740D01*
X72650500Y-58424674D01*
X72650500Y-55575326D01*
X72650500Y-55575323D01*
X72650499Y-55575321D01*
X72635967Y-55502264D01*
X72635966Y-55502260D01*
X72580601Y-55419399D01*
X72497740Y-55364034D01*
X72497739Y-55364033D01*
X72497735Y-55364032D01*
X72424677Y-55349500D01*
X72424674Y-55349500D01*
X69575326Y-55349500D01*
X69575323Y-55349500D01*
X69502264Y-55364032D01*
X69502260Y-55364033D01*
X69419399Y-55419399D01*
X69364033Y-55502260D01*
X69364032Y-55502264D01*
X69349500Y-55575321D01*
X67700500Y-55575321D01*
X67700500Y-49286028D01*
X67675502Y-49160361D01*
X67675501Y-49160360D01*
X67675501Y-49160356D01*
X67626465Y-49041973D01*
X67626464Y-49041972D01*
X67626461Y-49041966D01*
X67555276Y-48935431D01*
X67555273Y-48935427D01*
X67464672Y-48844826D01*
X67464668Y-48844823D01*
X67358133Y-48773638D01*
X67358124Y-48773633D01*
X67239744Y-48724599D01*
X67239738Y-48724597D01*
X67114071Y-48699600D01*
X67114069Y-48699600D01*
X66985931Y-48699600D01*
X66985929Y-48699600D01*
X66860261Y-48724597D01*
X66860255Y-48724599D01*
X66741875Y-48773633D01*
X66741866Y-48773638D01*
X66635331Y-48844823D01*
X66635327Y-48844826D01*
X66544726Y-48935427D01*
X66544723Y-48935431D01*
X66473538Y-49041966D01*
X66473533Y-49041975D01*
X66424499Y-49160355D01*
X66424497Y-49160361D01*
X66399500Y-49286028D01*
X66399500Y-64413491D01*
X66379815Y-64480530D01*
X66363181Y-64501172D01*
X64675127Y-66189225D01*
X64675126Y-66189226D01*
X64603934Y-66295774D01*
X64554899Y-66414155D01*
X64554897Y-66414161D01*
X64529900Y-66539828D01*
X64529900Y-70825500D01*
X64510215Y-70892539D01*
X64457411Y-70938294D01*
X64388253Y-70948238D01*
X64324697Y-70919213D01*
X64318219Y-70913181D01*
X63555819Y-70150781D01*
X63522334Y-70089458D01*
X63519500Y-70063100D01*
X63519500Y-70022527D01*
X63519500Y-70022525D01*
X63481984Y-69882515D01*
X63409509Y-69756985D01*
X63307015Y-69654491D01*
X63307013Y-69654490D01*
X63307011Y-69654488D01*
X63181488Y-69582017D01*
X63181489Y-69582017D01*
X63168163Y-69578446D01*
X63088379Y-69557068D01*
X63028721Y-69520703D01*
X62998192Y-69457856D01*
X63006487Y-69388481D01*
X63050972Y-69334603D01*
X63058475Y-69329907D01*
X63070271Y-69323096D01*
X63170015Y-69265509D01*
X63272509Y-69163015D01*
X63344984Y-69037485D01*
X63382500Y-68897475D01*
X63382500Y-68752525D01*
X63344984Y-68612515D01*
X63344980Y-68612508D01*
X63299113Y-68533062D01*
X63282500Y-68471063D01*
X63282500Y-58479093D01*
X63282500Y-58479091D01*
X63251799Y-58364514D01*
X63251799Y-58364513D01*
X63192489Y-58261786D01*
X61107419Y-56176716D01*
X61073934Y-56115393D01*
X61071100Y-56089035D01*
X61071100Y-41165571D01*
X62178799Y-41165571D01*
X62203797Y-41291238D01*
X62203799Y-41291244D01*
X62252833Y-41409624D01*
X62252838Y-41409633D01*
X62324023Y-41516168D01*
X62324026Y-41516172D01*
X62414627Y-41606773D01*
X62414631Y-41606776D01*
X62521166Y-41677961D01*
X62521172Y-41677964D01*
X62521173Y-41677965D01*
X62639556Y-41727001D01*
X62639560Y-41727001D01*
X62639561Y-41727002D01*
X62765228Y-41752000D01*
X62765231Y-41752000D01*
X62893371Y-41752000D01*
X62977915Y-41735182D01*
X63019044Y-41727001D01*
X63137427Y-41677965D01*
X63243969Y-41606776D01*
X63334576Y-41516169D01*
X63405765Y-41409627D01*
X63454801Y-41291244D01*
X63479800Y-41165569D01*
X63479800Y-35575321D01*
X69349500Y-35575321D01*
X69349500Y-38424678D01*
X69364032Y-38497735D01*
X69364033Y-38497739D01*
X69364034Y-38497740D01*
X69419399Y-38580601D01*
X69502260Y-38635966D01*
X69502264Y-38635967D01*
X69575321Y-38650499D01*
X69575324Y-38650500D01*
X69575326Y-38650500D01*
X72424676Y-38650500D01*
X72424677Y-38650499D01*
X72497740Y-38635966D01*
X72580601Y-38580601D01*
X72635966Y-38497740D01*
X72650500Y-38424674D01*
X72650500Y-35575326D01*
X72650500Y-35575323D01*
X72650499Y-35575321D01*
X72635967Y-35502264D01*
X72635966Y-35502260D01*
X72580601Y-35419399D01*
X72497740Y-35364034D01*
X72497739Y-35364033D01*
X72497735Y-35364032D01*
X72424677Y-35349500D01*
X72424674Y-35349500D01*
X69575326Y-35349500D01*
X69575323Y-35349500D01*
X69502264Y-35364032D01*
X69502260Y-35364033D01*
X69419399Y-35419399D01*
X69364033Y-35502260D01*
X69364032Y-35502264D01*
X69349500Y-35575321D01*
X63479800Y-35575321D01*
X63479800Y-31533207D01*
X63499485Y-31466168D01*
X63516119Y-31445526D01*
X65045273Y-29916372D01*
X65045276Y-29916369D01*
X65116465Y-29809827D01*
X65165501Y-29691444D01*
X65178618Y-29625501D01*
X65190500Y-29565769D01*
X65190500Y-29224500D01*
X65210185Y-29157461D01*
X65262989Y-29111706D01*
X65314500Y-29100500D01*
X65414675Y-29100500D01*
X65414676Y-29100499D01*
X65487739Y-29085966D01*
X65570600Y-29030601D01*
X65625965Y-28947740D01*
X65640499Y-28874674D01*
X65640499Y-28402135D01*
X73949500Y-28402135D01*
X73949500Y-29597870D01*
X73949501Y-29597876D01*
X73955908Y-29657483D01*
X74006202Y-29792328D01*
X74006206Y-29792335D01*
X74092452Y-29907544D01*
X74092455Y-29907547D01*
X74207664Y-29993793D01*
X74207671Y-29993797D01*
X74342517Y-30044091D01*
X74342516Y-30044091D01*
X74349444Y-30044835D01*
X74402127Y-30050500D01*
X75597872Y-30050499D01*
X75657483Y-30044091D01*
X75792331Y-29993796D01*
X75907546Y-29907546D01*
X75993796Y-29792331D01*
X76044091Y-29657483D01*
X76050500Y-29597873D01*
X76050499Y-28402128D01*
X76044091Y-28342517D01*
X76035778Y-28320230D01*
X75993797Y-28207671D01*
X75993793Y-28207664D01*
X75907547Y-28092455D01*
X75907544Y-28092452D01*
X75792335Y-28006206D01*
X75792328Y-28006202D01*
X75657482Y-27955908D01*
X75657483Y-27955908D01*
X75597883Y-27949501D01*
X75597881Y-27949500D01*
X75597873Y-27949500D01*
X75597864Y-27949500D01*
X74402129Y-27949500D01*
X74402123Y-27949501D01*
X74342516Y-27955908D01*
X74207671Y-28006202D01*
X74207664Y-28006206D01*
X74092455Y-28092452D01*
X74092452Y-28092455D01*
X74006206Y-28207664D01*
X74006202Y-28207671D01*
X73955908Y-28342517D01*
X73951351Y-28384907D01*
X73949501Y-28402123D01*
X73949500Y-28402135D01*
X65640499Y-28402135D01*
X65640499Y-27125326D01*
X65640499Y-27125323D01*
X65640498Y-27125321D01*
X65625966Y-27052264D01*
X65625965Y-27052260D01*
X65570600Y-26969399D01*
X65487739Y-26914034D01*
X65487738Y-26914033D01*
X65487734Y-26914032D01*
X65414676Y-26899500D01*
X65414673Y-26899500D01*
X63665325Y-26899500D01*
X63665322Y-26899500D01*
X63592263Y-26914032D01*
X63592259Y-26914033D01*
X63509398Y-26969399D01*
X63454032Y-27052260D01*
X63454031Y-27052264D01*
X63439499Y-27125321D01*
X63439499Y-28874678D01*
X63454031Y-28947735D01*
X63454032Y-28947739D01*
X63454033Y-28947740D01*
X63509398Y-29030601D01*
X63588318Y-29083333D01*
X63592259Y-29085966D01*
X63592263Y-29085967D01*
X63665320Y-29100499D01*
X63665323Y-29100500D01*
X63665325Y-29100500D01*
X63721892Y-29100500D01*
X63788931Y-29120185D01*
X63834686Y-29172989D01*
X63844630Y-29242147D01*
X63815605Y-29305703D01*
X63809573Y-29312181D01*
X62324027Y-30797725D01*
X62324026Y-30797726D01*
X62252834Y-30904274D01*
X62203799Y-31022655D01*
X62203797Y-31022661D01*
X62178800Y-31148328D01*
X62178800Y-31148331D01*
X62178800Y-41165569D01*
X62178800Y-41165571D01*
X62178799Y-41165571D01*
X61071100Y-41165571D01*
X61071100Y-29101293D01*
X61071100Y-29101291D01*
X61040399Y-28986714D01*
X61040399Y-28986713D01*
X60981089Y-28883986D01*
X60543333Y-28446230D01*
X60509848Y-28384907D01*
X60513082Y-28320233D01*
X60533401Y-28257701D01*
X60560499Y-28086611D01*
X60560499Y-27913389D01*
X60533401Y-27742299D01*
X60479872Y-27577555D01*
X60401231Y-27423212D01*
X60299413Y-27283072D01*
X60176927Y-27160586D01*
X60036787Y-27058768D01*
X59882444Y-26980127D01*
X59717700Y-26926598D01*
X59717698Y-26926597D01*
X59717697Y-26926597D01*
X59586270Y-26905781D01*
X59546610Y-26899500D01*
X59373388Y-26899500D01*
X59333727Y-26905781D01*
X59202301Y-26926597D01*
X59037551Y-26980128D01*
X58883210Y-27058768D01*
X58803255Y-27116859D01*
X58743071Y-27160586D01*
X58743069Y-27160588D01*
X58743068Y-27160588D01*
X58620587Y-27283069D01*
X58620587Y-27283070D01*
X58620585Y-27283072D01*
X58576858Y-27343256D01*
X58518767Y-27423211D01*
X58440127Y-27577552D01*
X58386596Y-27742302D01*
X58359499Y-27913389D01*
X58359499Y-28086611D01*
X58360425Y-28092455D01*
X58386596Y-28257697D01*
X58386596Y-28257699D01*
X58386597Y-28257701D01*
X58440126Y-28422445D01*
X58518767Y-28576788D01*
X58620585Y-28716928D01*
X58743071Y-28839414D01*
X58883211Y-28941232D01*
X59037554Y-29019873D01*
X59202298Y-29073402D01*
X59373388Y-29100500D01*
X59373389Y-29100500D01*
X59546609Y-29100500D01*
X59546610Y-29100500D01*
X59717700Y-29073402D01*
X59780230Y-29053083D01*
X59850070Y-29051087D01*
X59906230Y-29083333D01*
X60133781Y-29310884D01*
X60167266Y-29372207D01*
X60170100Y-29398565D01*
X60170100Y-44371500D01*
X60150415Y-44438539D01*
X60097611Y-44484294D01*
X60028453Y-44494238D01*
X59964897Y-44465213D01*
X59958419Y-44459181D01*
X58834219Y-43334981D01*
X58800734Y-43273658D01*
X58797900Y-43247300D01*
X58797900Y-43206727D01*
X58797900Y-43206725D01*
X58760384Y-43066715D01*
X58687909Y-42941185D01*
X58585415Y-42838691D01*
X58585413Y-42838690D01*
X58585411Y-42838688D01*
X58459888Y-42766217D01*
X58459889Y-42766217D01*
X58448406Y-42763140D01*
X58319875Y-42728700D01*
X58174925Y-42728700D01*
X58046393Y-42763140D01*
X58034911Y-42766217D01*
X57909388Y-42838688D01*
X57909382Y-42838693D01*
X57806893Y-42941182D01*
X57806888Y-42941188D01*
X57734417Y-43066711D01*
X57734416Y-43066715D01*
X57696900Y-43206725D01*
X57696900Y-43351675D01*
X57706544Y-43387665D01*
X57734417Y-43491688D01*
X57806888Y-43617211D01*
X57806890Y-43617213D01*
X57806891Y-43617215D01*
X57909385Y-43719709D01*
X57909386Y-43719710D01*
X57909388Y-43719711D01*
X58034911Y-43792182D01*
X58034912Y-43792182D01*
X58034915Y-43792184D01*
X58174925Y-43829700D01*
X58215501Y-43829700D01*
X58282540Y-43849385D01*
X58303182Y-43866019D01*
X59673381Y-45236218D01*
X59706866Y-45297541D01*
X59709700Y-45323899D01*
X59709700Y-65093438D01*
X59720783Y-65134797D01*
X59720783Y-65134799D01*
X59720784Y-65134799D01*
X59735290Y-65188939D01*
X59735291Y-65188940D01*
X59784726Y-65274563D01*
X61627681Y-67117518D01*
X61661166Y-67178841D01*
X61664000Y-67205199D01*
X61664000Y-69257514D01*
X61644315Y-69324553D01*
X61591511Y-69370308D01*
X61522353Y-69380252D01*
X61458797Y-69351227D01*
X61452319Y-69345195D01*
X61364817Y-69257693D01*
X61364811Y-69257688D01*
X61239288Y-69185217D01*
X61239289Y-69185217D01*
X61227806Y-69182140D01*
X61099275Y-69147700D01*
X60954325Y-69147700D01*
X60825793Y-69182140D01*
X60814311Y-69185217D01*
X60688788Y-69257688D01*
X60688782Y-69257693D01*
X60586293Y-69360182D01*
X60586288Y-69360188D01*
X60513817Y-69485711D01*
X60513816Y-69485715D01*
X60476300Y-69625725D01*
X60476300Y-69770675D01*
X60485327Y-69804363D01*
X60513817Y-69910688D01*
X60586288Y-70036211D01*
X60586290Y-70036213D01*
X60586291Y-70036215D01*
X60688785Y-70138709D01*
X60688786Y-70138710D01*
X60688788Y-70138711D01*
X60814311Y-70211182D01*
X60814312Y-70211182D01*
X60814315Y-70211184D01*
X60954325Y-70248700D01*
X60994901Y-70248700D01*
X61061940Y-70268385D01*
X61082582Y-70285019D01*
X61170081Y-70372518D01*
X61203566Y-70433841D01*
X61206400Y-70460199D01*
X61206400Y-97190901D01*
X61186715Y-97257940D01*
X61170081Y-97278582D01*
X58296282Y-100152381D01*
X58234959Y-100185866D01*
X58208601Y-100188700D01*
X58168025Y-100188700D01*
X58092392Y-100208965D01*
X58022544Y-100207303D01*
X57964681Y-100168141D01*
X57937177Y-100103912D01*
X57936300Y-100089191D01*
X57936300Y-84139499D01*
X57955985Y-84072460D01*
X57972619Y-84051818D01*
X58392312Y-83632125D01*
X58990474Y-83033963D01*
X58990475Y-83033962D01*
X59039910Y-82948338D01*
X59065500Y-82852835D01*
X59065500Y-79869544D01*
X59085185Y-79802505D01*
X59137989Y-79756750D01*
X59207147Y-79746806D01*
X59251499Y-79762156D01*
X59312515Y-79797384D01*
X59452525Y-79834900D01*
X59452528Y-79834900D01*
X59597472Y-79834900D01*
X59597475Y-79834900D01*
X59737485Y-79797384D01*
X59863015Y-79724909D01*
X59965509Y-79622415D01*
X60037984Y-79496885D01*
X60075500Y-79356875D01*
X60075500Y-79211925D01*
X60037984Y-79071915D01*
X59965509Y-78946385D01*
X59936819Y-78917695D01*
X59903334Y-78856372D01*
X59900500Y-78830014D01*
X59900500Y-73239167D01*
X59900500Y-73239165D01*
X59874910Y-73143662D01*
X59850192Y-73100850D01*
X59850192Y-73100849D01*
X59850190Y-73100847D01*
X59825474Y-73058036D01*
X59825471Y-73058032D01*
X58832419Y-72064980D01*
X58798934Y-72003657D01*
X58796100Y-71977299D01*
X58796100Y-71936727D01*
X58796100Y-71936725D01*
X58758584Y-71796715D01*
X58753249Y-71787475D01*
X58686111Y-71671188D01*
X58686106Y-71671182D01*
X58583617Y-71568693D01*
X58583611Y-71568688D01*
X58458088Y-71496217D01*
X58458089Y-71496217D01*
X58446606Y-71493140D01*
X58318075Y-71458700D01*
X58173125Y-71458700D01*
X58044593Y-71493140D01*
X58033111Y-71496217D01*
X57946201Y-71546395D01*
X57878301Y-71562868D01*
X57812274Y-71540015D01*
X57776814Y-71501008D01*
X57731016Y-71421684D01*
X57705209Y-71376985D01*
X57602715Y-71274491D01*
X57602713Y-71274490D01*
X57602711Y-71274488D01*
X57477188Y-71202017D01*
X57477189Y-71202017D01*
X57465706Y-71198940D01*
X57337175Y-71164500D01*
X57192225Y-71164500D01*
X57063693Y-71198940D01*
X57052211Y-71202017D01*
X56926688Y-71274488D01*
X56926682Y-71274493D01*
X56824193Y-71376982D01*
X56824188Y-71376988D01*
X56751717Y-71502511D01*
X56751716Y-71502515D01*
X56714200Y-71642525D01*
X56714200Y-71787475D01*
X56748505Y-71915500D01*
X56751717Y-71927488D01*
X56824188Y-72053011D01*
X56824193Y-72053017D01*
X56852881Y-72081705D01*
X56886366Y-72143028D01*
X56889200Y-72169386D01*
X56889200Y-76554735D01*
X56914790Y-76650238D01*
X56914791Y-76650239D01*
X56914791Y-76650240D01*
X56964226Y-76735863D01*
X58278181Y-78049818D01*
X58311666Y-78111141D01*
X58314500Y-78137499D01*
X58314500Y-82596501D01*
X58294815Y-82663540D01*
X58278181Y-82684182D01*
X57260326Y-83702036D01*
X57210891Y-83787659D01*
X57210891Y-83787660D01*
X57210890Y-83787662D01*
X57185300Y-83883165D01*
X57185300Y-101353635D01*
X57210890Y-101449138D01*
X57210891Y-101449139D01*
X57210891Y-101449140D01*
X57259975Y-101534155D01*
X57260327Y-101534764D01*
X57660581Y-101935018D01*
X57694066Y-101996341D01*
X57696900Y-102022699D01*
X57696900Y-102063275D01*
X57734416Y-102203285D01*
X57734417Y-102203288D01*
X57806888Y-102328811D01*
X57806890Y-102328813D01*
X57806891Y-102328815D01*
X57909385Y-102431309D01*
X57909386Y-102431310D01*
X57909388Y-102431311D01*
X58034911Y-102503782D01*
X58034912Y-102503782D01*
X58034915Y-102503784D01*
X58174925Y-102541300D01*
X58174928Y-102541300D01*
X58319872Y-102541300D01*
X58319875Y-102541300D01*
X58459885Y-102503784D01*
X58585415Y-102431309D01*
X58687909Y-102328815D01*
X58760384Y-102203285D01*
X58797900Y-102063275D01*
X58797900Y-101918325D01*
X58760384Y-101778315D01*
X58725336Y-101717611D01*
X58687911Y-101652788D01*
X58687906Y-101652782D01*
X58585417Y-101550293D01*
X58585411Y-101550288D01*
X58452847Y-101473752D01*
X58453594Y-101472457D01*
X58406219Y-101434281D01*
X58384154Y-101367987D01*
X58401433Y-101300287D01*
X58446075Y-101256173D01*
X58452983Y-101252184D01*
X58452985Y-101252184D01*
X58578515Y-101179709D01*
X58681009Y-101077215D01*
X58753484Y-100951685D01*
X58791000Y-100811675D01*
X58791000Y-100771099D01*
X58810685Y-100704060D01*
X58827319Y-100683418D01*
X61540519Y-97970218D01*
X61601842Y-97936733D01*
X61671534Y-97941717D01*
X61727467Y-97983589D01*
X61751884Y-98049053D01*
X61752200Y-98057899D01*
X61752200Y-131616408D01*
X61732515Y-131683447D01*
X61679711Y-131729202D01*
X61660295Y-131736182D01*
X61615018Y-131748314D01*
X61615011Y-131748317D01*
X61489488Y-131820788D01*
X61489482Y-131820793D01*
X61386993Y-131923282D01*
X61386988Y-131923288D01*
X61314517Y-132048811D01*
X61314516Y-132048815D01*
X61277000Y-132188825D01*
X61277000Y-132333775D01*
X61290639Y-132384675D01*
X61314517Y-132473788D01*
X61386988Y-132599311D01*
X61386990Y-132599313D01*
X61386991Y-132599315D01*
X61489485Y-132701809D01*
X61489486Y-132701810D01*
X61489488Y-132701811D01*
X61615011Y-132774282D01*
X61615012Y-132774282D01*
X61615015Y-132774284D01*
X61755025Y-132811800D01*
X61755028Y-132811800D01*
X61899972Y-132811800D01*
X61899975Y-132811800D01*
X62039985Y-132774284D01*
X62165515Y-132701809D01*
X62268009Y-132599315D01*
X62340484Y-132473785D01*
X62378000Y-132333775D01*
X62378000Y-132293199D01*
X62397685Y-132226160D01*
X62414319Y-132205518D01*
X62428174Y-132191663D01*
X62447833Y-132157613D01*
X62477610Y-132106038D01*
X62503200Y-132010535D01*
X62503200Y-76058599D01*
X62522885Y-75991560D01*
X62539519Y-75970918D01*
X63225619Y-75284818D01*
X63286942Y-75251333D01*
X63356634Y-75256317D01*
X63412567Y-75298189D01*
X63436984Y-75363653D01*
X63437300Y-75372499D01*
X63437300Y-135647600D01*
X63417615Y-135714639D01*
X63400981Y-135735281D01*
X62475781Y-136660481D01*
X62414458Y-136693966D01*
X62344766Y-136688982D01*
X62288833Y-136647110D01*
X62264416Y-136581646D01*
X62264100Y-136572800D01*
X62264100Y-134997967D01*
X62264100Y-134997965D01*
X62238510Y-134902462D01*
X62189075Y-134816838D01*
X62119162Y-134746925D01*
X58659219Y-131286982D01*
X58625734Y-131225659D01*
X58622900Y-131199301D01*
X58622900Y-123733586D01*
X58642585Y-123666547D01*
X58659219Y-123645905D01*
X58687909Y-123617215D01*
X58760384Y-123491685D01*
X58797900Y-123351675D01*
X58797900Y-123206725D01*
X58760384Y-123066715D01*
X58687909Y-122941185D01*
X58585415Y-122838691D01*
X58585413Y-122838690D01*
X58585411Y-122838688D01*
X58459888Y-122766217D01*
X58459889Y-122766217D01*
X58448406Y-122763140D01*
X58319875Y-122728700D01*
X58174925Y-122728700D01*
X58046393Y-122763140D01*
X58034911Y-122766217D01*
X57909388Y-122838688D01*
X57909382Y-122838693D01*
X57806893Y-122941182D01*
X57806888Y-122941188D01*
X57734417Y-123066711D01*
X57734416Y-123066715D01*
X57696900Y-123206725D01*
X57696900Y-123351675D01*
X57734416Y-123491685D01*
X57734417Y-123491688D01*
X57806888Y-123617211D01*
X57806893Y-123617217D01*
X57835581Y-123645905D01*
X57869066Y-123707228D01*
X57871900Y-123733586D01*
X57871900Y-131455635D01*
X57897490Y-131551138D01*
X57917387Y-131585600D01*
X57946926Y-131636763D01*
X57946928Y-131636765D01*
X61476781Y-135166618D01*
X61510266Y-135227941D01*
X61513100Y-135254299D01*
X61513100Y-149141590D01*
X61493415Y-149208629D01*
X61440611Y-149254384D01*
X61371453Y-149264328D01*
X61307897Y-149235303D01*
X61281713Y-149203591D01*
X61245916Y-149141590D01*
X61239909Y-149131185D01*
X61137415Y-149028691D01*
X61137413Y-149028690D01*
X61137411Y-149028688D01*
X61011888Y-148956217D01*
X61011889Y-148956217D01*
X61000406Y-148953140D01*
X60871875Y-148918700D01*
X60726925Y-148918700D01*
X60598393Y-148953140D01*
X60586911Y-148956217D01*
X60461388Y-149028688D01*
X60461382Y-149028693D01*
X60358893Y-149131182D01*
X60358888Y-149131188D01*
X60286417Y-149256711D01*
X60286416Y-149256715D01*
X60248900Y-149396725D01*
X60248900Y-149396727D01*
X60248900Y-149437301D01*
X60229215Y-149504340D01*
X60212581Y-149524982D01*
X59750681Y-149986882D01*
X59689358Y-150020367D01*
X59619666Y-150015383D01*
X59563733Y-149973511D01*
X59539316Y-149908047D01*
X59539000Y-149899201D01*
X59539000Y-142861866D01*
X59539000Y-142861865D01*
X59539000Y-142861864D01*
X59513411Y-142766363D01*
X59463975Y-142680738D01*
X58829819Y-142046582D01*
X58796334Y-141985259D01*
X58793500Y-141958901D01*
X58793500Y-141918327D01*
X58793500Y-141918325D01*
X58755984Y-141778315D01*
X58683509Y-141652785D01*
X58581015Y-141550291D01*
X58581013Y-141550290D01*
X58581011Y-141550288D01*
X58455488Y-141477817D01*
X58455489Y-141477817D01*
X58444006Y-141474740D01*
X58315475Y-141440300D01*
X58170525Y-141440300D01*
X58041993Y-141474740D01*
X58030511Y-141477817D01*
X57904988Y-141550288D01*
X57904982Y-141550293D01*
X57802493Y-141652782D01*
X57802488Y-141652788D01*
X57730017Y-141778311D01*
X57730016Y-141778315D01*
X57692500Y-141918325D01*
X57692500Y-142063275D01*
X57730016Y-142203285D01*
X57730017Y-142203288D01*
X57802488Y-142328811D01*
X57802490Y-142328813D01*
X57802491Y-142328815D01*
X57904985Y-142431309D01*
X57904986Y-142431310D01*
X57904988Y-142431311D01*
X58030511Y-142503782D01*
X58030512Y-142503782D01*
X58030515Y-142503784D01*
X58170525Y-142541300D01*
X58211101Y-142541300D01*
X58278140Y-142560985D01*
X58298782Y-142577619D01*
X58751681Y-143030518D01*
X58785166Y-143091841D01*
X58788000Y-143118199D01*
X58788000Y-144284064D01*
X58768315Y-144351103D01*
X58715511Y-144396858D01*
X58646353Y-144406802D01*
X58582797Y-144377777D01*
X58556613Y-144346065D01*
X58556173Y-144345304D01*
X58553075Y-144339937D01*
X55589619Y-141376481D01*
X55556134Y-141315158D01*
X55553300Y-141288800D01*
X55553300Y-132766586D01*
X55572985Y-132699547D01*
X55589619Y-132678905D01*
X55618309Y-132650215D01*
X55690784Y-132524685D01*
X55728300Y-132384675D01*
X55728300Y-132239725D01*
X55690784Y-132099715D01*
X55661394Y-132048811D01*
X55618311Y-131974188D01*
X55618306Y-131974182D01*
X55589619Y-131945495D01*
X55556134Y-131884172D01*
X55553300Y-131857814D01*
X55553300Y-124008799D01*
X55572985Y-123941760D01*
X55589619Y-123921118D01*
X58155218Y-121355519D01*
X58216541Y-121322034D01*
X58242899Y-121319200D01*
X58283472Y-121319200D01*
X58283475Y-121319200D01*
X58423485Y-121281684D01*
X58549015Y-121209209D01*
X58651509Y-121106715D01*
X58723984Y-120981185D01*
X58761500Y-120841175D01*
X58761500Y-120696225D01*
X58723984Y-120556215D01*
X58651509Y-120430685D01*
X58549015Y-120328191D01*
X58549013Y-120328190D01*
X58549011Y-120328188D01*
X58423488Y-120255717D01*
X58423489Y-120255717D01*
X58412006Y-120252640D01*
X58283475Y-120218200D01*
X58138525Y-120218200D01*
X58009993Y-120252640D01*
X57998511Y-120255717D01*
X57872988Y-120328188D01*
X57872982Y-120328193D01*
X57770493Y-120430682D01*
X57770488Y-120430688D01*
X57698017Y-120556211D01*
X57698016Y-120556215D01*
X57660500Y-120696225D01*
X57660500Y-120696227D01*
X57660500Y-120736801D01*
X57640815Y-120803840D01*
X57624181Y-120824482D01*
X54877326Y-123571336D01*
X54827891Y-123656959D01*
X54827891Y-123656960D01*
X54827890Y-123656962D01*
X54802300Y-123752465D01*
X54802300Y-123752467D01*
X54802300Y-131857814D01*
X54782615Y-131924853D01*
X54765981Y-131945495D01*
X54737293Y-131974182D01*
X54737288Y-131974188D01*
X54664817Y-132099711D01*
X54664816Y-132099715D01*
X54627300Y-132239725D01*
X54627300Y-132384675D01*
X54651178Y-132473788D01*
X54664817Y-132524688D01*
X54737288Y-132650211D01*
X54737293Y-132650217D01*
X54765981Y-132678905D01*
X54799466Y-132740228D01*
X54802300Y-132766586D01*
X54802300Y-135342422D01*
X54782615Y-135409461D01*
X54729811Y-135455216D01*
X54660653Y-135465160D01*
X54597097Y-135436135D01*
X54589616Y-135427655D01*
X54589237Y-135428035D01*
X54580603Y-135419401D01*
X54580601Y-135419400D01*
X54580601Y-135419399D01*
X54497740Y-135364034D01*
X54497739Y-135364033D01*
X54497735Y-135364032D01*
X54424677Y-135349500D01*
X54424674Y-135349500D01*
X51575326Y-135349500D01*
X51575323Y-135349500D01*
X51502264Y-135364032D01*
X51502260Y-135364033D01*
X51419399Y-135419399D01*
X51364033Y-135502260D01*
X51364032Y-135502264D01*
X51349500Y-135575321D01*
X32650499Y-135575321D01*
X32635967Y-135502264D01*
X32635966Y-135502260D01*
X32611177Y-135465160D01*
X32580601Y-135419399D01*
X32497740Y-135364034D01*
X32497739Y-135364033D01*
X32497735Y-135364032D01*
X32424677Y-135349500D01*
X32424674Y-135349500D01*
X29575326Y-135349500D01*
X29575323Y-135349500D01*
X29502264Y-135364032D01*
X29502260Y-135364033D01*
X29419399Y-135419399D01*
X29364033Y-135502260D01*
X29364032Y-135502264D01*
X29349500Y-135575321D01*
X27202200Y-135575321D01*
X27202200Y-115575321D01*
X29349500Y-115575321D01*
X29349500Y-118424678D01*
X29364032Y-118497735D01*
X29364033Y-118497739D01*
X29364034Y-118497740D01*
X29419399Y-118580601D01*
X29502260Y-118635966D01*
X29502264Y-118635967D01*
X29575321Y-118650499D01*
X29575324Y-118650500D01*
X29575326Y-118650500D01*
X32424676Y-118650500D01*
X32424677Y-118650499D01*
X32497740Y-118635966D01*
X32580601Y-118580601D01*
X32635966Y-118497740D01*
X32650500Y-118424674D01*
X32650500Y-115575326D01*
X32650500Y-115575323D01*
X32650499Y-115575321D01*
X51349500Y-115575321D01*
X51349500Y-118424678D01*
X51364032Y-118497735D01*
X51364033Y-118497739D01*
X51364034Y-118497740D01*
X51419399Y-118580601D01*
X51502260Y-118635966D01*
X51502264Y-118635967D01*
X51575321Y-118650499D01*
X51575324Y-118650500D01*
X51575326Y-118650500D01*
X54424676Y-118650500D01*
X54424677Y-118650499D01*
X54497740Y-118635966D01*
X54580601Y-118580601D01*
X54635966Y-118497740D01*
X54650500Y-118424674D01*
X54650500Y-115575326D01*
X54650500Y-115575323D01*
X54650499Y-115575321D01*
X54635967Y-115502264D01*
X54635966Y-115502260D01*
X54580601Y-115419399D01*
X54497740Y-115364034D01*
X54497739Y-115364033D01*
X54497735Y-115364032D01*
X54424677Y-115349500D01*
X54424674Y-115349500D01*
X51575326Y-115349500D01*
X51575323Y-115349500D01*
X51502264Y-115364032D01*
X51502260Y-115364033D01*
X51419399Y-115419399D01*
X51364033Y-115502260D01*
X51364032Y-115502264D01*
X51349500Y-115575321D01*
X32650499Y-115575321D01*
X32635967Y-115502264D01*
X32635966Y-115502260D01*
X32580601Y-115419399D01*
X32497740Y-115364034D01*
X32497739Y-115364033D01*
X32497735Y-115364032D01*
X32424677Y-115349500D01*
X32424674Y-115349500D01*
X29575326Y-115349500D01*
X29575323Y-115349500D01*
X29502264Y-115364032D01*
X29502260Y-115364033D01*
X29419399Y-115419399D01*
X29364033Y-115502260D01*
X29364032Y-115502264D01*
X29349500Y-115575321D01*
X27202200Y-115575321D01*
X27202200Y-111140225D01*
X53564400Y-111140225D01*
X53564400Y-111285175D01*
X53601916Y-111425185D01*
X53601917Y-111425188D01*
X53674388Y-111550711D01*
X53674390Y-111550713D01*
X53674391Y-111550715D01*
X53776885Y-111653209D01*
X53776886Y-111653210D01*
X53776888Y-111653211D01*
X53902411Y-111725682D01*
X53902412Y-111725682D01*
X53902415Y-111725684D01*
X54042425Y-111763200D01*
X54042428Y-111763200D01*
X54187372Y-111763200D01*
X54187375Y-111763200D01*
X54327385Y-111725684D01*
X54452915Y-111653209D01*
X54555409Y-111550715D01*
X54627884Y-111425185D01*
X54665400Y-111285175D01*
X54665400Y-111244599D01*
X54685085Y-111177560D01*
X54701719Y-111156918D01*
X55232756Y-110625881D01*
X56198174Y-109660463D01*
X56198175Y-109660462D01*
X56247610Y-109574838D01*
X56273200Y-109479335D01*
X56273200Y-101833986D01*
X56292885Y-101766947D01*
X56309519Y-101746305D01*
X56338209Y-101717615D01*
X56410684Y-101592085D01*
X56448200Y-101452075D01*
X56448200Y-101307125D01*
X56410684Y-101167115D01*
X56338209Y-101041585D01*
X56235715Y-100939091D01*
X56235713Y-100939090D01*
X56235711Y-100939088D01*
X56110188Y-100866617D01*
X56110189Y-100866617D01*
X56098706Y-100863540D01*
X55970175Y-100829100D01*
X55825225Y-100829100D01*
X55696693Y-100863540D01*
X55685211Y-100866617D01*
X55559688Y-100939088D01*
X55559682Y-100939093D01*
X55457193Y-101041582D01*
X55457188Y-101041588D01*
X55384717Y-101167111D01*
X55384716Y-101167115D01*
X55347200Y-101307125D01*
X55347200Y-101452075D01*
X55373518Y-101550293D01*
X55384717Y-101592088D01*
X55457188Y-101717611D01*
X55457193Y-101717617D01*
X55485881Y-101746305D01*
X55519366Y-101807628D01*
X55522200Y-101833986D01*
X55522200Y-109223001D01*
X55502515Y-109290040D01*
X55485881Y-109310682D01*
X54170682Y-110625881D01*
X54109359Y-110659366D01*
X54083001Y-110662200D01*
X54042425Y-110662200D01*
X53913893Y-110696640D01*
X53902411Y-110699717D01*
X53776888Y-110772188D01*
X53776882Y-110772193D01*
X53674393Y-110874682D01*
X53674388Y-110874688D01*
X53601917Y-111000211D01*
X53601916Y-111000215D01*
X53564400Y-111140225D01*
X27202200Y-111140225D01*
X27202200Y-95575321D01*
X29349500Y-95575321D01*
X29349500Y-98424678D01*
X29364032Y-98497735D01*
X29364033Y-98497739D01*
X29364034Y-98497740D01*
X29419399Y-98580601D01*
X29502260Y-98635966D01*
X29502264Y-98635967D01*
X29575321Y-98650499D01*
X29575324Y-98650500D01*
X29575326Y-98650500D01*
X32424676Y-98650500D01*
X32424677Y-98650499D01*
X32497740Y-98635966D01*
X32580601Y-98580601D01*
X32635966Y-98497740D01*
X32650500Y-98424674D01*
X32650500Y-95575326D01*
X32650500Y-95575323D01*
X32650499Y-95575321D01*
X51349500Y-95575321D01*
X51349500Y-98424678D01*
X51364032Y-98497735D01*
X51364033Y-98497739D01*
X51364034Y-98497740D01*
X51419399Y-98580601D01*
X51502260Y-98635966D01*
X51502264Y-98635967D01*
X51575321Y-98650499D01*
X51575324Y-98650500D01*
X51575326Y-98650500D01*
X54424676Y-98650500D01*
X54424677Y-98650499D01*
X54497740Y-98635966D01*
X54580601Y-98580601D01*
X54635966Y-98497740D01*
X54650500Y-98424674D01*
X54650500Y-95575326D01*
X54650500Y-95575323D01*
X54650499Y-95575321D01*
X54635967Y-95502264D01*
X54635966Y-95502260D01*
X54580601Y-95419399D01*
X54497740Y-95364034D01*
X54497739Y-95364033D01*
X54497735Y-95364032D01*
X54424677Y-95349500D01*
X54424674Y-95349500D01*
X51575326Y-95349500D01*
X51575323Y-95349500D01*
X51502264Y-95364032D01*
X51502260Y-95364033D01*
X51419399Y-95419399D01*
X51364033Y-95502260D01*
X51364032Y-95502264D01*
X51349500Y-95575321D01*
X32650499Y-95575321D01*
X32635967Y-95502264D01*
X32635966Y-95502260D01*
X32580601Y-95419399D01*
X32497740Y-95364034D01*
X32497739Y-95364033D01*
X32497735Y-95364032D01*
X32424677Y-95349500D01*
X32424674Y-95349500D01*
X29575326Y-95349500D01*
X29575323Y-95349500D01*
X29502264Y-95364032D01*
X29502260Y-95364033D01*
X29419399Y-95419399D01*
X29364033Y-95502260D01*
X29364032Y-95502264D01*
X29349500Y-95575321D01*
X27202200Y-95575321D01*
X27202200Y-91064500D01*
X27221885Y-90997461D01*
X27238520Y-90976818D01*
X27289673Y-90925665D01*
X27289673Y-90925664D01*
X27289675Y-90925663D01*
X27339111Y-90840037D01*
X27364700Y-90744536D01*
X27364700Y-90645664D01*
X27364700Y-75575321D01*
X29349500Y-75575321D01*
X29349500Y-78424678D01*
X29364032Y-78497735D01*
X29364033Y-78497739D01*
X29364034Y-78497740D01*
X29419399Y-78580601D01*
X29502260Y-78635966D01*
X29502264Y-78635967D01*
X29575321Y-78650499D01*
X29575324Y-78650500D01*
X29575326Y-78650500D01*
X32424676Y-78650500D01*
X32424677Y-78650499D01*
X32497740Y-78635966D01*
X32580601Y-78580601D01*
X32635966Y-78497740D01*
X32650500Y-78424674D01*
X32650500Y-75575326D01*
X32650500Y-75575323D01*
X32650499Y-75575321D01*
X51349500Y-75575321D01*
X51349500Y-78424678D01*
X51364032Y-78497735D01*
X51364033Y-78497739D01*
X51364034Y-78497740D01*
X51419399Y-78580601D01*
X51502260Y-78635966D01*
X51502264Y-78635967D01*
X51575321Y-78650499D01*
X51575324Y-78650500D01*
X51575326Y-78650500D01*
X54424676Y-78650500D01*
X54424677Y-78650499D01*
X54497740Y-78635966D01*
X54580601Y-78580601D01*
X54635966Y-78497740D01*
X54650500Y-78424674D01*
X54650500Y-75575326D01*
X54650500Y-75575323D01*
X54650499Y-75575321D01*
X54635967Y-75502264D01*
X54635966Y-75502260D01*
X54628418Y-75490963D01*
X54580601Y-75419399D01*
X54497740Y-75364034D01*
X54497739Y-75364033D01*
X54497735Y-75364032D01*
X54424677Y-75349500D01*
X54424674Y-75349500D01*
X51575326Y-75349500D01*
X51575323Y-75349500D01*
X51502264Y-75364032D01*
X51502260Y-75364033D01*
X51419399Y-75419399D01*
X51364033Y-75502260D01*
X51364032Y-75502264D01*
X51349500Y-75575321D01*
X32650499Y-75575321D01*
X32635967Y-75502264D01*
X32635966Y-75502260D01*
X32628418Y-75490963D01*
X32580601Y-75419399D01*
X32497740Y-75364034D01*
X32497739Y-75364033D01*
X32497735Y-75364032D01*
X32424677Y-75349500D01*
X32424674Y-75349500D01*
X29575326Y-75349500D01*
X29575323Y-75349500D01*
X29502264Y-75364032D01*
X29502260Y-75364033D01*
X29419399Y-75419399D01*
X29364033Y-75502260D01*
X29364032Y-75502264D01*
X29349500Y-75575321D01*
X27364700Y-75575321D01*
X27364700Y-74778865D01*
X27363607Y-74774787D01*
X27339110Y-74683363D01*
X27339110Y-74683362D01*
X27289675Y-74597738D01*
X27219762Y-74527825D01*
X26550119Y-73858182D01*
X26516634Y-73796859D01*
X26513800Y-73770501D01*
X26513800Y-73370386D01*
X26533485Y-73303347D01*
X26550119Y-73282705D01*
X26578809Y-73254015D01*
X26651284Y-73128485D01*
X26688800Y-72988475D01*
X26688800Y-72843525D01*
X26651284Y-72703515D01*
X26579617Y-72579385D01*
X26578811Y-72577988D01*
X26578806Y-72577982D01*
X26476317Y-72475493D01*
X26476311Y-72475488D01*
X26350788Y-72403017D01*
X26350789Y-72403017D01*
X26339306Y-72399940D01*
X26210775Y-72365500D01*
X26065825Y-72365500D01*
X25986993Y-72386623D01*
X25917143Y-72384960D01*
X25859281Y-72345797D01*
X25831777Y-72281569D01*
X25830900Y-72266848D01*
X25830900Y-70836225D01*
X54445700Y-70836225D01*
X54445700Y-70981175D01*
X54457975Y-71026985D01*
X54483217Y-71121188D01*
X54555688Y-71246711D01*
X54555690Y-71246713D01*
X54555691Y-71246715D01*
X54658185Y-71349209D01*
X54658186Y-71349210D01*
X54658188Y-71349211D01*
X54783711Y-71421682D01*
X54783712Y-71421682D01*
X54783715Y-71421684D01*
X54923725Y-71459200D01*
X54923728Y-71459200D01*
X55068672Y-71459200D01*
X55068675Y-71459200D01*
X55208685Y-71421684D01*
X55334215Y-71349209D01*
X55436709Y-71246715D01*
X55509184Y-71121185D01*
X55546700Y-70981175D01*
X55546700Y-70836225D01*
X55509184Y-70696215D01*
X55436709Y-70570685D01*
X55408019Y-70541995D01*
X55374534Y-70480672D01*
X55371700Y-70454314D01*
X55371700Y-64190399D01*
X55391385Y-64123360D01*
X55408019Y-64102718D01*
X58155219Y-61355519D01*
X58216542Y-61322034D01*
X58242900Y-61319200D01*
X58283472Y-61319200D01*
X58283475Y-61319200D01*
X58423485Y-61281684D01*
X58549015Y-61209209D01*
X58651509Y-61106715D01*
X58723984Y-60981185D01*
X58761500Y-60841175D01*
X58761500Y-60696225D01*
X58723984Y-60556215D01*
X58651509Y-60430685D01*
X58549015Y-60328191D01*
X58549013Y-60328190D01*
X58549011Y-60328188D01*
X58423488Y-60255717D01*
X58423489Y-60255717D01*
X58412006Y-60252640D01*
X58283475Y-60218200D01*
X58138525Y-60218200D01*
X58009993Y-60252640D01*
X57998511Y-60255717D01*
X57872988Y-60328188D01*
X57872982Y-60328193D01*
X57770493Y-60430682D01*
X57770488Y-60430688D01*
X57698017Y-60556211D01*
X57698016Y-60556215D01*
X57660500Y-60696225D01*
X57660500Y-60696227D01*
X57660500Y-60736800D01*
X57640815Y-60803839D01*
X57624181Y-60824481D01*
X54765638Y-63683025D01*
X54695726Y-63752936D01*
X54646291Y-63838559D01*
X54646291Y-63838560D01*
X54646290Y-63838562D01*
X54620700Y-63934065D01*
X54620700Y-63934067D01*
X54620700Y-70454314D01*
X54601015Y-70521353D01*
X54584381Y-70541995D01*
X54555693Y-70570682D01*
X54555688Y-70570688D01*
X54483217Y-70696211D01*
X54483216Y-70696215D01*
X54445700Y-70836225D01*
X25830900Y-70836225D01*
X25830900Y-66924708D01*
X25850585Y-66857669D01*
X25867219Y-66837027D01*
X27555273Y-65148973D01*
X27555277Y-65148969D01*
X27626465Y-65042427D01*
X27675501Y-64924044D01*
X27683682Y-64882915D01*
X27700500Y-64798371D01*
X27700500Y-55575321D01*
X29349500Y-55575321D01*
X29349500Y-58424678D01*
X29364032Y-58497735D01*
X29364033Y-58497739D01*
X29364034Y-58497740D01*
X29419399Y-58580601D01*
X29502260Y-58635966D01*
X29502264Y-58635967D01*
X29575321Y-58650499D01*
X29575324Y-58650500D01*
X29575326Y-58650500D01*
X32424676Y-58650500D01*
X32424677Y-58650499D01*
X32497740Y-58635966D01*
X32580601Y-58580601D01*
X32635966Y-58497740D01*
X32650500Y-58424674D01*
X32650500Y-55575326D01*
X32650500Y-55575323D01*
X32650499Y-55575321D01*
X51349500Y-55575321D01*
X51349500Y-58424678D01*
X51364032Y-58497735D01*
X51364033Y-58497739D01*
X51364034Y-58497740D01*
X51419399Y-58580601D01*
X51502260Y-58635966D01*
X51502264Y-58635967D01*
X51575321Y-58650499D01*
X51575324Y-58650500D01*
X51575326Y-58650500D01*
X54424676Y-58650500D01*
X54424677Y-58650499D01*
X54497740Y-58635966D01*
X54580601Y-58580601D01*
X54635966Y-58497740D01*
X54650500Y-58424674D01*
X54650500Y-55575326D01*
X54650500Y-55575323D01*
X54650499Y-55575321D01*
X54635967Y-55502264D01*
X54635966Y-55502260D01*
X54580601Y-55419399D01*
X54497740Y-55364034D01*
X54497739Y-55364033D01*
X54497735Y-55364032D01*
X54424677Y-55349500D01*
X54424674Y-55349500D01*
X51575326Y-55349500D01*
X51575323Y-55349500D01*
X51502264Y-55364032D01*
X51502260Y-55364033D01*
X51419399Y-55419399D01*
X51364033Y-55502260D01*
X51364032Y-55502264D01*
X51349500Y-55575321D01*
X32650499Y-55575321D01*
X32635967Y-55502264D01*
X32635966Y-55502260D01*
X32580601Y-55419399D01*
X32497740Y-55364034D01*
X32497739Y-55364033D01*
X32497735Y-55364032D01*
X32424677Y-55349500D01*
X32424674Y-55349500D01*
X29575326Y-55349500D01*
X29575323Y-55349500D01*
X29502264Y-55364032D01*
X29502260Y-55364033D01*
X29419399Y-55419399D01*
X29364033Y-55502260D01*
X29364032Y-55502264D01*
X29349500Y-55575321D01*
X27700500Y-55575321D01*
X27700500Y-51141225D01*
X53537000Y-51141225D01*
X53537000Y-51286175D01*
X53574516Y-51426185D01*
X53574517Y-51426188D01*
X53646988Y-51551711D01*
X53646990Y-51551713D01*
X53646991Y-51551715D01*
X53749485Y-51654209D01*
X53749486Y-51654210D01*
X53749488Y-51654211D01*
X53875011Y-51726682D01*
X53875012Y-51726682D01*
X53875015Y-51726684D01*
X54015025Y-51764200D01*
X54015028Y-51764200D01*
X54159972Y-51764200D01*
X54159975Y-51764200D01*
X54299985Y-51726684D01*
X54425515Y-51654209D01*
X54528009Y-51551715D01*
X54600484Y-51426185D01*
X54638000Y-51286175D01*
X54638000Y-51245599D01*
X54657685Y-51178560D01*
X54674319Y-51157918D01*
X55205356Y-50626881D01*
X55843074Y-49989163D01*
X55843075Y-49989162D01*
X55892510Y-49903538D01*
X55918100Y-49808035D01*
X55918100Y-43643999D01*
X55937785Y-43576960D01*
X55954419Y-43556318D01*
X58155218Y-41355519D01*
X58216541Y-41322034D01*
X58242899Y-41319200D01*
X58283472Y-41319200D01*
X58283475Y-41319200D01*
X58423485Y-41281684D01*
X58549015Y-41209209D01*
X58651509Y-41106715D01*
X58723984Y-40981185D01*
X58761500Y-40841175D01*
X58761500Y-40696225D01*
X58723984Y-40556215D01*
X58651509Y-40430685D01*
X58549015Y-40328191D01*
X58549013Y-40328190D01*
X58549011Y-40328188D01*
X58423488Y-40255717D01*
X58423489Y-40255717D01*
X58412006Y-40252640D01*
X58283475Y-40218200D01*
X58138525Y-40218200D01*
X58009993Y-40252640D01*
X57998511Y-40255717D01*
X57872988Y-40328188D01*
X57872982Y-40328193D01*
X57770493Y-40430682D01*
X57770488Y-40430688D01*
X57698017Y-40556211D01*
X57698016Y-40556215D01*
X57660500Y-40696225D01*
X57660500Y-40696227D01*
X57660500Y-40736801D01*
X57640815Y-40803840D01*
X57624181Y-40824482D01*
X55242127Y-43206535D01*
X55192691Y-43292160D01*
X55192690Y-43292162D01*
X55176745Y-43351672D01*
X55176744Y-43351676D01*
X55167100Y-43387664D01*
X55167100Y-49551701D01*
X55147415Y-49618740D01*
X55130781Y-49639382D01*
X54143282Y-50626881D01*
X54081959Y-50660366D01*
X54055601Y-50663200D01*
X54015025Y-50663200D01*
X53886493Y-50697640D01*
X53875011Y-50700717D01*
X53749488Y-50773188D01*
X53749482Y-50773193D01*
X53646993Y-50875682D01*
X53646988Y-50875688D01*
X53574517Y-51001211D01*
X53574516Y-51001215D01*
X53537000Y-51141225D01*
X27700500Y-51141225D01*
X27700500Y-49286028D01*
X27675502Y-49160361D01*
X27675501Y-49160360D01*
X27675501Y-49160356D01*
X27626465Y-49041973D01*
X27626464Y-49041972D01*
X27626461Y-49041966D01*
X27555276Y-48935431D01*
X27555273Y-48935427D01*
X27464672Y-48844826D01*
X27464668Y-48844823D01*
X27358133Y-48773638D01*
X27358124Y-48773633D01*
X27239744Y-48724599D01*
X27239738Y-48724597D01*
X27114071Y-48699600D01*
X27114069Y-48699600D01*
X26985931Y-48699600D01*
X26985929Y-48699600D01*
X26860261Y-48724597D01*
X26860255Y-48724599D01*
X26741875Y-48773633D01*
X26741866Y-48773638D01*
X26635331Y-48844823D01*
X26635327Y-48844826D01*
X26544726Y-48935427D01*
X26544723Y-48935431D01*
X26473538Y-49041966D01*
X26473533Y-49041975D01*
X26424499Y-49160355D01*
X26424497Y-49160361D01*
X26399500Y-49286028D01*
X26399500Y-64413491D01*
X26379815Y-64480530D01*
X26363181Y-64501172D01*
X24675127Y-66189225D01*
X24675126Y-66189226D01*
X24603934Y-66295774D01*
X24554899Y-66414155D01*
X24554897Y-66414161D01*
X24529900Y-66539828D01*
X24529900Y-70825500D01*
X24510215Y-70892539D01*
X24457411Y-70938294D01*
X24388253Y-70948238D01*
X24324697Y-70919213D01*
X24318219Y-70913181D01*
X23555819Y-70150781D01*
X23522334Y-70089458D01*
X23519500Y-70063100D01*
X23519500Y-70022527D01*
X23519500Y-70022525D01*
X23481984Y-69882515D01*
X23409509Y-69756985D01*
X23307015Y-69654491D01*
X23307013Y-69654490D01*
X23307011Y-69654488D01*
X23181488Y-69582017D01*
X23181489Y-69582017D01*
X23168163Y-69578446D01*
X23088379Y-69557068D01*
X23028721Y-69520703D01*
X22998192Y-69457856D01*
X23006487Y-69388481D01*
X23050972Y-69334603D01*
X23058475Y-69329907D01*
X23070271Y-69323096D01*
X23170015Y-69265509D01*
X23272509Y-69163015D01*
X23344984Y-69037485D01*
X23382500Y-68897475D01*
X23382500Y-68752525D01*
X23344984Y-68612515D01*
X23344980Y-68612508D01*
X23299113Y-68533062D01*
X23282500Y-68471063D01*
X23282500Y-58479093D01*
X23282500Y-58479091D01*
X23251799Y-58364514D01*
X23251799Y-58364513D01*
X23192489Y-58261786D01*
X21107419Y-56176716D01*
X21073934Y-56115393D01*
X21071100Y-56089035D01*
X21071100Y-41165571D01*
X22178799Y-41165571D01*
X22203797Y-41291238D01*
X22203799Y-41291244D01*
X22252833Y-41409624D01*
X22252838Y-41409633D01*
X22324023Y-41516168D01*
X22324026Y-41516172D01*
X22414627Y-41606773D01*
X22414631Y-41606776D01*
X22521166Y-41677961D01*
X22521172Y-41677964D01*
X22521173Y-41677965D01*
X22639556Y-41727001D01*
X22639560Y-41727001D01*
X22639561Y-41727002D01*
X22765228Y-41752000D01*
X22765231Y-41752000D01*
X22893371Y-41752000D01*
X22977915Y-41735182D01*
X23019044Y-41727001D01*
X23137427Y-41677965D01*
X23243969Y-41606776D01*
X23334576Y-41516169D01*
X23405765Y-41409627D01*
X23454801Y-41291244D01*
X23479800Y-41165569D01*
X23479800Y-35575321D01*
X29349500Y-35575321D01*
X29349500Y-38424678D01*
X29364032Y-38497735D01*
X29364033Y-38497739D01*
X29364034Y-38497740D01*
X29419399Y-38580601D01*
X29502260Y-38635966D01*
X29502264Y-38635967D01*
X29575321Y-38650499D01*
X29575324Y-38650500D01*
X29575326Y-38650500D01*
X32424676Y-38650500D01*
X32424677Y-38650499D01*
X32497740Y-38635966D01*
X32580601Y-38580601D01*
X32635966Y-38497740D01*
X32650500Y-38424674D01*
X32650500Y-35575326D01*
X32650500Y-35575323D01*
X32650499Y-35575321D01*
X51349500Y-35575321D01*
X51349500Y-38424678D01*
X51364032Y-38497735D01*
X51364033Y-38497739D01*
X51364034Y-38497740D01*
X51419399Y-38580601D01*
X51502260Y-38635966D01*
X51502264Y-38635967D01*
X51575321Y-38650499D01*
X51575324Y-38650500D01*
X51575326Y-38650500D01*
X54424676Y-38650500D01*
X54424677Y-38650499D01*
X54497740Y-38635966D01*
X54580601Y-38580601D01*
X54635966Y-38497740D01*
X54650500Y-38424674D01*
X54650500Y-35575326D01*
X54650500Y-35575323D01*
X54650499Y-35575321D01*
X54635967Y-35502264D01*
X54635966Y-35502260D01*
X54580601Y-35419399D01*
X54497740Y-35364034D01*
X54497739Y-35364033D01*
X54497735Y-35364032D01*
X54424677Y-35349500D01*
X54424674Y-35349500D01*
X51575326Y-35349500D01*
X51575323Y-35349500D01*
X51502264Y-35364032D01*
X51502260Y-35364033D01*
X51419399Y-35419399D01*
X51364033Y-35502260D01*
X51364032Y-35502264D01*
X51349500Y-35575321D01*
X32650499Y-35575321D01*
X32635967Y-35502264D01*
X32635966Y-35502260D01*
X32580601Y-35419399D01*
X32497740Y-35364034D01*
X32497739Y-35364033D01*
X32497735Y-35364032D01*
X32424677Y-35349500D01*
X32424674Y-35349500D01*
X29575326Y-35349500D01*
X29575323Y-35349500D01*
X29502264Y-35364032D01*
X29502260Y-35364033D01*
X29419399Y-35419399D01*
X29364033Y-35502260D01*
X29364032Y-35502264D01*
X29349500Y-35575321D01*
X23479800Y-35575321D01*
X23479800Y-31533207D01*
X23499485Y-31466168D01*
X23516119Y-31445526D01*
X25045273Y-29916372D01*
X25045276Y-29916369D01*
X25116465Y-29809827D01*
X25165501Y-29691444D01*
X25178618Y-29625501D01*
X25190500Y-29565769D01*
X25190500Y-29224500D01*
X25210185Y-29157461D01*
X25262989Y-29111706D01*
X25314500Y-29100500D01*
X25414676Y-29100500D01*
X25414677Y-29100499D01*
X25487740Y-29085966D01*
X25570601Y-29030601D01*
X25625966Y-28947740D01*
X25640500Y-28874674D01*
X25640500Y-28402135D01*
X33949500Y-28402135D01*
X33949500Y-29597870D01*
X33949501Y-29597876D01*
X33955908Y-29657483D01*
X34006202Y-29792328D01*
X34006206Y-29792335D01*
X34092452Y-29907544D01*
X34092455Y-29907547D01*
X34207664Y-29993793D01*
X34207671Y-29993797D01*
X34342517Y-30044091D01*
X34342516Y-30044091D01*
X34349444Y-30044835D01*
X34402127Y-30050500D01*
X35597872Y-30050499D01*
X35657483Y-30044091D01*
X35792331Y-29993796D01*
X35907546Y-29907546D01*
X35993796Y-29792331D01*
X36044091Y-29657483D01*
X36050500Y-29597873D01*
X36050499Y-28402128D01*
X36044091Y-28342517D01*
X36035778Y-28320230D01*
X35993797Y-28207671D01*
X35993793Y-28207664D01*
X35907547Y-28092455D01*
X35907544Y-28092452D01*
X35792335Y-28006206D01*
X35792328Y-28006202D01*
X35657482Y-27955908D01*
X35657483Y-27955908D01*
X35597883Y-27949501D01*
X35597881Y-27949500D01*
X35597873Y-27949500D01*
X35597864Y-27949500D01*
X34402129Y-27949500D01*
X34402123Y-27949501D01*
X34342516Y-27955908D01*
X34207671Y-28006202D01*
X34207664Y-28006206D01*
X34092455Y-28092452D01*
X34092452Y-28092455D01*
X34006206Y-28207664D01*
X34006202Y-28207671D01*
X33955908Y-28342517D01*
X33951351Y-28384907D01*
X33949501Y-28402123D01*
X33949500Y-28402135D01*
X25640500Y-28402135D01*
X25640500Y-27125326D01*
X25640500Y-27125323D01*
X25640499Y-27125321D01*
X25625967Y-27052264D01*
X25625966Y-27052260D01*
X25570601Y-26969399D01*
X25487740Y-26914034D01*
X25487739Y-26914033D01*
X25487735Y-26914032D01*
X25414677Y-26899500D01*
X25414674Y-26899500D01*
X23665326Y-26899500D01*
X23665323Y-26899500D01*
X23592264Y-26914032D01*
X23592260Y-26914033D01*
X23509399Y-26969399D01*
X23454033Y-27052260D01*
X23454032Y-27052264D01*
X23439500Y-27125321D01*
X23439500Y-28874678D01*
X23454032Y-28947735D01*
X23454033Y-28947739D01*
X23454034Y-28947740D01*
X23509399Y-29030601D01*
X23588319Y-29083333D01*
X23592260Y-29085966D01*
X23592264Y-29085967D01*
X23665321Y-29100499D01*
X23665324Y-29100500D01*
X23665326Y-29100500D01*
X23721892Y-29100500D01*
X23788931Y-29120185D01*
X23834686Y-29172989D01*
X23844630Y-29242147D01*
X23815605Y-29305703D01*
X23809573Y-29312181D01*
X22324027Y-30797725D01*
X22324026Y-30797726D01*
X22252834Y-30904274D01*
X22203799Y-31022655D01*
X22203797Y-31022661D01*
X22178800Y-31148328D01*
X22178800Y-31148331D01*
X22178800Y-41165569D01*
X22178800Y-41165571D01*
X22178799Y-41165571D01*
X21071100Y-41165571D01*
X21071100Y-29101293D01*
X21071100Y-29101291D01*
X21040399Y-28986714D01*
X21040399Y-28986713D01*
X20981089Y-28883986D01*
X20543333Y-28446230D01*
X20509848Y-28384907D01*
X20513084Y-28320230D01*
X20533402Y-28257701D01*
X20560500Y-28086611D01*
X20560500Y-27913389D01*
X20533402Y-27742299D01*
X20479873Y-27577555D01*
X20401232Y-27423212D01*
X20299414Y-27283072D01*
X20176928Y-27160586D01*
X20036788Y-27058768D01*
X19882445Y-26980127D01*
X19717701Y-26926598D01*
X19717699Y-26926597D01*
X19717698Y-26926597D01*
X19586271Y-26905781D01*
X19546611Y-26899500D01*
X19373389Y-26899500D01*
X19333728Y-26905781D01*
X19202302Y-26926597D01*
X19037552Y-26980128D01*
X18883211Y-27058768D01*
X18803256Y-27116859D01*
X18743072Y-27160586D01*
X18743070Y-27160588D01*
X18743069Y-27160588D01*
X18620588Y-27283069D01*
X18620588Y-27283070D01*
X18620586Y-27283072D01*
X18576859Y-27343256D01*
X18518768Y-27423211D01*
X18440128Y-27577552D01*
X18386597Y-27742302D01*
X18359500Y-27913389D01*
X18359500Y-28086611D01*
X18360426Y-28092455D01*
X18386597Y-28257697D01*
X18386597Y-28257699D01*
X18386598Y-28257701D01*
X18440127Y-28422445D01*
X18518768Y-28576788D01*
X18620586Y-28716928D01*
X18743072Y-28839414D01*
X18883212Y-28941232D01*
X19037555Y-29019873D01*
X19202299Y-29073402D01*
X19373389Y-29100500D01*
X19373390Y-29100500D01*
X19546610Y-29100500D01*
X19546611Y-29100500D01*
X19717701Y-29073402D01*
X19780231Y-29053083D01*
X19850070Y-29051087D01*
X19906230Y-29083333D01*
X20133781Y-29310884D01*
X20167266Y-29372207D01*
X20170100Y-29398565D01*
X20170100Y-44371500D01*
X20150415Y-44438539D01*
X20097611Y-44484294D01*
X20028453Y-44494238D01*
X19964897Y-44465213D01*
X19958419Y-44459181D01*
X18834219Y-43334981D01*
X18800734Y-43273658D01*
X18797900Y-43247300D01*
X18797900Y-43206727D01*
X18797900Y-43206725D01*
X18760384Y-43066715D01*
X18687909Y-42941185D01*
X18585415Y-42838691D01*
X18585413Y-42838690D01*
X18585411Y-42838688D01*
X18459888Y-42766217D01*
X18459889Y-42766217D01*
X18448406Y-42763140D01*
X18319875Y-42728700D01*
X18174925Y-42728700D01*
X18046393Y-42763140D01*
X18034911Y-42766217D01*
X17909388Y-42838688D01*
X17909382Y-42838693D01*
X17806893Y-42941182D01*
X17806888Y-42941188D01*
X17734417Y-43066711D01*
X17734416Y-43066715D01*
X17696900Y-43206725D01*
X17696900Y-43351675D01*
X17706544Y-43387665D01*
X17734417Y-43491688D01*
X17806888Y-43617211D01*
X17806890Y-43617213D01*
X17806891Y-43617215D01*
X17909385Y-43719709D01*
X17909386Y-43719710D01*
X17909388Y-43719711D01*
X18034911Y-43792182D01*
X18034912Y-43792182D01*
X18034915Y-43792184D01*
X18174925Y-43829700D01*
X18215501Y-43829700D01*
X18282540Y-43849385D01*
X18303182Y-43866019D01*
X19673381Y-45236218D01*
X19706866Y-45297541D01*
X19709700Y-45323899D01*
X19709700Y-65093438D01*
X19720783Y-65134797D01*
X19720783Y-65134799D01*
X19720784Y-65134799D01*
X19735290Y-65188939D01*
X19735291Y-65188940D01*
X19784726Y-65274563D01*
X21627681Y-67117518D01*
X21661166Y-67178841D01*
X21664000Y-67205199D01*
X21664000Y-69257514D01*
X21644315Y-69324553D01*
X21591511Y-69370308D01*
X21522353Y-69380252D01*
X21458797Y-69351227D01*
X21452319Y-69345195D01*
X21364817Y-69257693D01*
X21364811Y-69257688D01*
X21239288Y-69185217D01*
X21239289Y-69185217D01*
X21227806Y-69182140D01*
X21099275Y-69147700D01*
X20954325Y-69147700D01*
X20825793Y-69182140D01*
X20814311Y-69185217D01*
X20688788Y-69257688D01*
X20688782Y-69257693D01*
X20586293Y-69360182D01*
X20586288Y-69360188D01*
X20513817Y-69485711D01*
X20513816Y-69485715D01*
X20476300Y-69625725D01*
X20476300Y-69770675D01*
X20485327Y-69804363D01*
X20513817Y-69910688D01*
X20586288Y-70036211D01*
X20586290Y-70036213D01*
X20586291Y-70036215D01*
X20688785Y-70138709D01*
X20688786Y-70138710D01*
X20688788Y-70138711D01*
X20814311Y-70211182D01*
X20814312Y-70211182D01*
X20814315Y-70211184D01*
X20954325Y-70248700D01*
X20994901Y-70248700D01*
X21061940Y-70268385D01*
X21082582Y-70285019D01*
X21170081Y-70372518D01*
X21203566Y-70433841D01*
X21206400Y-70460199D01*
X21206400Y-97190901D01*
X21186715Y-97257940D01*
X21170081Y-97278582D01*
X18296282Y-100152381D01*
X18234959Y-100185866D01*
X18208601Y-100188700D01*
X18168025Y-100188700D01*
X18092392Y-100208965D01*
X18022544Y-100207303D01*
X17964681Y-100168141D01*
X17937177Y-100103912D01*
X17936300Y-100089191D01*
X17936300Y-84139499D01*
X17955985Y-84072460D01*
X17972619Y-84051818D01*
X18392312Y-83632125D01*
X18990474Y-83033963D01*
X18990475Y-83033962D01*
X19039910Y-82948338D01*
X19065500Y-82852835D01*
X19065500Y-79869544D01*
X19085185Y-79802505D01*
X19137989Y-79756750D01*
X19207147Y-79746806D01*
X19251499Y-79762156D01*
X19312515Y-79797384D01*
X19452525Y-79834900D01*
X19452528Y-79834900D01*
X19597472Y-79834900D01*
X19597475Y-79834900D01*
X19737485Y-79797384D01*
X19863015Y-79724909D01*
X19965509Y-79622415D01*
X20037984Y-79496885D01*
X20075500Y-79356875D01*
X20075500Y-79211925D01*
X20037984Y-79071915D01*
X19965509Y-78946385D01*
X19936819Y-78917695D01*
X19903334Y-78856372D01*
X19900500Y-78830014D01*
X19900500Y-73239167D01*
X19900500Y-73239165D01*
X19874910Y-73143662D01*
X19850192Y-73100850D01*
X19850192Y-73100849D01*
X19850190Y-73100847D01*
X19825474Y-73058036D01*
X19825471Y-73058032D01*
X18832419Y-72064980D01*
X18798934Y-72003657D01*
X18796100Y-71977299D01*
X18796100Y-71936727D01*
X18796100Y-71936725D01*
X18758584Y-71796715D01*
X18753249Y-71787475D01*
X18686111Y-71671188D01*
X18686106Y-71671182D01*
X18583617Y-71568693D01*
X18583611Y-71568688D01*
X18458088Y-71496217D01*
X18458089Y-71496217D01*
X18446606Y-71493140D01*
X18318075Y-71458700D01*
X18173125Y-71458700D01*
X18044593Y-71493140D01*
X18033111Y-71496217D01*
X17946201Y-71546395D01*
X17878301Y-71562868D01*
X17812274Y-71540015D01*
X17776814Y-71501008D01*
X17731016Y-71421684D01*
X17705209Y-71376985D01*
X17602715Y-71274491D01*
X17602713Y-71274490D01*
X17602711Y-71274488D01*
X17477188Y-71202017D01*
X17477189Y-71202017D01*
X17465706Y-71198940D01*
X17337175Y-71164500D01*
X17192225Y-71164500D01*
X17063693Y-71198940D01*
X17052211Y-71202017D01*
X16926688Y-71274488D01*
X16926682Y-71274493D01*
X16824193Y-71376982D01*
X16824188Y-71376988D01*
X16751717Y-71502511D01*
X16751716Y-71502515D01*
X16714200Y-71642525D01*
X16714200Y-71787475D01*
X16748505Y-71915500D01*
X16751717Y-71927488D01*
X16824188Y-72053011D01*
X16824193Y-72053017D01*
X16852881Y-72081705D01*
X16886366Y-72143028D01*
X16889200Y-72169386D01*
X16889200Y-76554735D01*
X16914790Y-76650238D01*
X16914791Y-76650239D01*
X16914791Y-76650240D01*
X16964226Y-76735863D01*
X18278181Y-78049818D01*
X18311666Y-78111141D01*
X18314500Y-78137499D01*
X18314500Y-82596501D01*
X18294815Y-82663540D01*
X18278181Y-82684182D01*
X17260326Y-83702036D01*
X17210891Y-83787659D01*
X17210891Y-83787660D01*
X17210890Y-83787662D01*
X17185300Y-83883165D01*
X17185300Y-101353635D01*
X17210890Y-101449138D01*
X17210891Y-101449139D01*
X17210891Y-101449140D01*
X17259975Y-101534155D01*
X17260327Y-101534764D01*
X17660581Y-101935018D01*
X17694066Y-101996341D01*
X17696900Y-102022699D01*
X17696900Y-102063275D01*
X17734416Y-102203285D01*
X17734417Y-102203288D01*
X17806888Y-102328811D01*
X17806890Y-102328813D01*
X17806891Y-102328815D01*
X17909385Y-102431309D01*
X17909386Y-102431310D01*
X17909388Y-102431311D01*
X18034911Y-102503782D01*
X18034912Y-102503782D01*
X18034915Y-102503784D01*
X18174925Y-102541300D01*
X18174928Y-102541300D01*
X18319872Y-102541300D01*
X18319875Y-102541300D01*
X18459885Y-102503784D01*
X18585415Y-102431309D01*
X18687909Y-102328815D01*
X18760384Y-102203285D01*
X18797900Y-102063275D01*
X18797900Y-101918325D01*
X18760384Y-101778315D01*
X18725336Y-101717611D01*
X18687911Y-101652788D01*
X18687906Y-101652782D01*
X18585417Y-101550293D01*
X18585411Y-101550288D01*
X18452847Y-101473752D01*
X18453594Y-101472457D01*
X18406219Y-101434281D01*
X18384154Y-101367987D01*
X18401433Y-101300287D01*
X18446075Y-101256173D01*
X18452983Y-101252184D01*
X18452985Y-101252184D01*
X18578515Y-101179709D01*
X18681009Y-101077215D01*
X18753484Y-100951685D01*
X18791000Y-100811675D01*
X18791000Y-100771099D01*
X18810685Y-100704060D01*
X18827319Y-100683418D01*
X21540519Y-97970218D01*
X21601842Y-97936733D01*
X21671534Y-97941717D01*
X21727467Y-97983589D01*
X21751884Y-98049053D01*
X21752200Y-98057899D01*
X21752200Y-131616408D01*
X21732515Y-131683447D01*
X21679711Y-131729202D01*
X21660295Y-131736182D01*
X21615018Y-131748314D01*
X21615011Y-131748317D01*
X21489488Y-131820788D01*
X21489482Y-131820793D01*
X21386993Y-131923282D01*
X21386988Y-131923288D01*
X21314517Y-132048811D01*
X21314516Y-132048815D01*
X21277000Y-132188825D01*
X21277000Y-132333775D01*
X21290639Y-132384675D01*
X21314517Y-132473788D01*
X21386988Y-132599311D01*
X21386990Y-132599313D01*
X21386991Y-132599315D01*
X21489485Y-132701809D01*
X21489486Y-132701810D01*
X21489488Y-132701811D01*
X21615011Y-132774282D01*
X21615012Y-132774282D01*
X21615015Y-132774284D01*
X21755025Y-132811800D01*
X21755028Y-132811800D01*
X21899972Y-132811800D01*
X21899975Y-132811800D01*
X22039985Y-132774284D01*
X22165515Y-132701809D01*
X22268009Y-132599315D01*
X22340484Y-132473785D01*
X22378000Y-132333775D01*
X22378000Y-132293199D01*
X22397685Y-132226160D01*
X22414319Y-132205518D01*
X22428174Y-132191663D01*
X22447833Y-132157613D01*
X22477610Y-132106038D01*
X22503200Y-132010535D01*
X22503200Y-76058599D01*
X22522885Y-75991560D01*
X22539519Y-75970918D01*
X23225619Y-75284818D01*
X23286942Y-75251333D01*
X23356634Y-75256317D01*
X23412567Y-75298189D01*
X23436984Y-75363653D01*
X23437300Y-75372499D01*
X23437300Y-135647600D01*
X23417615Y-135714639D01*
X23400981Y-135735281D01*
X22475781Y-136660481D01*
X22414458Y-136693966D01*
X22344766Y-136688982D01*
X22288833Y-136647110D01*
X22264416Y-136581646D01*
X22264100Y-136572800D01*
X22264100Y-134997967D01*
X22264100Y-134997965D01*
X22238510Y-134902462D01*
X22189075Y-134816838D01*
X22119162Y-134746925D01*
X18659219Y-131286982D01*
X18625734Y-131225659D01*
X18622900Y-131199301D01*
X18622900Y-123733586D01*
X18642585Y-123666547D01*
X18659219Y-123645905D01*
X18687909Y-123617215D01*
X18760384Y-123491685D01*
X18797900Y-123351675D01*
X18797900Y-123206725D01*
X18760384Y-123066715D01*
X18687909Y-122941185D01*
X18585415Y-122838691D01*
X18585413Y-122838690D01*
X18585411Y-122838688D01*
X18459888Y-122766217D01*
X18459889Y-122766217D01*
X18448406Y-122763140D01*
X18319875Y-122728700D01*
X18174925Y-122728700D01*
X18046393Y-122763140D01*
X18034911Y-122766217D01*
X17909388Y-122838688D01*
X17909382Y-122838693D01*
X17806893Y-122941182D01*
X17806888Y-122941188D01*
X17734417Y-123066711D01*
X17734416Y-123066715D01*
X17696900Y-123206725D01*
X17696900Y-123351675D01*
X17734416Y-123491685D01*
X17734417Y-123491688D01*
X17806888Y-123617211D01*
X17806893Y-123617217D01*
X17835581Y-123645905D01*
X17869066Y-123707228D01*
X17871900Y-123733586D01*
X17871900Y-131455635D01*
X17897490Y-131551138D01*
X17917387Y-131585600D01*
X17946926Y-131636763D01*
X17946928Y-131636765D01*
X21476781Y-135166618D01*
X21510266Y-135227941D01*
X21513100Y-135254299D01*
X21513100Y-149141590D01*
X21493415Y-149208629D01*
X21440611Y-149254384D01*
X21371453Y-149264328D01*
X21307897Y-149235303D01*
X21281713Y-149203591D01*
X21245916Y-149141590D01*
X21239909Y-149131185D01*
X21137415Y-149028691D01*
X21137413Y-149028690D01*
X21137411Y-149028688D01*
X21011888Y-148956217D01*
X21011889Y-148956217D01*
X21000406Y-148953140D01*
X20871875Y-148918700D01*
X20726925Y-148918700D01*
X20598393Y-148953140D01*
X20586911Y-148956217D01*
X20461388Y-149028688D01*
X20461382Y-149028693D01*
X20358893Y-149131182D01*
X20358888Y-149131188D01*
X20286417Y-149256711D01*
X20286416Y-149256715D01*
X20248900Y-149396725D01*
X20248900Y-149396727D01*
X20248900Y-149437301D01*
X20229215Y-149504340D01*
X20212581Y-149524982D01*
X19750681Y-149986882D01*
X19689358Y-150020367D01*
X19619666Y-150015383D01*
X19563733Y-149973511D01*
X19539316Y-149908047D01*
X19539000Y-149899201D01*
X19539000Y-142861866D01*
X19539000Y-142861865D01*
X19539000Y-142861864D01*
X19513411Y-142766363D01*
X19463975Y-142680738D01*
X18829819Y-142046582D01*
X18796334Y-141985259D01*
X18793500Y-141958901D01*
X18793500Y-141918327D01*
X18793500Y-141918325D01*
X18755984Y-141778315D01*
X18683509Y-141652785D01*
X18581015Y-141550291D01*
X18581013Y-141550290D01*
X18581011Y-141550288D01*
X18455488Y-141477817D01*
X18455489Y-141477817D01*
X18444006Y-141474740D01*
X18315475Y-141440300D01*
X18170525Y-141440300D01*
X18041993Y-141474740D01*
X18030511Y-141477817D01*
X17904988Y-141550288D01*
X17904982Y-141550293D01*
X17802493Y-141652782D01*
X17802488Y-141652788D01*
X17730017Y-141778311D01*
X17730016Y-141778315D01*
X17692500Y-141918325D01*
X17692500Y-142063275D01*
X17730016Y-142203285D01*
X17730017Y-142203288D01*
X17802488Y-142328811D01*
X17802490Y-142328813D01*
X17802491Y-142328815D01*
X17904985Y-142431309D01*
X17904986Y-142431310D01*
X17904988Y-142431311D01*
X18030511Y-142503782D01*
X18030512Y-142503782D01*
X18030515Y-142503784D01*
X18170525Y-142541300D01*
X18211101Y-142541300D01*
X18278140Y-142560985D01*
X18298782Y-142577619D01*
X18751681Y-143030518D01*
X18785166Y-143091841D01*
X18788000Y-143118199D01*
X18788000Y-144284064D01*
X18768315Y-144351103D01*
X18715511Y-144396858D01*
X18646353Y-144406802D01*
X18582797Y-144377777D01*
X18556613Y-144346065D01*
X18556173Y-144345304D01*
X18553075Y-144339937D01*
X15589619Y-141376481D01*
X15556134Y-141315158D01*
X15553300Y-141288800D01*
X15553300Y-132766586D01*
X15572985Y-132699547D01*
X15589619Y-132678905D01*
X15618309Y-132650215D01*
X15690784Y-132524685D01*
X15728300Y-132384675D01*
X15728300Y-132239725D01*
X15690784Y-132099715D01*
X15661394Y-132048811D01*
X15618311Y-131974188D01*
X15618306Y-131974182D01*
X15589619Y-131945495D01*
X15556134Y-131884172D01*
X15553300Y-131857814D01*
X15553300Y-124008799D01*
X15572985Y-123941760D01*
X15589619Y-123921118D01*
X18155218Y-121355519D01*
X18216541Y-121322034D01*
X18242899Y-121319200D01*
X18283472Y-121319200D01*
X18283475Y-121319200D01*
X18423485Y-121281684D01*
X18549015Y-121209209D01*
X18651509Y-121106715D01*
X18723984Y-120981185D01*
X18761500Y-120841175D01*
X18761500Y-120696225D01*
X18723984Y-120556215D01*
X18651509Y-120430685D01*
X18549015Y-120328191D01*
X18549013Y-120328190D01*
X18549011Y-120328188D01*
X18423488Y-120255717D01*
X18423489Y-120255717D01*
X18412006Y-120252640D01*
X18283475Y-120218200D01*
X18138525Y-120218200D01*
X18009993Y-120252640D01*
X17998511Y-120255717D01*
X17872988Y-120328188D01*
X17872982Y-120328193D01*
X17770493Y-120430682D01*
X17770488Y-120430688D01*
X17698017Y-120556211D01*
X17698016Y-120556215D01*
X17660500Y-120696225D01*
X17660500Y-120696227D01*
X17660500Y-120736801D01*
X17640815Y-120803840D01*
X17624181Y-120824482D01*
X14877326Y-123571336D01*
X14827891Y-123656959D01*
X14827891Y-123656960D01*
X14827890Y-123656962D01*
X14802300Y-123752465D01*
X14802300Y-123752467D01*
X14802300Y-131857814D01*
X14782615Y-131924853D01*
X14765981Y-131945495D01*
X14737293Y-131974182D01*
X14737288Y-131974188D01*
X14664817Y-132099711D01*
X14664816Y-132099715D01*
X14627300Y-132239725D01*
X14627300Y-132384675D01*
X14651178Y-132473788D01*
X14664817Y-132524688D01*
X14737288Y-132650211D01*
X14737293Y-132650217D01*
X14765981Y-132678905D01*
X14799466Y-132740228D01*
X14802300Y-132766586D01*
X14802300Y-135342422D01*
X14782615Y-135409461D01*
X14729811Y-135455216D01*
X14660653Y-135465160D01*
X14597097Y-135436135D01*
X14589616Y-135427655D01*
X14589237Y-135428035D01*
X14580603Y-135419401D01*
X14580601Y-135419400D01*
X14580601Y-135419399D01*
X14497740Y-135364034D01*
X14497739Y-135364033D01*
X14497735Y-135364032D01*
X14424677Y-135349500D01*
X14424674Y-135349500D01*
X11575326Y-135349500D01*
X11575323Y-135349500D01*
X11502264Y-135364032D01*
X11502260Y-135364033D01*
X11419399Y-135419399D01*
X11364033Y-135502260D01*
X11364032Y-135502264D01*
X11349500Y-135575321D01*
X500000Y-135575321D01*
X500000Y-115575321D01*
X11349500Y-115575321D01*
X11349500Y-118424678D01*
X11364032Y-118497735D01*
X11364033Y-118497739D01*
X11364034Y-118497740D01*
X11419399Y-118580601D01*
X11502260Y-118635966D01*
X11502264Y-118635967D01*
X11575321Y-118650499D01*
X11575324Y-118650500D01*
X11575326Y-118650500D01*
X14424676Y-118650500D01*
X14424677Y-118650499D01*
X14497740Y-118635966D01*
X14580601Y-118580601D01*
X14635966Y-118497740D01*
X14650500Y-118424674D01*
X14650500Y-115575326D01*
X14650500Y-115575323D01*
X14650499Y-115575321D01*
X14635967Y-115502264D01*
X14635966Y-115502260D01*
X14580601Y-115419399D01*
X14497740Y-115364034D01*
X14497739Y-115364033D01*
X14497735Y-115364032D01*
X14424677Y-115349500D01*
X14424674Y-115349500D01*
X11575326Y-115349500D01*
X11575323Y-115349500D01*
X11502264Y-115364032D01*
X11502260Y-115364033D01*
X11419399Y-115419399D01*
X11364033Y-115502260D01*
X11364032Y-115502264D01*
X11349500Y-115575321D01*
X500000Y-115575321D01*
X500000Y-111140225D01*
X13564400Y-111140225D01*
X13564400Y-111285175D01*
X13601916Y-111425185D01*
X13601917Y-111425188D01*
X13674388Y-111550711D01*
X13674390Y-111550713D01*
X13674391Y-111550715D01*
X13776885Y-111653209D01*
X13776886Y-111653210D01*
X13776888Y-111653211D01*
X13902411Y-111725682D01*
X13902412Y-111725682D01*
X13902415Y-111725684D01*
X14042425Y-111763200D01*
X14042428Y-111763200D01*
X14187372Y-111763200D01*
X14187375Y-111763200D01*
X14327385Y-111725684D01*
X14452915Y-111653209D01*
X14555409Y-111550715D01*
X14627884Y-111425185D01*
X14665400Y-111285175D01*
X14665400Y-111244599D01*
X14685085Y-111177560D01*
X14701719Y-111156918D01*
X15232756Y-110625881D01*
X16198174Y-109660463D01*
X16198175Y-109660462D01*
X16247610Y-109574838D01*
X16273200Y-109479335D01*
X16273200Y-101833986D01*
X16292885Y-101766947D01*
X16309519Y-101746305D01*
X16338209Y-101717615D01*
X16410684Y-101592085D01*
X16448200Y-101452075D01*
X16448200Y-101307125D01*
X16410684Y-101167115D01*
X16338209Y-101041585D01*
X16235715Y-100939091D01*
X16235713Y-100939090D01*
X16235711Y-100939088D01*
X16110188Y-100866617D01*
X16110189Y-100866617D01*
X16098706Y-100863540D01*
X15970175Y-100829100D01*
X15825225Y-100829100D01*
X15696693Y-100863540D01*
X15685211Y-100866617D01*
X15559688Y-100939088D01*
X15559682Y-100939093D01*
X15457193Y-101041582D01*
X15457188Y-101041588D01*
X15384717Y-101167111D01*
X15384716Y-101167115D01*
X15347200Y-101307125D01*
X15347200Y-101452075D01*
X15373518Y-101550293D01*
X15384717Y-101592088D01*
X15457188Y-101717611D01*
X15457193Y-101717617D01*
X15485881Y-101746305D01*
X15519366Y-101807628D01*
X15522200Y-101833986D01*
X15522200Y-109223001D01*
X15502515Y-109290040D01*
X15485881Y-109310682D01*
X14170682Y-110625881D01*
X14109359Y-110659366D01*
X14083001Y-110662200D01*
X14042425Y-110662200D01*
X13913893Y-110696640D01*
X13902411Y-110699717D01*
X13776888Y-110772188D01*
X13776882Y-110772193D01*
X13674393Y-110874682D01*
X13674388Y-110874688D01*
X13601917Y-111000211D01*
X13601916Y-111000215D01*
X13564400Y-111140225D01*
X500000Y-111140225D01*
X500000Y-95575321D01*
X11349500Y-95575321D01*
X11349500Y-98424678D01*
X11364032Y-98497735D01*
X11364033Y-98497739D01*
X11364034Y-98497740D01*
X11419399Y-98580601D01*
X11502260Y-98635966D01*
X11502264Y-98635967D01*
X11575321Y-98650499D01*
X11575324Y-98650500D01*
X11575326Y-98650500D01*
X14424676Y-98650500D01*
X14424677Y-98650499D01*
X14497740Y-98635966D01*
X14580601Y-98580601D01*
X14635966Y-98497740D01*
X14650500Y-98424674D01*
X14650500Y-95575326D01*
X14650500Y-95575323D01*
X14650499Y-95575321D01*
X14635967Y-95502264D01*
X14635966Y-95502260D01*
X14580601Y-95419399D01*
X14497740Y-95364034D01*
X14497739Y-95364033D01*
X14497735Y-95364032D01*
X14424677Y-95349500D01*
X14424674Y-95349500D01*
X11575326Y-95349500D01*
X11575323Y-95349500D01*
X11502264Y-95364032D01*
X11502260Y-95364033D01*
X11419399Y-95419399D01*
X11364033Y-95502260D01*
X11364032Y-95502264D01*
X11349500Y-95575321D01*
X500000Y-95575321D01*
X500000Y-75575321D01*
X11349500Y-75575321D01*
X11349500Y-78424678D01*
X11364032Y-78497735D01*
X11364033Y-78497739D01*
X11364034Y-78497740D01*
X11419399Y-78580601D01*
X11502260Y-78635966D01*
X11502264Y-78635967D01*
X11575321Y-78650499D01*
X11575324Y-78650500D01*
X11575326Y-78650500D01*
X14424676Y-78650500D01*
X14424677Y-78650499D01*
X14497740Y-78635966D01*
X14580601Y-78580601D01*
X14635966Y-78497740D01*
X14650500Y-78424674D01*
X14650500Y-75575326D01*
X14650500Y-75575323D01*
X14650499Y-75575321D01*
X14635967Y-75502264D01*
X14635966Y-75502260D01*
X14628418Y-75490963D01*
X14580601Y-75419399D01*
X14497740Y-75364034D01*
X14497739Y-75364033D01*
X14497735Y-75364032D01*
X14424677Y-75349500D01*
X14424674Y-75349500D01*
X11575326Y-75349500D01*
X11575323Y-75349500D01*
X11502264Y-75364032D01*
X11502260Y-75364033D01*
X11419399Y-75419399D01*
X11364033Y-75502260D01*
X11364032Y-75502264D01*
X11349500Y-75575321D01*
X500000Y-75575321D01*
X500000Y-70836225D01*
X14445700Y-70836225D01*
X14445700Y-70981175D01*
X14457975Y-71026985D01*
X14483217Y-71121188D01*
X14555688Y-71246711D01*
X14555690Y-71246713D01*
X14555691Y-71246715D01*
X14658185Y-71349209D01*
X14658186Y-71349210D01*
X14658188Y-71349211D01*
X14783711Y-71421682D01*
X14783712Y-71421682D01*
X14783715Y-71421684D01*
X14923725Y-71459200D01*
X14923728Y-71459200D01*
X15068672Y-71459200D01*
X15068675Y-71459200D01*
X15208685Y-71421684D01*
X15334215Y-71349209D01*
X15436709Y-71246715D01*
X15509184Y-71121185D01*
X15546700Y-70981175D01*
X15546700Y-70836225D01*
X15509184Y-70696215D01*
X15436709Y-70570685D01*
X15408019Y-70541995D01*
X15374534Y-70480672D01*
X15371700Y-70454314D01*
X15371700Y-64190399D01*
X15391385Y-64123360D01*
X15408019Y-64102718D01*
X18155219Y-61355519D01*
X18216542Y-61322034D01*
X18242900Y-61319200D01*
X18283472Y-61319200D01*
X18283475Y-61319200D01*
X18423485Y-61281684D01*
X18549015Y-61209209D01*
X18651509Y-61106715D01*
X18723984Y-60981185D01*
X18761500Y-60841175D01*
X18761500Y-60696225D01*
X18723984Y-60556215D01*
X18651509Y-60430685D01*
X18549015Y-60328191D01*
X18549013Y-60328190D01*
X18549011Y-60328188D01*
X18423488Y-60255717D01*
X18423489Y-60255717D01*
X18412006Y-60252640D01*
X18283475Y-60218200D01*
X18138525Y-60218200D01*
X18009993Y-60252640D01*
X17998511Y-60255717D01*
X17872988Y-60328188D01*
X17872982Y-60328193D01*
X17770493Y-60430682D01*
X17770488Y-60430688D01*
X17698017Y-60556211D01*
X17698016Y-60556215D01*
X17660500Y-60696225D01*
X17660500Y-60696227D01*
X17660500Y-60736800D01*
X17640815Y-60803839D01*
X17624181Y-60824481D01*
X14765638Y-63683025D01*
X14695726Y-63752936D01*
X14646291Y-63838559D01*
X14646291Y-63838560D01*
X14646290Y-63838562D01*
X14620700Y-63934065D01*
X14620700Y-63934067D01*
X14620700Y-70454314D01*
X14601015Y-70521353D01*
X14584381Y-70541995D01*
X14555693Y-70570682D01*
X14555688Y-70570688D01*
X14483217Y-70696211D01*
X14483216Y-70696215D01*
X14445700Y-70836225D01*
X500000Y-70836225D01*
X500000Y-55575321D01*
X11349500Y-55575321D01*
X11349500Y-58424678D01*
X11364032Y-58497735D01*
X11364033Y-58497739D01*
X11364034Y-58497740D01*
X11419399Y-58580601D01*
X11502260Y-58635966D01*
X11502264Y-58635967D01*
X11575321Y-58650499D01*
X11575324Y-58650500D01*
X11575326Y-58650500D01*
X14424676Y-58650500D01*
X14424677Y-58650499D01*
X14497740Y-58635966D01*
X14580601Y-58580601D01*
X14635966Y-58497740D01*
X14650500Y-58424674D01*
X14650500Y-55575326D01*
X14650500Y-55575323D01*
X14650499Y-55575321D01*
X14635967Y-55502264D01*
X14635966Y-55502260D01*
X14580601Y-55419399D01*
X14497740Y-55364034D01*
X14497739Y-55364033D01*
X14497735Y-55364032D01*
X14424677Y-55349500D01*
X14424674Y-55349500D01*
X11575326Y-55349500D01*
X11575323Y-55349500D01*
X11502264Y-55364032D01*
X11502260Y-55364033D01*
X11419399Y-55419399D01*
X11364033Y-55502260D01*
X11364032Y-55502264D01*
X11349500Y-55575321D01*
X500000Y-55575321D01*
X500000Y-51141225D01*
X13537000Y-51141225D01*
X13537000Y-51286175D01*
X13574516Y-51426185D01*
X13574517Y-51426188D01*
X13646988Y-51551711D01*
X13646990Y-51551713D01*
X13646991Y-51551715D01*
X13749485Y-51654209D01*
X13749486Y-51654210D01*
X13749488Y-51654211D01*
X13875011Y-51726682D01*
X13875012Y-51726682D01*
X13875015Y-51726684D01*
X14015025Y-51764200D01*
X14015028Y-51764200D01*
X14159972Y-51764200D01*
X14159975Y-51764200D01*
X14299985Y-51726684D01*
X14425515Y-51654209D01*
X14528009Y-51551715D01*
X14600484Y-51426185D01*
X14638000Y-51286175D01*
X14638000Y-51245599D01*
X14657685Y-51178560D01*
X14674319Y-51157918D01*
X15205356Y-50626881D01*
X15843074Y-49989163D01*
X15843075Y-49989162D01*
X15892510Y-49903538D01*
X15918100Y-49808035D01*
X15918100Y-43643999D01*
X15937785Y-43576960D01*
X15954419Y-43556318D01*
X18155218Y-41355519D01*
X18216541Y-41322034D01*
X18242899Y-41319200D01*
X18283472Y-41319200D01*
X18283475Y-41319200D01*
X18423485Y-41281684D01*
X18549015Y-41209209D01*
X18651509Y-41106715D01*
X18723984Y-40981185D01*
X18761500Y-40841175D01*
X18761500Y-40696225D01*
X18723984Y-40556215D01*
X18651509Y-40430685D01*
X18549015Y-40328191D01*
X18549013Y-40328190D01*
X18549011Y-40328188D01*
X18423488Y-40255717D01*
X18423489Y-40255717D01*
X18412006Y-40252640D01*
X18283475Y-40218200D01*
X18138525Y-40218200D01*
X18009993Y-40252640D01*
X17998511Y-40255717D01*
X17872988Y-40328188D01*
X17872982Y-40328193D01*
X17770493Y-40430682D01*
X17770488Y-40430688D01*
X17698017Y-40556211D01*
X17698016Y-40556215D01*
X17660500Y-40696225D01*
X17660500Y-40696227D01*
X17660500Y-40736801D01*
X17640815Y-40803840D01*
X17624181Y-40824482D01*
X15242127Y-43206535D01*
X15192691Y-43292160D01*
X15192690Y-43292162D01*
X15176745Y-43351672D01*
X15176744Y-43351676D01*
X15167100Y-43387664D01*
X15167100Y-49551701D01*
X15147415Y-49618740D01*
X15130781Y-49639382D01*
X14143282Y-50626881D01*
X14081959Y-50660366D01*
X14055601Y-50663200D01*
X14015025Y-50663200D01*
X13886493Y-50697640D01*
X13875011Y-50700717D01*
X13749488Y-50773188D01*
X13749482Y-50773193D01*
X13646993Y-50875682D01*
X13646988Y-50875688D01*
X13574517Y-51001211D01*
X13574516Y-51001215D01*
X13537000Y-51141225D01*
X500000Y-51141225D01*
X500000Y-35575321D01*
X11349500Y-35575321D01*
X11349500Y-38424678D01*
X11364032Y-38497735D01*
X11364033Y-38497739D01*
X11364034Y-38497740D01*
X11419399Y-38580601D01*
X11502260Y-38635966D01*
X11502264Y-38635967D01*
X11575321Y-38650499D01*
X11575324Y-38650500D01*
X11575326Y-38650500D01*
X14424676Y-38650500D01*
X14424677Y-38650499D01*
X14497740Y-38635966D01*
X14580601Y-38580601D01*
X14635966Y-38497740D01*
X14650500Y-38424674D01*
X14650500Y-35575326D01*
X14650500Y-35575323D01*
X14650499Y-35575321D01*
X14635967Y-35502264D01*
X14635966Y-35502260D01*
X14580601Y-35419399D01*
X14497740Y-35364034D01*
X14497739Y-35364033D01*
X14497735Y-35364032D01*
X14424677Y-35349500D01*
X14424674Y-35349500D01*
X11575326Y-35349500D01*
X11575323Y-35349500D01*
X11502264Y-35364032D01*
X11502260Y-35364033D01*
X11419399Y-35419399D01*
X11364033Y-35502260D01*
X11364032Y-35502264D01*
X11349500Y-35575321D01*
X500000Y-35575321D01*
X500000Y-22124000D01*
X519685Y-22056961D01*
X572489Y-22011206D01*
X624000Y-22000000D01*
X83376000Y-22000000D01*
X83443039Y-22019685D01*
G37*
%TD.AperFunction*%
%TD*%
M02*
