%TF.GenerationSoftware,KiCad,Pcbnew,10.0.6*%
%TF.CreationDate,2026-10-06T13:57:34+09:00*%
%TF.ProjectId,panel_8faces_32ch_R1,70616e65-6c5f-4386-9661-6365735f3332,rev?*%
%TF.SameCoordinates,Original*%
%TF.FileFunction,Legend,Top*%
%TF.FilePolarity,Positive*%
%FSLAX46Y46*%
G04 Gerber Fmt 4.6, Leading zero omitted, Abs format (unit mm)*
G04 Created by KiCad (PCBNEW 10.0.6) date 2026-10-06 13:57:34*
%MOMM*%
%LPD*%
G01*
G04 APERTURE LIST*
%ADD10C,0.150000*%
G04 APERTURE END LIST*
D10*
X36166666Y-200454819D02*
X36785713Y-200454819D01*
X36785713Y-200454819D02*
X36452380Y-200835771D01*
X36452380Y-200835771D02*
X36595237Y-200835771D01*
X36595237Y-200835771D02*
X36690475Y-200883390D01*
X36690475Y-200883390D02*
X36738094Y-200931009D01*
X36738094Y-200931009D02*
X36785713Y-201026247D01*
X36785713Y-201026247D02*
X36785713Y-201264342D01*
X36785713Y-201264342D02*
X36738094Y-201359580D01*
X36738094Y-201359580D02*
X36690475Y-201407200D01*
X36690475Y-201407200D02*
X36595237Y-201454819D01*
X36595237Y-201454819D02*
X36309523Y-201454819D01*
X36309523Y-201454819D02*
X36214285Y-201407200D01*
X36214285Y-201407200D02*
X36166666Y-201359580D01*
X37166666Y-200550057D02*
X37214285Y-200502438D01*
X37214285Y-200502438D02*
X37309523Y-200454819D01*
X37309523Y-200454819D02*
X37547618Y-200454819D01*
X37547618Y-200454819D02*
X37642856Y-200502438D01*
X37642856Y-200502438D02*
X37690475Y-200550057D01*
X37690475Y-200550057D02*
X37738094Y-200645295D01*
X37738094Y-200645295D02*
X37738094Y-200740533D01*
X37738094Y-200740533D02*
X37690475Y-200883390D01*
X37690475Y-200883390D02*
X37119047Y-201454819D01*
X37119047Y-201454819D02*
X37738094Y-201454819D01*
X38738094Y-201359580D02*
X38690475Y-201407200D01*
X38690475Y-201407200D02*
X38547618Y-201454819D01*
X38547618Y-201454819D02*
X38452380Y-201454819D01*
X38452380Y-201454819D02*
X38309523Y-201407200D01*
X38309523Y-201407200D02*
X38214285Y-201311961D01*
X38214285Y-201311961D02*
X38166666Y-201216723D01*
X38166666Y-201216723D02*
X38119047Y-201026247D01*
X38119047Y-201026247D02*
X38119047Y-200883390D01*
X38119047Y-200883390D02*
X38166666Y-200692914D01*
X38166666Y-200692914D02*
X38214285Y-200597676D01*
X38214285Y-200597676D02*
X38309523Y-200502438D01*
X38309523Y-200502438D02*
X38452380Y-200454819D01*
X38452380Y-200454819D02*
X38547618Y-200454819D01*
X38547618Y-200454819D02*
X38690475Y-200502438D01*
X38690475Y-200502438D02*
X38738094Y-200550057D01*
X39166666Y-201454819D02*
X39166666Y-200454819D01*
X39166666Y-200931009D02*
X39738094Y-200931009D01*
X39738094Y-201454819D02*
X39738094Y-200454819D01*
X41547618Y-201454819D02*
X41214285Y-200978628D01*
X40976190Y-201454819D02*
X40976190Y-200454819D01*
X40976190Y-200454819D02*
X41357142Y-200454819D01*
X41357142Y-200454819D02*
X41452380Y-200502438D01*
X41452380Y-200502438D02*
X41499999Y-200550057D01*
X41499999Y-200550057D02*
X41547618Y-200645295D01*
X41547618Y-200645295D02*
X41547618Y-200788152D01*
X41547618Y-200788152D02*
X41499999Y-200883390D01*
X41499999Y-200883390D02*
X41452380Y-200931009D01*
X41452380Y-200931009D02*
X41357142Y-200978628D01*
X41357142Y-200978628D02*
X40976190Y-200978628D01*
X42499999Y-201454819D02*
X41928571Y-201454819D01*
X42214285Y-201454819D02*
X42214285Y-200454819D01*
X42214285Y-200454819D02*
X42119047Y-200597676D01*
X42119047Y-200597676D02*
X42023809Y-200692914D01*
X42023809Y-200692914D02*
X41928571Y-200740533D01*
X44404761Y-200407200D02*
X43547619Y-201692914D01*
X45928571Y-200788152D02*
X45928571Y-201454819D01*
X45690476Y-200407200D02*
X45452381Y-201121485D01*
X45452381Y-201121485D02*
X46071428Y-201121485D01*
X46357143Y-201454819D02*
X46880952Y-200788152D01*
X46357143Y-200788152D02*
X46880952Y-201454819D01*
X47404762Y-200883390D02*
X47309524Y-200835771D01*
X47309524Y-200835771D02*
X47261905Y-200788152D01*
X47261905Y-200788152D02*
X47214286Y-200692914D01*
X47214286Y-200692914D02*
X47214286Y-200645295D01*
X47214286Y-200645295D02*
X47261905Y-200550057D01*
X47261905Y-200550057D02*
X47309524Y-200502438D01*
X47309524Y-200502438D02*
X47404762Y-200454819D01*
X47404762Y-200454819D02*
X47595238Y-200454819D01*
X47595238Y-200454819D02*
X47690476Y-200502438D01*
X47690476Y-200502438D02*
X47738095Y-200550057D01*
X47738095Y-200550057D02*
X47785714Y-200645295D01*
X47785714Y-200645295D02*
X47785714Y-200692914D01*
X47785714Y-200692914D02*
X47738095Y-200788152D01*
X47738095Y-200788152D02*
X47690476Y-200835771D01*
X47690476Y-200835771D02*
X47595238Y-200883390D01*
X47595238Y-200883390D02*
X47404762Y-200883390D01*
X47404762Y-200883390D02*
X47309524Y-200931009D01*
X47309524Y-200931009D02*
X47261905Y-200978628D01*
X47261905Y-200978628D02*
X47214286Y-201073866D01*
X47214286Y-201073866D02*
X47214286Y-201264342D01*
X47214286Y-201264342D02*
X47261905Y-201359580D01*
X47261905Y-201359580D02*
X47309524Y-201407200D01*
X47309524Y-201407200D02*
X47404762Y-201454819D01*
X47404762Y-201454819D02*
X47595238Y-201454819D01*
X47595238Y-201454819D02*
X47690476Y-201407200D01*
X47690476Y-201407200D02*
X47738095Y-201359580D01*
X47738095Y-201359580D02*
X47785714Y-201264342D01*
X47785714Y-201264342D02*
X47785714Y-201073866D01*
X47785714Y-201073866D02*
X47738095Y-200978628D01*
X47738095Y-200978628D02*
X47690476Y-200931009D01*
X47690476Y-200931009D02*
X47595238Y-200883390D01*
M02*
