%TF.GenerationSoftware,KiCad,Pcbnew,10.0.6*%
%TF.CreationDate,2026-10-04T18:43:37+09:00*%
%TF.ProjectId,panel_6faces_16ch,70616e65-6c5f-4366-9661-6365735f3136,rev?*%
%TF.SameCoordinates,Original*%
%TF.FileFunction,Copper,L1,Top*%
%TF.FilePolarity,Positive*%
%FSLAX46Y46*%
G04 Gerber Fmt 4.6, Leading zero omitted, Abs format (unit mm)*
G04 Created by KiCad (PCBNEW 10.0.6) date 2026-10-04 18:43:37*
%MOMM*%
%LPD*%
G01*
G04 APERTURE LIST*
G04 Aperture macros list*
%AMRoundRect*
0 Rectangle with rounded corners*
0 $1 Rounding radius*
0 $2 $3 $4 $5 $6 $7 $8 $9 X,Y pos of 4 corners*
0 Add a 4 corners polygon primitive as box body*
4,1,4,$2,$3,$4,$5,$6,$7,$8,$9,$2,$3,0*
0 Add four circle primitives for the rounded corners*
1,1,$1+$1,$2,$3*
1,1,$1+$1,$4,$5*
1,1,$1+$1,$6,$7*
1,1,$1+$1,$8,$9*
0 Add four rect primitives between the rounded corners*
20,1,$1+$1,$2,$3,$4,$5,0*
20,1,$1+$1,$4,$5,$6,$7,0*
20,1,$1+$1,$6,$7,$8,$9,0*
20,1,$1+$1,$8,$9,$2,$3,0*%
G04 Aperture macros list end*
%TA.AperFunction,ComponentPad*%
%ADD10R,2.800000X2.800000*%
%TD*%
%TA.AperFunction,ComponentPad*%
%ADD11C,2.800000*%
%TD*%
%TA.AperFunction,ComponentPad*%
%ADD12R,1.700000X1.700000*%
%TD*%
%TA.AperFunction,ComponentPad*%
%ADD13C,1.700000*%
%TD*%
%TA.AperFunction,ComponentPad*%
%ADD14RoundRect,0.250000X-0.550000X-0.550000X0.550000X-0.550000X0.550000X0.550000X-0.550000X0.550000X0*%
%TD*%
%TA.AperFunction,ComponentPad*%
%ADD15C,1.600000*%
%TD*%
%TA.AperFunction,ViaPad*%
%ADD16C,0.600000*%
%TD*%
%TA.AperFunction,Conductor*%
%ADD17C,0.250000*%
%TD*%
%TA.AperFunction,Conductor*%
%ADD18C,0.400000*%
%TD*%
%TA.AperFunction,Conductor*%
%ADD19C,0.800000*%
%TD*%
G04 APERTURE END LIST*
D10*
%TO.P,T5,1*%
%TO.N,/OUT04*%
X21000000Y-55000000D03*
D11*
%TO.P,T5,2*%
%TO.N,/GND*%
X21000000Y-65000000D03*
%TD*%
D10*
%TO.P,T14,1*%
%TO.N,/OUT13*%
X39000000Y-135000000D03*
D11*
%TO.P,T14,2*%
%TO.N,/GND*%
X39000000Y-145000000D03*
%TD*%
D10*
%TO.P,T4,1*%
%TO.N,/OUT03*%
X39000000Y-35000000D03*
D11*
%TO.P,T4,2*%
%TO.N,/GND*%
X39000000Y-45000000D03*
%TD*%
D10*
%TO.P,T6,1*%
%TO.N,/OUT05*%
X39000000Y-55000000D03*
D11*
%TO.P,T6,2*%
%TO.N,/GND*%
X39000000Y-65000000D03*
%TD*%
D10*
%TO.P,T1,1*%
%TO.N,/OUT00*%
X21000000Y-15000000D03*
D11*
%TO.P,T1,2*%
%TO.N,/GND*%
X21000000Y-25000000D03*
%TD*%
D10*
%TO.P,T3,1*%
%TO.N,/OUT02*%
X21000000Y-35000000D03*
D11*
%TO.P,T3,2*%
%TO.N,/GND*%
X21000000Y-45000000D03*
%TD*%
D10*
%TO.P,T12,1*%
%TO.N,/OUT11*%
X39000000Y-115000000D03*
D11*
%TO.P,T12,2*%
%TO.N,/GND*%
X39000000Y-125000000D03*
%TD*%
D10*
%TO.P,T15,1*%
%TO.N,/OUT14*%
X21000000Y-155000000D03*
D11*
%TO.P,T15,2*%
%TO.N,/GND*%
X21000000Y-165000000D03*
%TD*%
D10*
%TO.P,T13,1*%
%TO.N,/OUT12*%
X21000000Y-135000000D03*
D11*
%TO.P,T13,2*%
%TO.N,/GND*%
X21000000Y-145000000D03*
%TD*%
D10*
%TO.P,T11,1*%
%TO.N,/OUT10*%
X21000000Y-115000000D03*
D11*
%TO.P,T11,2*%
%TO.N,/GND*%
X21000000Y-125000000D03*
%TD*%
D10*
%TO.P,T16,1*%
%TO.N,/OUT15*%
X39000000Y-155000000D03*
D11*
%TO.P,T16,2*%
%TO.N,/GND*%
X39000000Y-165000000D03*
%TD*%
D10*
%TO.P,T8,1*%
%TO.N,/OUT07*%
X39000000Y-75000000D03*
D11*
%TO.P,T8,2*%
%TO.N,/GND*%
X39000000Y-85000000D03*
%TD*%
D10*
%TO.P,T7,1*%
%TO.N,/OUT06*%
X21000000Y-75000000D03*
D11*
%TO.P,T7,2*%
%TO.N,/GND*%
X21000000Y-85000000D03*
%TD*%
D10*
%TO.P,T9,1*%
%TO.N,/OUT08*%
X21000000Y-95000000D03*
D11*
%TO.P,T9,2*%
%TO.N,/GND*%
X21000000Y-105000000D03*
%TD*%
D10*
%TO.P,T10,1*%
%TO.N,/OUT09*%
X39000000Y-95000000D03*
D11*
%TO.P,T10,2*%
%TO.N,/GND*%
X39000000Y-105000000D03*
%TD*%
D10*
%TO.P,T2,1*%
%TO.N,/OUT01*%
X39000000Y-15000000D03*
D11*
%TO.P,T2,2*%
%TO.N,/GND*%
X39000000Y-25000000D03*
%TD*%
D12*
%TO.P,J1,1*%
%TO.N,/GND*%
X24920000Y-173000000D03*
D13*
%TO.P,J1,2*%
%TO.N,/+5V*%
X24920000Y-175540000D03*
%TO.P,J1,3*%
%TO.N,/DATA_A*%
X27460000Y-173000000D03*
%TO.P,J1,4*%
%TO.N,/GND*%
X27460000Y-175540000D03*
%TO.P,J1,5*%
%TO.N,/DATA_B*%
X30000000Y-173000000D03*
%TO.P,J1,6*%
%TO.N,/GND*%
X30000000Y-175540000D03*
%TO.P,J1,7*%
%TO.N,/SHIFT_PIN*%
X32540000Y-173000000D03*
%TO.P,J1,8*%
%TO.N,/LATCH_PIN*%
X32540000Y-175540000D03*
%TO.P,J1,9*%
%TO.N,/ARM*%
X35080000Y-173000000D03*
%TO.P,J1,10*%
%TO.N,/GND*%
X35080000Y-175540000D03*
%TD*%
D12*
%TO.P,J2,1*%
%TO.N,/DRV_VDD*%
X32540000Y-6000000D03*
D13*
%TO.P,J2,2*%
%TO.N,/GND*%
X30000000Y-6000000D03*
%TO.P,J2,3*%
%TO.N,/+5V*%
X27460000Y-6000000D03*
%TD*%
D14*
%TO.P,C19,1*%
%TO.N,/DRV_VDD*%
X49000000Y-7000000D03*
D15*
%TO.P,C19,2*%
%TO.N,/GND*%
X51500000Y-7000000D03*
%TD*%
D16*
%TO.N,/OUT04*%
X23720400Y-63316600D03*
%TO.N,/OUT02*%
X30628200Y-40573200D03*
X28590200Y-43029500D03*
%TO.N,/OUT12*%
X24136900Y-136063600D03*
%TO.N,/+5V*%
X30931400Y-45541100D03*
X36641900Y-133145900D03*
X36641900Y-53924300D03*
%TO.N,/DATA_A*%
X34118200Y-52549200D03*
%TO.N,/DATA_B*%
X30212600Y-171185000D03*
X30987800Y-131905000D03*
X30000400Y-167887100D03*
%TO.N,/SHIFT_PIN*%
X31125200Y-171630100D03*
%TO.N,/LATCH_PIN*%
X5315500Y-145012400D03*
X7002700Y-176084800D03*
%TO.N,/IN01*%
X23177800Y-30315600D03*
X26709800Y-55260200D03*
X26211000Y-18768700D03*
%TO.N,/IN11*%
X25113200Y-117552400D03*
X22997900Y-128910400D03*
%TO.N,/IN06*%
X25691400Y-78083500D03*
X26237800Y-48741900D03*
%TO.N,/IN07*%
X22087500Y-89213700D03*
X25618600Y-79359500D03*
X28799400Y-47469200D03*
%TO.N,/DRV_VDD*%
X35050000Y-144660900D03*
X34108600Y-105057000D03*
X35050000Y-122495000D03*
X34214400Y-64957600D03*
X34068100Y-26981900D03*
X35050000Y-42734300D03*
X34025400Y-19000000D03*
%TO.N,/IN10*%
X25561100Y-119990800D03*
X25561100Y-134380900D03*
%TO.N,/IN05*%
X27525000Y-57273400D03*
X22114800Y-69209400D03*
%TO.N,/IN02*%
X26246700Y-39990800D03*
X28800400Y-53819200D03*
%TO.N,/IN03*%
X24956400Y-46769800D03*
X24956400Y-37277600D03*
%TO.N,/SHIFT*%
X33919100Y-128572700D03*
X9451500Y-164288000D03*
X30969000Y-48095000D03*
X33382400Y-163852400D03*
X8805300Y-170107200D03*
%TO.N,/LATCH*%
X30975900Y-129365000D03*
X30636200Y-49709600D03*
X31768000Y-113632700D03*
%TO.N,/OE_N*%
X30995200Y-50635000D03*
X30996800Y-130635000D03*
X54747300Y-156012300D03*
X53908600Y-169168600D03*
%TO.N,/IN09*%
X29087900Y-134444000D03*
X23177800Y-110295800D03*
X25439800Y-98522600D03*
%TO.N,/IN15*%
X22975900Y-168888400D03*
X28800600Y-127470400D03*
X28646600Y-156156200D03*
%TO.N,/IN08*%
X26243400Y-101279200D03*
X29998300Y-132066000D03*
%TO.N,/IN13*%
X22087500Y-149223600D03*
X27523400Y-137292700D03*
%TO.N,/IN14*%
X23143500Y-159034000D03*
X26240500Y-128739200D03*
%TD*%
%TO.N,/OUT04*%
D17*
X21000000Y-60596200D02*
X21000000Y-55000000D01*
X23720400Y-63316600D02*
X21000000Y-60596200D01*
%TO.N,/GND*%
D18*
X21000000Y-125000000D02*
X19147500Y-123147500D01*
X24920000Y-171748300D02*
X24841800Y-171748300D01*
X19147500Y-106852500D02*
X21000000Y-105000000D01*
X27460000Y-175540000D02*
X26171700Y-174251700D01*
X24920000Y-173000000D02*
X24920000Y-171748300D01*
X19147500Y-123147500D02*
X19147500Y-106852500D01*
X21000000Y-167906500D02*
X21000000Y-165000000D01*
X24841800Y-171748300D02*
X21000000Y-167906500D01*
X26171700Y-174251700D02*
X24920000Y-174251700D01*
X24920000Y-173000000D02*
X24920000Y-174251700D01*
%TO.N,/OUT02*%
D17*
X28590200Y-43029500D02*
X28590200Y-42611200D01*
X28590200Y-42611200D02*
X30628200Y-40573200D01*
%TO.N,/OUT12*%
X21000000Y-135000000D02*
X22726700Y-135000000D01*
X23790300Y-136063600D02*
X22726700Y-135000000D01*
X24136900Y-136063600D02*
X23790300Y-136063600D01*
%TO.N,/+5V*%
D18*
X27460000Y-6000000D02*
X27460000Y-33470700D01*
X31330000Y-45142500D02*
X30931400Y-45541100D01*
X27460000Y-33470700D02*
X31330000Y-37340700D01*
X36641900Y-53924300D02*
X36641900Y-133145900D01*
X31330000Y-37340700D02*
X31330000Y-45142500D01*
%TO.N,/DATA_A*%
D17*
X32880200Y-53787200D02*
X32880200Y-163468400D01*
X32755700Y-167704300D02*
X27460000Y-173000000D01*
X32755700Y-163592900D02*
X32755700Y-167704300D01*
X32880200Y-163468400D02*
X32755700Y-163592900D01*
X34118200Y-52549200D02*
X32880200Y-53787200D01*
%TO.N,/DATA_B*%
X30987800Y-140489000D02*
X30000400Y-141476400D01*
X30000400Y-141476400D02*
X30000400Y-167887100D01*
X30000000Y-171397600D02*
X30212600Y-171185000D01*
X30987800Y-131905000D02*
X30987800Y-140489000D01*
X30000000Y-173000000D02*
X30000000Y-171397600D01*
%TO.N,/SHIFT_PIN*%
X32540000Y-173000000D02*
X31170100Y-171630100D01*
X31170100Y-171630100D02*
X31125200Y-171630100D01*
%TO.N,/LATCH_PIN*%
X5315500Y-145012400D02*
X5315500Y-169246500D01*
X5315500Y-169246500D02*
X7002700Y-170933700D01*
X7002700Y-170933700D02*
X7002700Y-176084800D01*
%TO.N,/IN01*%
X23880100Y-52430500D02*
X26709800Y-55260200D01*
X23177800Y-21801900D02*
X23177800Y-30315600D01*
X23177800Y-30315600D02*
X23880100Y-31017900D01*
X26211000Y-18768700D02*
X23177800Y-21801900D01*
X23880100Y-31017900D02*
X23880100Y-52430500D01*
%TO.N,/IN11*%
X22997900Y-119667700D02*
X25113200Y-117552400D01*
X22997900Y-128910400D02*
X22997900Y-119667700D01*
%TO.N,/IN06*%
X28206900Y-54414100D02*
X28206900Y-75568000D01*
X26237800Y-48741900D02*
X26237800Y-52445000D01*
X26237800Y-52445000D02*
X28206900Y-54414100D01*
X28206900Y-75568000D02*
X25691400Y-78083500D01*
%TO.N,/IN07*%
X28322200Y-47946400D02*
X28799400Y-47469200D01*
X25618600Y-79359500D02*
X29446000Y-75532100D01*
X22087500Y-89213700D02*
X23748400Y-87552800D01*
X28322200Y-49739200D02*
X28322200Y-47946400D01*
X29446000Y-75532100D02*
X29446000Y-50863000D01*
X23748400Y-87552800D02*
X23748400Y-81229700D01*
X29446000Y-50863000D02*
X28322200Y-49739200D01*
X23748400Y-81229700D02*
X25618600Y-79359500D01*
%TO.N,/DRV_VDD*%
D19*
X35566600Y-43250900D02*
X35050000Y-42734300D01*
X35050000Y-105998400D02*
X34108600Y-105057000D01*
X35566600Y-63605400D02*
X35566600Y-43250900D01*
X32540000Y-6000000D02*
X32540000Y-17514600D01*
X35050000Y-144660900D02*
X35050000Y-122495000D01*
X34068100Y-19042700D02*
X34068100Y-26981900D01*
X35050000Y-122495000D02*
X35050000Y-105998400D01*
X34214400Y-64957600D02*
X35566600Y-63605400D01*
X34025400Y-19000000D02*
X34068100Y-19042700D01*
X32540000Y-17514600D02*
X34025400Y-19000000D01*
X34068100Y-41752400D02*
X35050000Y-42734300D01*
X34068100Y-26981900D02*
X34068100Y-41752400D01*
%TO.N,/IN10*%
D17*
X25561100Y-134380900D02*
X25561100Y-119990800D01*
%TO.N,/IN05*%
X27525000Y-63799200D02*
X22114800Y-69209400D01*
X27525000Y-57273400D02*
X27525000Y-63799200D01*
%TO.N,/IN02*%
X27557300Y-52576100D02*
X27557300Y-41301300D01*
X27557200Y-41301300D02*
X26246700Y-39990800D01*
X27557300Y-41301300D02*
X27557200Y-41301300D01*
X28800400Y-53819200D02*
X27557300Y-52576100D01*
%TO.N,/IN03*%
X24956400Y-46769800D02*
X24956400Y-37277600D01*
%TO.N,/SHIFT*%
X9451500Y-164288000D02*
X8805300Y-164934200D01*
X33331900Y-64483400D02*
X33331900Y-127985500D01*
X33382400Y-129109400D02*
X33382400Y-163852400D01*
X34781000Y-51907000D02*
X34781000Y-63034300D01*
X8805300Y-164934200D02*
X8805300Y-170107200D01*
X34781000Y-63034300D02*
X33331900Y-64483400D01*
X33331900Y-127985500D02*
X33919100Y-128572700D01*
X33919100Y-128572700D02*
X33382400Y-129109400D01*
X30969000Y-48095000D02*
X34781000Y-51907000D01*
%TO.N,/LATCH*%
X31806100Y-128534800D02*
X30975900Y-129365000D01*
X30351000Y-50979600D02*
X31806100Y-52434700D01*
X30636200Y-49709600D02*
X30351000Y-49994800D01*
X31806100Y-113632700D02*
X31768000Y-113632700D01*
X31806100Y-52434700D02*
X31806100Y-113632700D01*
X30351000Y-49994800D02*
X30351000Y-50979600D01*
X31806100Y-113632700D02*
X31806100Y-128534800D01*
%TO.N,/OE_N*%
X53908600Y-156851000D02*
X53908600Y-169168600D01*
X32394700Y-129237100D02*
X32394700Y-52034500D01*
X54747300Y-156012300D02*
X53908600Y-156851000D01*
X32394700Y-52034500D02*
X30995200Y-50635000D01*
X30996800Y-130635000D02*
X32394700Y-129237100D01*
%TO.N,/IN09*%
X23177800Y-110295800D02*
X29436100Y-116554100D01*
X23177800Y-100784600D02*
X23177800Y-110295800D01*
X29436100Y-127798200D02*
X29087900Y-128146400D01*
X25439800Y-98522600D02*
X23177800Y-100784600D01*
X29436100Y-116554100D02*
X29436100Y-127798200D01*
X29087900Y-128146400D02*
X29087900Y-134444000D01*
%TO.N,/IN15*%
X28646600Y-135113200D02*
X28646600Y-156156200D01*
X28461200Y-127809800D02*
X28461200Y-134927800D01*
X28646600Y-156156200D02*
X22975900Y-161826900D01*
X22975900Y-161826900D02*
X22975900Y-168888400D01*
X28461200Y-134927800D02*
X28646600Y-135113200D01*
X28800600Y-127470400D02*
X28461200Y-127809800D01*
%TO.N,/IN08*%
X29998300Y-105034100D02*
X26243400Y-101279200D01*
X29998300Y-132066000D02*
X29998300Y-105034100D01*
%TO.N,/IN13*%
X27523400Y-137292700D02*
X27523400Y-143787700D01*
X27523400Y-143787700D02*
X22087500Y-149223600D01*
%TO.N,/IN14*%
X26240500Y-128739200D02*
X26240500Y-133345900D01*
X28173300Y-135278700D02*
X28173300Y-154004200D01*
X26240500Y-133345900D02*
X28173300Y-135278700D01*
X28173300Y-154004200D02*
X23143500Y-159034000D01*
%TD*%
%TA.AperFunction,Conductor*%
%TO.N,/GND*%
G36*
X59443039Y-519685D02*
G01*
X59488794Y-572489D01*
X59500000Y-624000D01*
X59500000Y-179376000D01*
X59480315Y-179443039D01*
X59427511Y-179488794D01*
X59376000Y-179500000D01*
X624000Y-179500000D01*
X556961Y-179480315D01*
X511206Y-179427511D01*
X500000Y-179376000D01*
X500000Y-174878711D01*
X1649500Y-174878711D01*
X1649500Y-175121288D01*
X1681161Y-175361785D01*
X1743947Y-175596104D01*
X1806363Y-175746788D01*
X1836776Y-175820212D01*
X1958064Y-176030289D01*
X1958066Y-176030292D01*
X1958067Y-176030293D01*
X2105733Y-176222736D01*
X2105739Y-176222743D01*
X2277256Y-176394260D01*
X2277262Y-176394265D01*
X2469711Y-176541936D01*
X2679788Y-176663224D01*
X2903900Y-176756054D01*
X3138211Y-176818838D01*
X3318586Y-176842584D01*
X3378711Y-176850500D01*
X3378712Y-176850500D01*
X3621289Y-176850500D01*
X3669388Y-176844167D01*
X3861789Y-176818838D01*
X4096100Y-176756054D01*
X4320212Y-176663224D01*
X4530289Y-176541936D01*
X4722738Y-176394265D01*
X4894265Y-176222738D01*
X5041936Y-176030289D01*
X5163224Y-175820212D01*
X5256054Y-175596100D01*
X5318838Y-175361789D01*
X5350500Y-175121288D01*
X5350500Y-174878712D01*
X5318838Y-174638211D01*
X5256054Y-174403900D01*
X5163224Y-174179788D01*
X5041936Y-173969711D01*
X4894265Y-173777262D01*
X4894260Y-173777256D01*
X4722743Y-173605739D01*
X4722736Y-173605733D01*
X4530293Y-173458067D01*
X4530292Y-173458066D01*
X4530289Y-173458064D01*
X4320212Y-173336776D01*
X4320205Y-173336773D01*
X4096104Y-173243947D01*
X3861785Y-173181161D01*
X3621289Y-173149500D01*
X3621288Y-173149500D01*
X3378712Y-173149500D01*
X3378711Y-173149500D01*
X3138214Y-173181161D01*
X2903895Y-173243947D01*
X2679794Y-173336773D01*
X2679785Y-173336777D01*
X2469706Y-173458067D01*
X2277263Y-173605733D01*
X2277256Y-173605739D01*
X2105739Y-173777256D01*
X2105733Y-173777263D01*
X1958067Y-173969706D01*
X1836777Y-174179785D01*
X1836773Y-174179794D01*
X1743947Y-174403895D01*
X1681161Y-174638214D01*
X1649500Y-174878711D01*
X500000Y-174878711D01*
X500000Y-144939925D01*
X4765000Y-144939925D01*
X4765000Y-145084875D01*
X4786784Y-145166173D01*
X4802517Y-145224888D01*
X4874988Y-145350411D01*
X4874993Y-145350417D01*
X4903681Y-145379105D01*
X4937166Y-145440428D01*
X4940000Y-145466786D01*
X4940000Y-169295935D01*
X4962816Y-169381085D01*
X4965591Y-169391441D01*
X5010412Y-169469072D01*
X5015027Y-169477065D01*
X6590881Y-171052918D01*
X6624366Y-171114241D01*
X6627200Y-171140599D01*
X6627200Y-175630414D01*
X6607515Y-175697453D01*
X6590881Y-175718095D01*
X6562193Y-175746782D01*
X6562188Y-175746788D01*
X6489717Y-175872311D01*
X6489716Y-175872315D01*
X6452200Y-176012325D01*
X6452200Y-176157275D01*
X6478903Y-176256929D01*
X6489717Y-176297288D01*
X6562188Y-176422811D01*
X6562190Y-176422813D01*
X6562191Y-176422815D01*
X6664685Y-176525309D01*
X6664686Y-176525310D01*
X6664688Y-176525311D01*
X6790211Y-176597782D01*
X6790212Y-176597782D01*
X6790215Y-176597784D01*
X6930225Y-176635300D01*
X6930228Y-176635300D01*
X7075172Y-176635300D01*
X7075175Y-176635300D01*
X7215185Y-176597784D01*
X7340715Y-176525309D01*
X7443209Y-176422815D01*
X7515684Y-176297285D01*
X7553200Y-176157275D01*
X7553200Y-176012325D01*
X7515684Y-175872315D01*
X7485603Y-175820214D01*
X7443211Y-175746788D01*
X7443206Y-175746782D01*
X7414519Y-175718095D01*
X7399815Y-175691167D01*
X7383223Y-175665349D01*
X7382331Y-175659148D01*
X7381034Y-175656772D01*
X7378200Y-175630414D01*
X7378200Y-175453389D01*
X23819500Y-175453389D01*
X23819500Y-175626611D01*
X23827677Y-175678239D01*
X23838533Y-175746785D01*
X23846598Y-175797701D01*
X23900127Y-175962445D01*
X23978768Y-176116788D01*
X24080586Y-176256928D01*
X24203072Y-176379414D01*
X24343212Y-176481232D01*
X24497555Y-176559873D01*
X24662299Y-176613402D01*
X24833389Y-176640500D01*
X24833390Y-176640500D01*
X25006610Y-176640500D01*
X25006611Y-176640500D01*
X25177701Y-176613402D01*
X25342445Y-176559873D01*
X25496788Y-176481232D01*
X25636928Y-176379414D01*
X25759414Y-176256928D01*
X25861232Y-176116788D01*
X25939873Y-175962445D01*
X25993402Y-175797701D01*
X26020500Y-175626611D01*
X26020500Y-175453389D01*
X31439500Y-175453389D01*
X31439500Y-175626611D01*
X31447677Y-175678239D01*
X31458533Y-175746785D01*
X31466598Y-175797701D01*
X31520127Y-175962445D01*
X31598768Y-176116788D01*
X31700586Y-176256928D01*
X31823072Y-176379414D01*
X31963212Y-176481232D01*
X32117555Y-176559873D01*
X32282299Y-176613402D01*
X32453389Y-176640500D01*
X32453390Y-176640500D01*
X32626610Y-176640500D01*
X32626611Y-176640500D01*
X32797701Y-176613402D01*
X32962445Y-176559873D01*
X33116788Y-176481232D01*
X33256928Y-176379414D01*
X33379414Y-176256928D01*
X33481232Y-176116788D01*
X33559873Y-175962445D01*
X33613402Y-175797701D01*
X33640500Y-175626611D01*
X33640500Y-175453389D01*
X33613402Y-175282299D01*
X33559873Y-175117555D01*
X33481232Y-174963212D01*
X33481230Y-174963209D01*
X33481229Y-174963207D01*
X33469847Y-174947541D01*
X33469845Y-174947539D01*
X33419838Y-174878711D01*
X54649500Y-174878711D01*
X54649500Y-175121288D01*
X54681161Y-175361785D01*
X54743947Y-175596104D01*
X54806363Y-175746788D01*
X54836776Y-175820212D01*
X54958064Y-176030289D01*
X54958066Y-176030292D01*
X54958067Y-176030293D01*
X55105733Y-176222736D01*
X55105739Y-176222743D01*
X55277256Y-176394260D01*
X55277262Y-176394265D01*
X55469711Y-176541936D01*
X55679788Y-176663224D01*
X55903900Y-176756054D01*
X56138211Y-176818838D01*
X56318586Y-176842584D01*
X56378711Y-176850500D01*
X56378712Y-176850500D01*
X56621289Y-176850500D01*
X56669388Y-176844167D01*
X56861789Y-176818838D01*
X57096100Y-176756054D01*
X57320212Y-176663224D01*
X57530289Y-176541936D01*
X57722738Y-176394265D01*
X57894265Y-176222738D01*
X58041936Y-176030289D01*
X58163224Y-175820212D01*
X58256054Y-175596100D01*
X58318838Y-175361789D01*
X58350500Y-175121288D01*
X58350500Y-174878712D01*
X58318838Y-174638211D01*
X58256054Y-174403900D01*
X58163224Y-174179788D01*
X58041936Y-173969711D01*
X57894265Y-173777262D01*
X57894260Y-173777256D01*
X57722743Y-173605739D01*
X57722736Y-173605733D01*
X57530293Y-173458067D01*
X57530292Y-173458066D01*
X57530289Y-173458064D01*
X57320212Y-173336776D01*
X57320205Y-173336773D01*
X57096104Y-173243947D01*
X56861785Y-173181161D01*
X56621289Y-173149500D01*
X56621288Y-173149500D01*
X56378712Y-173149500D01*
X56378711Y-173149500D01*
X56138214Y-173181161D01*
X55903895Y-173243947D01*
X55679794Y-173336773D01*
X55679785Y-173336777D01*
X55469706Y-173458067D01*
X55277263Y-173605733D01*
X55277256Y-173605739D01*
X55105739Y-173777256D01*
X55105733Y-173777263D01*
X54958067Y-173969706D01*
X54836777Y-174179785D01*
X54836773Y-174179794D01*
X54743947Y-174403895D01*
X54681161Y-174638214D01*
X54649500Y-174878711D01*
X33419838Y-174878711D01*
X33379414Y-174823072D01*
X33256928Y-174700586D01*
X33116788Y-174598768D01*
X32962445Y-174520127D01*
X32797701Y-174466598D01*
X32797699Y-174466597D01*
X32797698Y-174466597D01*
X32666271Y-174445781D01*
X32626611Y-174439500D01*
X32453389Y-174439500D01*
X32413728Y-174445781D01*
X32282302Y-174466597D01*
X32117552Y-174520128D01*
X31963211Y-174598768D01*
X31908919Y-174638214D01*
X31823072Y-174700586D01*
X31823070Y-174700588D01*
X31823069Y-174700588D01*
X31700588Y-174823069D01*
X31700588Y-174823070D01*
X31700586Y-174823072D01*
X31660162Y-174878711D01*
X31598768Y-174963211D01*
X31520128Y-175117552D01*
X31466597Y-175282302D01*
X31454008Y-175361789D01*
X31439500Y-175453389D01*
X26020500Y-175453389D01*
X25993402Y-175282299D01*
X25939873Y-175117555D01*
X25861232Y-174963212D01*
X25759414Y-174823072D01*
X25636928Y-174700586D01*
X25496788Y-174598768D01*
X25342445Y-174520127D01*
X25177701Y-174466598D01*
X25177699Y-174466597D01*
X25177698Y-174466597D01*
X25046271Y-174445781D01*
X25006611Y-174439500D01*
X24833389Y-174439500D01*
X24793728Y-174445781D01*
X24662302Y-174466597D01*
X24497552Y-174520128D01*
X24343211Y-174598768D01*
X24288919Y-174638214D01*
X24203072Y-174700586D01*
X24203070Y-174700588D01*
X24203069Y-174700588D01*
X24080588Y-174823069D01*
X24080588Y-174823070D01*
X24080586Y-174823072D01*
X24040162Y-174878711D01*
X23978768Y-174963211D01*
X23900128Y-175117552D01*
X23846597Y-175282302D01*
X23834008Y-175361789D01*
X23819500Y-175453389D01*
X7378200Y-175453389D01*
X7378200Y-170884267D01*
X7378200Y-170884265D01*
X7352610Y-170788762D01*
X7303175Y-170703138D01*
X7233262Y-170633225D01*
X6634762Y-170034725D01*
X8254800Y-170034725D01*
X8254800Y-170179675D01*
X8292316Y-170319685D01*
X8292317Y-170319688D01*
X8364788Y-170445211D01*
X8364790Y-170445213D01*
X8364791Y-170445215D01*
X8467285Y-170547709D01*
X8467286Y-170547710D01*
X8467288Y-170547711D01*
X8592811Y-170620182D01*
X8592812Y-170620182D01*
X8592815Y-170620184D01*
X8732825Y-170657700D01*
X8732828Y-170657700D01*
X8877772Y-170657700D01*
X8877775Y-170657700D01*
X9017785Y-170620184D01*
X9143315Y-170547709D01*
X9245809Y-170445215D01*
X9318284Y-170319685D01*
X9355800Y-170179675D01*
X9355800Y-170034725D01*
X9318284Y-169894715D01*
X9245809Y-169769185D01*
X9217119Y-169740495D01*
X9183634Y-169679172D01*
X9180800Y-169652814D01*
X9180800Y-165141099D01*
X9200485Y-165074060D01*
X9217119Y-165053418D01*
X9395719Y-164874819D01*
X9457042Y-164841334D01*
X9483400Y-164838500D01*
X9523972Y-164838500D01*
X9523975Y-164838500D01*
X9663985Y-164800984D01*
X9789515Y-164728509D01*
X9892009Y-164626015D01*
X9964484Y-164500485D01*
X10002000Y-164360475D01*
X10002000Y-164215525D01*
X9964484Y-164075515D01*
X9958348Y-164064888D01*
X9892011Y-163949988D01*
X9892006Y-163949982D01*
X9789517Y-163847493D01*
X9789511Y-163847488D01*
X9663988Y-163775017D01*
X9663989Y-163775017D01*
X9652506Y-163771940D01*
X9523975Y-163737500D01*
X9379025Y-163737500D01*
X9250493Y-163771940D01*
X9239011Y-163775017D01*
X9113488Y-163847488D01*
X9113482Y-163847493D01*
X9010993Y-163949982D01*
X9010988Y-163949988D01*
X8938517Y-164075511D01*
X8938516Y-164075515D01*
X8901000Y-164215525D01*
X8901000Y-164215527D01*
X8901000Y-164256100D01*
X8881315Y-164323139D01*
X8864681Y-164343781D01*
X8574738Y-164633725D01*
X8504826Y-164703636D01*
X8455391Y-164789259D01*
X8455391Y-164789260D01*
X8455390Y-164789262D01*
X8429800Y-164884765D01*
X8429800Y-164884767D01*
X8429800Y-169652814D01*
X8410115Y-169719853D01*
X8393481Y-169740495D01*
X8364793Y-169769182D01*
X8364788Y-169769188D01*
X8292317Y-169894711D01*
X8292316Y-169894715D01*
X8254800Y-170034725D01*
X6634762Y-170034725D01*
X5727319Y-169127282D01*
X5693834Y-169065959D01*
X5691000Y-169039601D01*
X5691000Y-153575321D01*
X19349500Y-153575321D01*
X19349500Y-156424678D01*
X19364032Y-156497735D01*
X19364033Y-156497739D01*
X19364034Y-156497740D01*
X19419399Y-156580601D01*
X19502260Y-156635966D01*
X19502264Y-156635967D01*
X19575321Y-156650499D01*
X19575324Y-156650500D01*
X19575326Y-156650500D01*
X22424676Y-156650500D01*
X22424677Y-156650499D01*
X22497740Y-156635966D01*
X22580601Y-156580601D01*
X22635966Y-156497740D01*
X22650500Y-156424674D01*
X22650500Y-153575326D01*
X22650500Y-153575323D01*
X22650499Y-153575321D01*
X22635967Y-153502264D01*
X22635966Y-153502260D01*
X22580601Y-153419399D01*
X22497740Y-153364034D01*
X22497739Y-153364033D01*
X22497735Y-153364032D01*
X22424677Y-153349500D01*
X22424674Y-153349500D01*
X19575326Y-153349500D01*
X19575323Y-153349500D01*
X19502264Y-153364032D01*
X19502260Y-153364033D01*
X19419399Y-153419399D01*
X19364033Y-153502260D01*
X19364032Y-153502264D01*
X19349500Y-153575321D01*
X5691000Y-153575321D01*
X5691000Y-145466786D01*
X5710685Y-145399747D01*
X5727319Y-145379105D01*
X5756009Y-145350415D01*
X5828484Y-145224885D01*
X5866000Y-145084875D01*
X5866000Y-144939925D01*
X5828484Y-144799915D01*
X5756009Y-144674385D01*
X5653515Y-144571891D01*
X5653513Y-144571890D01*
X5653511Y-144571888D01*
X5527988Y-144499417D01*
X5527989Y-144499417D01*
X5516506Y-144496340D01*
X5387975Y-144461900D01*
X5243025Y-144461900D01*
X5114493Y-144496340D01*
X5103011Y-144499417D01*
X4977488Y-144571888D01*
X4977482Y-144571893D01*
X4874993Y-144674382D01*
X4874988Y-144674388D01*
X4802517Y-144799911D01*
X4802516Y-144799915D01*
X4765000Y-144939925D01*
X500000Y-144939925D01*
X500000Y-133575321D01*
X19349500Y-133575321D01*
X19349500Y-136424678D01*
X19364032Y-136497735D01*
X19364033Y-136497739D01*
X19368291Y-136504111D01*
X19419399Y-136580601D01*
X19469535Y-136614100D01*
X19502260Y-136635966D01*
X19502264Y-136635967D01*
X19575321Y-136650499D01*
X19575324Y-136650500D01*
X19575326Y-136650500D01*
X22424676Y-136650500D01*
X22424677Y-136650499D01*
X22497740Y-136635966D01*
X22580601Y-136580601D01*
X22635966Y-136497740D01*
X22650500Y-136424674D01*
X22650500Y-135754199D01*
X22670185Y-135687160D01*
X22722989Y-135641405D01*
X22792147Y-135631461D01*
X22855703Y-135660486D01*
X22862181Y-135666518D01*
X23559738Y-136364075D01*
X23645363Y-136413511D01*
X23699224Y-136427942D01*
X23754812Y-136460036D01*
X23798885Y-136504109D01*
X23798886Y-136504110D01*
X23798888Y-136504111D01*
X23924411Y-136576582D01*
X23924412Y-136576582D01*
X23924415Y-136576584D01*
X24064425Y-136614100D01*
X24064428Y-136614100D01*
X24209372Y-136614100D01*
X24209375Y-136614100D01*
X24349385Y-136576584D01*
X24474915Y-136504109D01*
X24577409Y-136401615D01*
X24649884Y-136276085D01*
X24687400Y-136136075D01*
X24687400Y-135991125D01*
X24649884Y-135851115D01*
X24593929Y-135754199D01*
X24577411Y-135725588D01*
X24577406Y-135725582D01*
X24474917Y-135623093D01*
X24474911Y-135623088D01*
X24349388Y-135550617D01*
X24349389Y-135550617D01*
X24337906Y-135547540D01*
X24209375Y-135513100D01*
X24064425Y-135513100D01*
X23945631Y-135544931D01*
X23924407Y-135550618D01*
X23918881Y-135552907D01*
X23849410Y-135560368D01*
X23786935Y-135529087D01*
X23783759Y-135526022D01*
X22957263Y-134699526D01*
X22957262Y-134699525D01*
X22882720Y-134656488D01*
X22871640Y-134650091D01*
X22871639Y-134650090D01*
X22871638Y-134650090D01*
X22823886Y-134637295D01*
X22823884Y-134637294D01*
X22823882Y-134637293D01*
X22776136Y-134624500D01*
X22776135Y-134624500D01*
X22774500Y-134624500D01*
X22773170Y-134624109D01*
X22768077Y-134623439D01*
X22768181Y-134622644D01*
X22707461Y-134604815D01*
X22661706Y-134552011D01*
X22650500Y-134500500D01*
X22650500Y-133575323D01*
X22650499Y-133575321D01*
X22635967Y-133502264D01*
X22635966Y-133502260D01*
X22623706Y-133483911D01*
X22580601Y-133419399D01*
X22497740Y-133364034D01*
X22497739Y-133364033D01*
X22497735Y-133364032D01*
X22424677Y-133349500D01*
X22424674Y-133349500D01*
X19575326Y-133349500D01*
X19575323Y-133349500D01*
X19502264Y-133364032D01*
X19502260Y-133364033D01*
X19419399Y-133419399D01*
X19364033Y-133502260D01*
X19364032Y-133502264D01*
X19349500Y-133575321D01*
X500000Y-133575321D01*
X500000Y-128837925D01*
X22447400Y-128837925D01*
X22447400Y-128982875D01*
X22474948Y-129085684D01*
X22484917Y-129122888D01*
X22557388Y-129248411D01*
X22557390Y-129248413D01*
X22557391Y-129248415D01*
X22659885Y-129350909D01*
X22659886Y-129350910D01*
X22659888Y-129350911D01*
X22785411Y-129423382D01*
X22785412Y-129423382D01*
X22785415Y-129423384D01*
X22925425Y-129460900D01*
X22925428Y-129460900D01*
X23070372Y-129460900D01*
X23070375Y-129460900D01*
X23210385Y-129423384D01*
X23335915Y-129350909D01*
X23438409Y-129248415D01*
X23510884Y-129122885D01*
X23548400Y-128982875D01*
X23548400Y-128837925D01*
X23510884Y-128697915D01*
X23492876Y-128666725D01*
X23438411Y-128572388D01*
X23438406Y-128572382D01*
X23409719Y-128543695D01*
X23376234Y-128482372D01*
X23373400Y-128456014D01*
X23373400Y-119874599D01*
X23393085Y-119807560D01*
X23409719Y-119786918D01*
X25057418Y-118139219D01*
X25118741Y-118105734D01*
X25145099Y-118102900D01*
X25185672Y-118102900D01*
X25185675Y-118102900D01*
X25325685Y-118065384D01*
X25451215Y-117992909D01*
X25553709Y-117890415D01*
X25626184Y-117764885D01*
X25663700Y-117624875D01*
X25663700Y-117479925D01*
X25626184Y-117339915D01*
X25553709Y-117214385D01*
X25451215Y-117111891D01*
X25451213Y-117111890D01*
X25451211Y-117111888D01*
X25325688Y-117039417D01*
X25325689Y-117039417D01*
X25314206Y-117036340D01*
X25185675Y-117001900D01*
X25040725Y-117001900D01*
X24912193Y-117036340D01*
X24900711Y-117039417D01*
X24775188Y-117111888D01*
X24775182Y-117111893D01*
X24672693Y-117214382D01*
X24672688Y-117214388D01*
X24600217Y-117339911D01*
X24600216Y-117339915D01*
X24562700Y-117479925D01*
X24562700Y-117479927D01*
X24562700Y-117520501D01*
X24543015Y-117587540D01*
X24526381Y-117608182D01*
X22697426Y-119437136D01*
X22647991Y-119522759D01*
X22647991Y-119522760D01*
X22647990Y-119522762D01*
X22622400Y-119618265D01*
X22622400Y-119618267D01*
X22622400Y-128456014D01*
X22602715Y-128523053D01*
X22586081Y-128543695D01*
X22557393Y-128572382D01*
X22557388Y-128572388D01*
X22484917Y-128697911D01*
X22484916Y-128697915D01*
X22447400Y-128837925D01*
X500000Y-128837925D01*
X500000Y-113575321D01*
X19349500Y-113575321D01*
X19349500Y-116424678D01*
X19364032Y-116497735D01*
X19364033Y-116497739D01*
X19364034Y-116497740D01*
X19419399Y-116580601D01*
X19502260Y-116635966D01*
X19502264Y-116635967D01*
X19575321Y-116650499D01*
X19575324Y-116650500D01*
X19575326Y-116650500D01*
X22424676Y-116650500D01*
X22424677Y-116650499D01*
X22497740Y-116635966D01*
X22580601Y-116580601D01*
X22635966Y-116497740D01*
X22650500Y-116424674D01*
X22650500Y-113575326D01*
X22650500Y-113575323D01*
X22650499Y-113575321D01*
X22635967Y-113502264D01*
X22635966Y-113502260D01*
X22580601Y-113419399D01*
X22497740Y-113364034D01*
X22497739Y-113364033D01*
X22497735Y-113364032D01*
X22424677Y-113349500D01*
X22424674Y-113349500D01*
X19575326Y-113349500D01*
X19575323Y-113349500D01*
X19502264Y-113364032D01*
X19502260Y-113364033D01*
X19419399Y-113419399D01*
X19364033Y-113502260D01*
X19364032Y-113502264D01*
X19349500Y-113575321D01*
X500000Y-113575321D01*
X500000Y-93575321D01*
X19349500Y-93575321D01*
X19349500Y-96424678D01*
X19364032Y-96497735D01*
X19364033Y-96497739D01*
X19364034Y-96497740D01*
X19419399Y-96580601D01*
X19502260Y-96635966D01*
X19502264Y-96635967D01*
X19575321Y-96650499D01*
X19575324Y-96650500D01*
X19575326Y-96650500D01*
X22424676Y-96650500D01*
X22424677Y-96650499D01*
X22497740Y-96635966D01*
X22580601Y-96580601D01*
X22635966Y-96497740D01*
X22650500Y-96424674D01*
X22650500Y-93575326D01*
X22650500Y-93575323D01*
X22650499Y-93575321D01*
X22635967Y-93502264D01*
X22635966Y-93502260D01*
X22580601Y-93419399D01*
X22497740Y-93364034D01*
X22497739Y-93364033D01*
X22497735Y-93364032D01*
X22424677Y-93349500D01*
X22424674Y-93349500D01*
X19575326Y-93349500D01*
X19575323Y-93349500D01*
X19502264Y-93364032D01*
X19502260Y-93364033D01*
X19419399Y-93419399D01*
X19364033Y-93502260D01*
X19364032Y-93502264D01*
X19349500Y-93575321D01*
X500000Y-93575321D01*
X500000Y-89141225D01*
X21537000Y-89141225D01*
X21537000Y-89286175D01*
X21574516Y-89426185D01*
X21574517Y-89426188D01*
X21646988Y-89551711D01*
X21646990Y-89551713D01*
X21646991Y-89551715D01*
X21749485Y-89654209D01*
X21749486Y-89654210D01*
X21749488Y-89654211D01*
X21875011Y-89726682D01*
X21875012Y-89726682D01*
X21875015Y-89726684D01*
X22015025Y-89764200D01*
X22015028Y-89764200D01*
X22159972Y-89764200D01*
X22159975Y-89764200D01*
X22299985Y-89726684D01*
X22425515Y-89654209D01*
X22528009Y-89551715D01*
X22600484Y-89426185D01*
X22638000Y-89286175D01*
X22638000Y-89245599D01*
X22657685Y-89178560D01*
X22674319Y-89157918D01*
X23205356Y-88626881D01*
X24048874Y-87783363D01*
X24048875Y-87783362D01*
X24098310Y-87697738D01*
X24123900Y-87602235D01*
X24123900Y-81436599D01*
X24143585Y-81369560D01*
X24160219Y-81348918D01*
X25562818Y-79946319D01*
X25624141Y-79912834D01*
X25650499Y-79910000D01*
X25691072Y-79910000D01*
X25691075Y-79910000D01*
X25831085Y-79872484D01*
X25956615Y-79800009D01*
X26059109Y-79697515D01*
X26131584Y-79571985D01*
X26169100Y-79431975D01*
X26169100Y-79391399D01*
X26188785Y-79324360D01*
X26205419Y-79303718D01*
X27938621Y-77570516D01*
X29746474Y-75762663D01*
X29775183Y-75712938D01*
X29795910Y-75677038D01*
X29821500Y-75581535D01*
X29821500Y-51276252D01*
X29841185Y-51209213D01*
X29893989Y-51163458D01*
X29963147Y-51153514D01*
X30026703Y-51182539D01*
X30044727Y-51204369D01*
X30045579Y-51203716D01*
X30050524Y-51210161D01*
X31394281Y-52553918D01*
X31427766Y-52615241D01*
X31430600Y-52641599D01*
X31430600Y-113140214D01*
X31410915Y-113207253D01*
X31394281Y-113227895D01*
X31327493Y-113294682D01*
X31327488Y-113294688D01*
X31255017Y-113420211D01*
X31255016Y-113420215D01*
X31217500Y-113560225D01*
X31217500Y-113705175D01*
X31255016Y-113845185D01*
X31255017Y-113845188D01*
X31327488Y-113970711D01*
X31327493Y-113970717D01*
X31394281Y-114037505D01*
X31427766Y-114098828D01*
X31430600Y-114125186D01*
X31430600Y-128327901D01*
X31410915Y-128394940D01*
X31394281Y-128415582D01*
X31031682Y-128778181D01*
X30970359Y-128811666D01*
X30944001Y-128814500D01*
X30903425Y-128814500D01*
X30774893Y-128848940D01*
X30763411Y-128852017D01*
X30637888Y-128924488D01*
X30637882Y-128924493D01*
X30585481Y-128976895D01*
X30524158Y-129010380D01*
X30454466Y-129005396D01*
X30398533Y-128963524D01*
X30374116Y-128898060D01*
X30373800Y-128889214D01*
X30373800Y-104984666D01*
X30373800Y-104984665D01*
X30373800Y-104984664D01*
X30348211Y-104889163D01*
X30298775Y-104803538D01*
X26830219Y-101334982D01*
X26796734Y-101273659D01*
X26793900Y-101247301D01*
X26793900Y-101206727D01*
X26793900Y-101206725D01*
X26756384Y-101066715D01*
X26683909Y-100941185D01*
X26581415Y-100838691D01*
X26581413Y-100838690D01*
X26581411Y-100838688D01*
X26455888Y-100766217D01*
X26455889Y-100766217D01*
X26444406Y-100763140D01*
X26315875Y-100728700D01*
X26170925Y-100728700D01*
X26042393Y-100763140D01*
X26030911Y-100766217D01*
X25905388Y-100838688D01*
X25905382Y-100838693D01*
X25802893Y-100941182D01*
X25802888Y-100941188D01*
X25730417Y-101066711D01*
X25730416Y-101066715D01*
X25692900Y-101206725D01*
X25692900Y-101351675D01*
X25730416Y-101491685D01*
X25730417Y-101491688D01*
X25802888Y-101617211D01*
X25802890Y-101617213D01*
X25802891Y-101617215D01*
X25905385Y-101719709D01*
X25905386Y-101719710D01*
X25905388Y-101719711D01*
X26030911Y-101792182D01*
X26030912Y-101792182D01*
X26030915Y-101792184D01*
X26170925Y-101829700D01*
X26211501Y-101829700D01*
X26278540Y-101849385D01*
X26299182Y-101866019D01*
X29586481Y-105153318D01*
X29619966Y-105214641D01*
X29622800Y-105240999D01*
X29622800Y-115910400D01*
X29603115Y-115977439D01*
X29550311Y-116023194D01*
X29481153Y-116033138D01*
X29417597Y-116004113D01*
X29411119Y-115998081D01*
X23764619Y-110351581D01*
X23731134Y-110290258D01*
X23728300Y-110263900D01*
X23728300Y-110223327D01*
X23728300Y-110223325D01*
X23690784Y-110083315D01*
X23618309Y-109957785D01*
X23589619Y-109929095D01*
X23556134Y-109867772D01*
X23553300Y-109841414D01*
X23553300Y-100991499D01*
X23572985Y-100924460D01*
X23589619Y-100903818D01*
X25384018Y-99109419D01*
X25445341Y-99075934D01*
X25471699Y-99073100D01*
X25512272Y-99073100D01*
X25512275Y-99073100D01*
X25652285Y-99035584D01*
X25777815Y-98963109D01*
X25880309Y-98860615D01*
X25952784Y-98735085D01*
X25990300Y-98595075D01*
X25990300Y-98450125D01*
X25952784Y-98310115D01*
X25880309Y-98184585D01*
X25777815Y-98082091D01*
X25777813Y-98082090D01*
X25777811Y-98082088D01*
X25652288Y-98009617D01*
X25652289Y-98009617D01*
X25640806Y-98006540D01*
X25512275Y-97972100D01*
X25367325Y-97972100D01*
X25238793Y-98006540D01*
X25227311Y-98009617D01*
X25101788Y-98082088D01*
X25101782Y-98082093D01*
X24999293Y-98184582D01*
X24999288Y-98184588D01*
X24926817Y-98310111D01*
X24926816Y-98310115D01*
X24889300Y-98450125D01*
X24889300Y-98450127D01*
X24889300Y-98490701D01*
X24869615Y-98557740D01*
X24852981Y-98578382D01*
X22877326Y-100554036D01*
X22827891Y-100639659D01*
X22827891Y-100639660D01*
X22827890Y-100639662D01*
X22802300Y-100735165D01*
X22802300Y-100735167D01*
X22802300Y-109841414D01*
X22782615Y-109908453D01*
X22765981Y-109929095D01*
X22737293Y-109957782D01*
X22737288Y-109957788D01*
X22664817Y-110083311D01*
X22664816Y-110083315D01*
X22627300Y-110223325D01*
X22627300Y-110368275D01*
X22664816Y-110508285D01*
X22664817Y-110508288D01*
X22737288Y-110633811D01*
X22737290Y-110633813D01*
X22737291Y-110633815D01*
X22839785Y-110736309D01*
X22839786Y-110736310D01*
X22839788Y-110736311D01*
X22965311Y-110808782D01*
X22965312Y-110808782D01*
X22965315Y-110808784D01*
X23105325Y-110846300D01*
X23145901Y-110846300D01*
X23212940Y-110865985D01*
X23233582Y-110882619D01*
X29024281Y-116673318D01*
X29057766Y-116734641D01*
X29060600Y-116760999D01*
X29060600Y-126808547D01*
X29040915Y-126875586D01*
X28988111Y-126921341D01*
X28918953Y-126931285D01*
X28904508Y-126928322D01*
X28873076Y-126919900D01*
X28873075Y-126919900D01*
X28728125Y-126919900D01*
X28599593Y-126954340D01*
X28588111Y-126957417D01*
X28462588Y-127029888D01*
X28462582Y-127029893D01*
X28360093Y-127132382D01*
X28360088Y-127132388D01*
X28287617Y-127257911D01*
X28287616Y-127257915D01*
X28250100Y-127397925D01*
X28250100Y-127397927D01*
X28250100Y-127438501D01*
X28230415Y-127505540D01*
X28213781Y-127526182D01*
X28160726Y-127579236D01*
X28111291Y-127664859D01*
X28111291Y-127664860D01*
X28111290Y-127664862D01*
X28085700Y-127760365D01*
X28085700Y-127760367D01*
X28085700Y-134360701D01*
X28066015Y-134427740D01*
X28013211Y-134473495D01*
X27944053Y-134483439D01*
X27880497Y-134454414D01*
X27874019Y-134448382D01*
X26652319Y-133226682D01*
X26618834Y-133165359D01*
X26616000Y-133139001D01*
X26616000Y-129193586D01*
X26635685Y-129126547D01*
X26652319Y-129105905D01*
X26658534Y-129099690D01*
X26681009Y-129077215D01*
X26753484Y-128951685D01*
X26791000Y-128811675D01*
X26791000Y-128666725D01*
X26753484Y-128526715D01*
X26727882Y-128482372D01*
X26681011Y-128401188D01*
X26681006Y-128401182D01*
X26578517Y-128298693D01*
X26578511Y-128298688D01*
X26452988Y-128226217D01*
X26452989Y-128226217D01*
X26441506Y-128223140D01*
X26312975Y-128188700D01*
X26168025Y-128188700D01*
X26092693Y-128208885D01*
X26022843Y-128207222D01*
X25964981Y-128168059D01*
X25937477Y-128103830D01*
X25936600Y-128089110D01*
X25936600Y-120445186D01*
X25956285Y-120378147D01*
X25972919Y-120357505D01*
X26001609Y-120328815D01*
X26074084Y-120203285D01*
X26111600Y-120063275D01*
X26111600Y-119918325D01*
X26074084Y-119778315D01*
X26001609Y-119652785D01*
X25899115Y-119550291D01*
X25899113Y-119550290D01*
X25899111Y-119550288D01*
X25773588Y-119477817D01*
X25773589Y-119477817D01*
X25762106Y-119474740D01*
X25633575Y-119440300D01*
X25488625Y-119440300D01*
X25360093Y-119474740D01*
X25348611Y-119477817D01*
X25223088Y-119550288D01*
X25223082Y-119550293D01*
X25120593Y-119652782D01*
X25120588Y-119652788D01*
X25048117Y-119778311D01*
X25048116Y-119778315D01*
X25010600Y-119918325D01*
X25010600Y-120063275D01*
X25048116Y-120203285D01*
X25048117Y-120203288D01*
X25120588Y-120328811D01*
X25120593Y-120328817D01*
X25149281Y-120357505D01*
X25182766Y-120418828D01*
X25185600Y-120445186D01*
X25185600Y-133926514D01*
X25165915Y-133993553D01*
X25149281Y-134014195D01*
X25120593Y-134042882D01*
X25120588Y-134042888D01*
X25048117Y-134168411D01*
X25048116Y-134168415D01*
X25010600Y-134308425D01*
X25010600Y-134453375D01*
X25027508Y-134516475D01*
X25048117Y-134593388D01*
X25120588Y-134718911D01*
X25120590Y-134718913D01*
X25120591Y-134718915D01*
X25223085Y-134821409D01*
X25223086Y-134821410D01*
X25223088Y-134821411D01*
X25348611Y-134893882D01*
X25348612Y-134893882D01*
X25348615Y-134893884D01*
X25488625Y-134931400D01*
X25488628Y-134931400D01*
X25633572Y-134931400D01*
X25633575Y-134931400D01*
X25773585Y-134893884D01*
X25899115Y-134821409D01*
X26001609Y-134718915D01*
X26074084Y-134593385D01*
X26111600Y-134453375D01*
X26111600Y-134308425D01*
X26074084Y-134168415D01*
X26001609Y-134042885D01*
X25972919Y-134014195D01*
X25939434Y-133952872D01*
X25936600Y-133926514D01*
X25936600Y-133872399D01*
X25956285Y-133805360D01*
X26009089Y-133759605D01*
X26078247Y-133749661D01*
X26141803Y-133778686D01*
X26148281Y-133784718D01*
X27761481Y-135397918D01*
X27794966Y-135459241D01*
X27797800Y-135485599D01*
X27797800Y-136634706D01*
X27778115Y-136701745D01*
X27725311Y-136747500D01*
X27656153Y-136757444D01*
X27641710Y-136754481D01*
X27595875Y-136742200D01*
X27450925Y-136742200D01*
X27322393Y-136776640D01*
X27310911Y-136779717D01*
X27185388Y-136852188D01*
X27185382Y-136852193D01*
X27082893Y-136954682D01*
X27082888Y-136954688D01*
X27010417Y-137080211D01*
X27010416Y-137080215D01*
X26972900Y-137220225D01*
X26972900Y-137365175D01*
X27010416Y-137505185D01*
X27010417Y-137505188D01*
X27082888Y-137630711D01*
X27082893Y-137630717D01*
X27111581Y-137659405D01*
X27145066Y-137720728D01*
X27147900Y-137747086D01*
X27147900Y-143580801D01*
X27128215Y-143647840D01*
X27111581Y-143668482D01*
X22143282Y-148636781D01*
X22081959Y-148670266D01*
X22055601Y-148673100D01*
X22015025Y-148673100D01*
X21886493Y-148707540D01*
X21875011Y-148710617D01*
X21749488Y-148783088D01*
X21749482Y-148783093D01*
X21646993Y-148885582D01*
X21646988Y-148885588D01*
X21574517Y-149011111D01*
X21574516Y-149011115D01*
X21537000Y-149151125D01*
X21537000Y-149296075D01*
X21574516Y-149436085D01*
X21574517Y-149436088D01*
X21646988Y-149561611D01*
X21646990Y-149561613D01*
X21646991Y-149561615D01*
X21749485Y-149664109D01*
X21749486Y-149664110D01*
X21749488Y-149664111D01*
X21875011Y-149736582D01*
X21875012Y-149736582D01*
X21875015Y-149736584D01*
X22015025Y-149774100D01*
X22015028Y-149774100D01*
X22159972Y-149774100D01*
X22159975Y-149774100D01*
X22299985Y-149736584D01*
X22425515Y-149664109D01*
X22528009Y-149561615D01*
X22600484Y-149436085D01*
X22638000Y-149296075D01*
X22638000Y-149255499D01*
X22657685Y-149188460D01*
X22674319Y-149167818D01*
X27586119Y-144256018D01*
X27647442Y-144222533D01*
X27717134Y-144227517D01*
X27773067Y-144269389D01*
X27797484Y-144334853D01*
X27797800Y-144343699D01*
X27797800Y-153797301D01*
X27778115Y-153864340D01*
X27761481Y-153884982D01*
X23199282Y-158447181D01*
X23137959Y-158480666D01*
X23111601Y-158483500D01*
X23071025Y-158483500D01*
X22942493Y-158517940D01*
X22931011Y-158521017D01*
X22805488Y-158593488D01*
X22805482Y-158593493D01*
X22702993Y-158695982D01*
X22702988Y-158695988D01*
X22630517Y-158821511D01*
X22630516Y-158821515D01*
X22593000Y-158961525D01*
X22593000Y-159106475D01*
X22630516Y-159246485D01*
X22630517Y-159246488D01*
X22702988Y-159372011D01*
X22702990Y-159372013D01*
X22702991Y-159372015D01*
X22805485Y-159474509D01*
X22805486Y-159474510D01*
X22805488Y-159474511D01*
X22931011Y-159546982D01*
X22931012Y-159546982D01*
X22931015Y-159546984D01*
X23071025Y-159584500D01*
X23071028Y-159584500D01*
X23215972Y-159584500D01*
X23215975Y-159584500D01*
X23355985Y-159546984D01*
X23481515Y-159474509D01*
X23584009Y-159372015D01*
X23656484Y-159246485D01*
X23694000Y-159106475D01*
X23694000Y-159065899D01*
X23713685Y-158998860D01*
X23730319Y-158978218D01*
X28059419Y-154649118D01*
X28120742Y-154615633D01*
X28190434Y-154620617D01*
X28246367Y-154662489D01*
X28270784Y-154727953D01*
X28271100Y-154736799D01*
X28271100Y-155701814D01*
X28251415Y-155768853D01*
X28234781Y-155789495D01*
X28206093Y-155818182D01*
X28206088Y-155818188D01*
X28133617Y-155943711D01*
X28133616Y-155943715D01*
X28096100Y-156083725D01*
X28096100Y-156083727D01*
X28096100Y-156124300D01*
X28076415Y-156191339D01*
X28059781Y-156211981D01*
X22745338Y-161526425D01*
X22675426Y-161596336D01*
X22625991Y-161681959D01*
X22625991Y-161681960D01*
X22625990Y-161681962D01*
X22600400Y-161777465D01*
X22600400Y-161777467D01*
X22600400Y-168434014D01*
X22580715Y-168501053D01*
X22564081Y-168521695D01*
X22535393Y-168550382D01*
X22535388Y-168550388D01*
X22462917Y-168675911D01*
X22462916Y-168675915D01*
X22425400Y-168815925D01*
X22425400Y-168960875D01*
X22461641Y-169096125D01*
X22462917Y-169100888D01*
X22535388Y-169226411D01*
X22535390Y-169226413D01*
X22535391Y-169226415D01*
X22637885Y-169328909D01*
X22637886Y-169328910D01*
X22637888Y-169328911D01*
X22763411Y-169401382D01*
X22763412Y-169401382D01*
X22763415Y-169401384D01*
X22903425Y-169438900D01*
X22903428Y-169438900D01*
X23048372Y-169438900D01*
X23048375Y-169438900D01*
X23188385Y-169401384D01*
X23313915Y-169328909D01*
X23416409Y-169226415D01*
X23488884Y-169100885D01*
X23526400Y-168960875D01*
X23526400Y-168815925D01*
X23488884Y-168675915D01*
X23416409Y-168550385D01*
X23387719Y-168521695D01*
X23354234Y-168460372D01*
X23351400Y-168434014D01*
X23351400Y-162033799D01*
X23371085Y-161966760D01*
X23387719Y-161946118D01*
X28590819Y-156743019D01*
X28652142Y-156709534D01*
X28678500Y-156706700D01*
X28719072Y-156706700D01*
X28719075Y-156706700D01*
X28859085Y-156669184D01*
X28984615Y-156596709D01*
X29087109Y-156494215D01*
X29159584Y-156368685D01*
X29197100Y-156228675D01*
X29197100Y-156083725D01*
X29159584Y-155943715D01*
X29157339Y-155939827D01*
X29087111Y-155818188D01*
X29087106Y-155818182D01*
X29058419Y-155789495D01*
X29024934Y-155728172D01*
X29022100Y-155701814D01*
X29022100Y-135118500D01*
X29041785Y-135051461D01*
X29094589Y-135005706D01*
X29146100Y-134994500D01*
X29160372Y-134994500D01*
X29160375Y-134994500D01*
X29300385Y-134956984D01*
X29425915Y-134884509D01*
X29528409Y-134782015D01*
X29600884Y-134656485D01*
X29638400Y-134516475D01*
X29638400Y-134371525D01*
X29600884Y-134231515D01*
X29528409Y-134105985D01*
X29499719Y-134077295D01*
X29466234Y-134015972D01*
X29463400Y-133989614D01*
X29463400Y-132606880D01*
X29483085Y-132539841D01*
X29535889Y-132494086D01*
X29605047Y-132484142D01*
X29652315Y-132504055D01*
X29653246Y-132502445D01*
X29785811Y-132578982D01*
X29785812Y-132578982D01*
X29785815Y-132578984D01*
X29925825Y-132616500D01*
X29925828Y-132616500D01*
X30070772Y-132616500D01*
X30070775Y-132616500D01*
X30210785Y-132578984D01*
X30336315Y-132506509D01*
X30400619Y-132442205D01*
X30461942Y-132408720D01*
X30531634Y-132413704D01*
X30587567Y-132455576D01*
X30611984Y-132521040D01*
X30612300Y-132529886D01*
X30612300Y-140282101D01*
X30592615Y-140349140D01*
X30575981Y-140369782D01*
X29699926Y-141245836D01*
X29650491Y-141331459D01*
X29650491Y-141331460D01*
X29650490Y-141331462D01*
X29624900Y-141426965D01*
X29624900Y-141426967D01*
X29624900Y-167432714D01*
X29605215Y-167499753D01*
X29588581Y-167520395D01*
X29559893Y-167549082D01*
X29559888Y-167549088D01*
X29487417Y-167674611D01*
X29487416Y-167674615D01*
X29449900Y-167814625D01*
X29449900Y-167959575D01*
X29487416Y-168099585D01*
X29487417Y-168099588D01*
X29559888Y-168225111D01*
X29559890Y-168225113D01*
X29559891Y-168225115D01*
X29662385Y-168327609D01*
X29662386Y-168327610D01*
X29662388Y-168327611D01*
X29787911Y-168400082D01*
X29787912Y-168400082D01*
X29787915Y-168400084D01*
X29927925Y-168437600D01*
X29927928Y-168437600D01*
X30072872Y-168437600D01*
X30072875Y-168437600D01*
X30212885Y-168400084D01*
X30338415Y-168327609D01*
X30440909Y-168225115D01*
X30513384Y-168099585D01*
X30550900Y-167959575D01*
X30550900Y-167814625D01*
X30513384Y-167674615D01*
X30461691Y-167585081D01*
X30440911Y-167549088D01*
X30440906Y-167549082D01*
X30412219Y-167520395D01*
X30378734Y-167459072D01*
X30375900Y-167432714D01*
X30375900Y-141683299D01*
X30395585Y-141616260D01*
X30412219Y-141595618D01*
X30831912Y-141175925D01*
X31288274Y-140719563D01*
X31288275Y-140719562D01*
X31337710Y-140633938D01*
X31363300Y-140538435D01*
X31363300Y-132359386D01*
X31382985Y-132292347D01*
X31399619Y-132271705D01*
X31428309Y-132243015D01*
X31500784Y-132117485D01*
X31538300Y-131977475D01*
X31538300Y-131832525D01*
X31500784Y-131692515D01*
X31428309Y-131566985D01*
X31325815Y-131464491D01*
X31325813Y-131464490D01*
X31325811Y-131464488D01*
X31200288Y-131392017D01*
X31200283Y-131392015D01*
X31196413Y-131390978D01*
X31193518Y-131389213D01*
X31192781Y-131388908D01*
X31192828Y-131388792D01*
X31136754Y-131354610D01*
X31106229Y-131291761D01*
X31114527Y-131222386D01*
X31159016Y-131168511D01*
X31196417Y-131151431D01*
X31209285Y-131147984D01*
X31334815Y-131075509D01*
X31437309Y-130973015D01*
X31509784Y-130847485D01*
X31547300Y-130707475D01*
X31547300Y-130666899D01*
X31566985Y-130599860D01*
X31583619Y-130579218D01*
X32293019Y-129869818D01*
X32354342Y-129836333D01*
X32424034Y-129841317D01*
X32479967Y-129883189D01*
X32504384Y-129948653D01*
X32504700Y-129957499D01*
X32504700Y-163261501D01*
X32485015Y-163328540D01*
X32468381Y-163349182D01*
X32455227Y-163362335D01*
X32455225Y-163362337D01*
X32455225Y-163362338D01*
X32405790Y-163447962D01*
X32405790Y-163447963D01*
X32387993Y-163514385D01*
X32387069Y-163517832D01*
X32387068Y-163517835D01*
X32380200Y-163543464D01*
X32380200Y-167497400D01*
X32360515Y-167564439D01*
X32343881Y-167585081D01*
X27986284Y-171942677D01*
X27924961Y-171976162D01*
X27860286Y-171972927D01*
X27717701Y-171926598D01*
X27717699Y-171926597D01*
X27717698Y-171926597D01*
X27586271Y-171905781D01*
X27546611Y-171899500D01*
X27373389Y-171899500D01*
X27333728Y-171905781D01*
X27202302Y-171926597D01*
X27037552Y-171980128D01*
X26883211Y-172058768D01*
X26866914Y-172070609D01*
X26743072Y-172160586D01*
X26743070Y-172160588D01*
X26743069Y-172160588D01*
X26620588Y-172283069D01*
X26620588Y-172283070D01*
X26620586Y-172283072D01*
X26606588Y-172302339D01*
X26518768Y-172423211D01*
X26440128Y-172577552D01*
X26386597Y-172742302D01*
X26359500Y-172913389D01*
X26359500Y-173086610D01*
X26384419Y-173243947D01*
X26386598Y-173257701D01*
X26440127Y-173422445D01*
X26518768Y-173576788D01*
X26620586Y-173716928D01*
X26743072Y-173839414D01*
X26883212Y-173941232D01*
X27037555Y-174019873D01*
X27202299Y-174073402D01*
X27373389Y-174100500D01*
X27373390Y-174100500D01*
X27546610Y-174100500D01*
X27546611Y-174100500D01*
X27717701Y-174073402D01*
X27882445Y-174019873D01*
X28036788Y-173941232D01*
X28176928Y-173839414D01*
X28299414Y-173716928D01*
X28401232Y-173576788D01*
X28479873Y-173422445D01*
X28533402Y-173257701D01*
X28560500Y-173086611D01*
X28560500Y-172913389D01*
X28533402Y-172742299D01*
X28487071Y-172599710D01*
X28485077Y-172529871D01*
X28517320Y-172473715D01*
X29412820Y-171578216D01*
X29474142Y-171544732D01*
X29543834Y-171549716D01*
X29599767Y-171591588D01*
X29624184Y-171657052D01*
X29624500Y-171665898D01*
X29624500Y-171880219D01*
X29604815Y-171947258D01*
X29556795Y-171990704D01*
X29423211Y-172058768D01*
X29406914Y-172070609D01*
X29283072Y-172160586D01*
X29283070Y-172160588D01*
X29283069Y-172160588D01*
X29160588Y-172283069D01*
X29160588Y-172283070D01*
X29160586Y-172283072D01*
X29146588Y-172302339D01*
X29058768Y-172423211D01*
X28980128Y-172577552D01*
X28926597Y-172742302D01*
X28899500Y-172913389D01*
X28899500Y-173086610D01*
X28924419Y-173243947D01*
X28926598Y-173257701D01*
X28980127Y-173422445D01*
X29058768Y-173576788D01*
X29160586Y-173716928D01*
X29283072Y-173839414D01*
X29423212Y-173941232D01*
X29577555Y-174019873D01*
X29742299Y-174073402D01*
X29913389Y-174100500D01*
X29913390Y-174100500D01*
X30086610Y-174100500D01*
X30086611Y-174100500D01*
X30257701Y-174073402D01*
X30422445Y-174019873D01*
X30576788Y-173941232D01*
X30716928Y-173839414D01*
X30839414Y-173716928D01*
X30941232Y-173576788D01*
X31019873Y-173422445D01*
X31073402Y-173257701D01*
X31100500Y-173086611D01*
X31100500Y-172913389D01*
X31073402Y-172742299D01*
X31019873Y-172577555D01*
X30941232Y-172423212D01*
X30901222Y-172368144D01*
X30877743Y-172302339D01*
X30893568Y-172234285D01*
X30943674Y-172185590D01*
X31012152Y-172171714D01*
X31033626Y-172175482D01*
X31052725Y-172180600D01*
X31138201Y-172180600D01*
X31205240Y-172200285D01*
X31225882Y-172216919D01*
X31482677Y-172473714D01*
X31516162Y-172535037D01*
X31512927Y-172599713D01*
X31466597Y-172742301D01*
X31439500Y-172913389D01*
X31439500Y-173086610D01*
X31464419Y-173243947D01*
X31466598Y-173257701D01*
X31520127Y-173422445D01*
X31598768Y-173576788D01*
X31700586Y-173716928D01*
X31823072Y-173839414D01*
X31963212Y-173941232D01*
X32117555Y-174019873D01*
X32282299Y-174073402D01*
X32453389Y-174100500D01*
X32453390Y-174100500D01*
X32626610Y-174100500D01*
X32626611Y-174100500D01*
X32797701Y-174073402D01*
X32962445Y-174019873D01*
X33116788Y-173941232D01*
X33256928Y-173839414D01*
X33379414Y-173716928D01*
X33481232Y-173576788D01*
X33559873Y-173422445D01*
X33613402Y-173257701D01*
X33640500Y-173086611D01*
X33640500Y-172913389D01*
X33979500Y-172913389D01*
X33979500Y-173086610D01*
X34004419Y-173243947D01*
X34006598Y-173257701D01*
X34060127Y-173422445D01*
X34138768Y-173576788D01*
X34240586Y-173716928D01*
X34363072Y-173839414D01*
X34503212Y-173941232D01*
X34657555Y-174019873D01*
X34822299Y-174073402D01*
X34993389Y-174100500D01*
X34993390Y-174100500D01*
X35166610Y-174100500D01*
X35166611Y-174100500D01*
X35337701Y-174073402D01*
X35502445Y-174019873D01*
X35656788Y-173941232D01*
X35796928Y-173839414D01*
X35919414Y-173716928D01*
X36021232Y-173576788D01*
X36099873Y-173422445D01*
X36153402Y-173257701D01*
X36180500Y-173086611D01*
X36180500Y-172913389D01*
X36153402Y-172742299D01*
X36099873Y-172577555D01*
X36021232Y-172423212D01*
X35919414Y-172283072D01*
X35796928Y-172160586D01*
X35656788Y-172058768D01*
X35502445Y-171980127D01*
X35337701Y-171926598D01*
X35337699Y-171926597D01*
X35337698Y-171926597D01*
X35206271Y-171905781D01*
X35166611Y-171899500D01*
X34993389Y-171899500D01*
X34953728Y-171905781D01*
X34822302Y-171926597D01*
X34657552Y-171980128D01*
X34503211Y-172058768D01*
X34486914Y-172070609D01*
X34363072Y-172160586D01*
X34363070Y-172160588D01*
X34363069Y-172160588D01*
X34240588Y-172283069D01*
X34240588Y-172283070D01*
X34240586Y-172283072D01*
X34226588Y-172302339D01*
X34138768Y-172423211D01*
X34060128Y-172577552D01*
X34006597Y-172742302D01*
X33979500Y-172913389D01*
X33640500Y-172913389D01*
X33613402Y-172742299D01*
X33559873Y-172577555D01*
X33481232Y-172423212D01*
X33379414Y-172283072D01*
X33256928Y-172160586D01*
X33116788Y-172058768D01*
X32962445Y-171980127D01*
X32797701Y-171926598D01*
X32797699Y-171926597D01*
X32797698Y-171926597D01*
X32666271Y-171905781D01*
X32626611Y-171899500D01*
X32453389Y-171899500D01*
X32421192Y-171904599D01*
X32282301Y-171926597D01*
X32139713Y-171972927D01*
X32069872Y-171974922D01*
X32013714Y-171942677D01*
X31712019Y-171640982D01*
X31678534Y-171579659D01*
X31677027Y-171565649D01*
X31676761Y-171565685D01*
X31675700Y-171557628D01*
X31675700Y-171557625D01*
X31638184Y-171417615D01*
X31565709Y-171292085D01*
X31463215Y-171189591D01*
X31463213Y-171189590D01*
X31463211Y-171189588D01*
X31337688Y-171117117D01*
X31337689Y-171117117D01*
X31320551Y-171112525D01*
X31197675Y-171079600D01*
X31052725Y-171079600D01*
X30954308Y-171105970D01*
X30912710Y-171117117D01*
X30909776Y-171118333D01*
X30907104Y-171118620D01*
X30904865Y-171119220D01*
X30904771Y-171118870D01*
X30840306Y-171125796D01*
X30777829Y-171094516D01*
X30742558Y-171035863D01*
X30725584Y-170972515D01*
X30653109Y-170846985D01*
X30550615Y-170744491D01*
X30497790Y-170713992D01*
X30449575Y-170663426D01*
X30436352Y-170594819D01*
X30462320Y-170529954D01*
X30472101Y-170518934D01*
X31894912Y-169096125D01*
X53358100Y-169096125D01*
X53358100Y-169241075D01*
X53381636Y-169328911D01*
X53395617Y-169381088D01*
X53468088Y-169506611D01*
X53468090Y-169506613D01*
X53468091Y-169506615D01*
X53570585Y-169609109D01*
X53570586Y-169609110D01*
X53570588Y-169609111D01*
X53696111Y-169681582D01*
X53696112Y-169681582D01*
X53696115Y-169681584D01*
X53836125Y-169719100D01*
X53836128Y-169719100D01*
X53981072Y-169719100D01*
X53981075Y-169719100D01*
X54121085Y-169681584D01*
X54246615Y-169609109D01*
X54349109Y-169506615D01*
X54421584Y-169381085D01*
X54459100Y-169241075D01*
X54459100Y-169096125D01*
X54421584Y-168956115D01*
X54349109Y-168830585D01*
X54320419Y-168801895D01*
X54286934Y-168740572D01*
X54284100Y-168714214D01*
X54284100Y-157057899D01*
X54303785Y-156990860D01*
X54320419Y-156970218D01*
X54691518Y-156599119D01*
X54752841Y-156565634D01*
X54779199Y-156562800D01*
X54819772Y-156562800D01*
X54819775Y-156562800D01*
X54959785Y-156525284D01*
X55085315Y-156452809D01*
X55187809Y-156350315D01*
X55260284Y-156224785D01*
X55297800Y-156084775D01*
X55297800Y-155939825D01*
X55260284Y-155799815D01*
X55187809Y-155674285D01*
X55085315Y-155571791D01*
X55085313Y-155571790D01*
X55085311Y-155571788D01*
X54959788Y-155499317D01*
X54959789Y-155499317D01*
X54948306Y-155496240D01*
X54819775Y-155461800D01*
X54674825Y-155461800D01*
X54546293Y-155496240D01*
X54534811Y-155499317D01*
X54409288Y-155571788D01*
X54409282Y-155571793D01*
X54306793Y-155674282D01*
X54306788Y-155674288D01*
X54234317Y-155799811D01*
X54234316Y-155799815D01*
X54196800Y-155939825D01*
X54196800Y-155939827D01*
X54196800Y-155980401D01*
X54177115Y-156047440D01*
X54160481Y-156068082D01*
X53608126Y-156620436D01*
X53558691Y-156706059D01*
X53558691Y-156706060D01*
X53558690Y-156706062D01*
X53533100Y-156801565D01*
X53533100Y-156801567D01*
X53533100Y-168714214D01*
X53513415Y-168781253D01*
X53496781Y-168801895D01*
X53468093Y-168830582D01*
X53468088Y-168830588D01*
X53395617Y-168956111D01*
X53391183Y-168972655D01*
X53358100Y-169096125D01*
X31894912Y-169096125D01*
X33056175Y-167934863D01*
X33105611Y-167849237D01*
X33131200Y-167753736D01*
X33131200Y-167654864D01*
X33131200Y-164516610D01*
X33150885Y-164449571D01*
X33203689Y-164403816D01*
X33272847Y-164393872D01*
X33287291Y-164396835D01*
X33309925Y-164402900D01*
X33309927Y-164402900D01*
X33454872Y-164402900D01*
X33454875Y-164402900D01*
X33594885Y-164365384D01*
X33720415Y-164292909D01*
X33822909Y-164190415D01*
X33895384Y-164064885D01*
X33932900Y-163924875D01*
X33932900Y-163779925D01*
X33895384Y-163639915D01*
X33839698Y-163543465D01*
X33822911Y-163514388D01*
X33822906Y-163514382D01*
X33794219Y-163485695D01*
X33760734Y-163424372D01*
X33757900Y-163398014D01*
X33757900Y-153575321D01*
X37349500Y-153575321D01*
X37349500Y-156424678D01*
X37364032Y-156497735D01*
X37364033Y-156497739D01*
X37364034Y-156497740D01*
X37419399Y-156580601D01*
X37502260Y-156635966D01*
X37502264Y-156635967D01*
X37575321Y-156650499D01*
X37575324Y-156650500D01*
X37575326Y-156650500D01*
X40424676Y-156650500D01*
X40424677Y-156650499D01*
X40497740Y-156635966D01*
X40580601Y-156580601D01*
X40635966Y-156497740D01*
X40650500Y-156424674D01*
X40650500Y-153575326D01*
X40650500Y-153575323D01*
X40650499Y-153575321D01*
X40635967Y-153502264D01*
X40635966Y-153502260D01*
X40580601Y-153419399D01*
X40497740Y-153364034D01*
X40497739Y-153364033D01*
X40497735Y-153364032D01*
X40424677Y-153349500D01*
X40424674Y-153349500D01*
X37575326Y-153349500D01*
X37575323Y-153349500D01*
X37502264Y-153364032D01*
X37502260Y-153364033D01*
X37419399Y-153419399D01*
X37364033Y-153502260D01*
X37364032Y-153502264D01*
X37349500Y-153575321D01*
X33757900Y-153575321D01*
X33757900Y-129316299D01*
X33777585Y-129249260D01*
X33794219Y-129228618D01*
X33863318Y-129159519D01*
X33924641Y-129126034D01*
X33950999Y-129123200D01*
X33991572Y-129123200D01*
X33991575Y-129123200D01*
X34131585Y-129085684D01*
X34213501Y-129038389D01*
X34281399Y-129021917D01*
X34347426Y-129044769D01*
X34390617Y-129099690D01*
X34399500Y-129145777D01*
X34399500Y-144724969D01*
X34399500Y-144724971D01*
X34399499Y-144724971D01*
X34424497Y-144850638D01*
X34424499Y-144850644D01*
X34473533Y-144969024D01*
X34473538Y-144969033D01*
X34544723Y-145075568D01*
X34544726Y-145075572D01*
X34635327Y-145166173D01*
X34635331Y-145166176D01*
X34741866Y-145237361D01*
X34741872Y-145237364D01*
X34741873Y-145237365D01*
X34860256Y-145286401D01*
X34860260Y-145286401D01*
X34860261Y-145286402D01*
X34985928Y-145311400D01*
X34985931Y-145311400D01*
X35114071Y-145311400D01*
X35198615Y-145294582D01*
X35239744Y-145286401D01*
X35358127Y-145237365D01*
X35464669Y-145166176D01*
X35555276Y-145075569D01*
X35626465Y-144969027D01*
X35675501Y-144850644D01*
X35700500Y-144724969D01*
X35700500Y-122430931D01*
X35700500Y-105934331D01*
X35700500Y-105934328D01*
X35675502Y-105808660D01*
X35675500Y-105808654D01*
X35664208Y-105781395D01*
X35655189Y-105759621D01*
X35626466Y-105690274D01*
X35555277Y-105583731D01*
X35555272Y-105583725D01*
X34523273Y-104551726D01*
X34509799Y-104542723D01*
X34416727Y-104480535D01*
X34338347Y-104448069D01*
X34298344Y-104431499D01*
X34298336Y-104431497D01*
X34172673Y-104406501D01*
X34172669Y-104406501D01*
X34044531Y-104406501D01*
X34044526Y-104406501D01*
X33918863Y-104431497D01*
X33918855Y-104431499D01*
X33878851Y-104448069D01*
X33809381Y-104455536D01*
X33746903Y-104424260D01*
X33711251Y-104364171D01*
X33707400Y-104333507D01*
X33707400Y-65633170D01*
X33727085Y-65566131D01*
X33779889Y-65520376D01*
X33849047Y-65510432D01*
X33900290Y-65530068D01*
X33906271Y-65534064D01*
X33906270Y-65534064D01*
X33940944Y-65548426D01*
X34024656Y-65583101D01*
X34150326Y-65608098D01*
X34150330Y-65608099D01*
X34150331Y-65608099D01*
X34278470Y-65608099D01*
X34278471Y-65608098D01*
X34404144Y-65583101D01*
X34522527Y-65534065D01*
X34629069Y-65462877D01*
X34722256Y-65369690D01*
X35979719Y-64112228D01*
X36041042Y-64078743D01*
X36110734Y-64083727D01*
X36166667Y-64125599D01*
X36191084Y-64191063D01*
X36191400Y-64199909D01*
X36191400Y-132791963D01*
X36174787Y-132853962D01*
X36128919Y-132933408D01*
X36128916Y-132933413D01*
X36110158Y-133003420D01*
X36091400Y-133073425D01*
X36091400Y-133218375D01*
X36126535Y-133349500D01*
X36128917Y-133358388D01*
X36201388Y-133483911D01*
X36201390Y-133483913D01*
X36201391Y-133483915D01*
X36303885Y-133586409D01*
X36303886Y-133586410D01*
X36303888Y-133586411D01*
X36429411Y-133658882D01*
X36429412Y-133658882D01*
X36429415Y-133658884D01*
X36569425Y-133696400D01*
X36569428Y-133696400D01*
X36714372Y-133696400D01*
X36714375Y-133696400D01*
X36854385Y-133658884D01*
X36979915Y-133586409D01*
X36991003Y-133575321D01*
X37349500Y-133575321D01*
X37349500Y-136424678D01*
X37364032Y-136497735D01*
X37364033Y-136497739D01*
X37368291Y-136504111D01*
X37419399Y-136580601D01*
X37469535Y-136614100D01*
X37502260Y-136635966D01*
X37502264Y-136635967D01*
X37575321Y-136650499D01*
X37575324Y-136650500D01*
X37575326Y-136650500D01*
X40424676Y-136650500D01*
X40424677Y-136650499D01*
X40497740Y-136635966D01*
X40580601Y-136580601D01*
X40635966Y-136497740D01*
X40650500Y-136424674D01*
X40650500Y-133575326D01*
X40650500Y-133575323D01*
X40650499Y-133575321D01*
X40635967Y-133502264D01*
X40635966Y-133502260D01*
X40623706Y-133483911D01*
X40580601Y-133419399D01*
X40497740Y-133364034D01*
X40497739Y-133364033D01*
X40497735Y-133364032D01*
X40424677Y-133349500D01*
X40424674Y-133349500D01*
X37575326Y-133349500D01*
X37575323Y-133349500D01*
X37502264Y-133364032D01*
X37502260Y-133364033D01*
X37419399Y-133419399D01*
X37364033Y-133502260D01*
X37364032Y-133502264D01*
X37349500Y-133575321D01*
X36991003Y-133575321D01*
X37082409Y-133483915D01*
X37154884Y-133358385D01*
X37192400Y-133218375D01*
X37192400Y-133073425D01*
X37154884Y-132933415D01*
X37154880Y-132933408D01*
X37109013Y-132853962D01*
X37092400Y-132791963D01*
X37092400Y-113575321D01*
X37349500Y-113575321D01*
X37349500Y-116424678D01*
X37364032Y-116497735D01*
X37364033Y-116497739D01*
X37364034Y-116497740D01*
X37419399Y-116580601D01*
X37502260Y-116635966D01*
X37502264Y-116635967D01*
X37575321Y-116650499D01*
X37575324Y-116650500D01*
X37575326Y-116650500D01*
X40424676Y-116650500D01*
X40424677Y-116650499D01*
X40497740Y-116635966D01*
X40580601Y-116580601D01*
X40635966Y-116497740D01*
X40650500Y-116424674D01*
X40650500Y-113575326D01*
X40650500Y-113575323D01*
X40650499Y-113575321D01*
X40635967Y-113502264D01*
X40635966Y-113502260D01*
X40580601Y-113419399D01*
X40497740Y-113364034D01*
X40497739Y-113364033D01*
X40497735Y-113364032D01*
X40424677Y-113349500D01*
X40424674Y-113349500D01*
X37575326Y-113349500D01*
X37575323Y-113349500D01*
X37502264Y-113364032D01*
X37502260Y-113364033D01*
X37419399Y-113419399D01*
X37364033Y-113502260D01*
X37364032Y-113502264D01*
X37349500Y-113575321D01*
X37092400Y-113575321D01*
X37092400Y-93575321D01*
X37349500Y-93575321D01*
X37349500Y-96424678D01*
X37364032Y-96497735D01*
X37364033Y-96497739D01*
X37364034Y-96497740D01*
X37419399Y-96580601D01*
X37502260Y-96635966D01*
X37502264Y-96635967D01*
X37575321Y-96650499D01*
X37575324Y-96650500D01*
X37575326Y-96650500D01*
X40424676Y-96650500D01*
X40424677Y-96650499D01*
X40497740Y-96635966D01*
X40580601Y-96580601D01*
X40635966Y-96497740D01*
X40650500Y-96424674D01*
X40650500Y-93575326D01*
X40650500Y-93575323D01*
X40650499Y-93575321D01*
X40635967Y-93502264D01*
X40635966Y-93502260D01*
X40580601Y-93419399D01*
X40497740Y-93364034D01*
X40497739Y-93364033D01*
X40497735Y-93364032D01*
X40424677Y-93349500D01*
X40424674Y-93349500D01*
X37575326Y-93349500D01*
X37575323Y-93349500D01*
X37502264Y-93364032D01*
X37502260Y-93364033D01*
X37419399Y-93419399D01*
X37364033Y-93502260D01*
X37364032Y-93502264D01*
X37349500Y-93575321D01*
X37092400Y-93575321D01*
X37092400Y-73575321D01*
X37349500Y-73575321D01*
X37349500Y-76424678D01*
X37364032Y-76497735D01*
X37364033Y-76497739D01*
X37364034Y-76497740D01*
X37419399Y-76580601D01*
X37502260Y-76635966D01*
X37502264Y-76635967D01*
X37575321Y-76650499D01*
X37575324Y-76650500D01*
X37575326Y-76650500D01*
X40424676Y-76650500D01*
X40424677Y-76650499D01*
X40497740Y-76635966D01*
X40580601Y-76580601D01*
X40635966Y-76497740D01*
X40650500Y-76424674D01*
X40650500Y-73575326D01*
X40650500Y-73575323D01*
X40650499Y-73575321D01*
X40635967Y-73502264D01*
X40635966Y-73502260D01*
X40580601Y-73419399D01*
X40497740Y-73364034D01*
X40497739Y-73364033D01*
X40497735Y-73364032D01*
X40424677Y-73349500D01*
X40424674Y-73349500D01*
X37575326Y-73349500D01*
X37575323Y-73349500D01*
X37502264Y-73364032D01*
X37502260Y-73364033D01*
X37419399Y-73419399D01*
X37364033Y-73502260D01*
X37364032Y-73502264D01*
X37349500Y-73575321D01*
X37092400Y-73575321D01*
X37092400Y-54278235D01*
X37109014Y-54216233D01*
X37118114Y-54200472D01*
X37168682Y-54152257D01*
X37237289Y-54139036D01*
X37302153Y-54165005D01*
X37342681Y-54221920D01*
X37349500Y-54262474D01*
X37349500Y-56424678D01*
X37364032Y-56497735D01*
X37364033Y-56497739D01*
X37364034Y-56497740D01*
X37419399Y-56580601D01*
X37502260Y-56635966D01*
X37502264Y-56635967D01*
X37575321Y-56650499D01*
X37575324Y-56650500D01*
X37575326Y-56650500D01*
X40424676Y-56650500D01*
X40424677Y-56650499D01*
X40497740Y-56635966D01*
X40580601Y-56580601D01*
X40635966Y-56497740D01*
X40650500Y-56424674D01*
X40650500Y-53575326D01*
X40650500Y-53575323D01*
X40650499Y-53575321D01*
X40635967Y-53502264D01*
X40635966Y-53502260D01*
X40623627Y-53483793D01*
X40580601Y-53419399D01*
X40512356Y-53373800D01*
X40497739Y-53364033D01*
X40497735Y-53364032D01*
X40424677Y-53349500D01*
X40424674Y-53349500D01*
X37575326Y-53349500D01*
X37575323Y-53349500D01*
X37502264Y-53364032D01*
X37502260Y-53364033D01*
X37419399Y-53419399D01*
X37364033Y-53502260D01*
X37364032Y-53502264D01*
X37349500Y-53575321D01*
X37349500Y-53586125D01*
X37329815Y-53653164D01*
X37277011Y-53698919D01*
X37207853Y-53708863D01*
X37144297Y-53679838D01*
X37118113Y-53648126D01*
X37082409Y-53586285D01*
X36979915Y-53483791D01*
X36979913Y-53483790D01*
X36979911Y-53483788D01*
X36854388Y-53411317D01*
X36854389Y-53411317D01*
X36842906Y-53408240D01*
X36714375Y-53373800D01*
X36569425Y-53373800D01*
X36429415Y-53411316D01*
X36429414Y-53411316D01*
X36429412Y-53411317D01*
X36403099Y-53426509D01*
X36335199Y-53442981D01*
X36269172Y-53420128D01*
X36225982Y-53365206D01*
X36217100Y-53319121D01*
X36217100Y-43186828D01*
X36192102Y-43061161D01*
X36192101Y-43061160D01*
X36192101Y-43061156D01*
X36143065Y-42942773D01*
X36130550Y-42924043D01*
X36071877Y-42836231D01*
X36071875Y-42836229D01*
X36071873Y-42836226D01*
X36071872Y-42836225D01*
X35464669Y-42229023D01*
X34754919Y-41519273D01*
X34721434Y-41457950D01*
X34718600Y-41431592D01*
X34718600Y-33575321D01*
X37349500Y-33575321D01*
X37349500Y-36424678D01*
X37364032Y-36497735D01*
X37364033Y-36497739D01*
X37364034Y-36497740D01*
X37419399Y-36580601D01*
X37502260Y-36635966D01*
X37502264Y-36635967D01*
X37575321Y-36650499D01*
X37575324Y-36650500D01*
X37575326Y-36650500D01*
X40424676Y-36650500D01*
X40424677Y-36650499D01*
X40497740Y-36635966D01*
X40580601Y-36580601D01*
X40635966Y-36497740D01*
X40650500Y-36424674D01*
X40650500Y-33575326D01*
X40650500Y-33575323D01*
X40650499Y-33575321D01*
X40635967Y-33502264D01*
X40635966Y-33502260D01*
X40580601Y-33419399D01*
X40497740Y-33364034D01*
X40497739Y-33364033D01*
X40497735Y-33364032D01*
X40424677Y-33349500D01*
X40424674Y-33349500D01*
X37575326Y-33349500D01*
X37575323Y-33349500D01*
X37502264Y-33364032D01*
X37502260Y-33364033D01*
X37419399Y-33419399D01*
X37364033Y-33502260D01*
X37364032Y-33502264D01*
X37349500Y-33575321D01*
X34718600Y-33575321D01*
X34718600Y-18978628D01*
X34693602Y-18852961D01*
X34693601Y-18852960D01*
X34693601Y-18852956D01*
X34644565Y-18734573D01*
X34607780Y-18679520D01*
X34607779Y-18679518D01*
X34607778Y-18679516D01*
X34573380Y-18628036D01*
X34573377Y-18628031D01*
X34440069Y-18494723D01*
X33226819Y-17281473D01*
X33193334Y-17220150D01*
X33190500Y-17193792D01*
X33190500Y-13575321D01*
X37349500Y-13575321D01*
X37349500Y-16424678D01*
X37364032Y-16497735D01*
X37364033Y-16497739D01*
X37364034Y-16497740D01*
X37419399Y-16580601D01*
X37502260Y-16635966D01*
X37502264Y-16635967D01*
X37575321Y-16650499D01*
X37575324Y-16650500D01*
X37575326Y-16650500D01*
X40424676Y-16650500D01*
X40424677Y-16650499D01*
X40497740Y-16635966D01*
X40580601Y-16580601D01*
X40635966Y-16497740D01*
X40650500Y-16424674D01*
X40650500Y-13575326D01*
X40650500Y-13575323D01*
X40650499Y-13575321D01*
X40635967Y-13502264D01*
X40635966Y-13502260D01*
X40580601Y-13419399D01*
X40497740Y-13364034D01*
X40497739Y-13364033D01*
X40497735Y-13364032D01*
X40424677Y-13349500D01*
X40424674Y-13349500D01*
X37575326Y-13349500D01*
X37575323Y-13349500D01*
X37502264Y-13364032D01*
X37502260Y-13364033D01*
X37419399Y-13419399D01*
X37364033Y-13502260D01*
X37364032Y-13502264D01*
X37349500Y-13575321D01*
X33190500Y-13575321D01*
X33190500Y-7224500D01*
X33210185Y-7157461D01*
X33262989Y-7111706D01*
X33314500Y-7100500D01*
X33414676Y-7100500D01*
X33414677Y-7100499D01*
X33487740Y-7085966D01*
X33570601Y-7030601D01*
X33625966Y-6947740D01*
X33640500Y-6874674D01*
X33640500Y-6402135D01*
X47949500Y-6402135D01*
X47949500Y-7597870D01*
X47949501Y-7597876D01*
X47955908Y-7657483D01*
X48006202Y-7792328D01*
X48006206Y-7792335D01*
X48092452Y-7907544D01*
X48092455Y-7907547D01*
X48207664Y-7993793D01*
X48207671Y-7993797D01*
X48342517Y-8044091D01*
X48342516Y-8044091D01*
X48349444Y-8044835D01*
X48402127Y-8050500D01*
X49597872Y-8050499D01*
X49657483Y-8044091D01*
X49792331Y-7993796D01*
X49907546Y-7907546D01*
X49993796Y-7792331D01*
X50044091Y-7657483D01*
X50050500Y-7597873D01*
X50050499Y-6402128D01*
X50044091Y-6342517D01*
X50012455Y-6257697D01*
X49993797Y-6207671D01*
X49993793Y-6207664D01*
X49907547Y-6092455D01*
X49907544Y-6092452D01*
X49792335Y-6006206D01*
X49792328Y-6006202D01*
X49657482Y-5955908D01*
X49657483Y-5955908D01*
X49597883Y-5949501D01*
X49597881Y-5949500D01*
X49597873Y-5949500D01*
X49597864Y-5949500D01*
X48402129Y-5949500D01*
X48402123Y-5949501D01*
X48342516Y-5955908D01*
X48207671Y-6006202D01*
X48207664Y-6006206D01*
X48092455Y-6092452D01*
X48092452Y-6092455D01*
X48006206Y-6207664D01*
X48006202Y-6207671D01*
X47955908Y-6342517D01*
X47950346Y-6394260D01*
X47949501Y-6402123D01*
X47949500Y-6402135D01*
X33640500Y-6402135D01*
X33640500Y-5125326D01*
X33640500Y-5125323D01*
X33640499Y-5125321D01*
X33625967Y-5052264D01*
X33625966Y-5052260D01*
X33570601Y-4969399D01*
X33487740Y-4914034D01*
X33487739Y-4914033D01*
X33487735Y-4914032D01*
X33414677Y-4899500D01*
X33414674Y-4899500D01*
X31665326Y-4899500D01*
X31665323Y-4899500D01*
X31592264Y-4914032D01*
X31592260Y-4914033D01*
X31509399Y-4969399D01*
X31454033Y-5052260D01*
X31454032Y-5052264D01*
X31439500Y-5125321D01*
X31439500Y-6874678D01*
X31454032Y-6947735D01*
X31454033Y-6947739D01*
X31454034Y-6947740D01*
X31509399Y-7030601D01*
X31585673Y-7081565D01*
X31592260Y-7085966D01*
X31592264Y-7085967D01*
X31665321Y-7100499D01*
X31665324Y-7100500D01*
X31665326Y-7100500D01*
X31765500Y-7100500D01*
X31832539Y-7120185D01*
X31878294Y-7172989D01*
X31889500Y-7224500D01*
X31889500Y-17578669D01*
X31889500Y-17578671D01*
X31889499Y-17578671D01*
X31914497Y-17704338D01*
X31914499Y-17704344D01*
X31963534Y-17822725D01*
X32034726Y-17929273D01*
X32034727Y-17929274D01*
X33381281Y-19275827D01*
X33414766Y-19337150D01*
X33417600Y-19363508D01*
X33417600Y-26917831D01*
X33417600Y-41816469D01*
X33417600Y-41816471D01*
X33417599Y-41816471D01*
X33442597Y-41942138D01*
X33442599Y-41942144D01*
X33491634Y-42060525D01*
X33562826Y-42167073D01*
X33562827Y-42167074D01*
X34544723Y-43148969D01*
X34879781Y-43484027D01*
X34913266Y-43545350D01*
X34916100Y-43571708D01*
X34916100Y-51211701D01*
X34896415Y-51278740D01*
X34843611Y-51324495D01*
X34774453Y-51334439D01*
X34710897Y-51305414D01*
X34704419Y-51299382D01*
X31555819Y-48150782D01*
X31522334Y-48089459D01*
X31519500Y-48063101D01*
X31519500Y-48022527D01*
X31519500Y-48022525D01*
X31481984Y-47882515D01*
X31438509Y-47807215D01*
X31409511Y-47756988D01*
X31409506Y-47756982D01*
X31307017Y-47654493D01*
X31307011Y-47654488D01*
X31181488Y-47582017D01*
X31181489Y-47582017D01*
X31170006Y-47578940D01*
X31041475Y-47544500D01*
X30896525Y-47544500D01*
X30767993Y-47578940D01*
X30756511Y-47582017D01*
X30630988Y-47654488D01*
X30630982Y-47654493D01*
X30528493Y-47756982D01*
X30528488Y-47756988D01*
X30456017Y-47882511D01*
X30456016Y-47882515D01*
X30418500Y-48022525D01*
X30418500Y-48167475D01*
X30454383Y-48301391D01*
X30456017Y-48307488D01*
X30528488Y-48433011D01*
X30528490Y-48433013D01*
X30528491Y-48433015D01*
X30630985Y-48535509D01*
X30630986Y-48535510D01*
X30630988Y-48535511D01*
X30756511Y-48607982D01*
X30756512Y-48607982D01*
X30756515Y-48607984D01*
X30896525Y-48645500D01*
X30937101Y-48645500D01*
X31004140Y-48665185D01*
X31024782Y-48681819D01*
X34129982Y-51787019D01*
X34163467Y-51848342D01*
X34158483Y-51918034D01*
X34116611Y-51973967D01*
X34053755Y-51997411D01*
X34053785Y-51997639D01*
X34052794Y-51997769D01*
X34051147Y-51998384D01*
X34047002Y-51998532D01*
X34045728Y-51998699D01*
X33905711Y-52036217D01*
X33780188Y-52108688D01*
X33780182Y-52108693D01*
X33677693Y-52211182D01*
X33677688Y-52211188D01*
X33605217Y-52336711D01*
X33605216Y-52336715D01*
X33567700Y-52476725D01*
X33567700Y-52476727D01*
X33567700Y-52517301D01*
X33548015Y-52584340D01*
X33531381Y-52604982D01*
X32981881Y-53154482D01*
X32920558Y-53187967D01*
X32850866Y-53182983D01*
X32794933Y-53141111D01*
X32770516Y-53075647D01*
X32770200Y-53066801D01*
X32770200Y-51985067D01*
X32770200Y-51985065D01*
X32744610Y-51889562D01*
X32719892Y-51846750D01*
X32719892Y-51846749D01*
X32719890Y-51846747D01*
X32695174Y-51803936D01*
X32695171Y-51803932D01*
X31582019Y-50690780D01*
X31548534Y-50629457D01*
X31545700Y-50603099D01*
X31545700Y-50562527D01*
X31545700Y-50562525D01*
X31508184Y-50422515D01*
X31435709Y-50296985D01*
X31333215Y-50194491D01*
X31333213Y-50194490D01*
X31333211Y-50194488D01*
X31207688Y-50122017D01*
X31200181Y-50118908D01*
X31201281Y-50116251D01*
X31153467Y-50087091D01*
X31122954Y-50024236D01*
X31131268Y-49954862D01*
X31137858Y-49941702D01*
X31149182Y-49922088D01*
X31149181Y-49922088D01*
X31149184Y-49922085D01*
X31186700Y-49782075D01*
X31186700Y-49637125D01*
X31149184Y-49497115D01*
X31076709Y-49371585D01*
X30974215Y-49269091D01*
X30974213Y-49269090D01*
X30974211Y-49269088D01*
X30848688Y-49196617D01*
X30848689Y-49196617D01*
X30837206Y-49193540D01*
X30708675Y-49159100D01*
X30563725Y-49159100D01*
X30435193Y-49193540D01*
X30423711Y-49196617D01*
X30298188Y-49269088D01*
X30298182Y-49269093D01*
X30195693Y-49371582D01*
X30195688Y-49371588D01*
X30123217Y-49497111D01*
X30123216Y-49497115D01*
X30085700Y-49637125D01*
X30085700Y-49637127D01*
X30085700Y-49677701D01*
X30066015Y-49744740D01*
X30054946Y-49758475D01*
X30050527Y-49764234D01*
X30001091Y-49849859D01*
X30001091Y-49849860D01*
X30001090Y-49849862D01*
X29975500Y-49945365D01*
X29975500Y-49945367D01*
X29975500Y-50566347D01*
X29955815Y-50633386D01*
X29903011Y-50679141D01*
X29833853Y-50689085D01*
X29770297Y-50660060D01*
X29752271Y-50638231D01*
X29751421Y-50638884D01*
X29746475Y-50632438D01*
X28734019Y-49619982D01*
X28700534Y-49558659D01*
X28697700Y-49532301D01*
X28697700Y-48153299D01*
X28717385Y-48086260D01*
X28734019Y-48065618D01*
X28743618Y-48056019D01*
X28804941Y-48022534D01*
X28831299Y-48019700D01*
X28871872Y-48019700D01*
X28871875Y-48019700D01*
X29011885Y-47982184D01*
X29137415Y-47909709D01*
X29239909Y-47807215D01*
X29312384Y-47681685D01*
X29349900Y-47541675D01*
X29349900Y-47396725D01*
X29312384Y-47256715D01*
X29285591Y-47210309D01*
X29239911Y-47131188D01*
X29239906Y-47131182D01*
X29137417Y-47028693D01*
X29137411Y-47028688D01*
X29011888Y-46956217D01*
X29011889Y-46956217D01*
X29000406Y-46953140D01*
X28871875Y-46918700D01*
X28726925Y-46918700D01*
X28598393Y-46953140D01*
X28586911Y-46956217D01*
X28461388Y-47028688D01*
X28461382Y-47028693D01*
X28358893Y-47131182D01*
X28358888Y-47131188D01*
X28286417Y-47256711D01*
X28286416Y-47256715D01*
X28248900Y-47396725D01*
X28248900Y-47396727D01*
X28248900Y-47437299D01*
X28229215Y-47504338D01*
X28212581Y-47524980D01*
X28144481Y-47593080D01*
X28083158Y-47626565D01*
X28013466Y-47621581D01*
X27957533Y-47579709D01*
X27933116Y-47514245D01*
X27932800Y-47505399D01*
X27932800Y-43449986D01*
X27952485Y-43382947D01*
X28005289Y-43337192D01*
X28074447Y-43327248D01*
X28138003Y-43356273D01*
X28144481Y-43362305D01*
X28149691Y-43367515D01*
X28252185Y-43470009D01*
X28252186Y-43470010D01*
X28252188Y-43470011D01*
X28377711Y-43542482D01*
X28377712Y-43542482D01*
X28377715Y-43542484D01*
X28517725Y-43580000D01*
X28517728Y-43580000D01*
X28662672Y-43580000D01*
X28662675Y-43580000D01*
X28802685Y-43542484D01*
X28928215Y-43470009D01*
X29030709Y-43367515D01*
X29103184Y-43241985D01*
X29140700Y-43101975D01*
X29140700Y-42957025D01*
X29103184Y-42817015D01*
X29082032Y-42780378D01*
X29065559Y-42712478D01*
X29088411Y-42646451D01*
X29101732Y-42630703D01*
X30572418Y-41160019D01*
X30633741Y-41126534D01*
X30660099Y-41123700D01*
X30700673Y-41123700D01*
X30700675Y-41123700D01*
X30723406Y-41117609D01*
X30793254Y-41119270D01*
X30851117Y-41158432D01*
X30878623Y-41222660D01*
X30879500Y-41237383D01*
X30879500Y-44889938D01*
X30859815Y-44956977D01*
X30807011Y-45002732D01*
X30787595Y-45009712D01*
X30718918Y-45028114D01*
X30718911Y-45028117D01*
X30593388Y-45100588D01*
X30593382Y-45100593D01*
X30490893Y-45203082D01*
X30490888Y-45203088D01*
X30418417Y-45328611D01*
X30418416Y-45328615D01*
X30380900Y-45468625D01*
X30380900Y-45613575D01*
X30394671Y-45664967D01*
X30418417Y-45753588D01*
X30490888Y-45879111D01*
X30490890Y-45879113D01*
X30490891Y-45879115D01*
X30593385Y-45981609D01*
X30593386Y-45981610D01*
X30593388Y-45981611D01*
X30718911Y-46054082D01*
X30718912Y-46054082D01*
X30718915Y-46054084D01*
X30858925Y-46091600D01*
X30858928Y-46091600D01*
X31003872Y-46091600D01*
X31003875Y-46091600D01*
X31143885Y-46054084D01*
X31269415Y-45981609D01*
X31371909Y-45879115D01*
X31444384Y-45753585D01*
X31468129Y-45664964D01*
X31500219Y-45609382D01*
X31690490Y-45419113D01*
X31749799Y-45316386D01*
X31755479Y-45295187D01*
X31780500Y-45201809D01*
X31780500Y-37281391D01*
X31749799Y-37166814D01*
X31691083Y-37065115D01*
X31690489Y-37064086D01*
X31690487Y-37064084D01*
X31690486Y-37064082D01*
X27946819Y-33320415D01*
X27913334Y-33259092D01*
X27910500Y-33232734D01*
X27910500Y-7081565D01*
X27930185Y-7014526D01*
X27978204Y-6971081D01*
X28036788Y-6941232D01*
X28176928Y-6839414D01*
X28299414Y-6716928D01*
X28401232Y-6576788D01*
X28479873Y-6422445D01*
X28533402Y-6257701D01*
X28560500Y-6086611D01*
X28560500Y-5913389D01*
X28533402Y-5742299D01*
X28479873Y-5577555D01*
X28401232Y-5423212D01*
X28299414Y-5283072D01*
X28176928Y-5160586D01*
X28036788Y-5058768D01*
X27882445Y-4980127D01*
X27717701Y-4926598D01*
X27717699Y-4926597D01*
X27717698Y-4926597D01*
X27586271Y-4905781D01*
X27546611Y-4899500D01*
X27373389Y-4899500D01*
X27333728Y-4905781D01*
X27202302Y-4926597D01*
X27037552Y-4980128D01*
X26883211Y-5058768D01*
X26803256Y-5116859D01*
X26743072Y-5160586D01*
X26743070Y-5160588D01*
X26743069Y-5160588D01*
X26620588Y-5283069D01*
X26620588Y-5283070D01*
X26620586Y-5283072D01*
X26576859Y-5343256D01*
X26518768Y-5423211D01*
X26440128Y-5577552D01*
X26386597Y-5742302D01*
X26374259Y-5820205D01*
X26359500Y-5913389D01*
X26359500Y-6086611D01*
X26360426Y-6092455D01*
X26378673Y-6207669D01*
X26386598Y-6257701D01*
X26440127Y-6422445D01*
X26518768Y-6576788D01*
X26620586Y-6716928D01*
X26743072Y-6839414D01*
X26791606Y-6874676D01*
X26883207Y-6941229D01*
X26883211Y-6941231D01*
X26883212Y-6941232D01*
X26941795Y-6971081D01*
X26992590Y-7019053D01*
X27009500Y-7081565D01*
X27009500Y-33530009D01*
X27021643Y-33575326D01*
X27040201Y-33644587D01*
X27099511Y-33747314D01*
X27099513Y-33747316D01*
X30843181Y-37490984D01*
X30876666Y-37552307D01*
X30879500Y-37578665D01*
X30879500Y-39909016D01*
X30859815Y-39976055D01*
X30807011Y-40021810D01*
X30737853Y-40031754D01*
X30723408Y-40028791D01*
X30700676Y-40022700D01*
X30700675Y-40022700D01*
X30555725Y-40022700D01*
X30427193Y-40057140D01*
X30415711Y-40060217D01*
X30290188Y-40132688D01*
X30290182Y-40132693D01*
X30187693Y-40235182D01*
X30187688Y-40235188D01*
X30115217Y-40360711D01*
X30115216Y-40360715D01*
X30077700Y-40500725D01*
X30077700Y-40500727D01*
X30077700Y-40541301D01*
X30058015Y-40608340D01*
X30041381Y-40628982D01*
X28289726Y-42380636D01*
X28240291Y-42466259D01*
X28240291Y-42466260D01*
X28240290Y-42466262D01*
X28214700Y-42561765D01*
X28214700Y-42561767D01*
X28214700Y-42575114D01*
X28195015Y-42642153D01*
X28178381Y-42662795D01*
X28144481Y-42696695D01*
X28083158Y-42730180D01*
X28013466Y-42725196D01*
X27957533Y-42683324D01*
X27933116Y-42617860D01*
X27932800Y-42609014D01*
X27932800Y-41251867D01*
X27932800Y-41251865D01*
X27907210Y-41156362D01*
X27857775Y-41070738D01*
X27787862Y-41000825D01*
X27787861Y-41000824D01*
X27782515Y-40995478D01*
X27781706Y-40994768D01*
X26833519Y-40046581D01*
X26800034Y-39985258D01*
X26797200Y-39958900D01*
X26797200Y-39918327D01*
X26797200Y-39918325D01*
X26759684Y-39778315D01*
X26687209Y-39652785D01*
X26584715Y-39550291D01*
X26584713Y-39550290D01*
X26584711Y-39550288D01*
X26459188Y-39477817D01*
X26459189Y-39477817D01*
X26447706Y-39474740D01*
X26319175Y-39440300D01*
X26174225Y-39440300D01*
X26045693Y-39474740D01*
X26034211Y-39477817D01*
X25908688Y-39550288D01*
X25908682Y-39550293D01*
X25806193Y-39652782D01*
X25806188Y-39652788D01*
X25733717Y-39778311D01*
X25733716Y-39778315D01*
X25696200Y-39918325D01*
X25696200Y-40063275D01*
X25714801Y-40132693D01*
X25733717Y-40203288D01*
X25806188Y-40328811D01*
X25806190Y-40328813D01*
X25806191Y-40328815D01*
X25908685Y-40431309D01*
X25908686Y-40431310D01*
X25908688Y-40431311D01*
X26034211Y-40503782D01*
X26034212Y-40503782D01*
X26034215Y-40503784D01*
X26174225Y-40541300D01*
X26214801Y-40541300D01*
X26281840Y-40560985D01*
X26302482Y-40577619D01*
X27145481Y-41420618D01*
X27178966Y-41481941D01*
X27181800Y-41508299D01*
X27181800Y-52558601D01*
X27162115Y-52625640D01*
X27109311Y-52671395D01*
X27040153Y-52681339D01*
X26976597Y-52652314D01*
X26970119Y-52646282D01*
X26649619Y-52325782D01*
X26616134Y-52264459D01*
X26613300Y-52238101D01*
X26613300Y-49196286D01*
X26632985Y-49129247D01*
X26649619Y-49108605D01*
X26678309Y-49079915D01*
X26750784Y-48954385D01*
X26788300Y-48814375D01*
X26788300Y-48669425D01*
X26750784Y-48529415D01*
X26695128Y-48433017D01*
X26678311Y-48403888D01*
X26678306Y-48403882D01*
X26575817Y-48301393D01*
X26575811Y-48301388D01*
X26450288Y-48228917D01*
X26450289Y-48228917D01*
X26438806Y-48225840D01*
X26310275Y-48191400D01*
X26165325Y-48191400D01*
X26036793Y-48225840D01*
X26025311Y-48228917D01*
X25899788Y-48301388D01*
X25899782Y-48301393D01*
X25797293Y-48403882D01*
X25797288Y-48403888D01*
X25724817Y-48529411D01*
X25724816Y-48529415D01*
X25687300Y-48669425D01*
X25687300Y-48814375D01*
X25724816Y-48954385D01*
X25724817Y-48954388D01*
X25797288Y-49079911D01*
X25797293Y-49079917D01*
X25825981Y-49108605D01*
X25859466Y-49169928D01*
X25862300Y-49196286D01*
X25862300Y-52494435D01*
X25887890Y-52589938D01*
X25887891Y-52589939D01*
X25887891Y-52589940D01*
X25896568Y-52604969D01*
X25928954Y-52661063D01*
X25937326Y-52675563D01*
X25937328Y-52675566D01*
X27795081Y-54533318D01*
X27828566Y-54594641D01*
X27831400Y-54620999D01*
X27831400Y-56623980D01*
X27811715Y-56691019D01*
X27758911Y-56736774D01*
X27689753Y-56746718D01*
X27675307Y-56743755D01*
X27636785Y-56733433D01*
X27597475Y-56722900D01*
X27452525Y-56722900D01*
X27323993Y-56757340D01*
X27312511Y-56760417D01*
X27186988Y-56832888D01*
X27186982Y-56832893D01*
X27084493Y-56935382D01*
X27084488Y-56935388D01*
X27012017Y-57060911D01*
X27012016Y-57060915D01*
X26974500Y-57200925D01*
X26974500Y-57345875D01*
X27012016Y-57485885D01*
X27012017Y-57485888D01*
X27084488Y-57611411D01*
X27084493Y-57611417D01*
X27113181Y-57640105D01*
X27146666Y-57701428D01*
X27149500Y-57727786D01*
X27149500Y-63592301D01*
X27129815Y-63659340D01*
X27113181Y-63679982D01*
X22170582Y-68622581D01*
X22109259Y-68656066D01*
X22082901Y-68658900D01*
X22042325Y-68658900D01*
X21913793Y-68693340D01*
X21902311Y-68696417D01*
X21776788Y-68768888D01*
X21776782Y-68768893D01*
X21674293Y-68871382D01*
X21674288Y-68871388D01*
X21601817Y-68996911D01*
X21601816Y-68996915D01*
X21564300Y-69136925D01*
X21564300Y-69281875D01*
X21601816Y-69421885D01*
X21601817Y-69421888D01*
X21674288Y-69547411D01*
X21674290Y-69547413D01*
X21674291Y-69547415D01*
X21776785Y-69649909D01*
X21776786Y-69649910D01*
X21776788Y-69649911D01*
X21902311Y-69722382D01*
X21902312Y-69722382D01*
X21902315Y-69722384D01*
X22042325Y-69759900D01*
X22042328Y-69759900D01*
X22187272Y-69759900D01*
X22187275Y-69759900D01*
X22327285Y-69722384D01*
X22452815Y-69649909D01*
X22555309Y-69547415D01*
X22627784Y-69421885D01*
X22665300Y-69281875D01*
X22665300Y-69241299D01*
X22684985Y-69174260D01*
X22701619Y-69153618D01*
X27619719Y-64235518D01*
X27681042Y-64202033D01*
X27750734Y-64207017D01*
X27806667Y-64248889D01*
X27831084Y-64314353D01*
X27831400Y-64323199D01*
X27831400Y-75361101D01*
X27811715Y-75428140D01*
X27795081Y-75448782D01*
X25747182Y-77496681D01*
X25685859Y-77530166D01*
X25659501Y-77533000D01*
X25618925Y-77533000D01*
X25490393Y-77567440D01*
X25478911Y-77570517D01*
X25353388Y-77642988D01*
X25353382Y-77642993D01*
X25250893Y-77745482D01*
X25250888Y-77745488D01*
X25178417Y-77871011D01*
X25178416Y-77871015D01*
X25140900Y-78011025D01*
X25140900Y-78155975D01*
X25178416Y-78295985D01*
X25178417Y-78295988D01*
X25250888Y-78421511D01*
X25250890Y-78421513D01*
X25250891Y-78421515D01*
X25353385Y-78524009D01*
X25353386Y-78524010D01*
X25353388Y-78524011D01*
X25478907Y-78596480D01*
X25478910Y-78596481D01*
X25478915Y-78596484D01*
X25478919Y-78596485D01*
X25479356Y-78596666D01*
X25479676Y-78596924D01*
X25485953Y-78600548D01*
X25485388Y-78601526D01*
X25533762Y-78640505D01*
X25555830Y-78706798D01*
X25538554Y-78774498D01*
X25487419Y-78822111D01*
X25464008Y-78831003D01*
X25429813Y-78840165D01*
X25406110Y-78846517D01*
X25280588Y-78918988D01*
X25280582Y-78918993D01*
X25178093Y-79021482D01*
X25178088Y-79021488D01*
X25105617Y-79147011D01*
X25105616Y-79147015D01*
X25068100Y-79287025D01*
X25068100Y-79287027D01*
X25068100Y-79327601D01*
X25048415Y-79394640D01*
X25031781Y-79415282D01*
X23447926Y-80999136D01*
X23398491Y-81084759D01*
X23398491Y-81084760D01*
X23398490Y-81084762D01*
X23372900Y-81180265D01*
X23372900Y-81180267D01*
X23372900Y-87345901D01*
X23353215Y-87412940D01*
X23336581Y-87433582D01*
X22143282Y-88626881D01*
X22081959Y-88660366D01*
X22055601Y-88663200D01*
X22015025Y-88663200D01*
X21886493Y-88697640D01*
X21875011Y-88700717D01*
X21749488Y-88773188D01*
X21749482Y-88773193D01*
X21646993Y-88875682D01*
X21646988Y-88875688D01*
X21574517Y-89001211D01*
X21574516Y-89001215D01*
X21537000Y-89141225D01*
X500000Y-89141225D01*
X500000Y-73575321D01*
X19349500Y-73575321D01*
X19349500Y-76424678D01*
X19364032Y-76497735D01*
X19364033Y-76497739D01*
X19364034Y-76497740D01*
X19419399Y-76580601D01*
X19502260Y-76635966D01*
X19502264Y-76635967D01*
X19575321Y-76650499D01*
X19575324Y-76650500D01*
X19575326Y-76650500D01*
X22424676Y-76650500D01*
X22424677Y-76650499D01*
X22497740Y-76635966D01*
X22580601Y-76580601D01*
X22635966Y-76497740D01*
X22650500Y-76424674D01*
X22650500Y-73575326D01*
X22650500Y-73575323D01*
X22650499Y-73575321D01*
X22635967Y-73502264D01*
X22635966Y-73502260D01*
X22580601Y-73419399D01*
X22497740Y-73364034D01*
X22497739Y-73364033D01*
X22497735Y-73364032D01*
X22424677Y-73349500D01*
X22424674Y-73349500D01*
X19575326Y-73349500D01*
X19575323Y-73349500D01*
X19502264Y-73364032D01*
X19502260Y-73364033D01*
X19419399Y-73419399D01*
X19364033Y-73502260D01*
X19364032Y-73502264D01*
X19349500Y-73575321D01*
X500000Y-73575321D01*
X500000Y-53575321D01*
X19349500Y-53575321D01*
X19349500Y-56424678D01*
X19364032Y-56497735D01*
X19364033Y-56497739D01*
X19364034Y-56497740D01*
X19419399Y-56580601D01*
X19502260Y-56635966D01*
X19502264Y-56635967D01*
X19575321Y-56650499D01*
X19575324Y-56650500D01*
X19575326Y-56650500D01*
X20500500Y-56650500D01*
X20567539Y-56670185D01*
X20613294Y-56722989D01*
X20624500Y-56774500D01*
X20624500Y-60645635D01*
X20650090Y-60741138D01*
X20650091Y-60741139D01*
X20650091Y-60741140D01*
X20699526Y-60826763D01*
X23133581Y-63260818D01*
X23167066Y-63322141D01*
X23169900Y-63348499D01*
X23169900Y-63389075D01*
X23207416Y-63529085D01*
X23207417Y-63529088D01*
X23279888Y-63654611D01*
X23279890Y-63654613D01*
X23279891Y-63654615D01*
X23382385Y-63757109D01*
X23382386Y-63757110D01*
X23382388Y-63757111D01*
X23507911Y-63829582D01*
X23507912Y-63829582D01*
X23507915Y-63829584D01*
X23647925Y-63867100D01*
X23647928Y-63867100D01*
X23792872Y-63867100D01*
X23792875Y-63867100D01*
X23932885Y-63829584D01*
X24058415Y-63757109D01*
X24160909Y-63654615D01*
X24233384Y-63529085D01*
X24270900Y-63389075D01*
X24270900Y-63244125D01*
X24233384Y-63104115D01*
X24160909Y-62978585D01*
X24058415Y-62876091D01*
X24058413Y-62876090D01*
X24058411Y-62876088D01*
X23932888Y-62803617D01*
X23932889Y-62803617D01*
X23921406Y-62800540D01*
X23792875Y-62766100D01*
X23792872Y-62766100D01*
X23752299Y-62766100D01*
X23685260Y-62746415D01*
X23664618Y-62729781D01*
X21411819Y-60476982D01*
X21378334Y-60415659D01*
X21375500Y-60389301D01*
X21375500Y-56774500D01*
X21395185Y-56707461D01*
X21447989Y-56661706D01*
X21499500Y-56650500D01*
X22424676Y-56650500D01*
X22424677Y-56650499D01*
X22497740Y-56635966D01*
X22580601Y-56580601D01*
X22635966Y-56497740D01*
X22650500Y-56424674D01*
X22650500Y-53575326D01*
X22650500Y-53575323D01*
X22650499Y-53575321D01*
X22635967Y-53502264D01*
X22635966Y-53502260D01*
X22623627Y-53483793D01*
X22580601Y-53419399D01*
X22512356Y-53373800D01*
X22497739Y-53364033D01*
X22497735Y-53364032D01*
X22424677Y-53349500D01*
X22424674Y-53349500D01*
X19575326Y-53349500D01*
X19575323Y-53349500D01*
X19502264Y-53364032D01*
X19502260Y-53364033D01*
X19419399Y-53419399D01*
X19364033Y-53502260D01*
X19364032Y-53502264D01*
X19349500Y-53575321D01*
X500000Y-53575321D01*
X500000Y-33575321D01*
X19349500Y-33575321D01*
X19349500Y-36424678D01*
X19364032Y-36497735D01*
X19364033Y-36497739D01*
X19364034Y-36497740D01*
X19419399Y-36580601D01*
X19502260Y-36635966D01*
X19502264Y-36635967D01*
X19575321Y-36650499D01*
X19575324Y-36650500D01*
X19575326Y-36650500D01*
X22424676Y-36650500D01*
X22424677Y-36650499D01*
X22497740Y-36635966D01*
X22580601Y-36580601D01*
X22635966Y-36497740D01*
X22650500Y-36424674D01*
X22650500Y-33575326D01*
X22650500Y-33575323D01*
X22650499Y-33575321D01*
X22635967Y-33502264D01*
X22635966Y-33502260D01*
X22580601Y-33419399D01*
X22497740Y-33364034D01*
X22497739Y-33364033D01*
X22497735Y-33364032D01*
X22424677Y-33349500D01*
X22424674Y-33349500D01*
X19575326Y-33349500D01*
X19575323Y-33349500D01*
X19502264Y-33364032D01*
X19502260Y-33364033D01*
X19419399Y-33419399D01*
X19364033Y-33502260D01*
X19364032Y-33502264D01*
X19349500Y-33575321D01*
X500000Y-33575321D01*
X500000Y-30243125D01*
X22627300Y-30243125D01*
X22627300Y-30388075D01*
X22664816Y-30528085D01*
X22664817Y-30528088D01*
X22737288Y-30653611D01*
X22737290Y-30653613D01*
X22737291Y-30653615D01*
X22839785Y-30756109D01*
X22839786Y-30756110D01*
X22839788Y-30756111D01*
X22965311Y-30828582D01*
X22965312Y-30828582D01*
X22965315Y-30828584D01*
X23105325Y-30866100D01*
X23145901Y-30866100D01*
X23212940Y-30885785D01*
X23233582Y-30902419D01*
X23468281Y-31137118D01*
X23501766Y-31198441D01*
X23504600Y-31224799D01*
X23504600Y-52479935D01*
X23509032Y-52496477D01*
X23509031Y-52496477D01*
X23530189Y-52575436D01*
X23530189Y-52575437D01*
X23538562Y-52589939D01*
X23579625Y-52661062D01*
X23579626Y-52661063D01*
X23579627Y-52661064D01*
X26122981Y-55204418D01*
X26156466Y-55265741D01*
X26159300Y-55292099D01*
X26159300Y-55332675D01*
X26196816Y-55472685D01*
X26196817Y-55472688D01*
X26269288Y-55598211D01*
X26269290Y-55598213D01*
X26269291Y-55598215D01*
X26371785Y-55700709D01*
X26371786Y-55700710D01*
X26371788Y-55700711D01*
X26497311Y-55773182D01*
X26497312Y-55773182D01*
X26497315Y-55773184D01*
X26637325Y-55810700D01*
X26637328Y-55810700D01*
X26782272Y-55810700D01*
X26782275Y-55810700D01*
X26922285Y-55773184D01*
X27047815Y-55700709D01*
X27150309Y-55598215D01*
X27222784Y-55472685D01*
X27260300Y-55332675D01*
X27260300Y-55187725D01*
X27222784Y-55047715D01*
X27150309Y-54922185D01*
X27047815Y-54819691D01*
X27047813Y-54819690D01*
X27047811Y-54819688D01*
X26922288Y-54747217D01*
X26922289Y-54747217D01*
X26910806Y-54744140D01*
X26782275Y-54709700D01*
X26782272Y-54709700D01*
X26741699Y-54709700D01*
X26674660Y-54690015D01*
X26654018Y-54673381D01*
X24291919Y-52311282D01*
X24258434Y-52249959D01*
X24255600Y-52223601D01*
X24255600Y-47119752D01*
X24275285Y-47052713D01*
X24328089Y-47006958D01*
X24397247Y-46997014D01*
X24460803Y-47026039D01*
X24486987Y-47057752D01*
X24515891Y-47107815D01*
X24618385Y-47210309D01*
X24618386Y-47210310D01*
X24618388Y-47210311D01*
X24743911Y-47282782D01*
X24743912Y-47282782D01*
X24743915Y-47282784D01*
X24883925Y-47320300D01*
X24883928Y-47320300D01*
X25028872Y-47320300D01*
X25028875Y-47320300D01*
X25168885Y-47282784D01*
X25294415Y-47210309D01*
X25396909Y-47107815D01*
X25469384Y-46982285D01*
X25506900Y-46842275D01*
X25506900Y-46697325D01*
X25469384Y-46557315D01*
X25396909Y-46431785D01*
X25368219Y-46403095D01*
X25334734Y-46341772D01*
X25331900Y-46315414D01*
X25331900Y-37731986D01*
X25351585Y-37664947D01*
X25368219Y-37644305D01*
X25396909Y-37615615D01*
X25469384Y-37490085D01*
X25506900Y-37350075D01*
X25506900Y-37205125D01*
X25469384Y-37065115D01*
X25396909Y-36939585D01*
X25294415Y-36837091D01*
X25294413Y-36837090D01*
X25294411Y-36837088D01*
X25168888Y-36764617D01*
X25168889Y-36764617D01*
X25157406Y-36761540D01*
X25028875Y-36727100D01*
X24883925Y-36727100D01*
X24755393Y-36761540D01*
X24743911Y-36764617D01*
X24618388Y-36837088D01*
X24618382Y-36837093D01*
X24515893Y-36939582D01*
X24515891Y-36939585D01*
X24486987Y-36989648D01*
X24436419Y-37037863D01*
X24367812Y-37051085D01*
X24302947Y-37025117D01*
X24262420Y-36968202D01*
X24255600Y-36927647D01*
X24255600Y-30968467D01*
X24255600Y-30968465D01*
X24230010Y-30872962D01*
X24180575Y-30787338D01*
X24110662Y-30717425D01*
X23764619Y-30371382D01*
X23731134Y-30310059D01*
X23728300Y-30283701D01*
X23728300Y-30243127D01*
X23728300Y-30243125D01*
X23690784Y-30103115D01*
X23618309Y-29977585D01*
X23589619Y-29948895D01*
X23556134Y-29887572D01*
X23553300Y-29861214D01*
X23553300Y-22008799D01*
X23572985Y-21941760D01*
X23589619Y-21921118D01*
X26155218Y-19355519D01*
X26216541Y-19322034D01*
X26242899Y-19319200D01*
X26283472Y-19319200D01*
X26283475Y-19319200D01*
X26423485Y-19281684D01*
X26549015Y-19209209D01*
X26651509Y-19106715D01*
X26723984Y-18981185D01*
X26761500Y-18841175D01*
X26761500Y-18696225D01*
X26723984Y-18556215D01*
X26688481Y-18494723D01*
X26651511Y-18430688D01*
X26651506Y-18430682D01*
X26549017Y-18328193D01*
X26549011Y-18328188D01*
X26423488Y-18255717D01*
X26423489Y-18255717D01*
X26412006Y-18252640D01*
X26283475Y-18218200D01*
X26138525Y-18218200D01*
X26009993Y-18252640D01*
X25998511Y-18255717D01*
X25872988Y-18328188D01*
X25872982Y-18328193D01*
X25770493Y-18430682D01*
X25770488Y-18430688D01*
X25698017Y-18556211D01*
X25698016Y-18556215D01*
X25660500Y-18696225D01*
X25660500Y-18696227D01*
X25660500Y-18736801D01*
X25640815Y-18803840D01*
X25624181Y-18824482D01*
X22877326Y-21571336D01*
X22827891Y-21656959D01*
X22827891Y-21656960D01*
X22827890Y-21656962D01*
X22802300Y-21752465D01*
X22802300Y-21752467D01*
X22802300Y-29861214D01*
X22782615Y-29928253D01*
X22765981Y-29948895D01*
X22737293Y-29977582D01*
X22737288Y-29977588D01*
X22664817Y-30103111D01*
X22664816Y-30103115D01*
X22627300Y-30243125D01*
X500000Y-30243125D01*
X500000Y-13575321D01*
X19349500Y-13575321D01*
X19349500Y-16424678D01*
X19364032Y-16497735D01*
X19364033Y-16497739D01*
X19364034Y-16497740D01*
X19419399Y-16580601D01*
X19502260Y-16635966D01*
X19502264Y-16635967D01*
X19575321Y-16650499D01*
X19575324Y-16650500D01*
X19575326Y-16650500D01*
X22424676Y-16650500D01*
X22424677Y-16650499D01*
X22497740Y-16635966D01*
X22580601Y-16580601D01*
X22635966Y-16497740D01*
X22650500Y-16424674D01*
X22650500Y-13575326D01*
X22650500Y-13575323D01*
X22650499Y-13575321D01*
X22635967Y-13502264D01*
X22635966Y-13502260D01*
X22580601Y-13419399D01*
X22497740Y-13364034D01*
X22497739Y-13364033D01*
X22497735Y-13364032D01*
X22424677Y-13349500D01*
X22424674Y-13349500D01*
X19575326Y-13349500D01*
X19575323Y-13349500D01*
X19502264Y-13364032D01*
X19502260Y-13364033D01*
X19419399Y-13419399D01*
X19364033Y-13502260D01*
X19364032Y-13502264D01*
X19349500Y-13575321D01*
X500000Y-13575321D01*
X500000Y-4878711D01*
X1649500Y-4878711D01*
X1649500Y-5121288D01*
X1681161Y-5361785D01*
X1743947Y-5596104D01*
X1836773Y-5820205D01*
X1836776Y-5820212D01*
X1958064Y-6030289D01*
X1958066Y-6030292D01*
X1958067Y-6030293D01*
X2105733Y-6222736D01*
X2105739Y-6222743D01*
X2277256Y-6394260D01*
X2277263Y-6394266D01*
X2390321Y-6481018D01*
X2469711Y-6541936D01*
X2679788Y-6663224D01*
X2903900Y-6756054D01*
X3138211Y-6818838D01*
X3294504Y-6839414D01*
X3378711Y-6850500D01*
X3378712Y-6850500D01*
X3621289Y-6850500D01*
X3669388Y-6844167D01*
X3861789Y-6818838D01*
X4096100Y-6756054D01*
X4320212Y-6663224D01*
X4530289Y-6541936D01*
X4722738Y-6394265D01*
X4894265Y-6222738D01*
X5041936Y-6030289D01*
X5163224Y-5820212D01*
X5256054Y-5596100D01*
X5318838Y-5361789D01*
X5350500Y-5121288D01*
X5350500Y-4878712D01*
X5350500Y-4878711D01*
X54649500Y-4878711D01*
X54649500Y-5121288D01*
X54681161Y-5361785D01*
X54743947Y-5596104D01*
X54836773Y-5820205D01*
X54836776Y-5820212D01*
X54958064Y-6030289D01*
X54958066Y-6030292D01*
X54958067Y-6030293D01*
X55105733Y-6222736D01*
X55105739Y-6222743D01*
X55277256Y-6394260D01*
X55277263Y-6394266D01*
X55390321Y-6481018D01*
X55469711Y-6541936D01*
X55679788Y-6663224D01*
X55903900Y-6756054D01*
X56138211Y-6818838D01*
X56294504Y-6839414D01*
X56378711Y-6850500D01*
X56378712Y-6850500D01*
X56621289Y-6850500D01*
X56669388Y-6844167D01*
X56861789Y-6818838D01*
X57096100Y-6756054D01*
X57320212Y-6663224D01*
X57530289Y-6541936D01*
X57722738Y-6394265D01*
X57894265Y-6222738D01*
X58041936Y-6030289D01*
X58163224Y-5820212D01*
X58256054Y-5596100D01*
X58318838Y-5361789D01*
X58350500Y-5121288D01*
X58350500Y-4878712D01*
X58318838Y-4638211D01*
X58256054Y-4403900D01*
X58163224Y-4179788D01*
X58041936Y-3969711D01*
X57894265Y-3777262D01*
X57894260Y-3777256D01*
X57722743Y-3605739D01*
X57722736Y-3605733D01*
X57530293Y-3458067D01*
X57530292Y-3458066D01*
X57530289Y-3458064D01*
X57320212Y-3336776D01*
X57320205Y-3336773D01*
X57096104Y-3243947D01*
X56861785Y-3181161D01*
X56621289Y-3149500D01*
X56621288Y-3149500D01*
X56378712Y-3149500D01*
X56378711Y-3149500D01*
X56138214Y-3181161D01*
X55903895Y-3243947D01*
X55679794Y-3336773D01*
X55679785Y-3336777D01*
X55469706Y-3458067D01*
X55277263Y-3605733D01*
X55277256Y-3605739D01*
X55105739Y-3777256D01*
X55105733Y-3777263D01*
X54958067Y-3969706D01*
X54836777Y-4179785D01*
X54836773Y-4179794D01*
X54743947Y-4403895D01*
X54681161Y-4638214D01*
X54649500Y-4878711D01*
X5350500Y-4878711D01*
X5318838Y-4638211D01*
X5256054Y-4403900D01*
X5163224Y-4179788D01*
X5041936Y-3969711D01*
X4894265Y-3777262D01*
X4894260Y-3777256D01*
X4722743Y-3605739D01*
X4722736Y-3605733D01*
X4530293Y-3458067D01*
X4530292Y-3458066D01*
X4530289Y-3458064D01*
X4320212Y-3336776D01*
X4320205Y-3336773D01*
X4096104Y-3243947D01*
X3861785Y-3181161D01*
X3621289Y-3149500D01*
X3621288Y-3149500D01*
X3378712Y-3149500D01*
X3378711Y-3149500D01*
X3138214Y-3181161D01*
X2903895Y-3243947D01*
X2679794Y-3336773D01*
X2679785Y-3336777D01*
X2469706Y-3458067D01*
X2277263Y-3605733D01*
X2277256Y-3605739D01*
X2105739Y-3777256D01*
X2105733Y-3777263D01*
X1958067Y-3969706D01*
X1836777Y-4179785D01*
X1836773Y-4179794D01*
X1743947Y-4403895D01*
X1681161Y-4638214D01*
X1649500Y-4878711D01*
X500000Y-4878711D01*
X500000Y-624000D01*
X519685Y-556961D01*
X572489Y-511206D01*
X624000Y-500000D01*
X59376000Y-500000D01*
X59443039Y-519685D01*
G37*
%TD.AperFunction*%
%TD*%
M02*
