M48
; DRILL file KiCad 10.0.6 date 2026-10-04T18:30:17
; FORMAT={-:-/ absolute / metric / decimal}
; #@! TF.CreationDate,2026-10-04T18:30:17+09:00
; #@! TF.GenerationSoftware,Kicad,Pcbnew,10.0.6
; #@! TF.FileFunction,MixedPlating,1,2
FMAT,2
METRIC
; #@! TA.AperFunction,Plated,PTH,ViaDrill
T1C0.300
; #@! TA.AperFunction,Plated,PTH,ComponentDrill
T2C0.800
; #@! TA.AperFunction,Plated,PTH,ComponentDrill
T3C1.000
; #@! TA.AperFunction,Plated,PTH,ComponentDrill
T4C1.500
; #@! TA.AperFunction,NonPlated,NPTH,ComponentDrill
T5C3.200
%
G90
G05
T1
X5.316Y-145.012
X7.003Y-176.085
X8.805Y-170.107
X9.451Y-164.288
X22.087Y-89.214
X22.087Y-149.224
X22.115Y-69.209
X22.976Y-168.888
X22.998Y-128.91
X23.143Y-159.034
X23.178Y-30.316
X23.178Y-110.296
X23.72Y-63.317
X24.137Y-136.064
X24.956Y-37.278
X24.956Y-46.77
X25.113Y-117.552
X25.44Y-98.523
X25.561Y-119.991
X25.561Y-134.381
X25.619Y-79.359
X25.691Y-78.084
X26.211Y-18.769
X26.238Y-48.742
X26.24Y-128.739
X26.243Y-101.279
X26.247Y-39.991
X26.71Y-55.26
X27.523Y-137.293
X27.525Y-57.273
X28.59Y-43.029
X28.647Y-156.156
X28.799Y-47.469
X28.8Y-53.819
X28.801Y-127.47
X29.088Y-134.444
X29.998Y-132.066
X30.0Y-167.887
X30.213Y-171.185
X30.628Y-40.573
X30.636Y-49.71
X30.931Y-45.541
X30.969Y-48.095
X30.976Y-129.365
X30.988Y-131.905
X30.995Y-50.635
X30.997Y-130.635
X31.125Y-171.63
X31.768Y-113.633
X33.382Y-163.852
X33.919Y-128.573
X34.025Y-19.0
X34.068Y-26.982
X34.109Y-105.057
X34.118Y-52.549
X34.214Y-64.958
X35.05Y-42.734
X35.05Y-122.495
X35.05Y-144.661
X36.642Y-53.924
X36.642Y-133.146
X53.909Y-169.169
X54.747Y-156.012
T2
X49.0Y-7.0
X51.5Y-7.0
T3
X24.92Y-173.0
X24.92Y-175.54
X27.46Y-6.0
X27.46Y-173.0
X27.46Y-175.54
X30.0Y-6.0
X30.0Y-173.0
X30.0Y-175.54
X32.54Y-6.0
X32.54Y-173.0
X32.54Y-175.54
X35.08Y-173.0
X35.08Y-175.54
T4
X21.0Y-15.0
X21.0Y-25.0
X21.0Y-35.0
X21.0Y-45.0
X21.0Y-55.0
X21.0Y-65.0
X21.0Y-75.0
X21.0Y-85.0
X21.0Y-95.0
X21.0Y-105.0
X21.0Y-115.0
X21.0Y-125.0
X21.0Y-135.0
X21.0Y-145.0
X21.0Y-155.0
X21.0Y-165.0
X39.0Y-15.0
X39.0Y-25.0
X39.0Y-35.0
X39.0Y-45.0
X39.0Y-55.0
X39.0Y-65.0
X39.0Y-75.0
X39.0Y-85.0
X39.0Y-95.0
X39.0Y-105.0
X39.0Y-115.0
X39.0Y-125.0
X39.0Y-135.0
X39.0Y-145.0
X39.0Y-155.0
X39.0Y-165.0
T5
X3.5Y-5.0
X3.5Y-175.0
X56.5Y-5.0
X56.5Y-175.0
M30
