%TF.GenerationSoftware,KiCad,Pcbnew,10.0.6*%
%TF.CreationDate,2026-10-04T18:43:37+09:00*%
%TF.ProjectId,panel_6faces_16ch,70616e65-6c5f-4366-9661-6365735f3136,rev?*%
%TF.SameCoordinates,Original*%
%TF.FileFunction,Legend,Bot*%
%TF.FilePolarity,Positive*%
%FSLAX46Y46*%
G04 Gerber Fmt 4.6, Leading zero omitted, Abs format (unit mm)*
G04 Created by KiCad (PCBNEW 10.0.6) date 2026-10-04 18:43:37*
%MOMM*%
%LPD*%
G01*
G04 APERTURE LIST*
%ADD10C,0.120000*%
G04 APERTURE END LIST*
D10*
X33504761Y-11863855D02*
X33504761Y-11063855D01*
X33504761Y-11063855D02*
X33314285Y-11063855D01*
X33314285Y-11063855D02*
X33199999Y-11101950D01*
X33199999Y-11101950D02*
X33123809Y-11178140D01*
X33123809Y-11178140D02*
X33085714Y-11254331D01*
X33085714Y-11254331D02*
X33047618Y-11406712D01*
X33047618Y-11406712D02*
X33047618Y-11520998D01*
X33047618Y-11520998D02*
X33085714Y-11673379D01*
X33085714Y-11673379D02*
X33123809Y-11749569D01*
X33123809Y-11749569D02*
X33199999Y-11825760D01*
X33199999Y-11825760D02*
X33314285Y-11863855D01*
X33314285Y-11863855D02*
X33504761Y-11863855D01*
X32247618Y-11863855D02*
X32514285Y-11482902D01*
X32704761Y-11863855D02*
X32704761Y-11063855D01*
X32704761Y-11063855D02*
X32399999Y-11063855D01*
X32399999Y-11063855D02*
X32323809Y-11101950D01*
X32323809Y-11101950D02*
X32285714Y-11140045D01*
X32285714Y-11140045D02*
X32247618Y-11216236D01*
X32247618Y-11216236D02*
X32247618Y-11330521D01*
X32247618Y-11330521D02*
X32285714Y-11406712D01*
X32285714Y-11406712D02*
X32323809Y-11444807D01*
X32323809Y-11444807D02*
X32399999Y-11482902D01*
X32399999Y-11482902D02*
X32704761Y-11482902D01*
X32019047Y-11063855D02*
X31752380Y-11863855D01*
X31752380Y-11863855D02*
X31485714Y-11063855D01*
X30190476Y-11101950D02*
X30266666Y-11063855D01*
X30266666Y-11063855D02*
X30380952Y-11063855D01*
X30380952Y-11063855D02*
X30495238Y-11101950D01*
X30495238Y-11101950D02*
X30571428Y-11178140D01*
X30571428Y-11178140D02*
X30609523Y-11254331D01*
X30609523Y-11254331D02*
X30647619Y-11406712D01*
X30647619Y-11406712D02*
X30647619Y-11520998D01*
X30647619Y-11520998D02*
X30609523Y-11673379D01*
X30609523Y-11673379D02*
X30571428Y-11749569D01*
X30571428Y-11749569D02*
X30495238Y-11825760D01*
X30495238Y-11825760D02*
X30380952Y-11863855D01*
X30380952Y-11863855D02*
X30304761Y-11863855D01*
X30304761Y-11863855D02*
X30190476Y-11825760D01*
X30190476Y-11825760D02*
X30152380Y-11787664D01*
X30152380Y-11787664D02*
X30152380Y-11520998D01*
X30152380Y-11520998D02*
X30304761Y-11520998D01*
X29809523Y-11863855D02*
X29809523Y-11063855D01*
X29809523Y-11063855D02*
X29352380Y-11863855D01*
X29352380Y-11863855D02*
X29352380Y-11063855D01*
X28971428Y-11863855D02*
X28971428Y-11063855D01*
X28971428Y-11063855D02*
X28780952Y-11063855D01*
X28780952Y-11063855D02*
X28666666Y-11101950D01*
X28666666Y-11101950D02*
X28590476Y-11178140D01*
X28590476Y-11178140D02*
X28552381Y-11254331D01*
X28552381Y-11254331D02*
X28514285Y-11406712D01*
X28514285Y-11406712D02*
X28514285Y-11520998D01*
X28514285Y-11520998D02*
X28552381Y-11673379D01*
X28552381Y-11673379D02*
X28590476Y-11749569D01*
X28590476Y-11749569D02*
X28666666Y-11825760D01*
X28666666Y-11825760D02*
X28780952Y-11863855D01*
X28780952Y-11863855D02*
X28971428Y-11863855D01*
X27180952Y-11063855D02*
X27561904Y-11063855D01*
X27561904Y-11063855D02*
X27600000Y-11444807D01*
X27600000Y-11444807D02*
X27561904Y-11406712D01*
X27561904Y-11406712D02*
X27485714Y-11368617D01*
X27485714Y-11368617D02*
X27295238Y-11368617D01*
X27295238Y-11368617D02*
X27219047Y-11406712D01*
X27219047Y-11406712D02*
X27180952Y-11444807D01*
X27180952Y-11444807D02*
X27142857Y-11520998D01*
X27142857Y-11520998D02*
X27142857Y-11711474D01*
X27142857Y-11711474D02*
X27180952Y-11787664D01*
X27180952Y-11787664D02*
X27219047Y-11825760D01*
X27219047Y-11825760D02*
X27295238Y-11863855D01*
X27295238Y-11863855D02*
X27485714Y-11863855D01*
X27485714Y-11863855D02*
X27561904Y-11825760D01*
X27561904Y-11825760D02*
X27600000Y-11787664D01*
X26914285Y-11063855D02*
X26647618Y-11863855D01*
X26647618Y-11863855D02*
X26380952Y-11063855D01*
X32495238Y-168563855D02*
X32495238Y-169135283D01*
X32495238Y-169135283D02*
X32533333Y-169249569D01*
X32533333Y-169249569D02*
X32609524Y-169325760D01*
X32609524Y-169325760D02*
X32723809Y-169363855D01*
X32723809Y-169363855D02*
X32800000Y-169363855D01*
X31695238Y-169363855D02*
X32152381Y-169363855D01*
X31923809Y-169363855D02*
X31923809Y-168563855D01*
X31923809Y-168563855D02*
X32000000Y-168678140D01*
X32000000Y-168678140D02*
X32076190Y-168754331D01*
X32076190Y-168754331D02*
X32152381Y-168792426D01*
X30171428Y-168525760D02*
X30857142Y-169554331D01*
X29333333Y-169135283D02*
X28952380Y-169135283D01*
X29409523Y-169363855D02*
X29142856Y-168563855D01*
X29142856Y-168563855D02*
X28876190Y-169363855D01*
X28152380Y-169363855D02*
X28419047Y-168982902D01*
X28609523Y-169363855D02*
X28609523Y-168563855D01*
X28609523Y-168563855D02*
X28304761Y-168563855D01*
X28304761Y-168563855D02*
X28228571Y-168601950D01*
X28228571Y-168601950D02*
X28190476Y-168640045D01*
X28190476Y-168640045D02*
X28152380Y-168716236D01*
X28152380Y-168716236D02*
X28152380Y-168830521D01*
X28152380Y-168830521D02*
X28190476Y-168906712D01*
X28190476Y-168906712D02*
X28228571Y-168944807D01*
X28228571Y-168944807D02*
X28304761Y-168982902D01*
X28304761Y-168982902D02*
X28609523Y-168982902D01*
X27809523Y-169363855D02*
X27809523Y-168563855D01*
X27809523Y-168563855D02*
X27542857Y-169135283D01*
X27542857Y-169135283D02*
X27276190Y-168563855D01*
X27276190Y-168563855D02*
X27276190Y-169363855D01*
X56647619Y-19536987D02*
X56647619Y-20225082D01*
X56647619Y-20225082D02*
X56607142Y-20306034D01*
X56607142Y-20306034D02*
X56566666Y-20346511D01*
X56566666Y-20346511D02*
X56485714Y-20386987D01*
X56485714Y-20386987D02*
X56323809Y-20386987D01*
X56323809Y-20386987D02*
X56242857Y-20346511D01*
X56242857Y-20346511D02*
X56202380Y-20306034D01*
X56202380Y-20306034D02*
X56161904Y-20225082D01*
X56161904Y-20225082D02*
X56161904Y-19536987D01*
X55838095Y-19536987D02*
X55311904Y-19536987D01*
X55311904Y-19536987D02*
X55595238Y-19860796D01*
X55595238Y-19860796D02*
X55473809Y-19860796D01*
X55473809Y-19860796D02*
X55392857Y-19901272D01*
X55392857Y-19901272D02*
X55352381Y-19941749D01*
X55352381Y-19941749D02*
X55311904Y-20022701D01*
X55311904Y-20022701D02*
X55311904Y-20225082D01*
X55311904Y-20225082D02*
X55352381Y-20306034D01*
X55352381Y-20306034D02*
X55392857Y-20346511D01*
X55392857Y-20346511D02*
X55473809Y-20386987D01*
X55473809Y-20386987D02*
X55716666Y-20386987D01*
X55716666Y-20386987D02*
X55797619Y-20346511D01*
X55797619Y-20346511D02*
X55838095Y-20306034D01*
X56647619Y-39536987D02*
X56647619Y-40225082D01*
X56647619Y-40225082D02*
X56607142Y-40306034D01*
X56607142Y-40306034D02*
X56566666Y-40346511D01*
X56566666Y-40346511D02*
X56485714Y-40386987D01*
X56485714Y-40386987D02*
X56323809Y-40386987D01*
X56323809Y-40386987D02*
X56242857Y-40346511D01*
X56242857Y-40346511D02*
X56202380Y-40306034D01*
X56202380Y-40306034D02*
X56161904Y-40225082D01*
X56161904Y-40225082D02*
X56161904Y-39536987D01*
X55392857Y-39820320D02*
X55392857Y-40386987D01*
X55595238Y-39496511D02*
X55797619Y-40103653D01*
X55797619Y-40103653D02*
X55271428Y-40103653D01*
X56647619Y-49536987D02*
X56647619Y-50225082D01*
X56647619Y-50225082D02*
X56607142Y-50306034D01*
X56607142Y-50306034D02*
X56566666Y-50346511D01*
X56566666Y-50346511D02*
X56485714Y-50386987D01*
X56485714Y-50386987D02*
X56323809Y-50386987D01*
X56323809Y-50386987D02*
X56242857Y-50346511D01*
X56242857Y-50346511D02*
X56202380Y-50306034D01*
X56202380Y-50306034D02*
X56161904Y-50225082D01*
X56161904Y-50225082D02*
X56161904Y-49536987D01*
X55311904Y-50386987D02*
X55797619Y-50386987D01*
X55554762Y-50386987D02*
X55554762Y-49536987D01*
X55554762Y-49536987D02*
X55635714Y-49658415D01*
X55635714Y-49658415D02*
X55716666Y-49739368D01*
X55716666Y-49739368D02*
X55797619Y-49779844D01*
X56647619Y-59536987D02*
X56647619Y-60225082D01*
X56647619Y-60225082D02*
X56607142Y-60306034D01*
X56607142Y-60306034D02*
X56566666Y-60346511D01*
X56566666Y-60346511D02*
X56485714Y-60386987D01*
X56485714Y-60386987D02*
X56323809Y-60386987D01*
X56323809Y-60386987D02*
X56242857Y-60346511D01*
X56242857Y-60346511D02*
X56202380Y-60306034D01*
X56202380Y-60306034D02*
X56161904Y-60225082D01*
X56161904Y-60225082D02*
X56161904Y-59536987D01*
X55352381Y-59536987D02*
X55757143Y-59536987D01*
X55757143Y-59536987D02*
X55797619Y-59941749D01*
X55797619Y-59941749D02*
X55757143Y-59901272D01*
X55757143Y-59901272D02*
X55676190Y-59860796D01*
X55676190Y-59860796D02*
X55473809Y-59860796D01*
X55473809Y-59860796D02*
X55392857Y-59901272D01*
X55392857Y-59901272D02*
X55352381Y-59941749D01*
X55352381Y-59941749D02*
X55311904Y-60022701D01*
X55311904Y-60022701D02*
X55311904Y-60225082D01*
X55311904Y-60225082D02*
X55352381Y-60306034D01*
X55352381Y-60306034D02*
X55392857Y-60346511D01*
X55392857Y-60346511D02*
X55473809Y-60386987D01*
X55473809Y-60386987D02*
X55676190Y-60386987D01*
X55676190Y-60386987D02*
X55757143Y-60346511D01*
X55757143Y-60346511D02*
X55797619Y-60306034D01*
X56647619Y-79536987D02*
X56647619Y-80225082D01*
X56647619Y-80225082D02*
X56607142Y-80306034D01*
X56607142Y-80306034D02*
X56566666Y-80346511D01*
X56566666Y-80346511D02*
X56485714Y-80386987D01*
X56485714Y-80386987D02*
X56323809Y-80386987D01*
X56323809Y-80386987D02*
X56242857Y-80346511D01*
X56242857Y-80346511D02*
X56202380Y-80306034D01*
X56202380Y-80306034D02*
X56161904Y-80225082D01*
X56161904Y-80225082D02*
X56161904Y-79536987D01*
X55392857Y-79536987D02*
X55554762Y-79536987D01*
X55554762Y-79536987D02*
X55635714Y-79577463D01*
X55635714Y-79577463D02*
X55676190Y-79617939D01*
X55676190Y-79617939D02*
X55757143Y-79739368D01*
X55757143Y-79739368D02*
X55797619Y-79901272D01*
X55797619Y-79901272D02*
X55797619Y-80225082D01*
X55797619Y-80225082D02*
X55757143Y-80306034D01*
X55757143Y-80306034D02*
X55716666Y-80346511D01*
X55716666Y-80346511D02*
X55635714Y-80386987D01*
X55635714Y-80386987D02*
X55473809Y-80386987D01*
X55473809Y-80386987D02*
X55392857Y-80346511D01*
X55392857Y-80346511D02*
X55352381Y-80306034D01*
X55352381Y-80306034D02*
X55311904Y-80225082D01*
X55311904Y-80225082D02*
X55311904Y-80022701D01*
X55311904Y-80022701D02*
X55352381Y-79941749D01*
X55352381Y-79941749D02*
X55392857Y-79901272D01*
X55392857Y-79901272D02*
X55473809Y-79860796D01*
X55473809Y-79860796D02*
X55635714Y-79860796D01*
X55635714Y-79860796D02*
X55716666Y-79901272D01*
X55716666Y-79901272D02*
X55757143Y-79941749D01*
X55757143Y-79941749D02*
X55797619Y-80022701D01*
X56647619Y-99536987D02*
X56647619Y-100225082D01*
X56647619Y-100225082D02*
X56607142Y-100306034D01*
X56607142Y-100306034D02*
X56566666Y-100346511D01*
X56566666Y-100346511D02*
X56485714Y-100386987D01*
X56485714Y-100386987D02*
X56323809Y-100386987D01*
X56323809Y-100386987D02*
X56242857Y-100346511D01*
X56242857Y-100346511D02*
X56202380Y-100306034D01*
X56202380Y-100306034D02*
X56161904Y-100225082D01*
X56161904Y-100225082D02*
X56161904Y-99536987D01*
X55838095Y-99536987D02*
X55271428Y-99536987D01*
X55271428Y-99536987D02*
X55635714Y-100386987D01*
X56647619Y-119536987D02*
X56647619Y-120225082D01*
X56647619Y-120225082D02*
X56607142Y-120306034D01*
X56607142Y-120306034D02*
X56566666Y-120346511D01*
X56566666Y-120346511D02*
X56485714Y-120386987D01*
X56485714Y-120386987D02*
X56323809Y-120386987D01*
X56323809Y-120386987D02*
X56242857Y-120346511D01*
X56242857Y-120346511D02*
X56202380Y-120306034D01*
X56202380Y-120306034D02*
X56161904Y-120225082D01*
X56161904Y-120225082D02*
X56161904Y-119536987D01*
X55635714Y-119901272D02*
X55716666Y-119860796D01*
X55716666Y-119860796D02*
X55757143Y-119820320D01*
X55757143Y-119820320D02*
X55797619Y-119739368D01*
X55797619Y-119739368D02*
X55797619Y-119698891D01*
X55797619Y-119698891D02*
X55757143Y-119617939D01*
X55757143Y-119617939D02*
X55716666Y-119577463D01*
X55716666Y-119577463D02*
X55635714Y-119536987D01*
X55635714Y-119536987D02*
X55473809Y-119536987D01*
X55473809Y-119536987D02*
X55392857Y-119577463D01*
X55392857Y-119577463D02*
X55352381Y-119617939D01*
X55352381Y-119617939D02*
X55311904Y-119698891D01*
X55311904Y-119698891D02*
X55311904Y-119739368D01*
X55311904Y-119739368D02*
X55352381Y-119820320D01*
X55352381Y-119820320D02*
X55392857Y-119860796D01*
X55392857Y-119860796D02*
X55473809Y-119901272D01*
X55473809Y-119901272D02*
X55635714Y-119901272D01*
X55635714Y-119901272D02*
X55716666Y-119941749D01*
X55716666Y-119941749D02*
X55757143Y-119982225D01*
X55757143Y-119982225D02*
X55797619Y-120063177D01*
X55797619Y-120063177D02*
X55797619Y-120225082D01*
X55797619Y-120225082D02*
X55757143Y-120306034D01*
X55757143Y-120306034D02*
X55716666Y-120346511D01*
X55716666Y-120346511D02*
X55635714Y-120386987D01*
X55635714Y-120386987D02*
X55473809Y-120386987D01*
X55473809Y-120386987D02*
X55392857Y-120346511D01*
X55392857Y-120346511D02*
X55352381Y-120306034D01*
X55352381Y-120306034D02*
X55311904Y-120225082D01*
X55311904Y-120225082D02*
X55311904Y-120063177D01*
X55311904Y-120063177D02*
X55352381Y-119982225D01*
X55352381Y-119982225D02*
X55392857Y-119941749D01*
X55392857Y-119941749D02*
X55473809Y-119901272D01*
X56647619Y-129536987D02*
X56647619Y-130225082D01*
X56647619Y-130225082D02*
X56607142Y-130306034D01*
X56607142Y-130306034D02*
X56566666Y-130346511D01*
X56566666Y-130346511D02*
X56485714Y-130386987D01*
X56485714Y-130386987D02*
X56323809Y-130386987D01*
X56323809Y-130386987D02*
X56242857Y-130346511D01*
X56242857Y-130346511D02*
X56202380Y-130306034D01*
X56202380Y-130306034D02*
X56161904Y-130225082D01*
X56161904Y-130225082D02*
X56161904Y-129536987D01*
X55797619Y-129617939D02*
X55757143Y-129577463D01*
X55757143Y-129577463D02*
X55676190Y-129536987D01*
X55676190Y-129536987D02*
X55473809Y-129536987D01*
X55473809Y-129536987D02*
X55392857Y-129577463D01*
X55392857Y-129577463D02*
X55352381Y-129617939D01*
X55352381Y-129617939D02*
X55311904Y-129698891D01*
X55311904Y-129698891D02*
X55311904Y-129779844D01*
X55311904Y-129779844D02*
X55352381Y-129901272D01*
X55352381Y-129901272D02*
X55838095Y-130386987D01*
X55838095Y-130386987D02*
X55311904Y-130386987D01*
X56647619Y-139536987D02*
X56647619Y-140225082D01*
X56647619Y-140225082D02*
X56607142Y-140306034D01*
X56607142Y-140306034D02*
X56566666Y-140346511D01*
X56566666Y-140346511D02*
X56485714Y-140386987D01*
X56485714Y-140386987D02*
X56323809Y-140386987D01*
X56323809Y-140386987D02*
X56242857Y-140346511D01*
X56242857Y-140346511D02*
X56202380Y-140306034D01*
X56202380Y-140306034D02*
X56161904Y-140225082D01*
X56161904Y-140225082D02*
X56161904Y-139536987D01*
X55716666Y-140386987D02*
X55554762Y-140386987D01*
X55554762Y-140386987D02*
X55473809Y-140346511D01*
X55473809Y-140346511D02*
X55433333Y-140306034D01*
X55433333Y-140306034D02*
X55352381Y-140184606D01*
X55352381Y-140184606D02*
X55311904Y-140022701D01*
X55311904Y-140022701D02*
X55311904Y-139698891D01*
X55311904Y-139698891D02*
X55352381Y-139617939D01*
X55352381Y-139617939D02*
X55392857Y-139577463D01*
X55392857Y-139577463D02*
X55473809Y-139536987D01*
X55473809Y-139536987D02*
X55635714Y-139536987D01*
X55635714Y-139536987D02*
X55716666Y-139577463D01*
X55716666Y-139577463D02*
X55757143Y-139617939D01*
X55757143Y-139617939D02*
X55797619Y-139698891D01*
X55797619Y-139698891D02*
X55797619Y-139901272D01*
X55797619Y-139901272D02*
X55757143Y-139982225D01*
X55757143Y-139982225D02*
X55716666Y-140022701D01*
X55716666Y-140022701D02*
X55635714Y-140063177D01*
X55635714Y-140063177D02*
X55473809Y-140063177D01*
X55473809Y-140063177D02*
X55392857Y-140022701D01*
X55392857Y-140022701D02*
X55352381Y-139982225D01*
X55352381Y-139982225D02*
X55311904Y-139901272D01*
X57052381Y-159536987D02*
X57052381Y-160225082D01*
X57052381Y-160225082D02*
X57011904Y-160306034D01*
X57011904Y-160306034D02*
X56971428Y-160346511D01*
X56971428Y-160346511D02*
X56890476Y-160386987D01*
X56890476Y-160386987D02*
X56728571Y-160386987D01*
X56728571Y-160386987D02*
X56647619Y-160346511D01*
X56647619Y-160346511D02*
X56607142Y-160306034D01*
X56607142Y-160306034D02*
X56566666Y-160225082D01*
X56566666Y-160225082D02*
X56566666Y-159536987D01*
X55716666Y-160386987D02*
X56202381Y-160386987D01*
X55959524Y-160386987D02*
X55959524Y-159536987D01*
X55959524Y-159536987D02*
X56040476Y-159658415D01*
X56040476Y-159658415D02*
X56121428Y-159739368D01*
X56121428Y-159739368D02*
X56202381Y-159779844D01*
X55190476Y-159536987D02*
X55109523Y-159536987D01*
X55109523Y-159536987D02*
X55028571Y-159577463D01*
X55028571Y-159577463D02*
X54988095Y-159617939D01*
X54988095Y-159617939D02*
X54947619Y-159698891D01*
X54947619Y-159698891D02*
X54907142Y-159860796D01*
X54907142Y-159860796D02*
X54907142Y-160063177D01*
X54907142Y-160063177D02*
X54947619Y-160225082D01*
X54947619Y-160225082D02*
X54988095Y-160306034D01*
X54988095Y-160306034D02*
X55028571Y-160346511D01*
X55028571Y-160346511D02*
X55109523Y-160386987D01*
X55109523Y-160386987D02*
X55190476Y-160386987D01*
X55190476Y-160386987D02*
X55271428Y-160346511D01*
X55271428Y-160346511D02*
X55311904Y-160306034D01*
X55311904Y-160306034D02*
X55352381Y-160225082D01*
X55352381Y-160225082D02*
X55392857Y-160063177D01*
X55392857Y-160063177D02*
X55392857Y-159860796D01*
X55392857Y-159860796D02*
X55352381Y-159698891D01*
X55352381Y-159698891D02*
X55311904Y-159617939D01*
X55311904Y-159617939D02*
X55271428Y-159577463D01*
X55271428Y-159577463D02*
X55190476Y-159536987D01*
M02*
