%TF.GenerationSoftware,KiCad,Pcbnew,10.0.6*%
%TF.CreationDate,2026-10-04T18:43:37+09:00*%
%TF.ProjectId,panel_8faces_16ch,70616e65-6c5f-4386-9661-6365735f3136,rev?*%
%TF.SameCoordinates,Original*%
%TF.FileFunction,Soldermask,Bot*%
%TF.FilePolarity,Negative*%
%FSLAX46Y46*%
G04 Gerber Fmt 4.6, Leading zero omitted, Abs format (unit mm)*
G04 Created by KiCad (PCBNEW 10.0.6) date 2026-10-04 18:43:37*
%MOMM*%
%LPD*%
G01*
G04 APERTURE LIST*
G04 Aperture macros list*
%AMRoundRect*
0 Rectangle with rounded corners*
0 $1 Rounding radius*
0 $2 $3 $4 $5 $6 $7 $8 $9 X,Y pos of 4 corners*
0 Add a 4 corners polygon primitive as box body*
4,1,4,$2,$3,$4,$5,$6,$7,$8,$9,$2,$3,0*
0 Add four circle primitives for the rounded corners*
1,1,$1+$1,$2,$3*
1,1,$1+$1,$4,$5*
1,1,$1+$1,$6,$7*
1,1,$1+$1,$8,$9*
0 Add four rect primitives between the rounded corners*
20,1,$1+$1,$2,$3,$4,$5,0*
20,1,$1+$1,$4,$5,$6,$7,0*
20,1,$1+$1,$6,$7,$8,$9,0*
20,1,$1+$1,$8,$9,$2,$3,0*%
G04 Aperture macros list end*
%ADD10C,3.200000*%
%ADD11R,2.800000X2.800000*%
%ADD12C,2.800000*%
%ADD13RoundRect,0.250000X-0.550000X-0.550000X0.550000X-0.550000X0.550000X0.550000X-0.550000X0.550000X0*%
%ADD14C,1.600000*%
%ADD15RoundRect,0.250000X-0.250000X-0.475000X0.250000X-0.475000X0.250000X0.475000X-0.250000X0.475000X0*%
%ADD16RoundRect,0.250000X-0.262500X-0.450000X0.262500X-0.450000X0.262500X0.450000X-0.262500X0.450000X0*%
%ADD17R,1.700000X1.700000*%
%ADD18C,1.700000*%
%ADD19RoundRect,0.150000X-0.825000X-0.150000X0.825000X-0.150000X0.825000X0.150000X-0.825000X0.150000X0*%
%ADD20RoundRect,0.150000X-0.587500X-0.150000X0.587500X-0.150000X0.587500X0.150000X-0.587500X0.150000X0*%
G04 APERTURE END LIST*
D10*
%TO.C,H2*%
X44500000Y-5000000D03*
%TD*%
D11*
%TO.C,T10*%
X33000000Y-95000000D03*
D12*
X33000000Y-105000000D03*
%TD*%
D10*
%TO.C,H4*%
X44500000Y-175000000D03*
%TD*%
D11*
%TO.C,T1*%
X15000000Y-15000000D03*
D12*
X15000000Y-25000000D03*
%TD*%
D11*
%TO.C,T6*%
X33000000Y-55000000D03*
D12*
X33000000Y-65000000D03*
%TD*%
D10*
%TO.C,H3*%
X3500000Y-175000000D03*
%TD*%
D11*
%TO.C,T9*%
X15000000Y-95000000D03*
D12*
X15000000Y-105000000D03*
%TD*%
D11*
%TO.C,T15*%
X15000000Y-155000000D03*
D12*
X15000000Y-165000000D03*
%TD*%
D11*
%TO.C,T11*%
X15000000Y-115000000D03*
D12*
X15000000Y-125000000D03*
%TD*%
D11*
%TO.C,T13*%
X15000000Y-135000000D03*
D12*
X15000000Y-145000000D03*
%TD*%
D11*
%TO.C,T16*%
X33000000Y-155000000D03*
D12*
X33000000Y-165000000D03*
%TD*%
D11*
%TO.C,T8*%
X33000000Y-75000000D03*
D12*
X33000000Y-85000000D03*
%TD*%
D11*
%TO.C,T2*%
X33000000Y-15000000D03*
D12*
X33000000Y-25000000D03*
%TD*%
D11*
%TO.C,T12*%
X33000000Y-115000000D03*
D12*
X33000000Y-125000000D03*
%TD*%
D11*
%TO.C,T7*%
X15000000Y-75000000D03*
D12*
X15000000Y-85000000D03*
%TD*%
D11*
%TO.C,T3*%
X15000000Y-35000000D03*
D12*
X15000000Y-45000000D03*
%TD*%
D11*
%TO.C,T5*%
X15000000Y-55000000D03*
D12*
X15000000Y-65000000D03*
%TD*%
D11*
%TO.C,T14*%
X33000000Y-135000000D03*
D12*
X33000000Y-145000000D03*
%TD*%
D11*
%TO.C,T4*%
X33000000Y-35000000D03*
D12*
X33000000Y-45000000D03*
%TD*%
D10*
%TO.C,H1*%
X3500000Y-5000000D03*
%TD*%
D13*
%TO.C,C19*%
X37000000Y-7000000D03*
D14*
X39500000Y-7000000D03*
%TD*%
D15*
%TO.C,C9*%
X29050000Y-50000000D03*
X30950000Y-50000000D03*
%TD*%
D16*
%TO.C,R4*%
X16087500Y-48000000D03*
X17912500Y-48000000D03*
%TD*%
D17*
%TO.C,J1*%
X18920000Y-173000000D03*
D18*
X18920000Y-175540000D03*
X21460000Y-173000000D03*
X21460000Y-175540000D03*
X24000000Y-173000000D03*
X24000000Y-175540000D03*
X26540000Y-173000000D03*
X26540000Y-175540000D03*
X29080000Y-173000000D03*
X29080000Y-175540000D03*
%TD*%
D16*
%TO.C,R21*%
X6087500Y-177000000D03*
X7912500Y-177000000D03*
%TD*%
D15*
%TO.C,C1*%
X30050000Y-19000000D03*
X31950000Y-19000000D03*
%TD*%
D19*
%TO.C,U6*%
X21525000Y-81905000D03*
X21525000Y-80635000D03*
X21525000Y-79365000D03*
X21525000Y-78095000D03*
X26475000Y-78095000D03*
X26475000Y-79365000D03*
X26475000Y-80635000D03*
X26475000Y-81905000D03*
%TD*%
D16*
%TO.C,R20*%
X6087500Y-171000000D03*
X7912500Y-171000000D03*
%TD*%
%TO.C,R24*%
X6087500Y-164000000D03*
X7912500Y-164000000D03*
%TD*%
%TO.C,R5*%
X16087500Y-58000000D03*
X17912500Y-58000000D03*
%TD*%
%TO.C,R12*%
X16087500Y-128000000D03*
X17912500Y-128000000D03*
%TD*%
D15*
%TO.C,C13*%
X29050000Y-66000000D03*
X30950000Y-66000000D03*
%TD*%
D19*
%TO.C,U10*%
X21525000Y-161905000D03*
X21525000Y-160635000D03*
X21525000Y-159365000D03*
X21525000Y-158095000D03*
X26475000Y-158095000D03*
X26475000Y-159365000D03*
X26475000Y-160635000D03*
X26475000Y-161905000D03*
%TD*%
D16*
%TO.C,R15*%
X16087500Y-158000000D03*
X17912500Y-158000000D03*
%TD*%
%TO.C,R13*%
X16087500Y-138000000D03*
X17912500Y-138000000D03*
%TD*%
%TO.C,R2*%
X16087500Y-28000000D03*
X17912500Y-28000000D03*
%TD*%
D19*
%TO.C,U9*%
X21525000Y-141905000D03*
X21525000Y-140635000D03*
X21525000Y-139365000D03*
X21525000Y-138095000D03*
X26475000Y-138095000D03*
X26475000Y-139365000D03*
X26475000Y-140635000D03*
X26475000Y-141905000D03*
%TD*%
D16*
%TO.C,R7*%
X16087500Y-78000000D03*
X17912500Y-78000000D03*
%TD*%
D19*
%TO.C,U7*%
X21525000Y-101905000D03*
X21525000Y-100635000D03*
X21525000Y-99365000D03*
X21525000Y-98095000D03*
X26475000Y-98095000D03*
X26475000Y-99365000D03*
X26475000Y-100635000D03*
X26475000Y-101905000D03*
%TD*%
D15*
%TO.C,C4*%
X30050000Y-79000000D03*
X31950000Y-79000000D03*
%TD*%
D16*
%TO.C,R22*%
X6087500Y-151000000D03*
X7912500Y-151000000D03*
%TD*%
D15*
%TO.C,C17*%
X29050000Y-146000000D03*
X30950000Y-146000000D03*
%TD*%
%TO.C,C10*%
X29050000Y-130000000D03*
X30950000Y-130000000D03*
%TD*%
D16*
%TO.C,R14*%
X16087500Y-148000000D03*
X17912500Y-148000000D03*
%TD*%
D19*
%TO.C,U4*%
X21525000Y-41905000D03*
X21525000Y-40635000D03*
X21525000Y-39365000D03*
X21525000Y-38095000D03*
X26475000Y-38095000D03*
X26475000Y-39365000D03*
X26475000Y-40635000D03*
X26475000Y-41905000D03*
%TD*%
D15*
%TO.C,C11*%
X29050000Y-26000000D03*
X30950000Y-26000000D03*
%TD*%
D16*
%TO.C,R18*%
X40087500Y-176000000D03*
X41912500Y-176000000D03*
%TD*%
D19*
%TO.C,U5*%
X21525000Y-61905000D03*
X21525000Y-60635000D03*
X21525000Y-59365000D03*
X21525000Y-58095000D03*
X26475000Y-58095000D03*
X26475000Y-59365000D03*
X26475000Y-60635000D03*
X26475000Y-61905000D03*
%TD*%
D15*
%TO.C,C3*%
X30050000Y-59000000D03*
X31950000Y-59000000D03*
%TD*%
D19*
%TO.C,U2*%
X21525000Y-134445000D03*
X21525000Y-133175000D03*
X21525000Y-131905000D03*
X21525000Y-130635000D03*
X21525000Y-129365000D03*
X21525000Y-128095000D03*
X21525000Y-126825000D03*
X21525000Y-125555000D03*
X26475000Y-125555000D03*
X26475000Y-126825000D03*
X26475000Y-128095000D03*
X26475000Y-129365000D03*
X26475000Y-130635000D03*
X26475000Y-131905000D03*
X26475000Y-133175000D03*
X26475000Y-134445000D03*
%TD*%
D16*
%TO.C,R16*%
X16087500Y-168000000D03*
X17912500Y-168000000D03*
%TD*%
D15*
%TO.C,C6*%
X30050000Y-119000000D03*
X31950000Y-119000000D03*
%TD*%
D16*
%TO.C,R6*%
X16087500Y-68000000D03*
X17912500Y-68000000D03*
%TD*%
D15*
%TO.C,C7*%
X30050000Y-139000000D03*
X31950000Y-139000000D03*
%TD*%
%TO.C,C18*%
X29050000Y-166000000D03*
X30950000Y-166000000D03*
%TD*%
%TO.C,C15*%
X29050000Y-106000000D03*
X30950000Y-106000000D03*
%TD*%
D16*
%TO.C,R8*%
X16087500Y-88000000D03*
X17912500Y-88000000D03*
%TD*%
D15*
%TO.C,C16*%
X29050000Y-126000000D03*
X30950000Y-126000000D03*
%TD*%
D16*
%TO.C,R9*%
X16087500Y-98000000D03*
X17912500Y-98000000D03*
%TD*%
D15*
%TO.C,C20*%
X16050000Y-10000000D03*
X17950000Y-10000000D03*
%TD*%
D16*
%TO.C,R1*%
X16087500Y-18000000D03*
X17912500Y-18000000D03*
%TD*%
%TO.C,R10*%
X16087500Y-108000000D03*
X17912500Y-108000000D03*
%TD*%
%TO.C,R19*%
X40087500Y-157000000D03*
X41912500Y-157000000D03*
%TD*%
D15*
%TO.C,C8*%
X30050000Y-159000000D03*
X31950000Y-159000000D03*
%TD*%
D16*
%TO.C,R11*%
X16087500Y-118000000D03*
X17912500Y-118000000D03*
%TD*%
%TO.C,R23*%
X6087500Y-158000000D03*
X7912500Y-158000000D03*
%TD*%
D19*
%TO.C,U1*%
X21525000Y-54445000D03*
X21525000Y-53175000D03*
X21525000Y-51905000D03*
X21525000Y-50635000D03*
X21525000Y-49365000D03*
X21525000Y-48095000D03*
X21525000Y-46825000D03*
X21525000Y-45555000D03*
X26475000Y-45555000D03*
X26475000Y-46825000D03*
X26475000Y-48095000D03*
X26475000Y-49365000D03*
X26475000Y-50635000D03*
X26475000Y-51905000D03*
X26475000Y-53175000D03*
X26475000Y-54445000D03*
%TD*%
D16*
%TO.C,R25*%
X6087500Y-144000000D03*
X7912500Y-144000000D03*
%TD*%
D19*
%TO.C,U8*%
X21525000Y-121905000D03*
X21525000Y-120635000D03*
X21525000Y-119365000D03*
X21525000Y-118095000D03*
X26475000Y-118095000D03*
X26475000Y-119365000D03*
X26475000Y-120635000D03*
X26475000Y-121905000D03*
%TD*%
D16*
%TO.C,R17*%
X40087500Y-164000000D03*
X41912500Y-164000000D03*
%TD*%
D19*
%TO.C,U3*%
X21525000Y-21905000D03*
X21525000Y-20635000D03*
X21525000Y-19365000D03*
X21525000Y-18095000D03*
X26475000Y-18095000D03*
X26475000Y-19365000D03*
X26475000Y-20635000D03*
X26475000Y-21905000D03*
%TD*%
D20*
%TO.C,Q1*%
X40062500Y-170950000D03*
X40062500Y-169050000D03*
X41937500Y-170000000D03*
%TD*%
D15*
%TO.C,C12*%
X29050000Y-46000000D03*
X30950000Y-46000000D03*
%TD*%
%TO.C,C2*%
X30050000Y-39000000D03*
X31950000Y-39000000D03*
%TD*%
D16*
%TO.C,R3*%
X16087500Y-38000000D03*
X17912500Y-38000000D03*
%TD*%
D15*
%TO.C,C14*%
X29050000Y-86000000D03*
X30950000Y-86000000D03*
%TD*%
%TO.C,C5*%
X30050000Y-99000000D03*
X31950000Y-99000000D03*
%TD*%
D17*
%TO.C,J2*%
X26540000Y-6000000D03*
D18*
X24000000Y-6000000D03*
X21460000Y-6000000D03*
%TD*%
M02*
