M48
; DRILL file KiCad 10.0.6 date 2026-10-04T18:30:17
; FORMAT={-:-/ absolute / metric / decimal}
; #@! TF.CreationDate,2026-10-04T18:30:17+09:00
; #@! TF.GenerationSoftware,Kicad,Pcbnew,10.0.6
; #@! TF.FileFunction,MixedPlating,1,2
FMAT,2
METRIC
; #@! TA.AperFunction,Plated,PTH,ViaDrill
T1C0.300
; #@! TA.AperFunction,Plated,PTH,ComponentDrill
T2C0.800
; #@! TA.AperFunction,Plated,PTH,ComponentDrill
T3C1.000
; #@! TA.AperFunction,Plated,PTH,ComponentDrill
T4C1.500
; #@! TA.AperFunction,NonPlated,NPTH,ComponentDrill
T5C3.200
%
G90
G05
T1
X5.909Y-145.896
X7.003Y-176.085
X11.428Y-154.094
X11.428Y-174.806
X16.087Y-29.214
X16.115Y-89.213
X16.996Y-48.909
X17.178Y-110.312
X17.898Y-79.38
X18.957Y-149.485
X19.265Y-49.715
X19.605Y-129.374
X19.934Y-59.365
X20.025Y-160.898
X20.211Y-18.769
X20.211Y-38.769
X20.211Y-98.769
X20.241Y-78.739
X20.241Y-158.739
X20.243Y-119.991
X20.246Y-50.009
X20.247Y-21.279
X20.247Y-79.991
X20.247Y-101.279
X20.253Y-135.266
X21.163Y-135.749
X21.525Y-57.284
X22.678Y-136.755
X22.799Y-127.469
X23.011Y-129.365
X23.027Y-47.698
X23.477Y-164.639
X23.805Y-170.972
X23.828Y-110.261
X24.035Y-153.185
X24.316Y-52.62
X24.475Y-132.549
X24.75Y-129.124
X24.829Y-19.101
X24.832Y-46.825
X24.969Y-48.095
X24.97Y-49.365
X24.976Y-51.996
X24.981Y-128.307
X24.987Y-133.175
X27.56Y-69.757
X28.11Y-165.06
X28.138Y-50.916
X28.202Y-64.977
X28.22Y-144.875
X28.827Y-128.749
X28.954Y-131.679
X29.05Y-27.35
X29.05Y-42.734
X29.671Y-122.495
X40.087Y-172.771
X41.711Y-165.413
T2
X37.0Y-7.0
X39.5Y-7.0
T3
X18.92Y-173.0
X18.92Y-175.54
X21.46Y-6.0
X21.46Y-173.0
X21.46Y-175.54
X24.0Y-6.0
X24.0Y-173.0
X24.0Y-175.54
X26.54Y-6.0
X26.54Y-173.0
X26.54Y-175.54
X29.08Y-173.0
X29.08Y-175.54
T4
X15.0Y-15.0
X15.0Y-25.0
X15.0Y-35.0
X15.0Y-45.0
X15.0Y-55.0
X15.0Y-65.0
X15.0Y-75.0
X15.0Y-85.0
X15.0Y-95.0
X15.0Y-105.0
X15.0Y-115.0
X15.0Y-125.0
X15.0Y-135.0
X15.0Y-145.0
X15.0Y-155.0
X15.0Y-165.0
X33.0Y-15.0
X33.0Y-25.0
X33.0Y-35.0
X33.0Y-45.0
X33.0Y-55.0
X33.0Y-65.0
X33.0Y-75.0
X33.0Y-85.0
X33.0Y-95.0
X33.0Y-105.0
X33.0Y-115.0
X33.0Y-125.0
X33.0Y-135.0
X33.0Y-145.0
X33.0Y-155.0
X33.0Y-165.0
T5
X3.5Y-5.0
X3.5Y-175.0
X44.5Y-5.0
X44.5Y-175.0
M30
